<svg xmlns="http://www.w3.org/2000/svg" viewBox="0 0 473.54 672.14"><title>editBox</title><g id="Layer_2" data-name="Layer 2"><g id="Layer_2-2" data-name="Layer 2"><path d="M4.16,49.35c-1.35,3.36.68,7.38,1,10.82.18,2.2,2,8,.42,9.55-1.1,1.06.5,2.55,1.64,1.64,2.38-1.9,1.19-5.49.77-8-.78-4.67-1.4-9.35-2.39-14-.16-.78-1.16-.6-1.4,0Z"/><path d="M3.52,107.11c1.09-.16,1.39-.1,2.15-.85l-1.64-1a18.33,18.33,0,0,0,.37,6.88A59.8,59.8,0,0,1,5.28,123a1.08,1.08,0,0,0,2.16,0,34.15,34.15,0,0,0-.16-8.69A50.87,50.87,0,0,1,6,105.57a1,1,0,0,0-1.82-.5,1.18,1.18,0,0,1-.93.89c-.76.18-.42,1.27.32,1.15Z"/><path d="M5.47,147A57.08,57.08,0,0,0,7,162.29c.3,1.2,2,.68,1.83-.51A98.63,98.63,0,0,1,7.25,147a.89.89,0,0,0-1.78,0Z"/><path d="M3.11,189.63c-5,1.47-2.52,12.29-2.28,15.9a1,1,0,0,0,2.06,0c.08-2.34-.17-4.69-.25-7-.06-1.67-.62-6.16,1.2-7.15a.94.94,0,0,0-.73-1.71Z"/><path d="M5.38,238.53a18,18,0,0,1,.36-2.3c.23-1.14-1.54-1.62-1.75-.48-.79,4.47,1.13,8.84,1.38,13.28a1,1,0,0,0,2,0c-.08-4.42-1.68-8.59-1.59-13L4,236.23a22.43,22.43,0,0,1,.36,2.3.52.52,0,0,0,1,0Z"/><path d="M2.61,266.82c-.29,2,.36,3.46,1,5.31.89,2.69.4,5.62.39,8.4a.89.89,0,0,0,1.78,0,36.28,36.28,0,0,0,0-7c-.36-2.27-1.63-4.16-1.64-6.51,0-.85-1.42-1.11-1.54-.21Z"/><path d="M4.86,308.27c2.07.09.34,2.38,0,3.19a19,19,0,0,0-.83,3.5A49.94,49.94,0,0,0,3.9,324a1,1,0,0,0,1.92,0c.12-5.19-.27-10.26,2.21-15a.88.88,0,0,0-.14-1,3.54,3.54,0,0,0-3-1.19.74.74,0,0,0,0,1.48Z"/><path d="M10.07,351.22l.18-.91c.12-.64-.58-1.4-1.22-.94a4.8,4.8,0,0,0-2.11,5c.14,1.35.62,2.64.88,4a41.57,41.57,0,0,1,.59,6.2,1,1,0,0,0,1.94,0,27.14,27.14,0,0,0-.38-6.3c-.51-2.58-2-5.25.08-7.55l-1.42-.58V351c0,.8,1.3,1,1.45.19Z"/><path d="M9.18,386.2c1.13.4,1.38,4.17,1.58,5.29a39.29,39.29,0,0,1,.65,6,1,1,0,0,0,1.9,0,50.78,50.78,0,0,0-1.81-12,1,1,0,0,0-.93-.71,3.51,3.51,0,0,1-1.21,0c-.83-.07-.89,1.13-.18,1.38Z"/><path d="M8.71,418.52a27.75,27.75,0,0,0-.25,7c.31,2.25,1.65,4.18,1.51,6.51-.07,1.16,1.67,1.12,1.78,0,.22-2.06-.64-3.55-1.22-5.47-.79-2.6-.31-5.36-.51-8a.66.66,0,0,0-1.31,0Z"/><path d="M12.36,461.32l-1.24.06a.82.82,0,0,0-.78.6c-1.39,4.25-.22,8.83-.76,13.21-.28,2.27-.91,5.05.62,7,.65.84,2.06-.25,1.47-1.13-1.24-1.85,0-5.57.15-7.61.1-1.58-1.3-10.28.73-10.74a.71.71,0,0,0-.19-1.38Z"/><path d="M11.75,502.16a12,12,0,0,1-1,1.39,5.35,5.35,0,0,0-.84,1.69c-.44,1.12,1.29,1.76,1.88.8a4.69,4.69,0,0,0,.79-1.73,9.36,9.36,0,0,1,.5-1.61c.28-.78-.86-1.17-1.29-.54Z"/><path d="M9.18,534.67c3,.84-.85,14.69-.71,17.35a.89.89,0,0,0,1.78,0c.49-5.92,2.92-12.06,1.1-17.95a.82.82,0,0,0-.74-.57l-1.25-.16c-.77-.11-.89,1.13-.18,1.33Z"/><path d="M10.86,572.26a5.16,5.16,0,0,1-1.24,0,1,1,0,0,0-.93.7c-1.44,4.68-1,10.48-.21,15.25.14.86,1.64.88,1.76,0,.34-2.47-2-13.62.82-14.52.76-.25.69-1.56-.2-1.48Z"/><path d="M11.77,608.85c-1.4,6.66-.19,13.4,1.17,19.92.25,1.23,2,.68,1.85-.51-.53-3.38-1.33-6.46-1.38-9.9,0-3.16.2-6.41-.46-9.51a.62.62,0,0,0-1.18,0Z"/><path d="M19.86,653.26c4.2.47,7.89.66,11.54,3,.85.56,1.92-.78,1.11-1.44-3.64-3-8.11-3.43-12.65-3.1a.75.75,0,0,0,0,1.5Z"/><path d="M72.84,665c3.47-3.67,9.94-2.66,14.52-2.71a.77.77,0,0,0,0-1.54c-4.94,0-11.94-1-15.48,3.29-.55.66.35,1.61,1,1Z"/><path d="M133.86,668.31l.83.06c1.1.08,1.1-1.64,0-1.72h-.16c-1.12-.09-1.11,1.66,0,1.74a20.11,20.11,0,0,0,2.33,0,.88.88,0,0,0,0-1.76,20.12,20.12,0,0,0-2.33,0c-1.11.08-1.12,1.83,0,1.74h.16c1.09-.08,1.1-1.81,0-1.72l-.83.06a.8.8,0,0,0,0,1.6Z"/><path d="M175.85,669.57a72.2,72.2,0,0,0,7.5.13.69.69,0,0,0,0-1.38,72.15,72.15,0,0,0-7.5.13.56.56,0,0,0,0,1.12Z"/><path d="M214.85,668.24c.51,0,1,.19,1.5.2s1,0,1.5-.05a.88.88,0,0,0,0-1.76c-.5,0-1-.06-1.5,0s-1,.17-1.5.2a.73.73,0,0,0,0,1.46Z"/><path d="M255.35,665.3c4,.11,8,.2,12,.08a.87.87,0,0,0,0-1.74c-4-.12-8,0-12,.08a.79.79,0,0,0,0,1.58Z"/><path d="M298.85,669.65c3.15.16,6,2.29,9.21,1.62.85-.18.67-1.63-.21-1.55-3.08.3-5.92-1.39-9-1.35a.64.64,0,0,0,0,1.28Z"/><path d="M333.35,671.2c2.72.15,5.51.58,8.18-.19,2.86-.81,5.22-2.58,8.32-2.54,1.24,0,1.21-1.83,0-1.92a12.48,12.48,0,0,0-6.48,1.53c-3.35,1.56-6.4,1.66-10,1.74a.69.69,0,0,0,0,1.38Z"/><path d="M372.34,666.7a79.63,79.63,0,0,0,9,.25.94.94,0,0,0,0-1.88,79.7,79.7,0,0,0-9,.25.69.69,0,0,0,0,1.38Z"/><path d="M402.34,665.2c5,.1,10,.26,15,.18a.87.87,0,0,0,0-1.74c-5-.08-10,.08-15,.18a.69.69,0,0,0,0,1.38Z"/><path d="M438.94,658.68c.38-1.6,3.79-.75,5.16-1,1.68-.35,2.94-1.45,4.74-1.22,1,.14,1.26-1.65.24-1.79a6.86,6.86,0,0,0-4.13.8c-2.11,1-4.33.62-6.53,1.2a.63.63,0,0,0-.46.46l-.22,1.26c-.13.77,1,1.12,1.2.33Z"/><path d="M459.82,650l1.48-1.52a.65.65,0,0,0-.92-.92L458.86,649c-.63.61.35,1.59,1,1Z"/><path d="M5.05,32.21c2.64-1,3.6-4.29,4.38-6.78,1.09-3.45,1-8.56,3.59-11.22a.94.94,0,0,0-1.32-1.33C9.37,15,9,18.33,8.42,21.23S7.15,29,4.51,30.94c-.57.42-.25,1.58.54,1.27Z"/><path d="M28.86,7c6-.69,12-1.36,18-1.48a1,1,0,0,0,0-1.9,137.46,137.46,0,0,0-18,1.53c-1.16.14-1.19,2,0,1.85Z"/><path d="M89.74,3.66c1.8,1.81,3.78,2.17,6.27,1.75A79.85,79.85,0,0,1,108.36,4a1,1,0,0,0,0-1.9,42.85,42.85,0,0,0-7.6.25c-3.15.5-7,2.73-9.78.08-.82-.78-2,.44-1.24,1.24Z"/><path d="M153.35,3.55h4.5a.52.52,0,0,0,0-1h-4.5a.51.51,0,0,0,0,1Z"/><path d="M204.35,3.72c3,0,6,.06,9,0a.73.73,0,0,0,0-1.45c-3,0-6,0-9,0a.68.68,0,0,0,0,1.36Z"/><path d="M243.35,6.82c4.29.12,10.8,2.09,14.08-1.7.68-.79-.44-1.94-1.16-1.16-2.87,3.11-9.19,1.34-12.92,1.31a.78.78,0,0,0,0,1.55Z"/><path d="M285.35,5.19c4.5.07,9,.17,13.5.14a.79.79,0,0,0,0-1.57c-4.5,0-9,.07-13.5.14a.65.65,0,0,0,0,1.29Z"/><path d="M325.85,3.89c1.8,0,4.08,1.24,5.88,1.56a32.93,32.93,0,0,0,5.35.17c4.76,0,9.51.08,14.27,0a1,1,0,0,0,0-2.09c-4.76-.12-9.52-.15-14.27,0a25.77,25.77,0,0,1-8.43-.92,5.9,5.9,0,0,0-2.8-.34c-1.08.07-1.1,1.71,0,1.69Z"/><path d="M375.34,5.21l-.46-.33-.7.92c4.74-1.5,9.8-.34,14.66-.34a.92.92,0,0,0,0-1.83c-5-.16-10.63-1.68-15.39.43a.93.93,0,0,0-.47.82c0,1.54.85,2.1,2.36,2a.83.83,0,0,0,0-1.66Z"/><path d="M423.34,2.54c3.5,0,7,0,10.5-.06a.94.94,0,0,0,0-1.87c-3.5-.11-7-.11-10.5-.06a1,1,0,0,0,0,2Z"/><path d="M457.55,5c1,.53,1.95,1.08,3,1.56.74.35,1.4-.73.65-1.11-1-.52-2-1-3-1.44-.66-.31-1.24.63-.58,1Z"/><path d="M463.84,39.5a.46.46,0,0,0,0-.92.46.46,0,0,0,0,.92Z"/><path d="M467.69,55.54c-.13,5.57-.66,11.26-.35,16.83.19,3.43.73,6.88,3.36,9.31.85.78,2.1-.45,1.28-1.28-2.93-3-2.63-7.79-2.68-11.67-.06-4.4-.2-8.79-.32-13.19a.65.65,0,0,0-1.29,0Z"/><path d="M472.36,95.56c-4.48,5.2-3.78,12.07-3.42,18.48a.9.9,0,0,0,1.8,0c.2-6.07-1.31-12.47,2.69-17.66.46-.61-.57-1.4-1.07-.82Z"/><path d="M470.67,126c-.12,5-.35,10-.19,15a.86.86,0,0,0,1.71,0c.16-5-.06-10-.18-15a.67.67,0,0,0-1.34,0Z"/><path d="M467.6,161.6c-2.1,3.72-1.82,7.61-1.85,11.77,0,5.72,0,11.44.06,17.16a1,1,0,0,0,2.06,0q.13-7.22.09-14.45c0-4.69-.66-9.39,1.2-13.82.38-.9-1.09-1.48-1.56-.66Z"/><path d="M470.64,200.84c-.42,2.11-1.68,4-1.72,6.19s1.19,4.11,1.59,6.23c.21,1.09,1.84.62,1.65-.45-.33-2-1.5-3.78-1.54-5.78s1.1-3.84,1.42-5.8c.15-.91-1.22-1.32-1.4-.39Z"/><path d="M470.61,229.11c-2.24,4.45-1.93,9.08-1.74,13.92a1,1,0,0,0,1.94,0c.12-4.47-.33-9,1.34-13.27.35-.89-1.11-1.5-1.54-.65Z"/><path d="M467.48,271.53c-.06,3.5-.08,7,0,10.5a.9.9,0,0,0,1.8,0q0-5.25-.05-10.5a.86.86,0,0,0-1.71,0Z"/><path d="M469.58,300.58c-6.72,1.91-4.09,14.05-3.87,18.95a1.13,1.13,0,0,0,2.25,0c.05-3.68-2.44-15.5,2.14-17a1,1,0,0,0-.52-1.9Z"/><path d="M466.15,342c.27,3.12-1.69,5.87-1.69,9a.88.88,0,0,0,1.76,0c.12-3.14,1.76-6,1.29-9.19-.12-.76-1.43-.59-1.36.19Z"/><path d="M466.56,369.52c-5.89,1-4.17,10.47-3.79,14.5a1.07,1.07,0,0,0,2.14,0c.18-2.9-1.63-11.53,2.21-12.49,1.32-.33.74-2.24-.56-2Z"/><path d="M464.74,405.93c-3.46,2.88-3.52,8.47-3.37,12.59a1,1,0,0,0,1.94,0c.25-3.66-.35-8.67,2.63-11.4.81-.74-.38-1.88-1.2-1.19Z"/><path d="M461.16,439.52c.12,3.06-2.51,5.24-3.12,8.17s-.13,5.79.26,8.62c.18,1.28,2,.82,2.12-.29.33-3.56-.35-7.1,1.34-10.41,1.05-2.07,2-3.69,1.76-6.09-.14-1.49-2.43-1.54-2.36,0Z"/><path d="M460.07,465c-.07,4.52.18,9-.58,13.42A58,58,0,0,0,458.16,489a1.18,1.18,0,0,0,2.36,0c.43-4,1.21-8,1.5-12s-.22-8-.41-12a.77.77,0,0,0-1.54,0Z"/><path d="M459.7,508.52c-.08,3.5-.24,7,0,10.5a1.14,1.14,0,0,0,2.28,0c.23-3.5.08-7,0-10.5a1.14,1.14,0,0,0-2.28,0Z"/><path d="M456.74,543c-.1,2.51-.48,5-.61,7.5s.44,5,.57,7.5a1.14,1.14,0,0,0,2.28,0c.11-2.52-.32-5-.25-7.5s.26-5,.21-7.5a1.1,1.1,0,0,0-2.2,0Z"/><path d="M461.81,576.6c-3.18,2.26-.79,8.32-.58,11.41.09,1.42,2.26,1.45,2.22,0a33.1,33.1,0,0,0-.55-4.54c-.15-.93-1-4.31,0-5.05s.06-2.61-1.06-1.82Z"/><path d="M462.61,604.51c0,3.4,1.26,8.3-1.12,11.15-.83,1,.23,2.69,1.46,1.89,4.09-2.64,2.27-9.06,2.12-13a1.23,1.23,0,0,0-2.46,0Z"/><path d="M462.89,632.75c-.44,2.28-2.24,4.07-1.51,6.53a1,1,0,0,0,2-.27c-.09-2.09,1.18-3.72,1.45-5.74.16-1.21-1.66-1.79-1.9-.52Z"/><path d="M459.9,647.75c-.59,3.3-3.72,8.85-7.77,8.2-1.36-.22-2,1.75-.58,2.12,5.68,1.49,9.65-5.29,10.26-10.06.14-1.08-1.71-1.33-1.91-.26Z"/><path d="M473,218.58a20.08,20.08,0,0,0-4.94-9.75c-1.48-1.61-3.88.79-2.4,2.4a16.9,16.9,0,0,1,4.06,8.25c.35,2.16,3.63,1.24,3.28-.9Z"/><path d="M129.71,3.94c-.55-.26-1.29-.53-1.45-1.23l-1.58,1.22c2.71,1.15,5.25-.7,7.91-1.19L133,.68c-.94,1.31-3.7,1.09-5.1,1.08-1.59,0-3.34-.36-4.9,0a1.32,1.32,0,0,0,0,2.53,23.53,23.53,0,0,0,7,.23c2.07-.17,4.2-.61,5.41-2.44C136.15,1,135-.22,133.85,0a25.35,25.35,0,0,0-3.4,1.19,21.18,21.18,0,0,1-3.52.74,1.09,1.09,0,0,0-.64,1.59,3.88,3.88,0,0,0,2.88,1.67c.74.17,1.29-.93.54-1.28Z"/><path d="M169.85,3.9c3.22.21,6.49.32,9.71.38a1.24,1.24,0,0,0,0-2.47l-7.08-.05a1.29,1.29,0,0,0,0,2.57c3.13,0,6.25.07,9.37,0a1.27,1.27,0,0,0,0-2.53c-3.12-.1-6.24-.05-9.37,0a1.29,1.29,0,0,0,0,2.57l7.08,0a1.24,1.24,0,0,0,0-2.47c-3.22.05-6.49.16-9.71.38a.86.86,0,0,0,0,1.71Z"/><path d="M225.88,5.51a13.32,13.32,0,0,0-2.51-2l-.57,2.09a60.55,60.55,0,0,0,6.6.2,1.21,1.21,0,0,0,0-2.41,47.57,47.57,0,0,0-7.36.08,1.17,1.17,0,0,0,0,2.24,47.57,47.57,0,0,0,7.36.09V3.34c-2.2,0-4.4.13-6.6,0-1.27-.09-1.5,1.89-.29,2.2a5.36,5.36,0,0,1,2.31,1.06c.73.6,1.76-.36,1.06-1.06Z"/><path d="M277.85,3.72c-2.35-.16-4.7-.23-7.05-.41V5.7a7.5,7.5,0,0,1,3.81,1.19l1.3-2.21a19.87,19.87,0,0,0-9.62-1.42c-1.66.1-1.65,2.72,0,2.58l1.06-.09a1.21,1.21,0,0,0,0-2.41l-1.06-.08V5.84A21.77,21.77,0,0,1,274.92,7c1.35.54,2.27-1.68,1-2.34a10.79,10.79,0,0,0-5.11-1.37,1.2,1.2,0,0,0,0,2.39c2.35,0,4.71-.16,7.05-.34a.82.82,0,0,0,0-1.64Z"/><path d="M315.35,2.23c-2.18-.23-4.05-.65-6.22,0a1.23,1.23,0,0,0-.87.87c-.46,2.08,1,3,2.93,2.72,1.43-.2,1.08-2.56-.34-2.5h-.5c.23.33.35.37.36.11l-.92,1.21a29.62,29.62,0,0,1,5.56-.74.81.81,0,0,0,0-1.62Z"/><path d="M401.55,6.24,402,5l-.59.6a1.87,1.87,0,0,1,1.32-.09l.85-2c-.37-.06-.6-.08-.74-.46L402,4.46a6.93,6.93,0,0,1,3-.3V1.79c-2.34-.1-5.1,0-7,1.55-.84.7-.1,2,.83,2,.56,0,1.12.13,1.67.21,1.31.19,1.92-1.72.56-2-.64-.15-1.29-.28-1.92-.49l.28,2.15a13.35,13.35,0,0,1,5.56-1,1.19,1.19,0,0,0,0-2.37,10,10,0,0,0-3.6.5,1.14,1.14,0,0,0-.78,1.38,2.91,2.91,0,0,0,2.61,2c1.35.18,1.43-2.12,0-2.18a4,4,0,0,0-2.35.45c-.73.46-.66,1.07-.79,1.9a.74.74,0,0,0,1.42.39Z"/><path d="M61.86,3.92l-1.07-.14c-.95-.12-1,1.43,0,1.51,4.58.37,9.2-.92,13.78-1.06a1.19,1.19,0,0,0,0-2.38l-8.92,0a1.22,1.22,0,0,0,0,2.44c2.24,0,4.47,0,6.71-.06a1.16,1.16,0,0,0,0-2.32c-2.24,0-4.47-.06-6.71-.06a1.22,1.22,0,0,0,0,2.44l8.92,0V1.85C69.93,2,65.44,3.5,60.79,3.78V5.29l1.07-.13a.62.62,0,0,0,0-1.24Z"/><path d="M104.41,665.68a10,10,0,0,1-.87-1.32l-.75,1.31a30.67,30.67,0,0,0,4.92-.84,44.21,44.21,0,0,1,5.86-.46,1.4,1.4,0,0,0,0-2.79c-2.36-.16-4.13,1.12-6.38,1.43a22.28,22.28,0,0,1-3.61.22l.35,2.56.26-.06c1.47-.31,1-2.39-.33-2.49h-.28a1.31,1.31,0,0,0-.35,2.56c3.58,1.23,6.92-1.62,10.34-1.42v-2.79c-3.47.15-8.31.44-11.22,2.47a.88.88,0,0,0-.18,1.36,10.4,10.4,0,0,1,1.23,1.06c.51.47,1.46-.16,1-.79Z"/><path d="M150.94,667.51a3.85,3.85,0,0,0-1-2.17l-.76,1.3c2.47.91,4.39,0,6.77-.72l-.65-2.39c-2.2.66-4.36,1.43-6.58,2l.72,2.61c2.75-1,5.52-.74,8.38-.82a1.35,1.35,0,0,0,0-2.7,23.31,23.31,0,0,0-9.1.91c-1.61.59-1,3.09.72,2.61,2.26-.64,4.81-1.11,6.81-2.38a1.24,1.24,0,0,0-1.25-2.14,11.79,11.79,0,0,1-5.61,1.46c-.74,0-1.1,1.13-.39,1.44l.76,1.11c.14.63,1.23.5,1.15-.16Z"/><path d="M199.85,670c.84.08,4.34-.44,4.62.5l.91-1.61a12.91,12.91,0,0,1-7.39,0l.8,2c.61-.83,1.65-.7,2.56-.63,1.35.1,1.66-2.13.32-2.37-1.91-.36-3.69-.26-5,1.38a1.35,1.35,0,0,0,.59,2.23,14.42,14.42,0,0,0,8.79,0,1.32,1.32,0,0,0,.91-1.61c-1.1-3.05-4.65-2.14-7.14-1.83a1,1,0,0,0,0,2Z"/><path d="M239.66,666.23c.27-1,.46-.82,1.56-.87.61,0,2-.13,2.34.61l.85-1.5c-2.4.56-5.29,2.64-7.79,1.57l.47,1.78c.38-.79,1.68-.83,2.36-1.29a3.49,3.49,0,0,0,1.35-1.81c.43-1-.78-1.92-1.68-1.69-2.39.6-4.76,1.23-7.09,2a1.41,1.41,0,0,0-.33,2.54,11.11,11.11,0,0,0,7.49,1.16c1.41-.2,1.09-2.63-.34-2.51a9.39,9.39,0,0,1-5.75-1.05l-.33,2.54c2.33-.79,4.69-1.43,7.08-2L238.16,664c-.28.69-1.38.71-2,1a3.06,3.06,0,0,0-1.35,1.47,1.33,1.33,0,0,0,.78,1.91c3.39,1.38,6.21-.79,9.43-1.6a1.24,1.24,0,0,0,.73-1.79c-1.14-2.57-4.81-2-6.92-1.16a.94.94,0,0,0-.65.65l-.17,1.27c-.15,1,1.33,1.52,1.62.44Z"/><path d="M279.35,668.31c3.06.16,6.77,3,9.32.07a1.2,1.2,0,0,0-.52-2c-1.28-.45-2-.91-2.33-2.29l-.32,1.21c2.31-2.08,6-.87,8.85-1a1.3,1.3,0,0,0,0-2.6c-3-.28-7.71-1.05-10.16,1.34s1.21,4.94,3.33,5.63l-.53-2c-1.46,1.74-5.7-.31-7.85,0-.93.16-.64,1.52.21,1.57Z"/><path d="M318,669.63a12.23,12.23,0,0,0,4.54,1.68,9.42,9.42,0,0,0,5-1.46,1.11,1.11,0,0,0-.56-2.05c-2.34,0-4.4,1.37-6.7,1.31l.8,1.95c1.88-1.76,5.08-.84,7.4-.78v-2.54c-2.37,0-4.76,0-7.12.18a1.09,1.09,0,0,0,0,2.18c2.36.15,4.75.18,7.12.18a1.27,1.27,0,0,0,0-2.54c-3.13,0-6.53-.67-9,1.71a1.15,1.15,0,0,0,.81,1.94c2.35,0,4.37-1.38,6.7-1.39l-.56-2a7.05,7.05,0,0,1-4.1,1.56,12,12,0,0,1-3.77-1.19c-.75-.31-1.27.94-.55,1.31Z"/><path d="M55.35,660.52c3.62,3.69,10,2.35,14.22.42,1.09-.51.49-2.16-.59-2.17-5.72-.07-11.44,0-17.17-.1-1.75,0-1.65,2.47,0,2.66,4,.47,8.41-1.06,11.76-3.16a1.45,1.45,0,0,0-1.11-2.63l-1,.18c-1.51.3-1.1,2.59.36,2.63l1,0-.73-2.69c-3,1.84-6.71,3.33-10.31,3v2.66c5.71,0,11.48.24,17.17-.23l-.59-2.17c-3.29,1.85-8.87,3.4-12,.57a.72.72,0,0,0-1,1Z"/><path d="M24.21,635.47c-1.11.26-2.17,1.23-3.18,1.75a6,6,0,0,1-1,.47c-.26.08-.72,0-.94.22-.4.34.35,0,.13.34a8.08,8.08,0,0,0,.3-1.37H17.19l-.18.92,1.74-.46c-.43-.3-.83-.59-1.29-.85A1.19,1.19,0,0,0,16,638.35a14.19,14.19,0,0,0,1.19,1,1.28,1.28,0,0,0,2-.26,3.44,3.44,0,0,0,.33-2.85,1.22,1.22,0,0,0-2.34,0c-.25,1-.56,2.51.32,3.38a2.14,2.14,0,0,0,2.34.29c1.74-.68,2.89-2.79,4.66-3.35a.56.56,0,0,0-.3-1.08Z"/><path d="M7.26,511.52c-.1,2.52-1.62,8.24,1.26,9.74a.93.93,0,0,0,1.36-.55c1.08-3.89.63-7.71.58-11.7a1.07,1.07,0,0,0-1.81-.75c-2.32,1.92-2.34,4.65-1.66,7.39a1.15,1.15,0,0,0,1.68.68,6.8,6.8,0,0,0,2.77-3.45c.66-1.55.94-4.17,2.7-4.86a1,1,0,0,0-.56-2c-4.08.92-3,6.46-6.07,8.35l1.68.68c-.5-2-.62-3.76,1-5.27L8.34,509c.24,3.8.56,7.45-.24,11.21l1.35-.55c-2.09-.93-1-6.3-1-8.15a.6.6,0,0,0-1.2,0Z"/><path d="M1.16,334.33a3.82,3.82,0,0,0,.57,3.86,2.61,2.61,0,0,0,3.74-.08c.87-.9,1.1-2.47,1.35-3.65a21.44,21.44,0,0,0,.58-3.73,1.23,1.23,0,0,0-2.07-.86c-1.32,1.57-2.7,3.27-3,5.36-.14.91.84,2.12,1.8,1.39.54-.41,1.06-.82,1.56-1.27a1.17,1.17,0,0,0-1.4-1.83c-.49.31-.94.63-1.4,1l1.81,1.39a9,9,0,0,1,2.36-4.31L5,330.73a20,20,0,0,1-.81,4.52c-.12.47-.26,1.47-.74,1.5-.78.06-1-1.45-.87-2a.73.73,0,0,0-1.4-.39Z"/></g></g></svg>