<svg xmlns="http://www.w3.org/2000/svg" viewBox="0 0 51.62 49.44"><title>add</title><g id="Layer_2" data-name="Layer 2"><g id="plus"><path d="M28,12l.28-1c.52-1.91-2.19-2.53-2.9-.79-1.3,3.21-.93,8.08-1.17,11.55-.3,4.43.24,9-.44,13.37l3,.39c-.07-4.9-.23-9.66.1-14.58.23-3.42,1.58-7.59.77-10.93a1.51,1.51,0,0,0-2.89,0c-2,9.09-.1,18.93,0,28.12h3c-.07-2.28-.28-4.56-.33-6.84-.05-1.93-3.05-1.94-3,0,.05,2.28.26,4.56.33,6.84.06,1.93,3,1.94,3,0-.12-8.89-2.07-18.53-.13-27.32H24.67c.29,1.18-.34,3.81-.46,5.11-.21,2.23-.39,4.46-.52,6.7-.26,4.36-.06,8.57,0,12.9,0,1.62,2.68,2.13,2.95.4A78.27,78.27,0,0,0,27,25.65c0-2.61.3-5.18.53-7.78.19-2.05-.08-4.93.71-6.86l-2.9-.79-.27,1A1.5,1.5,0,0,0,28,12Z"/><path d="M17.58,23.9l-.92-1.62-1.45,1.9a92.49,92.49,0,0,0,12.55-.43c4-.46,9-1.93,12.93-.66v-2.9c-8.45,1.35-16.85,2.29-25.38,2.94-1.91.14-2,3,0,3h.21a1.5,1.5,0,0,0,0-3h-.21v3c8.79-.67,17.47-1.66,26.18-3,1.55-.25,1.28-2.49,0-2.9-3.27-1-7.14-.32-10.47.11a104.78,104.78,0,0,1-15.81.88,1.53,1.53,0,0,0-1.45,1.9A5.57,5.57,0,0,0,15.46,26c1.33,1.41,3.45-.71,2.12-2.12Z"/><path d="M14.47,4.73l-.06-.23a1.52,1.52,0,0,0-2.5-.66C8.38,6.65,4.3,9.89,2.53,14.19a34,34,0,0,0-2.24,17c.91,6.26,3.53,9.53,8.11,13.52,4,3.53,8.28,4.25,13.54,4.6,11.11.74,23.15-3.11,27.72-14.27A26.15,26.15,0,0,0,41.09,4.26a21.93,21.93,0,0,0-16.3-4,32.14,32.14,0,0,0-9.86,3.16c-1.78,1-4.7,1.81-5.1,4-.35,1.89,2.54,2.7,2.89.8C13,6.73,19.28,5,20.38,4.75c2.94-.74,5.47-1.84,8.56-1.6,7.28.57,12.51,4.31,16.6,10.27,2.9,4.23,3.79,12.72,2.48,17.38a20.77,20.77,0,0,1-11.5,13.4C26.2,49,8.9,47.33,4.37,35.24c-2.31-6.18-1.27-12.55.57-18.68C6.25,12.19,10.56,8.73,14,6L11.52,5.3l.06.23c.47,1.87,3.36,1.08,2.89-.8Z"/></g></g></svg>