<svg xmlns="http://www.w3.org/2000/svg" viewBox="0 0 52.63 51.04"><title>close</title><g id="Layer_2" data-name="Layer 2"><g id="close"><path d="M16.61,2.05c-3.31,1.64-6.34,2.38-8.7,5.5-1.6,2.11-2.5,4.82-3.8,7.12A34.52,34.52,0,0,0,.59,23.28c-2.69,11.31,4.19,21.1,14.3,25.11C17.75,49.52,21,51,24.13,51A36,36,0,0,0,33,49.63a25.61,25.61,0,0,0,13.95-8.39c3.28-4.07,4.86-9.36,5.43-14.47C52.88,22,53,15.31,50,11.18,38.19-5.36,5.93-3.93,1.28,18.05-.65,27.17,2,40,11,44.49c9.18,4.65,24.39,7.42,32.26-1.38,2.22-2.49,3.1-5.79,4.88-8.55a17.67,17.67,0,0,0,3.28-8.82c.49-6.28-2.16-12.47-5.09-17.83C42.7,1.31,36.85,2.46,30.39.85,25-.49,19.61-.71,16.41,4.59,15.4,6.25,18,7.76,19,6.11c3.37-5.57,9.18-2.2,14-1.58,2.72.35,5.7,0,8.11,1.68s4.17,5.82,5.18,8.43c1.62,4.19,2.71,9.43,1.53,13.85-.53,2-1.69,3.38-2.71,5.09-1.29,2.15-2,4.64-3.49,6.68-6.16,8.49-20.21,5.58-28,2C5.21,38.39,2.39,27.38,4.27,18.66,8.29,0,34.75-1.17,45.93,11.24c6,6.63,4.15,19.22-.16,26.46-5,8.35-18.05,12-26.9,9C13.91,45,8.79,42.78,6,38.09A19.84,19.84,0,0,1,5,20c1.42-3.35,3.72-9.23,6.4-11.7,1.94-1.79,4.38-2.5,6.73-3.67,1.73-.85.22-3.44-1.51-2.59Z"/><path d="M19.66,14.59,19.4,14c-.66-1.4-2.79-.65-2.8.75,0,2.77,2.32,5.36,4.08,7.28,3.09,3.37,7.07,6.31,9.44,10.29,1,1.69,3.4.21,2.59-1.51s-2.22-3.14-3.2-4.8a46.43,46.43,0,0,0-3-4.46c-2.2-2.93-3.86-6.58-6.95-8.69-1.29-.88-2.75.81-2.05,2C21.61,22.23,27.79,28.26,34,33.77L33.76,32l.61-.43c-1.93-.11-1.93,2.89,0,3l.47,0a1.51,1.51,0,0,0,1.3-.74l.21-.34a1.5,1.5,0,0,0-.24-1.81c-6-5.32-12.06-11.19-16-18.22L18,15.48c2.79,1.91,4.57,5.9,6.58,8.57a54.51,54.51,0,0,1,5.5,8.3l2.59-1.51a40.16,40.16,0,0,0-6.85-7.93c-2-1.89-6.27-5-6.26-8.13l-2.79.76.26.57c.82,1.74,3.41.22,2.59-1.52Z"/><path d="M34.48,15.28l-.06-.23a1.5,1.5,0,0,0-2.5-.67c-2.07,2.46-3.61,5.16-5.89,7.52s-4.24,6-6.93,7.47l1.82,2.35c2.92-2.34,5.29-5.42,7.84-8.16s4.45-6.17,6.92-9l-2.36-1.82C27.94,19.9,20.49,25.68,14.06,31.85c-1.2,1.15.44,3.41,1.81,2.36a102.41,102.41,0,0,0,9.74-8.77c1.74-1.74,3.47-3.49,5.1-5.34,1.1-1.25,2.06-3,3.28-4.13l-2.35-1.82c-1.74,3.69-4.26,6.35-6.86,9.42A81.91,81.91,0,0,1,17,32l2.51,1.46-.05.16c1.77-.75.24-3.33-1.52-2.59a2,2,0,0,0-1.32,1.64,1.51,1.51,0,0,0,2.5,1.45,95.77,95.77,0,0,0,8.66-9.46c2.59-3,4.75-5.39,6.45-9a1.51,1.51,0,0,0-2.36-1.81c-2.69,2.44-4.82,5.89-7.44,8.52a103.64,103.64,0,0,1-10.07,9.25L16.18,34c6.64-6.37,14.17-12.33,19.73-19.71,1-1.36-1.24-3.1-2.35-1.82-2.49,2.85-4.3,6.18-6.92,9s-4.92,5.82-7.84,8.16c-1.37,1.1.38,3.15,1.82,2.36,2.73-1.5,4.36-4.68,6.5-6.91,1.34-1.4,2.73-2.74,4-4.21s1.8-3,2.93-4.34l-2.51-.66.06.24c.44,1.88,3.33,1.08,2.89-.8Z"/></g></g></svg>