<svg xmlns="http://www.w3.org/2000/svg" viewBox="0 0 167.08 420.21"><defs><style>.cls-1{fill:#f9f9f9;}</style></defs><title>coneldpi</title><g id="Layer_2" data-name="Layer 2"><g id="Layer_1-2" data-name="Layer 1"><path class="cls-1" d="M7.46,36.63c-1-.21-1.65-3.4-2-4.32C3.16,26.49,5.14,24,9.67,20.53c2.81-2.16,6-5.48,6.36-9.25a7.35,7.35,0,0,0-.66-3.18c-.26-.94-1.33-2,0-2.91.44-.3,2.67,0,3.15,0C25.28,5.76,28,10,27.2,16.63c-.9,7.39,2.4,11.93,9.45,14.19a8,8,0,0,0,4.65.53c1.38-.37,2-1.38,3.64-1.31a30,30,0,0,1,9.92,2.88l-.72-1.76c-.3,1.67-1.84,2.33-1.41,4.23.2.92,1,1.65,1.43,2.48,1,2,1.2,4,1.67,6.14,1.16,5.24,6.06,8.34,10.8,10.2S78.9,54,81.92,49.92c3.75-5.09,1.43-12.23,2-18,.35-3.43,4.24-6.75,7.81-6.41,1.49.14,3,1.18,4.52,1.44,2.25.38,4.55.39,6.81.78,5.64,1,10.7.17,12.79-5.86,1.17-3.39.9-6.29,3.52-9.07,2-2.13,3.46-5.2,5.66-7,1.91-1.6,9.26-3.19,11.35-1.32.67.59.54,1.82,1,2.62.65,1.16,2.17,1.86,2.91,3,5,7.4,1,17.94,6.58,25.11,1.85,2.36,4.45,3.63,7.14,4.81A5.06,5.06,0,0,1,156.7,42c.68.78,1.06,1.57,2.09,2.08,1.72.84,3.73-1.35,2.16-2.8a5.07,5.07,0,0,0-1.14-.82c-1.73-.85-3.74,1.35-2.17,2.8q.39.35.75.72l1.73-3L160,41l1.31,1.72v-.21l-1.31,1.72.68-.14-2.26-1.72v2a1.79,1.79,0,0,0,1.79,1.78l.34,0-1.54-2.69-.13.25,2.8-.36-.21-.22a1.81,1.81,0,0,0-2.53,0c-1.56,1.6-.81,3.08.67,4.33,2.27,1.93,3.76,1.69,3.66,5.44-.1,3.51-1.59,7.4-2.46,10.77-3.59,13.77-6.64,27.89-9.38,41.86-2.7,13.8-4.36,27.74-7,41.54-1.2,6.3-1.54,12.69-2.48,19-1,6.9-2.1,13.73-2.7,20.69-1.29,14.85-.8,29.71-3.21,44.47-2.36,14.44-6.48,28.4-10.91,42.31-4.21,13.25-8.23,26.6-12,40-1.7,6.07-2.4,12.2-3.16,18.43A164.14,164.14,0,0,1,105.24,355c-3.66,13.46-6.65,27.3-11.18,40.5-2,5.76-5.4,11-7.12,16.83a15.53,15.53,0,0,1-.56,2.54c-1.16,1.68-1.93.7-3.79.52-5.9-.59-8.22-3-9.4-8.72-1.26-6-2.66-12.65-2.86-18.78a66.4,66.4,0,0,0-1.23-9.09c-.7-4-.36-7.92-.93-11.87-.92-6.37-1.27-12.77-1.92-19.2a147.31,147.31,0,0,0-3.19-18.82,144,144,0,0,1-3-19.93c-.6-6.85-2-13.59-2.92-20.4-1.9-13.61-4.07-27.09-5.76-40.74-1.66-13.46-4.71-26.69-6.87-40.05-1.09-6.72-1.67-13.28-3.76-19.77-2.29-7.12-3.82-14.49-5.91-21.67-2.26-7.74-3-15.36-4-23.32-.88-6.93-2.57-13.8-4-20.63C25.15,114.53,23,106.8,21,99s-3.2-15.83-4.93-23.67c-1.57-7.16-2.16-14.46-3.18-21.71C12,47.53,11.23,40.26,8.31,34.76c-1.16-2.16-5.18-6.61-4.25-9.34.81-2.35,5.5-2.07,7.63-3.11a6,6,0,0,0,3.18-2.9c.29-.61.4-5.4.17-5.24l-3-1.22.24,1c.65,2.54,4.59,1.46,3.93-1.09l-.24-1a2.05,2.05,0,0,0-3-1.21,3.71,3.71,0,0,0-1.82,2.78c-.58,3,1.09,4.4-3,5.86-3.34,1.2-7.3.58-8.07,5-1,5.63,4.06,10.13,5.76,15,2.18,6.22,2.84,13.47,3.51,20A157.34,157.34,0,0,0,13.08,80c1.77,7.25,2.6,14.65,4.54,21.87,3.81,14.19,8.16,29.08,9.52,43.76,1.32,14.11,5.08,28.11,9.23,41.66,2.19,7.15,3.17,14.2,4.33,21.57,1.1,7,2.61,13.88,3.8,20.85,1.29,7.64,2.5,15.22,3.54,22.9.38,2.86.87,5.68,1.39,8.51.81,4.46.6,8.88,1.19,13.33.84,6.3,2.32,12.57,3.23,18.89,1.17,8.18,2,16.33,3.08,24.53a134,134,0,0,0,3.48,16.69c2,7.67,2.35,16.23,2.73,24.13.16,3.43.93,6.63,1.19,10,.19,2.56-.06,5.06.31,7.64,1,7.28,1.62,14.51,3.16,21.67,1.17,5.51.72,12.45,4.43,17.08a11.62,11.62,0,0,0,4.89,3.58c2.51.93,6.32,1.8,9,1.44,3.22-.44,3.56-2.41,4.29-5.19,1.81-6.89,5.84-13.24,8.07-20.07,4.44-13.57,7.69-27.69,11.32-41.51s4.1-28.49,8.27-42.29c4.4-14.6,8.69-29.22,13.24-43.79a241.11,241.11,0,0,0,9.65-43c2.08-17.21,1.1-34.53,3.79-51.72,2.57-16.42,4.89-32.87,7.38-49.31,2.56-16.84,7.15-33.16,10.28-49.85,1.28-6.83,3.84-13.57,4.51-20.49.2-2.07.49-4-.92-5.6A8.56,8.56,0,0,0,164.36,46c-1.38-.92-1.78-1.49-2.84-.4H159l.22.22a1.8,1.8,0,0,0,2.8-.36l.13-.26c.56-1.09-.09-2.83-1.54-2.69l-.34,0L162,44.37v-2a1.81,1.81,0,0,0-2.26-1.73l-.68.15a1.81,1.81,0,0,0-1.31,1.72v.21a1.81,1.81,0,0,0,1.31,1.72l.09,0c1.72.62,2.95-1.78,1.73-3l-.74-.71L158,43.58a1.45,1.45,0,0,1,.43.26l2.16-2.8c-.77-.38-.54-1.48-1-2.06a7.32,7.32,0,0,0-2.6-1.66c-2.92-1.46-6-2.28-7.86-5.19-4.1-6.3-1.83-15.45-5-22.39-.92-2-2.89-3.15-3.8-4.94s-.15-3-2.33-4c-3.43-1.62-11.4-.52-14.44,1.69-1.71,1.24-2.86,3.28-4.11,5-1.62,2.18-3.9,3.87-5,6.38s-.82,5.92-2.5,8.32c-2.95,4.19-8.52,2-12.86,1.57-2.76-.3-6.21-2.16-9-2-2.33.16-4.9,2.44-6.62,3.8-3.84,3-2.89,8.23-2.81,12.64.1,5.67.32,10.86-6.27,12.79-4.18,1.23-7.31,0-10.9-2-4.36-2.49-4.15-6.26-5.63-10.44-.41-1.13-1.61-2.66-1.61-3.83s.78-1.61,1-2.67a1.61,1.61,0,0,0-.72-1.76,37.67,37.67,0,0,0-11-3.24,7.91,7.91,0,0,0-4.1.63c-2.9,1-5.4.22-8.07-1.64-5.74-4-1.67-10.35-3.38-15.9A10.14,10.14,0,0,0,22,2.94c-2.46-.49-7.6-1.47-9.7.49-1.09,1-1,2.07-.58,3.4.24.77.9,1.36,1.16,2.11.87,2.45-.23,4.8-1.64,6.76-3.19,4.49-9.84,6.06-9.39,12.7.19,2.68,2,5.13,2.94,7.55.56,1.43.45,1.87,2.24,2.15.94.15,1.38-1.25.4-1.47Z"/></g></g></svg>