<svg xmlns="http://www.w3.org/2000/svg" viewBox="0 0 652.03 277.08"><defs><style>.cls-1{opacity:0.78;}.cls-2{fill:#fff;}</style></defs><title>descBox</title><g id="Layer_2" data-name="Layer 2"><g id="Layer_2-2" data-name="Layer 2"><g class="cls-1"><path class="cls-2" d="M593.07,267.15c4.29.69,7.61-2.11,11.92-2,5.09.13,10,1.95,15.29,2.05,5.12.1,22.75,1.9,26.93-.28s1.45-16.5,1.5-20.27-1.48-6.78-2.2-10.41c-.92-4.6-.21-9.71-.21-14.4,0-6.27-1.51-13.25-1-19.26.56-6.61.54-11-1.35-17.36a61.92,61.92,0,0,1-2.49-19.72c.09-6.47-4-12.66-2.54-19.18.9-4.13,2.6-7.08,2.59-11.51a49.5,49.5,0,0,0-1.94-13.15c-1.27-4.91-1.11-10-2.35-14.92-1.07-4.28-2.05-8.74-2.81-13.06-1.58-9-1-18.29-3.83-27.13-1.63-5.17-1.12-10.35-1.22-15.81-.13-6.77-3.83-13.56-6.6-20-3.42-8-8.67-18.45-18.59-22.78a31.77,31.77,0,0,0-10.12-2.74c-4.31-.29-6.23,2.17-8.83,2.36-3.66.27-5.71-1-9.45-1.65-5.24-.84-10.93.08-16.36-.83-9.33-1.56-18.62-.53-28.12-.91-4-.17-5.78-1-9.57-1.72-3.53-.66-6.86.21-10.37.34-7.33.29-15.14-.72-22.85-.55-8.47.19-16.83,2.25-24.87,3.61-3.8.65-8.15.18-12.07.15-5.57,0-9.22,1-14.56,1.72-7.32,1-15.47,0-22.9.12-4.54.08-7.87,1.42-12.23,2-3.43.45-7.9-.1-11.38-.1-7.64,0-17.54-1.32-25-.09-6.51,1.08-12.6,2.83-19.12,3.92s-16-.09-22.9-.09c-7.33,0-14.65,0-22,0-8.14,0-15-1.64-22.45-.47-4.56.72-5.82-.07-10.1-1-4.59-1-9.39-.23-14.09-.37-7.47-.21-14.08-1.89-21.78-1.91s-14.55,1.59-22.32,1.82c-4.72.14-9.25,2.21-13.92,2.11-5.08-.11-9.85-2-15.1-2.13-6.09-.16-12.69.71-18.75.17-4.92-.44-7.68-1.92-12.79-1.12-3.26.51-6.32,1.84-9.4,2.46-4.87,1-10.37.44-15.37.43-9.82,0-18.67,1.91-28.37,1.85-3.69,0-7.52-.23-11.19-.06-4.09.19-7.25,1.62-11.19,2-4.91.51-10-.76-14.9.05-3.73.62-7.4,2.51-11,3.59-5.58,1.69-9.59,3.2-14.7,5.22-3.43,1.36-6.11,1-9.84,1.61-5.67.95-10.07,3.6-10.16,8.19,0,1.16,1,3.39.59,4.35-.59,1.48-10.3,8.21-2.3,8.61L2.73,41.45l.59-1.79c4.58.89,2.11,26,1.76,29.35a42.65,42.65,0,0,0,.61,13.52A71.57,71.57,0,0,1,7.57,99.32c0,8.58,1.53,18.16-.54,26.58a54.33,54.33,0,0,0-1.88,14.27c0,3.78,0,7.55,0,11.33.09,5.05-2.92,10.05-2.06,15,.75,4.26,2.93,8.45,2.13,12.88-.59,3.28-2.8,6.07-2.79,9.47s2.72,6.3,2.92,9.73S3,205.46,2.6,208.92c-.37,3.12.13,6.54.13,9.68,0,3.47-.69,7.39-.13,10.83S5,235.8,5.27,239.27c.41,4.86-1.25,10.08.37,14.82,1.87,5.48,6.61,9.61,12.15,13,12.78,7.94,27.7,7.47,43.6,7.47,7,0,14.27.5,21.17-.41,5.45-.73,9-1.48,14.53-1.46s10.93,0,16.39,0c7,0,13.06-1.65,19.91-1.9,12.25-.45,24.73.09,36.89.55,7.53.29,15.22-.53,23-.51,8,0,17,.82,24.75-.42,11.17-1.76,21.94-1.51,33.38-1.4,10.76.1,21.18-1.75,32-1.86,9.09-.09,17.6-2,26.74-2,11.09.1,22.18,0,33.27,0,7.81,0,16.43.86,24.14.1,6.92-.68,12.67-2.23,19.88-2,7.74.25,14.53,1.95,22.38,1.9,8.47-.06,16.95,0,25.42,0H523.5c6.88,0,13.77.08,20.65,0,6.24-.06,10.76,1.77,16.93,1.9,6.55.15,13.16,0,19.72,0,7.1,0,23.81-2.4,29.21,1.86"/><path d="M593.07,268.09c3.33.33,5.95-.84,9.17-1.4,4.81-.84,9.81,1.14,14.57,1.78,5.47.74,11.16.9,16.67,1.13,4.22.18,10.15,1,14.11-.91,3.51-1.7,3.7-6.19,3.72-9.63a123.38,123.38,0,0,0-.91-14.5c-.45-4.05-2.22-7.76-2.48-11.86-.29-4.78.39-9.56.1-14.35-.24-4.14-.91-8.26-.95-12.42-.05-4.31.66-8.57.3-12.89a61,61,0,0,0-2.11-10.17,65.92,65.92,0,0,1-1.9-15.51A43.75,43.75,0,0,0,642,157c-1.3-5.18-1.51-9.31,0-14.45,2.23-7.38,1.09-14-.54-21.41-1-4.31-1.13-8.72-1.94-13.06-.93-5-2.35-9.9-3.19-14.93C634.82,84.06,634.78,75,632.53,66c-2.17-8.69-.26-17.38-3.51-25.94a126.45,126.45,0,0,0-9.09-19.66c-6.08-10.24-19.37-21-32-16-4.23,1.69-7.39.23-11.64-.5-4.08-.7-8.23-.35-12.34-.5-4.65-.17-9.23-1.1-13.9-1.25s-9.37,0-14.06,0A59.23,59.23,0,0,1,523.78.76c-3.95-.84-7.58-.36-11.56-.1C502.81,1.28,493.4-.42,484,.43c-8.79.8-17.49,3.79-26.33,3.66A85.19,85.19,0,0,0,445,4.38c-4.1.54-8.13,1.42-12.27,1.61-8.19.38-16.49-1.1-24.59.5-8.38,1.65-16.46,1.34-25,.91-8.35-.43-16.08-.34-24.27,1.42-8.63,1.86-16.56,3.36-25.42,2.95s-17.93-.41-26.91-.41c-8.81,0-17.83-1.54-26.59-.57-4.12.45-7.24-.28-11.26-.95-4.3-.71-8.59-.25-12.91-.29-9.21-.1-18.16-2.38-27.41-1.75a207.55,207.55,0,0,0-26,3.05c-5,1-9.17.31-14.1-.61a58.15,58.15,0,0,0-13.05-.72,78.3,78.3,0,0,1-13.61-.13c-3.88-.53-7.44-1.46-11.39-.93s-7.48,2.19-11.35,2.73c-4.45.62-8.95.16-13.42.15-8.9,0-17.68,1.68-26.56,1.84-4.61.09-9.25-.39-13.85,0-4.13.37-8,1.93-12.19,2.07-4.46.16-8.88-.77-13.33,0-3.92.63-7.54,2.39-11.28,3.61-4.12,1.34-8.2,2.68-12.24,4.24s-8,1.8-12.32,2.55c-5,.88-10.9,3.48-11.66,9.11-.19,1.38.54,2.79.38,4-.14,1-.14.84-1,1.85-1.27,1.47-3,2.68-3.8,4.48C5.79,49,9,50.79,12.41,51.15c1.84.2,3.09-2.67,1.58-3.83L4.33,39.85l.58,2.2.59-1.79L2.72,41.84c1.09.37,1,7.62,1,9,.06,4.32-.18,8.65-.52,13-.22,2.86-.61,5.72-.71,8.58-.27,7.41,2.07,14.41,2.54,21.76.4,6.44.56,13,.66,19.45C5.85,121,3.64,127.9,3,135.24s.55,15-1.18,22.32a29.87,29.87,0,0,0-1.2,7.26c.06,3.55,1.71,6.79,2.25,10.26,1,6.18-4.12,11-2.13,17.24,1.21,3.79,2.8,5.81,1.48,10-.87,2.78-2,5.17-2.11,8.15-.16,3.29.3,6.58.19,9.87s-.56,6.46,0,9.7c.66,3.73,2.54,7,2.65,10.83.1,3.44-.68,6.84-.31,10.29,1.23,11.49,13.4,19,23.35,22.42,12.57,4.28,26.21,3.28,39.26,3.46,14.36.2,28.42-1.89,42.79-1.9,7.38,0,14.38-.94,21.7-1.64a196,196,0,0,1,23.12-.29c7.7.18,15.42.76,23.12.63,7.52-.12,15-.64,22.54-.45,15.22.38,30.13-2.05,45.35-2,15,.08,30-.93,44.93-2,6.52-.47,13-1.55,19.52-1.69,8.43-.18,16.88,0,25.3,0,13.78,0,27.54,1.11,41.22-.86,14.27-2.05,28.44.85,42.79.85q53,0,105.89.05c8.82,0,18.12-.79,26.85.53a140.6,140.6,0,0,0,22.56,1.4c6.41-.06,12.76-.33,19.16-.6,5.17-.22,12.16-1,16.66,2.07,2.7,1.86,5.24-2.54,2.56-4.39-7.44-5.13-19.29-2.66-27.68-2.29-6.18.27-12.41.21-18.59.18-7.68,0-15.08-1.93-22.75-1.94q-47.64,0-95.29,0c-15.16,0-30.81,1.11-45.89-.53-6.29-.68-12.51-1.69-18.86-1.23-7.21.51-14.23,2.14-21.49,2.19-14.9.11-29.84-.34-44.75-.4a200.18,200.18,0,0,0-21.9,1.17c-8,.84-15.95.85-23.92,1.52-14.91,1.27-29.87.29-44.76,1.62-7.24.64-14.22,1.68-21.52,1.55s-14.78-.18-22.2.13c-15.46.63-30.9-.93-46.37-.45-7.33.23-14.51,1.85-21.84,2-7.61.13-15.34-.47-22.92.36a296.85,296.85,0,0,1-43,1.41c-13.2-.44-30-3.29-37.92-15.34-4.08-6.21-.87-13.06-2.3-19.81-.81-3.84-2.46-7-2.54-11.07-.08-3.77.36-7.5.18-11.29a23.57,23.57,0,0,1,1.28-9.46c.86-2.41,1.72-4.61,1.46-7.21-.32-3.19-2.79-5.89-2.83-9.09s2.32-6.25,2.79-9.47c.52-3.61-.61-6.87-1.46-10.33-1-4.31-.31-7.59.61-11.85,1.74-8,0-16.25,1.21-24.33C9.16,125,10.68,118,10.33,110c-.31-7.1-.16-14.31-1.16-21.35S6.84,75.11,7.49,67.87c.33-3.59.6-7.19.74-10.79.19-4.77,1.85-17.51-4.31-19.61a2.31,2.31,0,0,0-2.78,1.58L.55,40.84a2.32,2.32,0,0,0,1,2.56l9.68,7.44,1.14-4.18c-1.08-.11.27-1,.94-1.67s1.18-1.14,1.75-1.73C16.28,42,17,41.19,17,39.38c0-1.15-.71-2.31-.66-3.43.12-2.62,2.39-4.08,4.55-5,3.64-1.49,7.58-1.17,11.36-2s7.51-2.73,11.2-4,7.62-2.53,11.39-3.91c7.84-2.87,15.68-.58,23.66-2.25,8.62-1.8,17-1,25.73-1.62,8.24-.59,16.34-1.72,24.62-1.52a64.78,64.78,0,0,0,10.61-.26c3.82-.53,7.36-2.12,11.15-2.68,4-.58,7.63.55,11.53,1a86.66,86.66,0,0,0,13.09,0,57.38,57.38,0,0,1,12.76.73c3.85.7,7.55,1.56,11.49,1.13S207,14,210.79,13.66c4.33-.35,8.64-.74,13-1.21,8.76-.95,17,0,25.66.91a94.65,94.65,0,0,0,11.67.28c4.3-.1,8.11.85,12.28,1.49,3.37.52,6.6-.29,10-.42a112.05,112.05,0,0,1,11.87.59c9.06.64,18.22.23,27.3.26,7,0,14.1,1,21.12.42,7.61-.6,14.91-3.23,22.45-4.33,8-1.17,16.34,0,24.41.17,3.53.07,7.1.47,10.62.16s6.7-1.35,10.08-1.81c8.24-1.13,16.67.62,24.95-.29,3.47-.38,6.89-1.17,10.36-1.55,4-.45,8-.07,12-.08,8.27,0,16.35-2.76,24.55-3.6,8.83-.9,17.61.39,26.44.24,4-.06,7.89-1,11.82-.38,3.09.46,6,1.41,9.16,1.65,8.92.7,17.87-.44,26.78.68a92.83,92.83,0,0,0,11.31.72c4.5,0,8.48,1,12.85,1.79a12.2,12.2,0,0,0,6.7-.52,16.47,16.47,0,0,1,12.31-.17c7.61,2.6,12.78,8.11,16.64,15a111.44,111.44,0,0,1,8.89,20c2.51,7.87.75,16.28,2.91,24.3S631,84.24,632.19,92.4c1.31,8.74,3.37,17.34,4.76,26.07.61,3.89,1.84,7.63,2.31,11.55a30.09,30.09,0,0,1-1.42,12.86c-2.11,7.16.35,12.58,1.43,19.65.6,3.95.22,8,.64,12a76.06,76.06,0,0,0,2.46,12c2.06,7.7.58,15.08,1.14,22.87.3,4.14.92,8.25.94,12.4s-.52,8.44-.05,12.65c.34,3.05,1.5,5.83,2.1,8.8a74.22,74.22,0,0,1,.74,8.07c.31,3.43,2.07,11.94-1.29,14.14-1.53,1-4.68.69-6.44.73-3,.08-6.07,0-9.1-.17-5.53-.26-11.14-.29-16.6-1.19-3.4-.56-6.93-1.39-10.39-.9s-6.64,2.39-10.35,2.25c-1.22,0-1.17,1.76,0,1.88Z"/></g><path d="M3.67,41.7l.64-1.77-1.26.71C5.38,41.5,4.77,49,4.77,50.82c0,4.33-.35,8.65-.71,13-.24,2.86-.64,5.72-.76,8.58-.3,7.4,2,14.42,2.44,21.76.38,6.45.53,13,.61,19.45.09,7.47-2.13,14.33-2.83,21.67-.71,7.52.49,15-1.28,22.44A29.41,29.41,0,0,0,1,164.82c.06,3.51,1.67,6.72,2.2,10.15.94,6.2-4.09,11-2.16,17.26,1.19,3.86,2.82,5.89,1.46,10.21-.86,2.75-2,5.12-2.11,8.06-.16,3.29.29,6.58.18,9.87S0,226.77.58,230c.66,3.77,2.54,7,2.64,10.92.09,3.43-.69,6.82-.33,10.25C4.09,262.53,16.19,270,26,273.39c12.54,4.29,26.18,3.28,39.2,3.47C79.59,277.07,93.65,275,108,275c7.38,0,14.38-.94,21.7-1.63a196,196,0,0,1,23.12-.28c7.7.19,15.42.78,23.12.66,7.52-.12,15-.63,22.54-.43,15.22.39,30.13-2.05,45.35-2,15,.07,30-.93,44.93-2,6.52-.48,13-1.56,19.52-1.7,8.43-.18,16.88.06,25.3,0,13.77,0,27.51,1.1,41.18-.86,14.29-2.05,28.47.84,42.83.84q53,0,105.89,0c8.84,0,18.15-.79,26.89.52a139,139,0,0,0,22.52,1.4c6.41-.06,12.76-.33,19.16-.61,5.17-.22,12.26-1.06,16.76,2,2.48,1.71,4.81-2.34,2.36-4-7.44-5.13-19.19-2.68-27.58-2.31-6.18.26-12.41.21-18.59.17-7.68-.05-15.08-1.93-22.75-1.94q-47.64-.06-95.29,0c-15.16,0-30.81,1.1-45.89-.54-6.29-.68-12.51-1.69-18.86-1.23-7.21.51-14.23,2.14-21.49,2.19-14.9.11-29.84-.34-44.75-.4a195.32,195.32,0,0,0-21.9,1.17c-8,.84-15.95.84-23.92,1.52-14.91,1.26-29.87.28-44.76,1.61-7.23.64-14.22,1.68-21.52,1.55s-14.78-.17-22.2.15c-15.45.65-30.9-.91-46.37-.41-7.33.23-14.51,1.86-21.84,2-7.61.13-15.34-.46-22.92.37a298.29,298.29,0,0,1-43,1.43C34.27,271.85,17.38,269,9.4,256.87c-4.11-6.24-.92-13.08-2.35-19.86-.82-3.87-2.49-7.09-2.58-11.15-.08-3.77.35-7.5.17-11.29A23.87,23.87,0,0,1,5.91,205c.83-2.34,1.7-4.49,1.46-7-.31-3.25-2.82-5.93-2.87-9.19s2.3-6.24,2.78-9.47c.52-3.58-.63-6.8-1.48-10.22-1.09-4.38-.36-7.75.57-12.08,1.63-7.66,0-15.58,1-23.33.46-3.8,1.62-7.45,2.11-11.24A71.6,71.6,0,0,0,9.71,110c-.33-7-.19-14.19-1.21-21.17-1-7.16-2.42-13.62-1.8-20.92.31-3.59.55-7.18.64-10.79.08-3.9,1.55-16.74-3.75-18.41a1,1,0,0,0-1.25.71l-.55,1.81c-.37,1.21,1.46,1.68,1.88.51Z"/><path d="M12.65,48c-3.55-.59-.69-2.74.79-4.14.94-.88,2.33-1.87,2.78-3.14,1.1-3.06-1.43-5.21,1.32-8.16,3.29-3.53,9-3.05,13.33-3.71,3.27-.5,6.28-2,9.36-3.09,3.77-1.39,7.63-2.48,11.41-3.83,4-1.41,7.58-2.89,11.87-3s8.32.67,12.53.07c4-.56,7.67-1.74,11.71-1.87,4.61-.16,9.22.25,13.83,0,8-.37,15.88-1.73,23.88-1.7,4,0,8,.37,12,0,3.5-.28,6.7-1.39,10.07-2.27,4.34-1.11,8.05-.62,12.35.07a64.09,64.09,0,0,0,12.46.47c4.19-.16,8.38-.49,12.54.09,4,.54,7.91,1.78,12,1.82,3.45,0,6.72-1,10.09-1.6,4.61-.83,9.4-.86,14.07-1.4a106.84,106.84,0,0,1,25.71.3c8.54,1,17,.14,25.4,1.86,3,.61,5.66.27,8.66,0a68.54,68.54,0,0,1,11.81.23c8.95.69,17.93.46,26.9.47,7.53,0,15.12.88,22.64.52,7.22-.34,14.23-2.58,21.3-3.93,8.21-1.57,16.41-.55,24.68-.34a95.37,95.37,0,0,0,21.09-1.27c8-1.5,16.26.11,24.34-.38,7.86-.48,15.26-2,23.2-1.84,8.32.2,16.3-2.29,24.51-3.3,8.82-1.07,17.55,0,26.38.11,3.82,0,7.66-.75,11.46-.59,3.36.14,6.55,1.36,9.89,1.77,8.52,1,17.19-.23,25.75.58s17.33.88,25.86,2.64a13.54,13.54,0,0,0,7.12-.16c4.13-1.32,6.43-2.13,10.92-.89,15,4.13,22.08,20.93,26.68,34.45,2.68,7.88.83,16.24,2.9,24.26,2.14,8.25,2.27,16.61,3.49,25,1.27,8.76,3.42,17.33,4.71,26.08,1.24,8.4,3.7,15.32,1.11,23.78-2.16,7.08-.46,12.27,1,19.29.88,4.3.37,8.81.82,13.18a73.1,73.1,0,0,0,2.22,11.36c2.13,8,.75,15.46,1.33,23.55.27,3.85.83,7.68.9,11.54.09,4.51-.54,9,0,13.51.33,3.11,1.5,6,2.11,9a67,67,0,0,1,.65,7.39c.28,3.07,2.12,11.93-.82,14-1.41,1-4.52.6-6.16.63-3,.05-6.08-.08-9.1-.23a134.82,134.82,0,0,1-16.33-1.33c-3.48-.61-7.11-1.55-10.66-1.2s-6.69,2.17-10.35,1.92c-3.26-.23-3.25,4.86,0,5.08,3.48.24,6.19-1.05,9.52-1.73,4.69-1,9.57.92,14.22,1.48,5.48.67,11.15.78,16.67,1,4.39.16,10.37.9,14.48-1.1,3.76-1.83,4-6.56,4.07-10.26a124.64,124.64,0,0,0-1-14.69c-.47-4-2.22-7.64-2.47-11.67-.31-4.78.37-9.56.07-14.35-.25-4.14-.92-8.26-1-12.42-.06-4.31.64-8.57.28-12.89a61.64,61.64,0,0,0-2.15-10.32,65.25,65.25,0,0,1-1.9-15.36,44.45,44.45,0,0,0-1.44-10.52c-1.29-5.1-1.5-9.1,0-14.16,2.25-7.46,1.09-14.23-.58-21.68-1-4.31-1.14-8.72-2-13-.94-5-2.38-9.9-3.22-14.93-1.52-9.08-1.58-18.15-3.85-27.12-2.18-8.69-.28-17.38-3.53-25.94a128.08,128.08,0,0,0-9.14-19.75C614.05,9.79,600.58-1,587.78,4.11c-4.11,1.66-7.23.18-11.37-.52s-8.28-.36-12.43-.51c-4.65-.17-9.23-1.1-13.9-1.25s-9.37,0-14.06,0A58.35,58.35,0,0,1,523.86.49c-4-.83-7.63-.35-11.64-.08-9.41.65-18.82-1-28.25-.15-8.79.82-17.49,3.84-26.33,3.73A86.57,86.57,0,0,0,445,4.31c-4.1.56-8.13,1.44-12.27,1.63-8.19.38-16.5-1.1-24.6.51-8.38,1.65-16.46,1.34-25,.92S367.05,7,358.85,8.8c-8.62,1.86-16.55,3.36-25.41,3s-17.93-.4-26.91-.39c-8.81,0-17.83-1.54-26.59-.56-4.12.45-7.25-.28-11.27-1-4.29-.71-8.58-.24-12.9-.29-9.21-.09-18.16-2.37-27.41-1.73a205.18,205.18,0,0,0-26,3.06c-5,1-9.19.31-14.13-.6a58.06,58.06,0,0,0-13-.72,79.42,79.42,0,0,1-13.62-.12c-3.88-.53-7.43-1.46-11.38-.93s-7.47,2.19-11.34,2.74c-4.45.62-9,.17-13.43.17-8.9,0-17.67,1.73-26.56,1.91-4.61.09-9.25-.37-13.85.05-4.13.38-8,1.94-12.19,2.1-4.45.17-8.86-.74-13.3,0-3.89.65-7.5,2.42-11.23,3.65-4.11,1.36-8.19,2.71-12.22,4.28s-8,1.83-12.31,2.6c-4.71.84-10.52,3.34-11.24,8.72-.19,1.46.48,2.5.44,3.89-.06,1.58-.14,1.27-1.1,2.52-1.12,1.45-2.78,2.69-3.43,4.48-1.12,3.08,1.18,4.09,3.94,4.21,1,0,1.3-1.66.24-1.84Z"/></g></g></svg>