<svg xmlns="http://www.w3.org/2000/svg" viewBox="0 0 51.81 49.75"><title>download</title><g id="Layer_2" data-name="Layer 2"><g id="download"><path d="M19.06,1.72l-.15-.59A1.53,1.53,0,0,0,16.7.23C6.31,4.85-1.55,14.81.26,26.75c.42,2.76,1.62,5.44,2.45,8.09a28.2,28.2,0,0,0,3.56,7.62c3.56,5,8.26,5.71,13.92,6.6,5.26.82,12.35,1.29,17.37-.82,4.62-1.94,8.38-6.42,10.81-10.64,5.6-9.72,4.49-21.89-4.28-29.44-1.88-1.62-3.64-3.77-5.91-4.85C35.16,1.86,31.29,1.42,28,.84,23.77.08,15.53-1.42,13,3.36c-.9,1.7,1.68,3.22,2.59,1.51,1.19-2.22,7.07-1.81,8.92-1.64a62.53,62.53,0,0,1,8.86,1.85C38.84,6.43,45,11.59,47.14,17s2.58,11.4.06,16.54C44.44,39.12,40.1,44.94,33.56,46A49,49,0,0,1,18,45.77C9.78,44.52,7.17,38.94,5.06,31.72c-1.64-5.56-2.75-9.5-.61-15.24C7,9.79,11.79,5.68,18.22,2.82L16,1.92l.15.59c.48,1.87,3.38,1.08,2.9-.79Z"/><path d="M28.24,13.36,27.71,12a1.51,1.51,0,0,0-2.95.4c0,2.48-.52,4.86-.63,7.32-.09,2.12.75,4.12.65,6.21h3c0-4.3,0-8.6,0-12.89a1.5,1.5,0,0,0-3,0c-.07,3.33-.7,6.68.2,10a1.52,1.52,0,0,0,2.51.66c1.25-1.09,1.19-2.91,1.07-4.43-.22-2.7-.75-5.33-.78-8.06a1.5,1.5,0,0,0-3,0V23.45a1.5,1.5,0,0,0,3,0V11.2h-3a44.52,44.52,0,0,0,.49,6c.13.88.9,3.68.1,4.38l2.5.66c-.81-3-.16-6.13-.09-9.16h-3c0,4.29,0,8.59,0,12.89,0,1.94,2.9,1.92,3,0,.11-2.12-.73-4.09-.65-6.21.1-2.46.66-4.84.63-7.32l-3,.4a5.62,5.62,0,0,0,.84,2,1.5,1.5,0,0,0,2.59-1.51Z"/><path d="M18.68,24.67l-.48-.09a1.51,1.51,0,0,0-1.15,2.74c2.78,1.75,5,4.26,7.25,6.62,1.36,1.42,3.32-.66,2.12-2.12a39.45,39.45,0,0,0-4.68-5A17.08,17.08,0,0,1,17.87,23l-2.35,1.82c1.49,1.58,3.12,3,4.6,4.6A21.57,21.57,0,0,0,24,33.1c1,.66,2.68-.47,2.2-1.7-.79-2-2.73-3.54-3.13-5.68-.36-1.9-3.25-1.1-2.9.79.44,2.29,2.32,3.62,3.14,5.69l2.2-1.7a22.78,22.78,0,0,1-3.71-3.7c-1.36-1.4-2.81-2.71-4.15-4.13a1.51,1.51,0,0,0-2.36,1.82,16.59,16.59,0,0,0,3.94,4.12,38.23,38.23,0,0,1,5.08,5.33l2.12-2.12c-2.44-2.55-4.84-5.2-7.86-7.09L17.4,27.48l.48.08c1.89.35,2.7-2.55.8-2.89Z"/><path d="M28.68,32l-.61-.11,1.11,1.44c.06-1.12,3.59-2.84,4.5-3.65,1.25-1.11,2.67-2.4,2.75-4.18a1.53,1.53,0,0,0-1.5-1.5c-3.69-.08-6.37,4.21-7.71,7.15-.67,1.47,1.08,3.12,2.35,1.82,3.4-3.46,6.06-7.68,9.6-11l-2.12-2.12a54.27,54.27,0,0,0-4.62,4.85c-1.08,1.41-1.73,3.91-3.35,4.73l2.05,2.05.44-.64c1.1-1.59-1.5-3.09-2.59-1.51l-.44.64c-.91,1.32.82,2.67,2.06,2,1.71-.87,2.49-2.7,3.4-4.28,1.31-2.25,3.37-3.93,5.17-5.77a1.5,1.5,0,0,0-2.12-2.12c-3.55,3.28-6.2,7.51-9.6,11l2.36,1.82c.83-1.82,2.76-5.72,5.12-5.67l-1.5-1.5c-.06,1.35-3.26,3.14-4.27,3.81-1.53,1-2.87,2.08-3,4a1.49,1.49,0,0,0,1.1,1.45l.6.12c1.89.35,2.69-2.54.8-2.9Z"/><path d="M21.61,36h-.47a1.5,1.5,0,0,0,0,3H34.48a1.5,1.5,0,0,0,0-3c-2.34-.12-4.67-.69-7-.66-2,0-4,.57-6.08.62-1.64.05-2.09,2.55-.4,3a25.85,25.85,0,0,0,9.51.67C32.88,39.2,36,39.4,38.06,38a1.5,1.5,0,0,0-1.15-2.74c-4.84.91-9.73.7-14.63.68a1.5,1.5,0,0,0,0,3c5.18,0,10.31.18,15.43-.79l-1.16-2.74c-1.35.92-4.89.94-6.5,1.14A23,23,0,0,1,21.79,36l-.4,2.94c2.05,0,4-.58,6.08-.62,2.33-.06,4.68.54,7,.66V36H21.14a1.5,1.5,0,0,0,0,3h.47a1.5,1.5,0,0,0,0-3Z"/><path d="M28.85,30.82l-.61.44L30.44,33c.76-2.31,6.17-5.43,7.91-7.09,1.43-1.36-.65-3.31-2.12-2.12-3.26,2.66-6.37,5.1-9.45,8l2.36,1.82c.53-.93,1.12-1.78,1.6-2.73a1.53,1.53,0,0,0-.53-2.05c-1.91-1.19-3.89-.77-5.84-2.12-2.25-1.56-3.89-4.06-5.73-6l-1.46,2.5c2.52,1.05,4,3.48,5.66,5.49s3.6,3.35,4.74,5.56l2.05-2.05c-2-.9-7.32-6.57-7.74-8.86l-1.84,1.84c3.62,1.15,4.39,6.87,6.38,9.66a1.52,1.52,0,0,0,2.36.3c2.29-2,4.42-4.2,6.56-6.35,1.82-1.8,3.11-4.25,5.22-5.72a1.5,1.5,0,0,0-1.52-2.59c-4.56,2.28-7.37,6.14-11.48,8.93L29.78,31A7.42,7.42,0,0,1,32,28.51c1.42-1.31-.7-3.42-2.13-2.12a9.78,9.78,0,0,0-3,3.79,1.52,1.52,0,0,0,2.21,1.7C33.18,29.1,36,25.22,40.57,23l-1.52-2.59c-2.16,1.51-3.22,3.47-5,5.37a89.65,89.65,0,0,1-7.42,7.17l2.36.31c-2.69-3.78-3.2-9.46-8.18-11A1.52,1.52,0,0,0,19,24c.36,2,2.29,3.63,3.54,5.08,1.71,2,3.12,4.45,5.58,5.57a1.51,1.51,0,0,0,2.05-2.05c-1.42-2.77-4-4.75-6-7.15S20.7,21.32,18,20.19c-1.48-.61-2.38,1.51-1.46,2.51,2.08,2.23,3.88,4.72,6.34,6.56a9.33,9.33,0,0,0,2.09,1.32c1.17.45,2.72.1,3.75.75l-.54-2.06c-.48,1-1.08,1.81-1.6,2.74a1.5,1.5,0,0,0,2.35,1.81c3.05-2.84,6.22-5.33,9.45-8l-2.12-2.12c-2.56,2.43-7.54,4.9-8.68,8.41a1.52,1.52,0,0,0,2.2,1.7l.62-.44c1.56-1.1.07-3.71-1.52-2.59Z"/><path d="M27.65,12a6.48,6.48,0,0,0-.52,4.46A46.68,46.68,0,0,1,27.44,24h3c0-4.08-.19-8.15,0-12.22.09-1.66-2.68-2.09-2.95-.4a66.37,66.37,0,0,0-.73,13.29h3c-.06-1.08-.36-2.14-.39-3.21-.05-1.45.33-2.94.38-4.39.09-2.21.11-4.18-.93-6.18a1.51,1.51,0,0,0-2.8.76c.1,2,.71,3.9.7,5.95a15.51,15.51,0,0,0,0,2.26c.17,1.32.92,2.54.54,3.91l2.51-.66c-1-1-.29-4.48-.37-5.78-.14-2.39-.17-4.88-1.29-7a1.51,1.51,0,0,0-2.79.76l0,.44c.16,1.91,3.17,1.93,3,0l0-.44-2.8.76c1.19,2.31.86,5.66.89,8.24,0,1.72-.07,3.87,1.24,5.18a1.51,1.51,0,0,0,2.5-.66c.61-2.18-.45-3.88-.51-6-.07-2.35-.56-4.57-.67-6.88l-2.79.75c1,1.86.61,4.57.4,6.59a33.65,33.65,0,0,0,.13,5.68c.09,1.92,3.07,1.93,3,0a62.25,62.25,0,0,1,.63-12.5l-2.95-.39c-.23,4.07-.05,8.14,0,12.22a1.5,1.5,0,0,0,3,0c0-1.83.11-3.7,0-5.52-.1-1.54-1-3.46-.2-4.9.91-1.7-1.68-3.22-2.59-1.52Z"/></g></g></svg>