<svg xmlns="http://www.w3.org/2000/svg" viewBox="0 0 52.98 50.22"><title>edit</title><g id="Layer_2" data-name="Layer 2"><g id="edit"><path d="M17.6,2.74C14.11,1.51,8.29,5.56,6,8,2,12.1.33,20.08,0,25.59c-.35,6.33,2.18,12.12,6,17.08a8.81,8.81,0,0,0,4.67,3.26c3.18,1.17,6.37,3.08,9.72,3.74,12.08,2.36,24.43-3,29.86-14C55,26,53.89,12,43.94,6.12,38.15,2.68,31.77-1,24.7.26,22,.76,18.4,1.44,16,2.73c-1.67.88-3.05,2.07-4.75,3A7.11,7.11,0,0,0,8.51,7.83a1.56,1.56,0,0,0-.23,1.81l.37.75c.87,1.72,3.46.2,2.59-1.52l-.37-.74L10.63,10c1.14-1.36,3.88-2.57,5.44-3.57a25.88,25.88,0,0,1,9.24-3.09C31.61,2.16,38,5.75,43,9.09c10.84,7.14,8.19,26.05-1.4,33.15-5.19,3.85-12.3,5.35-18.65,4.64-3.3-.37-5.84-1.67-8.87-2.88-3.45-1.39-5.19-2.3-7.26-5.49C2.91,32.41,2.2,26.17,4.13,19.18c1-3.82,2.35-8.12,5.75-10.46,1.44-1,5.18-3.7,6.93-3.09s2.6-2.25.79-2.89Z"/><path d="M14.75,27.88c-.81.63-1,2.34-1.27,3.27a34,34,0,0,0-.92,4.66c-.19,1.92,2.81,1.91,3,0a28.87,28.87,0,0,1,.73-3.39c.14-.62.34-1.22.5-1.84.05-.2.27-.73.08-.58,1.52-1.18-.61-3.29-2.12-2.12Z"/><path d="M14.56,34.81a2.2,2.2,0,0,0-1.2.31,1.51,1.51,0,0,0,.76,2.79c1.33,0,2.56-.73,3.78-1.17a37.88,37.88,0,0,1,4.56-1.35c1.88-.42,1.08-3.32-.8-2.9a37.79,37.79,0,0,0-4.06,1.19c-1,.35-2.39,1.26-3.48,1.23l.76,2.8-.32.1c1.93.07,1.93-2.93,0-3Z"/><path d="M17.49,29.63c3.39-3.4,7-6.54,10.66-9.61,3.33-2.78,7.94-4.95,10.72-8.27,1.23-1.47-.88-3.6-2.12-2.12S33.53,12,31.93,13.2c-2.18,1.6-4.37,3.27-6.39,5.05-3.45,3-6.92,6-10.17,9.25a1.5,1.5,0,0,0,2.12,2.13Z"/><path d="M37.55,12.23c-.19-.22-.2-.22,0,0l.23.28a3.07,3.07,0,0,1,.28.35,8.22,8.22,0,0,0,.8,1.13c.56.61,1.2,1.19,1.79,1.77,1.39,1.34,3.51-.78,2.12-2.12a24.19,24.19,0,0,1-1.84-1.81c-.6-.75-.95-1.72-1.84-2.18-1.71-.88-3.23,1.7-1.51,2.59Z"/><path d="M22.69,35.48c1.88-1.44,3.47-3.14,5.38-4.59,2.31-1.75,4.57-3.51,6.83-5.36,3.38-2.76,6.59-5.67,9.84-8.28,1.51-1.21-.62-3.32-2.12-2.12-3.2,2.56-6.18,5.26-9.37,7.87-2.08,1.7-4.17,3.34-6.32,4.94s-3.75,3.41-5.75,4.95c-1.51,1.16,0,3.77,1.51,2.59Z"/><path d="M34.43,17.44c-.6-.47-.81-.57-.61-.31a2.57,2.57,0,0,0,.28.37,2.67,2.67,0,0,0,.56.5c.15.11.32.18.47.28s.13.07,0-.05l.12.26a7.68,7.68,0,0,0,2,2,1.54,1.54,0,0,0,2.12,0,1.51,1.51,0,0,0,0-2.12c-.44-.36-.84-.73-1.25-1.13s-.59-.9-1-1.26c-.22-.18-.49-.29-.71-.46l-.2-.25a2.1,2.1,0,0,0-1.73-.84,1.5,1.5,0,0,0,0,3Z"/><path d="M41.55,16c-.32-.4-.41-.49-.28-.25,0,.07.07.14.1.2a2.43,2.43,0,0,0,.34.48,3.32,3.32,0,0,0,.47.37c.13.1.13.09,0,0s-.12-.19-.05,0l-.2-.76v.1a1.54,1.54,0,0,0,1.5,1.5c.73,0,1.61-.66,1.5-1.5a2.36,2.36,0,0,0-.33-1c-.12-.2-.6-.77-.86-.8s-.07,0,.11.13.21.23.11.07a2.06,2.06,0,0,0-.12-.26,1.87,1.87,0,0,0-.78-.77,1.55,1.55,0,0,0-2.05.54A1.51,1.51,0,0,0,41.55,16Z"/><path d="M15.09,32.27l.46-.13a1.48,1.48,0,0,0-1.47,1.3,1.5,1.5,0,0,0,1.07,1.64c-.32-.2-.39-.22-.19-.06s.29.23.44.34c.33.25-.13-.14.17.17a2.22,2.22,0,0,0,1.44.7,1.49,1.49,0,0,0,1.44-1.11A2.75,2.75,0,0,0,17.82,33c-.13-.19-.28-.38-.42-.56s-.26-.36-.16-.19a3.21,3.21,0,0,0-.88-1A1.51,1.51,0,0,0,14.1,32.5a2.69,2.69,0,0,0,.59,1.37c-.17-.25.11.2.11.2l.21.36c.31.61.66,1.23,1.4,1.39a1.51,1.51,0,0,0,1.69-2.2c-.2-.32-.43-.62-.66-.92s-.29-.39-.45-.58c0,0-.31-.34-.19-.19a1.55,1.55,0,0,0-1.88-.62,1.49,1.49,0,0,0-.87,1.77,3.84,3.84,0,0,0,.45.88c.11.15.22.29.34.43.31.38-.12-.2.13.18a1.5,1.5,0,0,0,2.59-1.51c-.15-.23-.33-.45-.5-.67,0,0-.18-.27-.11-.1L14.2,33.44a19.69,19.69,0,0,1,1.31,1.7l1.7-2.21c.58.57.78.69.57.37l-.1-.21c-.05-.1-.1-.21-.16-.31s-.19-.34-.3-.51l-.33-.44,0,0,.21.76,0-.11-2.25,1.3.11.08-.54-.53c.12.15.21.33.32.49l.33.43c.11.14.14.17.07.07a4.66,4.66,0,0,1,.32.53l.13.21c.09.14.09.12,0,0v-.8l0,.1L17,33.23h-.07l.76.2c-.13-.07-.1,0,.07.06l-.16-.15a4.74,4.74,0,0,0-.49-.4A4.36,4.36,0,0,0,16,32.19l-.4,3a1.75,1.75,0,0,0,1.06-.28,1.54,1.54,0,0,0,.53-2,1.51,1.51,0,0,0-2.05-.54Z"/></g></g></svg>