<svg xmlns="http://www.w3.org/2000/svg" viewBox="0 0 51.56 51.54"><title>email</title><g id="Layer_2" data-name="Layer 2"><g id="email"><path d="M17.94,1.39C13.83,1.93,11,6.53,8.2,9.2a38.09,38.09,0,0,0-5.43,5.92C.59,18.23.58,19.82.16,23.46-1,33.34,4.06,43.63,13.43,47.77c4.58,2,8.94.82,13.75.62,5.71-.24,9.6-3,14-6.32s8.3-4.9,9.25-10.48a29.25,29.25,0,0,0-2.49-17.74A32.34,32.34,0,0,0,36.63,2.3C31.27-.8,24.84-.2,19,.84A15.82,15.82,0,0,0,9.26,6.58a48.66,48.66,0,0,0-4.49,6.08c-1.73,3-1.61,5.89-2,9.21a25.07,25.07,0,0,0,2.73,14c1.32,2.57,2.85,5.53,4.4,7.95C11.26,46,13.8,47.39,16,48.74,25.26,54.6,36.42,50.4,44.15,44c8.89-7.32,9.94-22.31,2.29-30.91-3.59-4-10.8-8.1-16.1-9C25.91,3.35,18.86,2.93,15.55,6.5c-1.31,1.41.8,3.54,2.12,2.12,2.54-2.74,10-2,13.16-1.11,4,1.13,9.41,3.73,12.48,6.67,7.21,6.91,6.54,19.36.12,26.51-2.35,2.63-7.41,5.63-10.7,6.84-4,1.48-11,1.2-14.67-1-6.6-4-11.21-12.28-12.32-20C4.54,18.28,9,7.07,17.61,4.32A28.45,28.45,0,0,1,31,3.32c4.78,1,8.29,4.69,11.41,8.2a23,23,0,0,1,5.39,14.37c.07,2.06.16,4.8-.63,6.73-1,2.4-3.28,3.75-5.33,5.26-3.3,2.43-6.43,5.54-10.42,6.74-3.48,1.05-7.56.91-11.19,1.31C10,47.05,2.21,34.45,2.91,25.38c.38-4.89,1.56-8.3,5.1-11.95C9.4,12,11,10.77,12.37,9.34S16,4.64,17.94,4.39s1.92-3.25,0-3Z"/><path d="M15.28,20.06l-.63-.25a1.5,1.5,0,0,0-2.25,1.3,75.8,75.8,0,0,1,.68,8.77,29.46,29.46,0,0,0,.19,6.64,1.44,1.44,0,0,0,1,1,75.81,75.81,0,0,0,13.22.82c2.67,0,7.44.32,9.8-.94,2-1.08,1.44-3.56,1.44-5.53,0-4.81-.71-9.58-.66-14.36a1.5,1.5,0,0,0-3,0c0,4.29.66,8.52.67,12.82,0,1.32.32,3.92-.16,4.28-.79.6-4.82.69-5.53.73-1.84.1-3.71,0-5.55,0S18,36.15,16.68,35c-1.55-1.39-.55-4.72-.6-6.54-.06-2.44-.46-4.87-.68-7.3L13.14,22.4a2.72,2.72,0,0,0,2.14.66,1.5,1.5,0,0,0,0-3Z"/><path d="M15.67,18.5l-.47-.61L13.74,20.4c3,.48,6,3.91,8.31,5.92,1.47,1.31,2.76,3.05,4.94,2.91,2.59-.16,4.1-3.47,5.58-5.18,1.62-1.87,4.09-3.55,4.8-6a1.52,1.52,0,0,0-1-1.85c-7.32-1.5-15.06,1.17-22.38,1.18a1.5,1.5,0,0,0,0,3c7,0,14.62-2.71,21.58-1.28l-1-1.85c-.61,2.11-3.67,4.21-5.1,5.87-.38.45-1.05,1.67-1.58,2-1.8,1-2.68-.26-4-1.24-3-2.14-5.4-5.73-9.23-6.34A1.51,1.51,0,0,0,13.07,20l.48.61c1.19,1.52,3.3-.62,2.12-2.12Z"/></g></g></svg>