<?xml version="1.0" encoding="utf-8"?>
<!-- Generator: Adobe Illustrator 22.0.1, SVG Export Plug-In . SVG Version: 6.00 Build 0)  -->
<svg version="1.1" id="Layer_1" xmlns="http://www.w3.org/2000/svg" xmlns:xlink="http://www.w3.org/1999/xlink" x="0px" y="0px"
	 viewBox="0 0 251 545" style="enable-background:new 0 0 251 545;" xml:space="preserve">
<g>
	<g>
		<g>
			<path d="M69.5,40.3c0-0.1,0-0.2,0.1-0.3c0.1-0.5-0.2-1.1-0.8-1c-2.2,0.2-3.3,1.8-5.1,3.1c-2.2,1.6-4.4,2.9-6.4,4.6
				c-4.9,4.2-9.6,9.8-13,15.3c-3.4,5.6-7.3,10.9-9.7,17c-1.4,3.5-4.5,12-1.7,15.6c0.8,1.1,2.7,0.9,3.3,1.6c1.5,1.7-1.4,4.2-1.6,6
				c-0.3,3.2,0.2,2.3-3.7,3.2c-1.2,0.3-2,0.3-2.9,1.4c-0.5,0.6-0.4,1.4-0.8,2c-1.3,1.9-3.1,1.5-5.1,2.2c-1.8,0.7-2.9,1.4-3.9,3.1
				c-1.4,2.6-1.5,8.2,1,10.1c1.3,1.1,3.1-0.6,1.9-1.9c-2.8-3.1,0.2-7.9,3.4-8.6c1.5-0.3,2.8,0,4.1-1.1c1-0.9,0.8-2.1,1.5-3.1
				c1.3-1.8,3.4-1.1,5.5-2c3.7-1.6,1.7-4,3.1-7c1-2.2,3.2-4.1,0.6-6.4c-0.9-0.8-2.4-0.5-3.3-1.2c-2.7-2.1-0.1-8,0.6-10.4
				c1.9-6.2,5.5-11.4,8.9-16.9C49,60,53.2,54.5,57.9,49.9c0.7-0.7,11.1-8.3,10.3-9.3C68.7,40.9,69.4,40.7,69.5,40.3L69.5,40.3z"/>
		</g>
	</g>
	<g>
		<g>
			<path d="M66.7,40.6c-0.2,0-0.5,0-0.7,0c0.2,0.5,0.4,1,0.6,1.5c4.5-5.3,9-9.9,15.3-12.9c3.4-1.6,7-2.6,10.5-3.9
				c3.9-1.5,7.5-3.4,11.6-4.5c3.3-0.8,6.6-1.7,9.8-2.5c3.9-1,7.9-0.2,11.9,0.4c7,1.1,14.1,1.6,20.9,3.3c6.5,1.6,13.2,4.2,18.9,7.8
				c3,1.9,4.2,4.7,6.7,7.1c2.1,2,4.6,3.9,7.1,5.4c3.1,1.9,6.6,3.2,9.7,5.1c2.5,1.6,4.9,3.8,7.1,5.9c1.9,1.9,4.6,3.8,6.1,6
				c1.8,2.6,3.5,5.6,5,8.5c2.6,4.9,5,9.8,7.9,14.5c1.3,2.1,2.9,4.1,4,6.3c1.7,3.4,2.6,7.8,3.7,11.4c2,6.4,3.9,14.2,3.1,20.8
				c-0.2,2-0.3,4,0.8,5.8c1.7,2.7,6.9,5.4,1.7,8.1c-2.4,1.2-7.2,0.7-6.8,4.9c0.3,3.1,3.9,2.7,2.3,7c-0.5,1.2-2.3,2.7-3.1,3.8
				c-1.3,1.8-2.7,3.5-4,5.3c-3.7,4.9-3.7,9.9-5.5,15.5c-2.2,7-12.4,19.6-18.9,9.9c-3.7-5.5-5.4-12.4-8.5-18.3c-1-1.9-3-3.8-3.9-5.6
				c-1.2-2.5,1.2-5.8,1.2-8.7c0-4.7-4.9-8.4-9.5-7.7c-5.5,0.8-9.4,5.2-12,9.6c1,0.3,2.1,0.6,3.1,0.8c-0.1-3.2-2.1-6.9-5.8-5.7
				c-5.9,1.9-7,11-10.3,15.2c-2.2,2.8-5.4,5.3-8.4,7.1c-3.6,2.3-6.2,1.6-10.3,1.3c-4.6-0.4-7.7,2.2-8.6,6.7c-0.8,4-0.8,6.7-3.8,9.8
				c-2.2,2.3-7.6,7.4-11.4,5.5c-6.4-3.3-2.4-13.3-5.4-18.4c-3.1-5.3-10.3-2.1-15-4.1c-4.2-1.8-6.1-5.6-8.8-9
				c-1.5-1.8-7.4-6.1-5.5-8.5c0.5-0.6,0.2-1.6-0.3-2.1c-3.2-3.2-7.9-1.7-11.3,0.3c-3,1.8-4.9,5.1-8.4,1.9c-1.5-1.4-1.7-2.6-4-2.4
				c-0.6,0.1-1.3,0.3-1.5,0.9c-1,2.3-0.5,3.4,0.6,5.6c2.7,5.4,2.2,11.1-4.9,12.5c-4.8,0.9-9-2.1-10-6.7c-1.1-5.2,3.2-5.7,5.4-8.9
				c2.7-3.9-1.1-7.8-3.9-10.4c-3.2-2.9-7.8-5.4-8.1-10.4c-0.2-3.9,2.6-8.9,4.5-12.1c1.2-1.9-1.9-3.7-3-1.8
				c-2.7,4.4-5.8,10.4-4.8,15.7c1.3,6.2,7.2,8.1,10.7,12.6c3.7,4.9-0.7,5.3-2.9,8.4c-1,1.4-1.5,3-1.6,4.7c-0.2,4.3,2.4,9,6.2,11.1
				c8.1,4.7,19.8-2.4,17.6-12c-0.2-1.1-0.7-2.2-1.3-3.2c-1.2-1.9-3.6-3.8-1-0.5c1,1.3,1.9,2.4,3.6,2.7c5.2,1,10.8-10.4,15.7-5.6
				c-0.1-0.7-0.2-1.4-0.3-2.1c-4.1,5.5,3.8,9.8,6.8,13.8c3.6,4.8,7,9.2,13.5,10c3.8,0.4,9.1-1.6,9.7,4.1c0.3,3.1,0.2,5.9,0.9,9
				c1.1,4.3,4.1,9.5,9.2,8.9c5.1-0.6,10.7-5.2,13.6-9.2c1.6-2.2,2-4.6,2.4-7.4c0.6-4.1,1.7-5.6,6.2-5.8c1.5-0.1,2.9,0.7,4.4,0.6
				c4.6-0.3,9.1-3.7,12.4-6.5c2.1-1.8,4.3-4,5.5-6.5c1.1-2.2,1.8-4.6,3-6.7c0.8-1.4,5.3-7,5.4-2.3c0.1,1.6,2.2,2.3,3.1,0.8
				c2.4-4.1,5.1-7.2,10-7.3c7.9-0.1,3.9,6.7,3.6,11.2c-0.1,1.8,0.2,2.2,1.2,3.5c2.6,3.3,4.3,6.5,6,10.5c2.1,5,4.1,11.7,8.1,15.5
				c4.4,4.1,7.6,4.1,12.3,0.8c4.6-3.1,8.1-7.7,10.1-12.9c1.1-2.6,1-5.4,1.8-8.1c1.2-4.5,3.9-7.7,6.6-11.4c3.3-4.5,7.9-7.6,4-12.9
				c-1.8-2.5-0.6-1.4,2-2.5c2.2-0.9,4.8-2.5,5.7-4.9c0.4-1.3,0.3-2.3-0.3-3.5c-0.6-1.1-1.8-2-2.6-3.1c-1.6-2.3-1.8-4.3-1.9-7.3
				c-0.1-6.5-1.5-13.3-3.3-19.6c-1.8-6.2-3.5-11.6-7-17c-3.6-5.6-6.5-11.6-9.7-17.4c-1.4-2.4-2.9-4.8-4.3-7.2
				c-1.4-2.4-3.4-3.7-5.4-5.6c-2.2-2.2-4.5-4.4-6.9-6.4c-2.7-2.1-6-3.3-9-4.9c-3.1-1.6-6-3.7-8.7-5.9c-2.5-2.1-3.7-5.1-6.3-7.1
				c-5.3-3.8-12-6.3-18.2-8.3c-8.1-2.6-16.8-2.9-25.1-4.3c-3.4-0.6-7.1-1.2-10.6-0.7c-3.6,0.5-7.3,1.9-10.8,2.8
				c-4.5,1.1-8.2,3-12.4,4.7c-3.4,1.4-7,2.4-10.3,3.9C74.1,29.9,69.6,34.9,65,41c-0.4,0.5,0.1,1.4,0.7,1.3c0.2,0,0.5,0,0.7-0.1
				C67.8,42.2,67.8,40.5,66.7,40.6L66.7,40.6z"/>
		</g>
	</g>
	<g>
		<g>
			<path d="M25.2,115.8c1.4,2.8,2.6,9.2,7.1,8.1c5.2-1.3,4.4-8.1,7.8-10.9c-0.6,0-1.2,0-1.9,0c0.3,0.4,0.2,3.1,0.4,3.6
				c0.3,1,0.9,2.1,1.7,2.8c2.4,1.9,4.4,0,6-1.8c1.4-1.6,2.7-3.2,4-4.8c2.2-2.6,5.2-2.3,8.2-1.1c5.3,2,11.2,1.2,16.7,2.3
				c1.9,0.3,2.7-2.3,0.8-2.9c-4.7-1.4-9.6-0.5-14.3-1.7c-3.2-0.8-6.2-3.2-9.6-2c-3.1,1.1-5.2,4.7-7.2,7.1c-0.4,0.4-1.2,2-1.7,2.1
				c-3.5,0.7-1.9-2.4-2.4-3.6c-0.4-0.8-0.2-1-0.8-1.8c-0.5-0.6-1.4-0.4-1.9,0c-1.6,1.3-2.1,3-2.8,4.9c-1.1,3.1-0.6,3.7-4.3,2.8
				c-3.4-0.8-2.9-1-4.7-3.8C26,114.2,24.7,114.9,25.2,115.8L25.2,115.8z"/>
		</g>
	</g>
	<g>
		<g>
			<path d="M70.1,110c-0.1-0.3-0.2-0.5-0.2-0.8c-0.3,0.4-0.6,0.7-0.9,1.1c1.5,0.1,3,1.4,4.5,1.8c2.5,0.7,5.1,0.8,7.7,1.2
				c0.8,0.1,3.7,0.4,4,1c0.5,1-0.5,1-0.9,1.6c-0.5,0.9-1.2,0.9-1.4,2c-0.1,0.9,0.3,1.7,1.3,1.7c3.2,0,6.4-1,9.6-1.1
				c2.1-0.1,7.2-1.1,6.6,1.7c-0.3,1.4-3.3,3.9-4,5.4s-1.4,3.2-1.3,4.9c0.4,3.6,3.8,4.8,7,3.7c4.7-1.7,5.1-7,3.9-11.2
				c-0.5-2-3.6-1.1-3.1,0.8c0.7,2.5-0.5,10.5-3.4,6.2c-1.2-1.7-1.2-1.6-0.3-3.4c0.8-1.7,2.1-3,3.2-4.4c1.3-1.6,2.6-3,1.2-4.9
				c-1.2-1.6-4.1-1.7-5.9-1.8c-4.6-0.2-9,1.3-13.5,1.4c0.4,0.4,0.9,0.9,1.3,1.3c0.1-1.2,2.8-1.5,3-3.3c0.1-1.4-1.2-2.4-2.3-3
				c-2.2-1.3-5.2-1.2-7.7-1.4c-2.8-0.2-4.9-1-7.5-1.7c-0.9-0.2-1.2-0.5-2.1-0.5c-0.5,0-1.1,0.6-0.9,1.1c0.1,0.3,0.2,0.5,0.3,0.8
				C68.9,111.4,70.4,111.1,70.1,110L70.1,110z"/>
		</g>
	</g>
	<g>
		<g>
			<path d="M136.8,119.1c-3.3-1.6-6.8-2.3-10.4-3.2c-2.8-0.7-7.4-0.6-9.8-2.4c0.2,0.7,0.4,1.4,0.6,2.1c0.8-1.1,8.2-0.3,9.3-0.2
				c-0.3-0.8-0.7-1.6-1-2.4c-1,0.8-3.3,1-4.5,1.3c-2.5,0.6-4.9,0.9-7.6,1.1c-5,0.3-9.9,0.1-14.9,0c-1.5,0-1.4,2.1,0,2.3
				c6,0.8,12,0.6,18,0.2c3.1-0.2,8-0.8,10.6-2.6c0.9-0.6,1-2.3-0.3-2.5c-3.2-0.6-10.1-1.7-12.4,1.3c-0.6,0.7,0,1.7,0.6,2.1
				c1.9,1.5,5.1,1.6,7.4,2.1c4.2,0.8,8.8,1.7,12.7,3.5C137,122.8,138.6,120.1,136.8,119.1L136.8,119.1z"/>
		</g>
	</g>
	<g>
		<g>
			<path d="M128.1,117.4c-0.3,0.2-0.5,0.3-0.8,0.5c-0.6,0.4-0.9,1.3-0.2,1.8c4.3,3.4,12.2,2.1,17.2,2.1c1.7,0,10.2-0.9,10.9,0.7
				c0.4,1-1.1,3.5-1.1,4.9c0,0.7,0.6,1.3,1.4,1.4c2.4,0,4-1.4,6.1-2.5c3.4-1.7,5-1.5,7.5,1.8c0.6,0.8,1,1.8,1.6,2.6
				c2.8,3.6,8.7,5.3,13,3.8c0.8-0.3,1.4-1.1,1.1-1.9c-1-2.8-5.4-5.4-8.2-5.7c-1.3-0.1-1.9,1.4-1.4,2.4c1.3,2.7,5.4,3.8,7.9,5.2
				c1.6,0.9,8.4,3,8.5,4.9c0.1,2.1,3.2,2.1,3.3,0c0.1-2.2,1.1-6.4,3.1-7.8c-0.7-0.1-1.3-0.2-2-0.3c2.5,2-0.7,7,3.3,8.5
				c1.1,0.4,2.2,0.1,3.2-0.3c0.6-0.2,4.5-3.3,4.7-2.2c0.3,1.7,3.4,1.4,3.1-0.4c-0.4-2.8-2.3-4.2-5.1-3c-0.9,0.4-1.5,1.4-2.4,1.6
				c-2,0.6-2.2-0.6-2.8-2.3c-0.6-1.8-0.1-2.9-1.8-4.2c-0.5-0.4-1.4-0.7-2-0.3c-3.1,2.2-4.6,7.1-4.7,10.7c1.1,0,2.2,0,3.3,0
				c-0.1-2.8-2.2-4.1-4.7-5.2c-1.9-0.8-3.7-1.5-5.5-2.5c-1.6-0.9-6-2.4-6.8-4c-0.5,0.8-0.9,1.6-1.4,2.4c1.1,0.1,4.9,2.4,5.2,3.3
				c0.4-0.6,0.7-1.3,1.1-1.9c-4.6,1.7-9-1.2-11.2-4.9c-1-1.6-1.7-3.2-3.4-4.1c-5.1-2.6-8.2,3.5-12.8,3.5c0.5,0.5,0.9,0.9,1.4,1.4
				c0-3.1,4.4-6.7-0.9-8.1c-3.8-0.9-8.8,0-12.6,0c-4.3,0-11.2,1.2-14.8-1.4c0.1,0.6,0.2,1.2,0.2,1.8c0.2-0.2,0.5-0.4,0.7-0.6
				C130.4,118.4,129.1,116.7,128.1,117.4L128.1,117.4z"/>
		</g>
	</g>
	<g>
		<g>
			<path d="M107,114.6c1.8,0.8,3.9,0.5,4.2-1.9c0.3-2.2-1.8-3.7-3.4-4.6c-2.8-1.7-6.7-2-9.9-2c-2.6,0-5.2,0.7-7.8,0.7
				c-5.3-0.1-7.1-3.2-9.4-7.1c-3.7-6.5-10.3-1.7-15.3,0.5c-0.9,0.9-2.1,1.1-3.3,0.5c-1.6,0.5-2.5-0.1-2.7-1.6
				c-0.7-0.9-0.9-2.3-1.4-3.3c-1-2.1-2.4-4-4-5.6c-4.1-4.1-10.4-6-10.8-12.5c-0.1-1.4-2.4-1.9-2.6-0.4c-1.3,8.6,7.6,10.9,12.3,16.4
				c2.4,2.9,3,8.6,6.3,10.7c2.3,1.5,5.1,0,7.1-1.2c1.6-1,3.2-2,5-2.8c3.2-1.4,4.8-1.9,7.4,1.5c2,2.6,3.1,5.3,6.5,6.6
				c3.6,1.4,7.5,0.4,11.3,0c1.9-0.2,3.7-0.1,5.6,0.1c1.7,0.2,3.4,0.4,4.9,1.1c0.5,0.2,0.9,0.5,1.3,0.9c1.5,0.7,1.3,1.7-0.8,3.1
				C106.6,113.4,106.4,114.3,107,114.6L107,114.6z"/>
		</g>
	</g>
	<g>
		<g>
			<path d="M84.1,60.1C79.3,58.6,74,62.8,69.9,65c-5.4,2.9-11.6,5.9-16.3,9.9c-0.5,0.4-0.5,1.2-0.2,1.7c1.7,3.3,8.2-0.2,10.7-0.8
				c2.4-0.6,5.5-1.3,8-0.6c3.7,1,3.9,3.6,4.4,6.7c0.4,2.4,1,4.9,2.6,6.8s3.5,2.3,5.9,2.1c2.5-0.2,3.3-1.2,5.6,0.2
				c2.3,1.4,3,3.4,4.7,5.4c3.4,3.9,9.8,5.2,11.6-0.9c1.6-5.4-1.6-9.3-6.6-10.7c-1.5-0.4-3-0.7-4.5-1.1c0.2,0-2.1-0.5-2.3-0.7
				c-1.1-1.2-0.4-0.3-0.1-1.6c0.6-3.3,3-5.1,2.2-8.7c-0.3-1.2-1.8-3.1-1.6-4.2c0.5-2.4,5.1-2.8,6.8-2.9c2.3-0.2,4.9,0,7.1,0.7
				c4.3,1.4,5.2,4.1,4.5,8.6c-0.7,4.1-3,11.8,3.7,11.7c2.7,0,5.5-1.5,7.9-2.6c1.3-0.5,3.9-2.2,5.2-1.7c2.6,0.8,2,4.8,2.8,6.8
				c3.3,8.2,15.5,7.6,22.6,7.8c2,0.1,1.9-2.9,0-3c-4.6-0.4-9.5-0.2-13.9-1.6c-3.9-1.2-5.3-2.9-6.3-6.9c-0.3-1.3-0.3-2.6-1.1-3.8
				c-2.6-4.3-7.8-1.6-11.4-0.1c-1.2,0.5-2.3,1-3.5,1.4c-3.6,1.1-4.4-1.1-3.8-4.6c0.6-3.3,1.8-6.7,0.4-10c-2.2-5-8.8-6.1-13.7-6
				c-3.7,0.1-11.5,0.9-11,6c0.1,1.1,0.7,2.1,1,3.1c1.1,3.3,0.6,4.8-0.8,7.7c-0.9,1.9-2.6,3.6-1,5.6c1.2,1.6,4.7,2,6.4,2.4
				s4.1,0.6,5.6,1.6c1,0.7,1.8,2.1,2.1,3.3c0.2,0.9,0.1,1.7-0.2,2.6c-1.8,0.2-3.6,0.4-5.3,0.6c-2.8-1.1-3.6-6.3-6.5-7.9
				c-2.6-1.4-4.7,0.4-7.5,0.4c-7.6,0-3.4-12.5-10.4-15c-3.4-1.3-7.4-0.6-10.8,0.3c-0.9,0.2-7.3,2.6-7.5,2.1
				c-0.1,0.6-0.1,1.1-0.2,1.7c3.7-3.4,8.9-6.1,13.2-8.7c3.7-2.2,10.5-7.8,14.9-6.7C84.6,61.6,85,60.4,84.1,60.1L84.1,60.1z"/>
		</g>
	</g>
	<g>
		<g>
			<path d="M119,183.4c-0.2,0-0.4,0.1-0.5,0.1c-0.7,0.1-1,1-0.7,1.6c1.4,2.5,2.4,4.9,3.1,7.7c0.5,1.9,0.9,3.9,2.1,5.5
				c1.4,1.9,3.8,4.1,6.2,4c1.6-0.1,2.5-1.2,3.9-1.6c3.4-1,3.3,1.8,4.2,4.4c0.4,1.4,0.8,2.8,2,3.7c1,0.7,2.8,0.6,2.7,2.1
				c0.5-0.6,1-1.3,1.5-1.9c-1.1,0.5-1.7,0.3-2.7,1c0.9,0.9,1.9,1.9,2.8,2.8c0.1-0.2,0.8-2.1,1-2.1c-0.8-0.5-1.7-1-2.5-1.4
				c0.4,1.9,0.7,4.8-1,6.3c1.2,0.7,2.3,1.3,3.5,2c0.2-0.4,0.4-0.9,0.7-1.3c-1.2-0.7-2.4-1.4-3.6-2.1c-1.2,2.6-1.4,6.2-3.4,8.3
				c1.2,0.3,2.3,0.6,3.5,0.9c0.1-0.5,0.3-1,0.4-1.5c-1.3-0.5-2.6-1.1-3.8-1.6c-0.6,1.5-1.8,3.1-3.1,4.1c1,0.8,2.1,1.6,3.1,2.4
				c0.4-0.7,0.8-1.4,1.2-2.1c1.1-1.8-1.1-4-2.9-2.9c-1.1,0.7-2,1.7-3.1,2.2c-2.1,1.1-3.6,0.3-5.7,0.9c-1.6,0.4-2.8,1.3-3.9,2.7
				c-2.2,2.9-2.6,7.7-0.8,11c-0.2-0.3,1.7,2.4,1.7,2.1c0.1,0.9,0.7-0.1-1,0.6c-1.8,0.8-3.2,1.2-4.5,2.8c-2.9,3.3-4,7.1-0.8,10.5
				c1-1,2-2,3-3c-1.3-1.1-2.4-1.8-4.2-2c-1.4-0.2-2.7,0.5-2.7,2.1c-0.1,1.8,0,2,0.4,3.7c0.5-0.9,1-1.8,1.5-2.6
				c-3.1,1.2-6.8,0.3-9.3,3c-2.1,2.3-0.9,3.8,0.4,6c0.4-1.1,0.9-2.1,1.3-3.2c-2.5,0.4-4.5-0.1-5.9,2.5c-1.5,2.8,0.3,4.4,1,7
				c0.7-0.9,1.4-1.8,2.1-2.7c-1.8,0-3.3-1.2-5.3-0.9c-2.6,0.3-5.9,1.4-7.6,3.6c-1.2,1.6-1.9,4-1.2,6s2.6,2.7,3.9,4.3
				c0.3-1.2,0.6-2.4,1-3.6c-2.9,0.6-5.8,1.6-6.8,4.7c-0.5,1.7-0.7,3.9-1,5.7c-0.4,1.9,0.5,3.6,0,5.5c-0.6,2.8-4.3,2.2-5.4,5.4
				c-1,2.9,0.1,6.4,2.7,7.9c1.9,1.1,4.2-1.6,2.4-3.1c-3.7-3.1,1.1-3.9,2.6-5.1c1.4-1.2,1.9-3.3,2.1-5c0.5-4.1-0.7-10.7,4.6-11.7
				c1.8-0.3,1.9-2.5,1-3.6c-0.1-0.1-1.8-1.6-1.8-1.8c-0.4-2.3,2.3-4.7,4.3-4.7c1.7-0.1,2.9,0.9,4.7,0.9c1.4,0,2.5-1.4,2.1-2.7
				c-0.3-0.9-1.3-2.5-1-3.3c0.4-1,1.6-0.7,2.8-0.9c1.4-0.2,1.9-2.1,1.3-3.2c-1.1-1.8-0.6-1.4,2-1.9c1.6-0.3,2.8-0.2,4.3-0.8
				c1.1-0.4,1.8-1.4,1.5-2.6c-0.1-0.9-0.2-1.7-0.3-2.6c-0.9,0.7-1.8,1.4-2.7,2.1c0.8,0.3,1.5,0.6,2.3,0.9c2.1,1.8,4.9-1,3-3
				c-0.8-0.9-0.1-3,0.4-3.8c1.7-3.3,1.8-1.7,3.5-2.4c0.9-0.3,1.9-0.4,2.7-0.9c1.8-1.3,2.2-3.4,1.1-5.2c-0.9-1.5-2.4-2.3-2.8-4.2
				c-0.5-2.5,0.5-5.5,3.1-6.1c1.5-0.4,3,0.2,4.5-0.4c1.7-0.7,3.1-2.1,4.7-3.1c-1-1-1.9-1.9-2.9-2.9c-0.6,1.1-1.2,1.9-1.6,3.1
				c-0.5,1.6,1.6,3.5,3.1,2.4c2.3-1.7,4-3.9,5-6.6c0.9-2.2-2.8-3.7-3.8-1.6c-0.8,1.7-1.1,2.9-0.8,4.7c0.2,1.6,2.5,2,3.5,0.9
				c2.4-2.7,2.6-6,4-9.2c1.1-2.4-2.1-4.4-3.6-2.1c-0.5,0.9-0.7,1.3-1.1,2.3c-0.7,2.1,2,3.3,3.5,2c3-2.6,2.7-6.7,2.1-10.3
				c-0.2-1.1-1.5-1.7-2.5-1.4c-2,0.5-2.5,2.3-3.4,4c-0.9,1.6,1,4.1,2.8,2.8c0.6-0.4,1.6-0.5,2.2-0.8c0.6-0.3,1-1.1,1-1.7
				c0-1.7-0.7-2.7-1.4-4.3c-0.3-0.6-1.1-1-1.7-1c-2.5,0.2-3.2-6.7-4.5-8.1c-1.5-1.7-3.9-1.3-5.8-0.6c-1.2,0.5-2.8,2-4.2,1.7
				c-2.1-0.4-3.8-3.5-4.5-5.2c-1.3-3.5-2.3-6.2-4.3-9.4c-0.2,0.5-0.4,1.1-0.7,1.6c0.2,0,0.3-0.1,0.5-0.1
				C121,185.2,120.4,183.2,119,183.4L119,183.4z"/>
		</g>
	</g>
	<g>
		<g>
			<path d="M50.3,159.9c-1.6,2.2-0.1,5.7,0.5,8.2c0.6,3.1,1.6,6.4,2.6,9.4c1.1,3.4,3,6.1,2.9,9.9c-0.1,6.2,1.9,11.2,2.9,17.3
				c0.5,3.3,1.8,6.2,2.5,9.4s0.5,6.6,1.5,9.8c0.8,2.5,2.5,4.1,3.7,6.2c1.4,2.4,0.3,4.2,0.5,7c0.1,1.3,0.7,2.3,0.9,3.5
				c0.3,1.9,0,3.1-0.2,5c-0.3,3,1.4,4.4,1.9,7.3c0.7,3.5,0.9,7.3,1.4,10.8c0.4,2.7,1.5,5.1,2,7.8c1.2,6.4,2.5,12.6,3.2,19
				c0.6,5.6,1.3,11.2,2.2,16.8c0.4,2.8,1.5,5,2.7,7.5c1.6,3.4,1.8,7,2.3,10.7c0.5,3.3-0.1,6.6,0.6,9.8c0.7,3.6,2.1,6.5,1.4,10.3
				c-0.5,2.4-1.4,4.3-1.1,6.8c0.5,4.1,2.3,8.1,3.4,12.1c2,6.9,3.1,14,4.2,21.1c0.6,4.1,1.7,8.1,2,12.2c0.3,3.9-0.3,7.7,0.9,11.5
				c1.9,6.2,6.3,11.4,8,17.8c2.2,8,0.8,15.9,1.6,24c1.6,14.7,3.1,29.6,7.1,43.8c2.2,7.6,4.1,15.5,6.5,23c0.6,2,1.3,2.3,3.1,3.1
				c1.5,0.7,2.3,0.8,3.7,2.3c0.9,1,1.1,1.5,2.3,2.3c1,0.7,2.3,0.1,2.9-0.8c1-1.5,1.3-2.8,1.5-4.6c0.3-2.9,0.8-5.7,1.3-8.6
				c0.9-5.6,1.8-11.2,2.8-16.7c1-5.7,3.3-11.3,4.7-16.9c1.4-5.4,1.8-11.1,3.6-16.4c1.6-5,3.7-9.7,4.8-14.8
				c1.1-5.2,1.1-10.6,1.6-15.9c0.9-11,3.1-21.7,4.7-32.6c1.9-12.7,5.3-24.7,8.4-37.1c1.4-5.6,2.1-11.3,3.5-16.9
				c1.3-5,3.1-9.8,4.7-14.8c3.4-10.6,7.1-21.9,8.7-32.9c1.5-10.9,2.8-21.8,4-32.7c0.8-7.1,1.7-14.1,2.4-21.2
				c0.6-6.5,1.2-13,2.5-19.3c2.7-13,8.7-25.1,10-38.3c0.3-2.8-4.1-2.8-4.4,0c-1.2,12.3-7,23.5-9.5,35.6c-2.4,11.4-2.3,22.9-4.1,34.4
				c-1.6,10.2-2.7,20.5-3.7,30.8c-1.2,11.6-4.3,22.9-7.4,34.1c-3,10.8-7.1,21-9,32.1c-2,12.1-6.5,23.6-8.8,35.7
				c-2,10.8-4,21.7-5.5,32.6c-1.4,10.2-0.6,20.5-3.5,30.5c-1.6,5.4-3.8,10.5-4.9,16c-1.4,6.4-2.6,12.7-4.4,19
				c-1.8,6.3-3,12.5-4.5,18.8c-0.7,3.2-0.7,6.5-1.4,9.7c-0.5,2.6-0.1,6.5-1.6,8.6c1-0.3,2-0.5,2.9-0.8c-1.5-1.1-1.5-3.4-3.2-4.5
				c-0.7-0.5-1.7-0.5-2.4-0.8c-2.4-1.2-0.6,1-1.7-1.6c-2.9-6.5-4.4-14.4-6.4-21.3c-3.6-12.8-5.2-26.2-6.6-39.4
				c-0.7-6.4-0.2-12.6-0.7-19c-0.5-6.9-2.5-13.3-5.7-19.5c-1.8-3.5-4-6.7-4.5-10.8c-0.3-3,0.1-6.1-0.3-9.1c-1-7.4-2.2-15-3.7-22.3
				c-1.4-6.9-4.4-13.8-5.5-20.7c-0.4-3,0.7-5.3,1-8.2c0.4-3.4-0.6-5.9-1.3-9.1c-1.4-6.1-0.4-12.6-1.9-18.8c-0.5-2-1.6-3.7-2.4-5.5
				c-1.7-3.5-2.1-7.8-2.6-11.7c-1.3-11.4-2.6-22.6-5.6-33.7c-1.5-5.7-1.9-11.7-3.4-17.4c-0.7-2.8,0.2-5.2-0.4-7.9
				c-0.5-2.3-1.4-3.1-1.1-5.8c0.1-1,0.6-1.9,0.6-2.9c0-2.3-1-3-2.4-4.5c-3.1-3.4-3.2-7-3.8-11.2c-0.6-3.8-2-7.1-2.8-10.7
				c-0.7-3.3-1.2-6.4-2.2-9.6c-1.2-3.9-0.6-7.2-1-11.1c-0.4-3.2-2.3-5.1-3.4-8c-1.4-3.5-2.6-7.3-3.4-11c-0.2-0.9-1.5-4-1-5
				C52.5,159.8,51,159.1,50.3,159.9L50.3,159.9z"/>
		</g>
	</g>
	<g>
		<g>
			<path d="M154.9,158c-0.7-0.4-1.4-0.7-2.2-1.1c-0.4-0.6-1.3-0.8-1.9-0.2l0,0c-0.9,1,0.2,2.6,1.5,1.9c3.1-1.7,8.8-1,12.2-0.8
				c4.8,0.4,9.7,0.8,14.4,2c0-1.2,0-2.4,0-3.5c-1.2,0.3-2.3,0.4-3.5,0.2c-1.4-0.4-2.8,1.6-1.6,2.7c2.1,1.7,3.5,1.2,6.1,0.7
				c1.8-0.3,1.7-3.1,0-3.5c-5.7-1.3-11.9-1.7-17.8-1.8c-3.4,0-8.5-0.1-11.3,2.1c0.7,0.2,1.4,0.4,2,0.5c0,0,0,0,0-0.1
				c-0.6,0.4-1.2,0.9-1.7,1.3c1.3,0.7,2.3,0.9,3.8,0.8C155.8,159.3,155.7,158.1,154.9,158L154.9,158z"/>
		</g>
	</g>
	<g>
		<g>
			<path d="M165.2,152.4c-0.6,0.3-1.2,0.5-1.7,0.8c0.3,0.8,0.6,1.5,0.9,2.3c1.8-2.3,4.2-3.6,6.7-5.1c0.7-0.4,1.4-0.9,2.1-1.3
				c0.4-0.2,0.9-0.4,1.2-0.7c0.2-0.1,0.4-0.2,0.6-0.3c0.7-0.1,0.5-0.5-0.7-1c0.1-0.5,0.3-1.1,0.4-1.6c-1.2,1-3.4,1.4-4.9,1.8
				c-1.6,0.5-3,0.9-4.2,2.1c-0.9,0.9-0.5,2.6,0.7,2.8c1.5,0.3,2.9,0,4.3-0.5c1.2-0.4,3-2,4.2-1.9c-0.4-0.9-0.8-1.9-1.2-2.8
				c-0.7,0.8-1.5,1.5-2.1,2.4c-0.8,1.1,0.8,2.6,1.8,1.8c0.9-0.6,1.8-1.2,2.6-1.9c0.9-0.7,0.5-2.6-0.7-2.8c-3-0.4-5,3-8,2.4
				c0.2,0.9,0.5,1.9,0.7,2.8c1.2-1.2,3.4-1.5,5-2c1.5-0.5,2.9-0.9,4-2c0.4-0.4,0.6-1.1,0.4-1.6c-2-5.2-13.8,5.6-15,7.6
				c-0.6,1.1,0.7,2.6,1.8,1.8c0.9-0.6,1.6-1.4,2.3-2.3C167,152.6,165.9,151.8,165.2,152.4L165.2,152.4z"/>
		</g>
	</g>
	<g>
		<g>
			<path d="M106.2,352.3c12.6-24,27.6-46.7,41.8-69.7c7.4-12,15.1-24,21.9-36.4c6.2-11.2,12.4-22.5,17.4-34.3c0.5-1.2-1.1-2.2-1.8-1
				c-2.8,5-5.1,10.3-7.9,15.4c-3.2,5.9-6,12-9.2,18c-6.9,12.7-14.7,24.9-22.3,37.2c-14.1,23-29.6,45.6-41.2,70.1
				C104.5,352.4,105.8,353.2,106.2,352.3L106.2,352.3z"/>
		</g>
	</g>
	<g>
		<g>
			<path d="M93.2,323.9c-0.7,1.2-1.7,2.4-1.7,3.8c0,0.8,0.9,1.3,1.6,0.9c4.3-2.2,7.6-8.1,10.3-12c4.4-6.2,8.8-12.5,13.1-18.8
				c8.8-12.9,17.6-25.7,26.5-38.5c8.1-11.6,15.7-23.5,22.9-35.6c3.3-5.6,6.1-11.5,9-17.2c2-4,5.5-9.2,4.8-13.8c-0.3-1.8-3-1-2.8,0.8
				c0.4,2.6-1.8,5.7-2.8,8c-1.3,3-2.9,5.8-4.3,8.7c-2.8,5.7-5.6,11.1-9,16.5c-6.8,10.8-13.4,21.6-20.6,32.1
				c-7.9,11.5-15.8,23-23.6,34.6c-3.9,5.8-7.8,11.7-11.9,17.5c-1.8,2.6-3.6,5.2-5.5,7.7c-1.8,2.4-4.5,6.8-7.3,8.2
				c0.5,0.3,1.1,0.6,1.6,0.9c0-1,0.9-2,1.4-2.8C95.7,323.8,93.9,322.7,93.2,323.9L93.2,323.9z"/>
		</g>
	</g>
	<g>
		<g>
			<path d="M78.9,257.5c1.1-3,7.9-6.3,10.3-8.1c4.1-3,8.1-6,12.3-9c8.5-6.1,17.1-12,25.4-18.3c1.1-0.9,0.1-2.9-1.2-2
				c-10.3,7.5-20.7,14.7-30.8,22.3c-4.4,3.3-8.7,6.9-13.3,10c-1.8,1.3-4.1,2.4-4.3,4.8C77.1,258.3,78.6,258.4,78.9,257.5L78.9,257.5
				z"/>
		</g>
	</g>
	<g>
		<g>
			<path d="M75.8,232.1c8.2-0.2,15-4.8,22-8.5c8.7-4.7,18.1-8.9,26.2-14.7c1.1-0.8,0.1-2.7-1.1-1.9c-7.3,4.7-15.1,8.7-22.7,12.9
				c-7.6,4.2-15.5,10.3-24.4,10.9C74.9,230.9,74.9,232.2,75.8,232.1L75.8,232.1z"/>
		</g>
	</g>
	<g>
		<g>
			<path d="M76.9,212.6c5-4.3,11.9-7.6,17.7-10.9c5.3-3.1,10.1-6.4,15-9.9c1.1-0.8,0.1-2.6-1.1-1.8c-5.6,3.5-10.9,7.3-16.5,10.8
				c-5.3,3.3-11.6,6.5-16.2,10.8C75,212.1,76.1,213.2,76.9,212.6L76.9,212.6z"/>
		</g>
	</g>
	<g>
		<g>
			<path d="M62.4,202.1c0,0.1,0,0.2-0.1,0.4c-0.1,0.7,0.8,1.4,1.3,0.8c1.9-2.4,6.2-3.7,8.8-5.1c3.2-1.8,6.3-3.6,9.4-5.5
				c6.1-3.8,11.7-8.3,18-11.8c1.2-0.7,0.2-2.5-1.1-1.9c-7.3,3.5-13.4,8.9-20.2,13c-3.5,2.1-6.9,4.3-10.4,6.3c-2.1,1.2-4.4,1.9-5.7,4
				c0.5,0.1,1,0.3,1.5,0.4c0-0.1,0-0.3,0-0.4C64,201.4,62.6,201.2,62.4,202.1L62.4,202.1z"/>
		</g>
	</g>
	<g>
		<g>
			<path d="M63.1,180.4c1.9-0.2,3.1-1.2,4.7-2.3c1.8-1.2,3.7-2.5,5.6-3.6c1.1-0.7,0.1-2.4-1-1.8c-1.6,0.8-3,1.9-4.5,2.8
				c-1.4,0.9-3,2.5-4.7,2.7C61.8,178.4,61.8,180.5,63.1,180.4L63.1,180.4z"/>
		</g>
	</g>
	<g>
		<g>
			<path d="M63.1,165.6c-0.7,6.9,3.5,13.3,6.2,19.4c3.3,7.5,6.7,15.1,10.4,22.5c3.7,7.3,8.5,14,13.2,20.7
				c4.8,6.9,10.7,13.4,13.6,21.4c0.6,1.6,2.9,0.7,2.2-0.9c-0.1-0.3-0.3-0.6-0.4-1c-0.5-1.2-2.2-0.3-1.9,0.8c0.1,0.3,0.1,0.7,0.2,1
				c0.8-0.2,1.5-0.4,2.3-0.6c-2.1-6.6-6.6-11.9-10.6-17.4c-4.9-6.7-9.9-13.3-14.2-20.4c-4-6.6-7.1-13.8-10.5-20.8
				c-3.4-7.1-9.9-16.5-9.2-24.6C64.4,164.8,63.2,164.8,63.1,165.6L63.1,165.6z"/>
		</g>
	</g>
	<g>
		<g>
			<path d="M69.9,202.4c1.1,3.7,4,7.6,5.9,11c2.7,4.8,5.6,9.4,8.5,14.1c2.7,4.4,5.3,8.8,7.7,13.3c2.4,4.5,5.7,8.5,8,12.9
				c0.7,1.4,2.8,0.2,2.1-1.2c-0.2-0.5-0.5-1-0.7-1.6c-0.5-1.1-2.4-0.3-2,0.9c0.2,0.5,0.4,1.1,0.6,1.6c0.7-0.3,1.5-0.6,2.2-0.9
				c-2.1-4-5.1-7.4-7.3-11.3c-2.5-4.5-5.1-8.9-7.8-13.2c-2.6-4.1-5.3-8.2-7.8-12.4c-1.5-2.4-2.8-4.8-4.2-7.3c-1.2-2-2.9-4.1-3.7-6.4
				C71,201.2,69.6,201.6,69.9,202.4L69.9,202.4z"/>
		</g>
	</g>
	<g>
		<g>
			<path d="M82.7,177c0.1,4.1,4.5,8.5,6.6,11.8c3.4,5.4,6.8,10.6,10.4,15.9c3.3,4.8,6.3,9.6,10.1,14.1c2.9,3.5,5.4,9.4,9.4,11.9
				c0.7,0.5,1.5,0,1.8-0.7c0.1-0.1,0.1-0.3,0.2-0.4c0.5-1.3-1.4-1.8-2.1-0.9c-0.1,0.1-0.2,0.3-0.3,0.4c0.6-0.1,1.1-0.3,1.7-0.4
				c-3.5-2.4-6.2-8.1-9-11.4c-3.9-4.5-7-9.4-10.4-14.3c-2.9-4.2-5.8-8.4-8.6-12.7c-1.5-2.3-3-4.5-4.5-6.7c-1.3-1.9-3.7-4-3.9-6.4
				C83.7,176.3,82.6,176.3,82.7,177L82.7,177z"/>
		</g>
	</g>
	<g>
		<g>
			<path d="M101.6,404.6c0.7,0,0.7-1,0-1C100.9,403.6,100.9,404.6,101.6,404.6L101.6,404.6z"/>
		</g>
	</g>
	<g>
		<g>
			<path d="M100.3,391.9c0,0.1,0,0.2,0,0.3c-0.1,0.6,0.6,1.2,1.1,0.7c7.1-7.9,12.7-16.7,19-25.3c7.2-9.9,13.8-20.3,20.6-30.4
				c13.7-20.4,27-41.1,40.7-61.5c0.9-1.3-1.2-2.4-2.1-1.2c-7.1,9.3-13.1,19.5-19.5,29.3c-6.8,10.5-13.9,20.9-20.8,31.3
				c-12.7,19.2-25.3,38.5-39,57c0.4,0.1,0.9,0.2,1.3,0.3c0-0.1,0-0.2,0-0.3C101.7,391.3,100.4,391.1,100.3,391.9L100.3,391.9z"/>
		</g>
	</g>
	<g>
		<g>
			<path d="M106.1,408c0,0.1,0,0.2-0.1,0.3c-0.1,0.6,0.6,1.1,1.1,0.6c5-5.1,9-11.6,12.9-17.5c4.7-7.1,9.2-14.2,13.7-21.3
				c8.9-14.1,17.8-28,27.4-41.6c1-1.3-1.2-2.6-2.2-1.3c-19.4,25.8-33.5,55.2-52.8,81c0.4,0.1,0.8,0.2,1.2,0.3c0-0.1,0-0.2,0-0.3
				C107.3,407.5,106.3,407.3,106.1,408L106.1,408z"/>
		</g>
	</g>
	<g>
		<g>
			<path d="M111.5,435.7c0.2-7.2,6.7-14.7,10.5-20.4c4.3-6.6,8.5-13.3,12.9-19.8c9.2-13.5,18.3-27,28.4-39.8c1-1.3-0.7-3.1-1.8-1.8
				c-11,13.2-20.4,27.6-29.9,41.9c-4.8,7.2-9.3,14.6-13.9,22c-3.1,4.9-7.8,11.8-7.6,17.9C110,436.6,111.4,436.6,111.5,435.7
				L111.5,435.7z"/>
		</g>
	</g>
	<g>
		<g>
			<path d="M119.4,454.6c2.3-2.7,3.9-6.2,5.8-9.2c2.7-4.4,5.6-8.6,8.4-12.9c5.7-8.7,10.9-17.6,16-26.6c0.8-1.3-1.3-2.5-2-1.2
				c-5,8.4-10,16.7-15.1,25c-2.4,3.9-5,7.7-7.4,11.7c-2.4,3.9-4.1,8.5-6.8,12.1C117.5,454.3,118.6,455.5,119.4,454.6L119.4,454.6z"
				/>
		</g>
	</g>
	<g>
		<g>
			<path d="M110.9,488c0.7-2.6,3-5.2,4.3-7.5c1.3-2.4,2.6-4.8,3.9-7.2c2.8-5.2,5.8-10.3,8.8-15.3c6-10.1,11.8-20.7,19.8-29.5
				c1-1.1-0.6-2.7-1.6-1.6c-8.5,8.6-14.2,19.6-20.2,29.9c-3.1,5.4-6.1,10.8-9,16.3c-1.5,2.9-2.9,6-4.5,8.9c-1,1.9-2.5,3.6-3,5.7
				C109.2,488.6,110.6,489,110.9,488L110.9,488z"/>
		</g>
	</g>
	<g>
		<g>
			<path d="M124.8,500.2c5-5.9,8.1-13.5,11.4-20.5c0.5-1.2-1.1-2.2-1.7-1c-3.4,6.6-6.6,14-11.5,19.7
				C121.9,499.7,123.8,501.5,124.8,500.2L124.8,500.2z"/>
		</g>
	</g>
	<g>
		<g>
			<path d="M146.3,215.8c2.6-4.1,4-8.8,5.9-13.2c2.3-5,4.2-10.2,6.6-15.1c2.4-4.9,5-9.6,7.4-14.5c1.9-3.9,4.6-8.2,4.9-12.6
				c0.1-1.5-2.3-1.8-2.6-0.4c-0.9,4.8-3.8,9.7-6,14c-2.4,4.8-4.9,9.6-7.1,14.5c-3.9,8.6-6.2,18-10.2,26.6
				C144.8,215.9,145.8,216.5,146.3,215.8L146.3,215.8z"/>
		</g>
	</g>
	<g>
		<g>
			<path d="M136.6,190.8c-0.5,0.3-1,0.6-1.5,0.9c0.4,0.4,0.9,0.9,1.3,1.3c3-3.9,5-9.1,7.6-13.4c3.2-5.3,6.4-10.5,9.6-15.8
				c0.8-1.3-1.2-2.5-2.1-1.2c-6.3,9.5-11.4,19.5-16.8,29.5c-0.5,1,0.7,1.8,1.5,1.2c0.5-0.4,1-0.8,1.4-1.4
				C138.3,191.1,137.3,190.2,136.6,190.8L136.6,190.8z"/>
		</g>
	</g>
	<g>
		<g>
			<path d="M96.5,295.4c1.4,1.9,3.5,3.2,5.2,4.9c2.7,2.7,5.3,5.4,8,8c5.4,5.2,11.2,10,16.9,14.8c5.2,4.4,10.5,8.7,16.2,12.6
				c4.4,3.1,9.9,8.1,15.3,9.1c1.3,0.2,1.8-1.6,0.5-2c-5.8-1.9-11.3-6.5-16.3-10c-5.7-4-11.1-8.4-16.5-12.8
				c-5.1-4.2-10.1-8.4-14.9-12.9c-2.3-2.1-4.6-4.3-6.8-6.5c-2-2-4.9-3.7-6.7-5.9C97,294.3,96.1,294.9,96.5,295.4L96.5,295.4z"/>
		</g>
	</g>
	<g>
		<g>
			<path d="M104.9,283c3,4,7.1,7.1,10.9,10.2c4.5,3.7,8.8,7.8,13.5,11.3c9.4,7.1,19.4,14.1,30.5,18c1,0.4,1.8-1.3,0.8-1.8
				c-10.3-4.6-19.7-10.2-28.8-16.8c-4.9-3.5-9.2-7.7-13.9-11.4c-4-3.2-8.5-6.4-11.7-10.5C105.6,281.2,104.3,282.2,104.9,283
				L104.9,283z"/>
		</g>
	</g>
	<g>
		<g>
			<path d="M111.9,268.8c7.3,8.3,17.3,14.4,26.8,20c5.3,3.2,10.7,6.2,16.2,9.1c4.4,2.3,8.8,5.2,13.8,5.9c1.2,0.2,1.5-1.9,0.3-2.2
				c-5.1-1-10-4.2-14.6-6.6c-5.2-2.7-10.3-5.6-15.4-8.6c-9.1-5.3-18.8-11-26-18.7C112.3,266.9,111.3,268,111.9,268.8L111.9,268.8z"
				/>
		</g>
	</g>
	<g>
		<g>
			<path d="M142.8,271.5c5,3.1,10.2,5.9,15.7,8.2c4.1,1.7,8.6,4.1,13,4.4c1.2,0.1,1.5-1.9,0.3-2.1c-4.8-0.9-10.1-3.5-14.5-5.5
				c-4.6-2.1-9-4.5-13.3-7.2C142.7,268.7,141.5,270.7,142.8,271.5L142.8,271.5z"/>
		</g>
	</g>
	<g>
		<g>
			<path d="M132.9,243.9c3.2,0.7,6.6,3.8,9.4,5.4c3.4,1.8,6.8,3.8,10.2,5.7c6.2,3.5,12.6,6.1,19.3,8.7c1.2,0.5,2-1.5,0.9-2
				c-7-3.5-14.3-6.1-21.2-9.9c-3.5-1.9-7.1-3.7-10.6-5.6c-2.4-1.3-4.8-3.4-7.6-4C132.2,241.9,131.7,243.6,132.9,243.9L132.9,243.9z"
				/>
		</g>
	</g>
	<g>
		<g>
			<path d="M139.7,228.4c3.6,0.8,7.2,3.3,10.5,4.9c3.4,1.7,6.7,3.6,10.1,5.4c5.4,2.9,11.2,6.7,17.5,6.6c1.5,0,1.5-2.3,0-2.4
				c-7.5-0.3-14.6-5.4-21-8.8c-5-2.7-11-6.5-16.5-7.5C139,226.3,138.5,228.1,139.7,228.4L139.7,228.4z"/>
		</g>
	</g>
	<g>
		<g>
			<path d="M158.3,207.1c1.8,0,1.8-2.8,0-2.8S156.5,207.1,158.3,207.1L158.3,207.1z"/>
		</g>
	</g>
	<g>
		<g>
			<path d="M160.3,219.5c4.4,1.8,8.6,4.5,13.1,6.4c3.3,1.4,7.1,3.4,10.8,3.7c1,0.1,1.8-1.1,1.5-2c-0.3-0.8-0.4-1.1-1.1-1.7
				c-1.4-1.1-3.1,0.6-2,2v0.1c0.7-0.5,1.3-1,2-1.5c-4.2-0.7-8.5-2.8-12.4-4.4c-3.7-1.5-7.4-4.1-11.2-5
				C159.4,216.8,158.9,218.9,160.3,219.5L160.3,219.5z"/>
		</g>
	</g>
	<g>
		<g>
			<path d="M131.6,184.5c0,2.4,1.8,2.9,3.9,3.3c6.4,1.3,12.6,2.9,18.9,4.9c5.7,1.8,11.1,4.4,16.7,6.5c4.1,1.6,10.1,4.3,14.6,4
				c1.3-0.1,2.3-1.8,1.1-2.7c-0.2-0.1-0.3-0.3-0.5-0.4c-1.3-1.1-3.2,0.3-2.4,1.8c0.1,0.2,0.2,0.4,0.3,0.5c0.5-0.8,0.9-1.6,1.4-2.4
				c-8.8-0.8-17.3-5.4-25.4-8.4c-4.6-1.7-9.4-3-14.2-4.3c-1-0.3-12.5-1.7-12.6-2.9C133.3,183.3,131.6,183.2,131.6,184.5L131.6,184.5
				z"/>
		</g>
	</g>
	<g>
		<g>
			<path d="M143.1,170.1c0.1,2.4,1.7,3.1,3.8,4.1c3.9,1.8,8,3.4,12,4.7c5.4,1.7,10.7,3.6,15.9,5.8c4.4,1.9,8.5,4.1,13.3,4.5
				c1.5,0.1,1.8-2.4,0.4-2.6c-7.8-1.4-15.3-5.7-22.9-8.3c-3.8-1.3-7.7-2.3-11.4-3.7c-1.9-0.7-9-2.1-9.3-4.5
				C144.7,169,143.1,169,143.1,170.1L143.1,170.1z"/>
		</g>
	</g>
	<g>
		<g>
			<path d="M93,316.6c-1.4,2.7,1.6,4.5,3.5,5.9c5.5,4.2,10.5,9.1,16.1,13.1c6.4,4.6,13.5,8.5,20.6,11.9c2.9,1.4,5.8,2.7,8.8,3.8
				c3.2,1.3,7.6,2,10.4,3.9c0.2-0.9,0.5-1.8,0.7-2.7c-0.6-0.1-1.2-0.2-1.9-0.3c-1.4-0.4-2.3,1.7-1,2.4c1.2,0.6,1.6,0.7,2.9,0.8
				c1.2,0.2,1.9-1.7,1-2.5c-3.4-2.8-9-3.5-13.1-5.1c-6.5-2.6-12.8-5.8-18.8-9.3c-5.7-3.3-10.9-7-16-11.2c-1.6-1.3-12.6-8.2-12-10.4
				C94.3,316.4,93.3,316,93,316.6L93,316.6z"/>
		</g>
	</g>
	<g>
		<g>
			<path d="M92.3,342.3c3.2,2.6,7.5,4.5,11.2,6.1c5.7,2.5,11,5.6,16.6,8.3c10.2,5,21.1,9.8,31.8,13.5c1.2,0.4,2.3-1.4,1.3-2.2
				c-0.1-0.1-0.2-0.2-0.4-0.3c-1.1-0.9-2.5,0.2-1.9,1.5c0.1,0.1,0.1,0.3,0.2,0.4c0.5-0.7,1-1.3,1.5-2c-10.4-4.4-21.1-8.2-31.3-13
				c-4.7-2.2-9.2-4.9-13.9-7c-4.4-1.9-9.9-3.7-13.8-6.7C92.7,340.2,91.4,341.5,92.3,342.3L92.3,342.3z"/>
		</g>
	</g>
	<g>
		<g>
			<path d="M102,369.8c2.5,2,5.4,2.9,8.4,4c4.8,1.6,9.4,3.6,14.2,5.4c4.3,1.6,8.7,2.7,12.9,4.4c3,1.2,5.5,3.2,8.8,2.9
				c1.5-0.1,1.6-2.4,0-2.4c-3.3-0.1-6.2-2.4-9.3-3.4c-3.7-1.2-7.4-2.2-11-3.5c-3.9-1.4-7.7-3-11.5-4.4c-3.8-1.3-7.9-2.1-11.2-4.4
				C102.3,367.7,101.2,369.1,102,369.8L102,369.8z"/>
		</g>
	</g>
	<g>
		<g>
			<path d="M97.3,385.4c4.1,4.9,12.3,6.1,18.1,7.8c8.6,2.6,17.2,5.6,25.9,7.6c1.7,0.4,2.3-2,0.7-2.6c-7.4-2.7-15.1-4.3-22.6-6.6
				c-6.2-1.9-15.9-2.7-20.5-7.8C97.9,382.7,96.4,384.3,97.3,385.4L97.3,385.4z"/>
		</g>
	</g>
	<g>
		<g>
			<path d="M103.1,405.4c4.5,4.7,11.6,6.6,17.7,8.3c7.1,1.9,15.3,4.4,22.7,4.2c1.5,0,1.5-2.3,0-2.4c-6.7-0.4-13.8-2.3-20.3-3.9
				c-6.2-1.5-13.8-3.2-18.5-7.7C103.6,403,102.2,404.5,103.1,405.4L103.1,405.4z"/>
		</g>
	</g>
	<g>
		<g>
			<path d="M107.7,419.1c-2.3,3.8,3.5,4.9,6,5.6c4.1,1.1,8.1,2.5,12.1,4c2.9,1.1,5.9,2.8,9.1,3c1.3,0.1,1.6-2,0.3-2.3
				c-4.1-0.9-8.2-3.2-12.2-4.5c-1-0.3-14.2-3.6-13.7-4.8C109.7,419,108.3,418.1,107.7,419.1L107.7,419.1z"/>
		</g>
	</g>
	<g>
		<g>
			<path d="M107.6,435.6c1.9,3.1,9.2,2.9,12.2,3.3c6.9,1.1,14.3,2.9,21.3,2.5c1.6-0.1,1.5-2.2,0-2.4c-5.5-0.6-11-1.3-16.5-2
				c-2.8-0.4-5.7-0.7-8.6-1.1c-1-0.1-6-0.3-6.7-1.4C108.6,433.5,106.8,434.5,107.6,435.6L107.6,435.6z"/>
		</g>
	</g>
	<g>
		<g>
			<path d="M108.8,447c3.1,4.1,6.2,5.4,11.2,6.7c3.2,0.8,6.4,1.8,9.6,2.4c2.5,0.5,5.3,0.4,7.5,1.8c1.1,0.7,2.3-0.9,1.4-1.8
				c-2.8-2.6-8-2.3-11.6-3.1c-6.1-1.4-12.5-2-16.7-7C109.6,445.2,108.2,446.2,108.8,447L108.8,447z"/>
		</g>
	</g>
	<g>
		<g>
			<path d="M115.2,462.5c-0.1,0.1-0.2,0.3-0.4,0.4c-0.3,0.3-0.4,0.8-0.2,1.2c1,1.8,3.2,2.2,5,2.6c3.2,0.6,7.2,1.5,10.3,0.4
				c1.4-0.5,0.8-2.6-0.6-2.2c-2.3,0.6-5,0-7.3-0.2c-0.3,0-5.4-1-5.3-1.1C117.3,462.8,115.9,461.7,115.2,462.5L115.2,462.5z"/>
		</g>
	</g>
	<g>
		<g>
			<path d="M112.3,478.3c2.2,2.2,4.6,3.4,7.6,4.2c3.2,0.8,7,2.3,10.3,2.1c1.7-0.1,1.7-2.5,0-2.6c-2.8-0.2-5.8-1.2-8.6-1.8
				c-3-0.6-5.5-1.4-7.9-3.4C112.8,475.9,111.3,477.3,112.3,478.3L112.3,478.3z"/>
		</g>
	</g>
</g>
</svg>