<svg xmlns="http://www.w3.org/2000/svg" viewBox="0 0 51.55 49.44"><title>leftldpi</title><g id="Layer_2" data-name="Layer 2"><g id="left"><path d="M15.78.71C4.89,1.26-.35,14.33,0,23.79c.19,5,1.17,10.4,4.46,14.24a34.42,34.42,0,0,0,13.9,10c11.32,4.24,23.28-1.33,29-11.72,3.16-5.78,5.26-11,3.68-17.57A29.24,29.24,0,0,0,44,5.38C40.15,1.07,32.86-.25,27.28,0,22.08.3,16.64,0,12,2.58c-1.69.93-.18,3.52,1.51,2.59,3.65-2,8.3-1.73,12.35-2,6-.39,12.85.58,16.89,5.42,3.43,4.11,6,9.6,5.94,15.09S44,37.33,39.91,41C29.4,50.38,13.32,46.2,5.85,34.87,3,30.49,2.65,23.76,3.3,18.72,4.07,12.66,9,4.05,15.78,3.71c1.92-.1,1.93-3.1,0-3Z"/><path d="M30.5,15.6l.33-.3c1.33-1.26-.36-3-1.82-2.36a7.77,7.77,0,0,0-2.41,2.13,22.15,22.15,0,0,1-4.93,3.57,23.35,23.35,0,0,0-6.1,5.09,1.59,1.59,0,0,0-.23,1.81c.44,1,.89,1.14,1.81,1.71a66.67,66.67,0,0,1,5.9,4C25.18,33,27.93,35.56,30.67,36a1.54,1.54,0,0,0,1.9-1.45l0-.3c.25-1.91-2.75-1.89-3,0l0,.3,1.9-1.44c-2.72-.4-5.71-3.5-7.74-5.13a32.5,32.5,0,0,0-2.88-2c-.59-.38-2.6-1.16-2.92-1.87l-.24,1.82a24.68,24.68,0,0,1,6.53-5.19,24.24,24.24,0,0,0,3.26-2.21c1-.86,1.82-2.38,3.05-2.92l-1.82-2.35-.33.3c-1.4,1.33.72,3.45,2.12,2.12Z"/><path d="M31.61,13.54l0-.65a1.52,1.52,0,0,0-2.26-1.3c-3.26,1.78-5.74,4.86-8.95,6.79-1.72,1-5.67,2.82-5.93,5-.3,2.53,4.43,4.5,5.86,5.67,3.17,2.58,6.86,5.35,9.76,8.22,1.37,1.36,3.5-.76,2.12-2.12-2.13-2.11-4.75-3.72-7-5.79-.89-.83-7-4.91-7-5.55.06-1.26,5-3.41,5.86-4,2.46-1.58,4.17-4.24,6.74-5.64l-2.25-1.29,0,.65c.13,1.92,3.13,1.93,3,0Z"/></g></g></svg>