<svg xmlns="http://www.w3.org/2000/svg" viewBox="0 0 54.72 69.65"><title>left2</title><g id="Layer_2" data-name="Layer 2"><g id="Layer_2-2" data-name="Layer 2"><path d="M35,3.25a3.47,3.47,0,0,0,2.35-.73L36.07.36C29.72,4.72,25.68,11.68,20.13,16.92c-3.44,3.26-7.54,5.47-11.4,8.15C5.58,27.25,3.47,30.25.61,32.74a2.13,2.13,0,0,0,0,3c2.38,2.07,5.09,3.1,8,4.13a34.28,34.28,0,0,1,9.79,5.3c3.26,2.44,10.67,8.56,14.74,4.76,2.37-2.22,3.15-7.2,4.08-10.13,1.34-4.23,3.38-8.21,4.66-12.45a48.5,48.5,0,0,0,1.74-12c0-.4-.49-9.48-.44-9.51l-3-.78.56,1.25c.78,1.72,3.83.9,3.63-1L44.28,4A2.2,2.2,0,0,0,41,2.1C39,3.17,38.62,5,38.81,7.12A63.1,63.1,0,0,1,39,19.42c-.57,5.31-2.48,9.89-4.42,14.81-1.77,4.49-2.56,9.39-5.17,13.5l1.86-1.06c-5.48.09-9.71-4.78-14-7.58s-9.91-3-13.73-6.35v3c3.47-3.18,6.07-6.53,10.06-9.24A62.64,62.64,0,0,0,22.15,20C27.76,14.64,32.28,8,37.58,2.32c1.1-1.18-.7-3-1.77-1.76l-1.29,1A.93.93,0,0,0,35,3.25Z"/><path d="M48.48,1.64c1.45,0,2.77-.38,3.5,1.12.8,1.67-.69,3.53-1.79,4.86a30.09,30.09,0,0,1-5.48,4.85C41,15.13,37.15,17.53,33.37,20a46.12,46.12,0,0,0-9.95,8.75c-2.85,3.29-7.76,9-12.35,9.51A1.76,1.76,0,0,0,9.4,40.47c.8,3.92,4.12,5.93,6.69,8.68,3.8,4.05,5.92,9.39,9.67,13.5C30.41,67.77,39.1,73,45.05,66.86c5.12-5.28,4.68-14.3,4.35-21.07-.51-10.81-3.48-21.42-3.52-32.2L42,14.12a9.84,9.84,0,0,0,1.91,4.15c1.42,1.88,4.61.16,3.24-1.89a5.43,5.43,0,0,1-1.3-3.32c-.37-2.3-3.87-1.64-3.92.53C41.48,28.32,48,43.08,45,57.92c-.82,4.15-3.07,9-8.31,7.7-4.18-1-7.71-4.6-10.21-7.89-2.17-2.87-3.86-6.07-6.05-8.93s-6.88-5.43-7.71-9.25l-1.67,2.2c5.34-.63,10.23-5.6,13.63-9.48a52.61,52.61,0,0,1,10.21-9.61c2.78-1.89,5.57-3.76,8.32-5.69C47.42,14,53.87,9.87,54.66,4.28,55.24.14,51.82-.09,48.48,0a.81.81,0,0,0,0,1.62Z"/></g></g></svg>