<svg xmlns="http://www.w3.org/2000/svg" viewBox="0 0 53.57 55.54"><title>logout</title><g id="Layer_2" data-name="Layer 2"><g id="off"><path d="M16.44,7.3c-5.78.52-10.84,6.8-12.8,11.91A40,40,0,0,0,1.57,31.06c-.12,4.27,1.51,7.49,2.75,11.42C6,47.65,9,52,14.76,53.18c6.53,1.37,15.76,2.55,22.17.11,12.66-4.8,20.21-19.43,15-32.27C49.5,15.21,46.15,10.39,40,8.37c-3.35-1.09-9.12-2.65-9,2.43,0,1.92,3,1.93,3,0,0-1.27,6.87,1.28,6.71,1.21a11.89,11.89,0,0,1,5.56,4.66c2.61,4.1,4.39,8.49,4.27,13.41-.28,10.69-9.14,21.26-20.32,21.25a90.38,90.38,0,0,1-13.46-1,11.68,11.68,0,0,1-7.31-3.81c-1.75-1.92-2-4.3-2.87-6.64-2.07-5.56-2-10.7-.86-16.51,1-4.87,5.15-12.59,10.78-13.1,1.9-.18,1.92-3.18,0-3Z"/><path d="M18.22,8.48,18,8a1.54,1.54,0,0,0-1.84-1c-4.66.82-8,3.62-11.08,7C1.91,17.51,1,22.08.31,26.72c-1.39,9.67,1.84,19,10.57,24.06,9.16,5.28,21,7.13,30.05.49,3.68-2.71,7.16-7.92,9.26-11.86A20.7,20.7,0,0,0,51.56,24.7a26.47,26.47,0,0,0-6.71-12.16c-2.74-2.88-5.77-6.36-10.09-4.21-1.73.87-.21,3.45,1.52,2.59,2.92-1.46,8.56,5.4,9.84,7.55a24.29,24.29,0,0,1,3.06,12.79C48.51,42.44,37.56,53,26.35,52.63,16,52.29,4.15,44.94,3.14,34,2.24,24.25,5.92,11.77,17,9.83L15.12,8.78l.2.5c.72,1.76,3.62,1,2.9-.8Z"/><path d="M26.78,2.33l-.2-.13a1.51,1.51,0,0,0-2.2.89c-.63,2-1.32,5.54-.15,7.48A1.52,1.52,0,0,0,27,9.81a42.79,42.79,0,0,0,0-5.43,3.72,3.72,0,0,0-1-3,1.54,1.54,0,0,0-1.82-.24c-2.37,1.42-1.22,6.2-.52,8.23a1.52,1.52,0,0,0,2.9,0c.6-1.44.3-2.69.17-4.19a33.23,33.23,0,0,0-.16-4.11A1.52,1.52,0,0,0,23.92.72c-1,2.05-.59,4.7-.71,6.91-.09,1.71-.35,3.85.74,5.26a1.52,1.52,0,0,0,2.12,0c2.33-2.2,1.7-7.62.5-10.23a1.44,1.44,0,0,0-1.29-.74c-3.19.17-2.39,6.2-2.26,8.42.09,1.5.45,4,2.5,4,2.56-.08,2.31-4.3,2.23-5.94-.1-1.86-.19-5.5-1.94-6.73s-2.89.48-3.24,2C22,6,21.51,15.15,25.3,14.71S27.45,3.37,26.57,1.47A1.5,1.5,0,0,0,24.52.93c-1.8,1.27-1.58,4-1.56,6,0,2.24-.18,5.66.93,7.69a1.52,1.52,0,0,0,1.3.74c2.93,0,2.74-4.67,2.87-6.68.16-2.38.64-6.35-1.79-7.76a1.53,1.53,0,0,0-1.82.23c-2.25,2.11-1,6.55-.93,9.18a1.5,1.5,0,0,0,3,0V9.63a1.5,1.5,0,0,0-3,0v.68h3c-.06-1.49-1.15-5.93.05-7.06l-1.81.24c.68.4.36,3.61.35,4.28,0,1.05-.15,2.1-.27,3.14-.09.7-.57,1.44.35,1.43l1.29.74C26.07,12.33,26,9.75,26,8.5c0-.67-.43-4.65,0-5L24,3c.71,1.54.55,3.9.55,5.59,0,.53-.49,3.22-.28,3.48,1.35.42,1.84.2,1.46-.68l-.18-1.21a22.63,22.63,0,0,1-.28-3c0-.71.5-2.45.26-3q.33-1-1.47.12c.09.24.16.49.23.74-.22,1,.49,2.66.5,3.75,0,.52-.48,2.56-.21,2.92,1.36.4,1.87.2,1.54-.6a8.93,8.93,0,0,1-.09-1c0-.82,0-1.66,0-2.48,0-.6,0-1.19,0-1.78,0-.32,0-.65.08-1q.35-.94-.81.06L24,4.18c.62,1.35,1.18,5.44,0,6.59h2.12c.45.58.15-.3.18-.65.05-.81-.08-1.66,0-2.49.08-1.47-.38-4,.3-5.39l-2.74-.36a23.49,23.49,0,0,1,0,3.14c.09,1.26.48,2.33,0,3.56h2.9c-.21-.59-1.12-4.68-.87-4.84L24,3.51c.32.3.09,2,.13,2.42A19.36,19.36,0,0,1,24,9.81l2.79-.76c-.64-1.06.16-4.2.45-5.16l-2.2.9.19.13C26.85,6,28.35,3.43,26.78,2.33Z"/><path d="M37.83,7.57c-3-3.23-8.34,2.4-4.36,4.38,3.8,1.88,7.41-5.21,3-6.25-2.85-.69-8.14,4.3-5.5,7,1.56,1.55,3.62.43,5.08-.58a4.07,4.07,0,0,1,4.41-.25,9.53,9.53,0,0,1,3.58,3.71c.63,1.81,3.53,1,2.9-.8a10.24,10.24,0,0,0-7.68-6.31,5.2,5.2,0,0,0-4.23.65c-.45.29-1.91,1.67-1.06.93a7.91,7.91,0,0,1,1-.91c.59-.59.82-.39.7.6C37,11.1,39.15,9,37.83,7.57Z"/></g></g></svg>