<svg xmlns="http://www.w3.org/2000/svg" viewBox="0 0 524.83 64.55"><title>logoldpi</title><g id="Layer_2" data-name="Layer 2"><g id="right"><path d="M0,15.18l0,.15a1.52,1.52,0,0,0,2.57,1.06c2.62-3.17,3.84-8,6.77-10.79L7,5.3c1.77,4.18,1.15,10,1.34,14.44.2,4.7.44,9.37.44,14.08,0,8.14,0,16.24,0,24.36a1.5,1.5,0,0,0,3,0c0-9-.11-18.09,0-27.17.07-4.93-.39-9.88-.46-14.81-.06-3.88-.21-8.78-1.75-12.41a1.52,1.52,0,0,0-2.36-.31C4.24,6.34,3.1,11.06.44,14.27L3,15.33l0-.15c.16-1.92-2.84-1.91-3,0Z"/><path d="M6.82,60l.11-.27c-1.29,1.11.39,3.27,1.81,2.36A9.23,9.23,0,0,1,11,60.94a8.6,8.6,0,0,1,2.43,0,1.51,1.51,0,0,0,1.29-2.26c-1.56-2-5.5-.91-7.41,0A1.51,1.51,0,0,0,7,61.06a3.43,3.43,0,0,0,3.21.45,18,18,0,0,1,3.93-.59L13.69,58c-.76.11-1.34.6-2.07.75-1.89.4-1.09,3.29.8,2.9.73-.16,1.33-.66,2.07-.76,1.68-.24,1.27-3-.4-2.95a23.26,23.26,0,0,0-3.53.4c-.36.07-.7.16-1.06.25-.16,0-.36.07-.52.13-.38.16-.55-.27.09.24l-.3,2.35a8.1,8.1,0,0,1,2.38-.61c.23,0,.48-.06.72-.07.71,0,.71.24.21-.41l1.3-2.26a10,10,0,0,0-3.23.11,11.47,11.47,0,0,0-2.92,1.48l1.82,2.35a2.41,2.41,0,0,0,.66-1.05c.72-1.79-2.18-2.57-2.89-.8Z"/><path d="M14.92,4.23,14,3.83V6.42C19.19,2.76,33.94.65,36.39,8.1c2.66,8.1-7.12,20-15.44,20.29l.76,2.8A16.49,16.49,0,0,1,37,29.68c4.58,2.12,6.54,6.9,7.55,11.61,1.38,6.39-1.45,15-7.42,18.21C31,62.84,24.51,62,20.29,56.26c-.76-1-3-.9-2.79.75l0,.17c.21,1.9,3.22,1.92,3,0l0-.17-2.8.76c4.25,5.73,9.93,8,17,6.11C42.47,61.77,47.64,53.46,48,45.7c.28-6-2.5-14.51-7.89-17.85-5.66-3.5-14.49-3.21-19.91.75-1.1.8-.86,2.86.76,2.79C31.4,31,42.26,17.63,39.47,7.29,36.73-2.82,19.1-.85,12.52,3.83a1.52,1.52,0,0,0,0,2.59,9.17,9.17,0,0,0,1.6.71c1.83.62,2.61-2.27.8-2.9Z"/><path d="M15.58,4.62l-.17-.2-.3,2.36c6.63-3.6,24.1-4.15,19.53,7.77a21.74,21.74,0,0,1-5.29,7.56c-2.43,2.31-5.36,3.2-7.83,5.28-1.27,1.07.15,2.73,1.46,2.51,5.15-.87,11.57-.3,15.36,4,3.19,3.62,4.83,12,3.74,16.72C41,55.49,35.91,60.43,30.85,61.23c-7.11,1.13-8.65-5.36-11.79-9.81-1.1-1.56-3.7-.07-2.59,1.52,3.72,5.26,5.17,11.54,13.11,11.49,6.49,0,12.63-5.74,14.87-11.41S45,37.13,41.19,32.5c-4.7-5.77-12.27-6.63-19-5.49l1.46,2.5c2-1.65,4.6-2.32,6.61-4.09A29.22,29.22,0,0,0,35.16,20c2.56-3.73,4.29-8.57,2.56-13C34.49-1.25,19.67.89,13.6,4.19a1.52,1.52,0,0,0-.31,2.36l.17.19c1.25,1.47,3.36-.66,2.12-2.12Z"/><path d="M66.77,35.68c-.51-4.6-4.37-8.91-8.76-5.29S51.39,44,53.62,49.26c1.8,4.23,7.51,6.19,11.3,3.36,2.13-1.58,3.14-4.45,3.45-7,.34-2.87,1-7.88-.78-10.38-.78-1.08-2.92-.88-2.79.76.34,4.5,1.56,13.07,5.44,16,3.1,2.38,7.89-.27,10.09-2.82,1.25-1.46-.86-3.59-2.12-2.12a16.41,16.41,0,0,1-2.7,1.93c-3.55.84-4.93-1.42-5.83-4.29A41.58,41.58,0,0,1,67.8,36l-2.8.76c1.18,1.62.63,5.29.49,7.2-.16,2.17-.39,4.62-2.42,5.87-3,1.83-6.35,0-7-3.65-.49-2.54.23-5.33,1-7.75.32-1.05.8-3.58,1.7-4.3,2.17-1.72,4.77-1.34,5.09,1.52.21,1.9,3.21,1.92,3,0Z"/><path d="M92.52,29.93c-1-7.92-11.58.54-10.67,5.29.63,3.26,5.31,3,7.7,3.64C93.72,40.05,99.45,43.55,97,49a7.83,7.83,0,0,1-6.74,4.22c-2.1,0-6.29-1-5.84-3.88.3-1.89-2.59-2.7-2.89-.8-.71,4.53,2.54,6.74,6.83,7.48a10.71,10.71,0,0,0,11.52-6.13c2-4.29-.17-8.82-3.89-11.46A19.89,19.89,0,0,0,89,35.63c-1.32-.29-3.39,0-3.76-1.78-.29-1.42,4.28-4.12,4.31-3.92.24,1.89,3.24,1.91,3,0Z"/><path d="M101.37,15l-.21,0a1.52,1.52,0,0,0-1.1,1.44c-.47,5.5,1.47,11.29,1.85,16.8.45,6.45,1.06,12.87,1.36,19.34l3-.4a44.24,44.24,0,0,1,.1-11.38c.26-2.07.58-4.61,1.67-6.45l.66-1.18q2.2-2.4,2.69.48c2.11,2.64,2,8,2.42,11.2.55,3.78,1.28,7.46,2.06,11.2.4,1.89,3.29,1.09,2.89-.8-1.3-6.21-1.75-12.67-3.23-18.82-.64-2.63-1.86-7.81-5.31-7.74-8.49.15-7.56,19.39-6.84,24.29.24,1.67,3,1.27,2.94-.4-.3-6.47-.91-12.88-1.36-19.34-.38-5.42-2.31-11.42-1.85-16.8L102,17.92l.21,0c1.89-.39,1.09-3.29-.8-2.9Z"/><path d="M121.76,17.38c-2.76,1.79-.91,7.9-.89,10.47,0,3.6-.22,7.2-.14,10.8.07,3,1.85,9,.82,11.8l2.9.79c.73-2.5-.15-5.11-.21-7.68a82.72,82.72,0,0,1,.32-9.57L122,35.05c2.18,2.33,4.48,4.39,6.47,6.92,2.13,2.7,6.25,5.86,6.86,9.28.3,1.69,2.94,1.25,3-.4v-.17a1.5,1.5,0,0,0-3,0v.17l2.94-.4c-.71-4-4.35-6.48-6.76-9.51s-4.82-5.32-7.33-8A1.52,1.52,0,0,0,121.56,34c-.23,2.61-.31,5.32-.34,7.94s1,6.15.33,8.52c-.55,1.88,2.23,2.58,2.9.79s0-3.88-.19-5.85a77.92,77.92,0,0,1-.49-10.58c0-2.89.19-5.81.07-8.71,0-.15-.78-6-.57-6.13,1.62-1,.12-3.64-1.51-2.59Z"/><path d="M124.52,36.63l-.47-.3.69,1.69c.7-2.18,2.76-4.15,4-6a24.18,24.18,0,0,0,2.94-5.66c.61-1.84-2.29-2.63-2.89-.8-1.44,4.37-5.6,7.4-7,11.69a1.53,1.53,0,0,0,.69,1.7l.47.3c1.63,1.06,3.13-1.54,1.51-2.59Z"/><path d="M137.27,33.43a76.89,76.89,0,0,0,1.14,9.19c.26,2,.43,4.42,1.75,6.06.91,1.12,2.45.08,2.56-1.06l.05-.44c.19-1.92-2.81-1.91-3,0l-.05.44,2.56-1.06c-1-1.28-.88-4.14-1.1-5.7a56.25,56.25,0,0,1-.91-7.43,1.5,1.5,0,0,0-3,0Z"/><path d="M137.12,19.73c-1.59.54-1.45,2.34-1.37,3.7a4.62,4.62,0,0,0,.38,1.95,1.76,1.76,0,0,0,2.46.77c1.52-.89,1.76-3.43,1.35-5a2.53,2.53,0,0,0-1.88-2,2.31,2.31,0,0,0-2.59,1.45c-.88,1.72,1.71,3.23,2.59,1.52.19-.37.41-.41-.3-.24.63-.16-1,.23-.72-.05,0,0,0,.26,0,.11a2.83,2.83,0,0,0,0,.5,3.26,3.26,0,0,1-.07.76c0,.12-.1.26-.11.39,0,.29-.66,0,.38-.21h.8l-.08,0,.66.38a.89.89,0,0,1,.15.29l0-.13s0-.09,0-.16,0-.42,0-.63,0-.63,0-.95c0-.07,0-.38,0-.25s0,.07,0-.07a1.13,1.13,0,0,1-.21.35l-.66.39.07,0c1.82-.62,1-3.52-.8-2.9Z"/><path d="M149.12,28.48c-2.41.63-1.94,3.88-1.76,5.79.5,5.55,2.5,11.77,1.86,17.35l2.79-.76c-1.53-3-.38-8.3.17-11.4.41-2.33,1.91-12.23,5.53-8.2,2.59,2.89,2.82,9.7,3.42,13.25.64,3.78,1.84,7.48,2.44,11.23.27,1.7,2.94,1.25,3-.4v-.16a1.5,1.5,0,0,0-3,0v.16l2.94-.4c-.55-3.44-1.68-6.83-2.28-10.3-.67-3.91-1.14-7.86-2.49-11.61-.88-2.44-2.6-7.91-6.18-7s-5.25,7.86-5.89,10.88c-1,4.53-2.44,11.1-.2,15.43.76,1.45,2.64.58,2.8-.76s-2.29-20.25-2.3-20.24a1.51,1.51,0,0,0-.8-2.9Z"/><path d="M205,4.63c-9.73-7.43-23.67-.5-29.94,8.4-3.55,5-4.53,12.45-4.58,18.51a30,30,0,0,0,5.86,17.68c7.19,9.68,20.06,9.27,28.78,2.27a25.51,25.51,0,0,0,9.08-15.09c.66-3.86.8-10.58-2.89-13.08C206.42,20,197.15,22.85,192,24c-4,.86-10,2.18-10.14,7.39a1.51,1.51,0,0,0,2.56,1.06c3.13-3.79,10.38-4.82,15.07-5.58,1.78-.28,8.09-1.67,9.51-.12s1.44,6.5,1.43,8.55c0,2.82-.61,7.13-2,9.73-1.64,3-4.63,4.49-7.5,5.94-7,3.53-12.43,4-18.31-1.75-4.29-4.16-6.14-7.87-6-13.85.13-6.65-.62-13.24,2.45-19.4,2.47-5,8.69-9.08,14.07-10.21A12.84,12.84,0,0,1,203.9,8.17c1,.69,4.49,2.87,4.07,4.55l2.51-.66-1.15-1.19c-1.35-1.39-3.47.73-2.12,2.12l1.15,1.19a1.51,1.51,0,0,0,2.5-.67c.91-3.66-3.94-7.28-6.46-8.92-4.74-3.09-11.3-2.65-16.26-.36-5.45,2.5-10.07,6.08-12.49,11.66-2.89,6.63-2.46,14.54-2.21,21.63.35,10.17,10.7,21.27,21.4,19.11a32.63,32.63,0,0,0,7.5-3.1c2.44-1.2,5.81-2.64,7.54-4.87,3.59-4.64,3.87-12.5,3.17-18-.3-2.31-.61-5.5-2.83-6.81-2.48-1.45-7-.45-9.59-.13-6,.75-14.4,1.79-18.39,6.62l2.57,1.06c.09-4.59,12.89-5.51,15.72-5.87,1.88-.23,5.85-1,7.77-.19,3.44,1.41,3.44,6.1,3.16,9.18-1,11.15-13.21,22.59-24.7,18.52-12.87-4.56-14.35-19.61-12-31.13,2.31-11.33,17.91-22.93,28.76-14.65,1.53,1.18,3-1.43,1.51-2.59Z"/><path d="M217.27,24.43c.29,4.35.85,8.7,1.34,13,.33,2.86,1.56,5.89,1.74,8.65l2.8-.76c-3.27-5.61-2.51-11.22,1.89-15.88,3.56-3.76,10.49-7.64,16-5.85l.4-2.95h-.87a1.5,1.5,0,0,0,0,3h.87a1.5,1.5,0,0,0,.39-2.94c-7.05-2.32-15.35,2.61-19.81,7.65-4.75,5.39-5,12.28-1.41,18.49a1.51,1.51,0,0,0,2.79-.76c-.2-3.11-1.47-6.37-1.83-9.54-.47-4-1-8.09-1.25-12.15-.13-1.92-3.13-1.93-3,0Z"/><path d="M247,21.88c-4.49-3-8.41,10.92-8.77,13.27-1.18,7.6,2.82,14.27,11.25,12.79,3.9-.68,7.42-2.7,9.25-6.28,1.53-3,2.71-8.27,1.32-11.51-2.25-5.23-14.21-8.06-18.36-4-1.39,1.34.73,3.46,2.12,2.12,1.65-1.6,5-.69,7-.3,3.33.67,6.31,1.37,6.75,5.78a10.42,10.42,0,0,1-10.41,11.45c-7-.11-6.71-7.68-5.23-12.46a29.39,29.39,0,0,1,2.86-6.31c.46-.76,1.49-1.43.75-1.93,1.61,1.07,3.12-1.52,1.51-2.59Z"/><path d="M268.52,9.68l0-.17-2.94.4c1.18,3.59.26,7.76.69,11.5a69,69,0,0,0,1.26,7c.89,4,1.71,8,1.25,12.16l-.28,1.86c-.16.53-.22.47-.19-.17-1.13-.41-1.6-5.09-1.61-6.31a9.53,9.53,0,0,1,5.4-8.7c6.15-3.15,10,3.84,10,8.89a19.15,19.15,0,0,1-3,10.1,7,7,0,0,1-8.89,2.61c-.61-.31-2.28-1.29-2.53-2-.58-1.83-3.47-1.05-2.89.8,1.2,3.77,7,5.71,10.64,4.93,4.76-1,7.24-5.8,8.62-10,1.84-5.64,1.5-12.28-3-16.56-3.67-3.47-8.11-3.09-12.13-.24A12.6,12.6,0,0,0,263.58,37c.2,2.32,2.28,10.53,6.12,8.71,3.62-1.72,2.29-9.9,1.88-12.85-.6-4.41-2.17-8.6-2.5-13.09-.26-3.53.49-7.23-.63-10.63-.5-1.52-3.08-1.37-2.95.4l0,.17c.14,1.91,3.14,1.93,3,0Z"/><path d="M286,10.18l-.23,0a1.53,1.53,0,0,0-1.45,1.9c1.22,5.41,2.18,10.84,3,16.35q.65,4.55,1.34,9.08c.46,3.08,2,7.63,1.62,10.69h2.89a42.14,42.14,0,0,1-1.51-11.06,13.24,13.24,0,0,1,1.3-6.71c2.81-5,7.56-4.37,9.89-.23,2.52,4.47,3.19,10.67-1.74,13.87-3.51,2.27-8.33,2.31-12.19,1.09l.9,2.21.25-.45a1.5,1.5,0,0,0-2.59-1.52l-.25.45a1.53,1.53,0,0,0,.89,2.21c6,1.88,14,.91,17.83-4.56,3.59-5.13,1.61-12.65-2.12-17.18s-9.44-4.46-12.55.72c-3.83,6.39-3,15.07-1,22,.38,1.29,2.68,1.55,2.89,0a16.08,16.08,0,0,0-.54-5.72c-.81-4-1.31-8.1-1.91-12.14-1-6.68-2-13.29-3.47-19.86l-1.45,1.9.23,0c1.91-.16,1.92-3.16,0-3Z"/><path d="M311.77,27.18c.14,4.17.88,8.28,1.25,12.43.25,2.75.09,6.12,1.35,8.64.77,1.56,3.13.45,2.74-1.16l-.09-.91c0-1.93-3-1.93-3,0a5.49,5.49,0,0,0,.2,1.71L317,46.73c-1.32-2.64-.89-7.22-1.21-10.08-.35-3.17-.87-6.28-1-9.47-.07-1.93-3.07-1.94-3,0Z"/><path d="M311.58,16.62l-.75-.75a1.53,1.53,0,0,0-2.12,0,1.51,1.51,0,0,0,0,2.12l.75.75a1.5,1.5,0,0,0,2.12-2.12Z"/><path d="M323.31,20.67l-.46-.68c-.91-1.32-3.34-.55-2.75,1.15,1.31,3.77,1.72,7.83,2.59,11.72.5,2.24,1,4.47,1.45,6.72.3,1.66,1.44,4.21,1.18,5.88h2.89c-1-4.88.42-10.67,1.89-15.33a51.29,51.29,0,0,1,2.3-5.84c1.31-2.86,2.51-2.52,3.06.45,1.38,7.42,1,17.46,4.71,24.14a1.52,1.52,0,0,0,2.8-.76l0-.69c.14-1.93-2.86-1.92-3,0l0,.69,2.79-.76c-3.22-5.8-2.75-14.32-3.94-20.77-.48-2.57-.73-9.17-5-8.48-3.6.59-5.45,7.71-6.39,10.51-1.79,5.32-3.23,12-2.12,17.64.28,1.4,2.66,1.46,2.89,0,.56-3.53-1.22-8-2-11.48C325.16,30,324.59,25,323,20.35l-2.74,1.15.46.69c1.09,1.58,3.69.08,2.59-1.52Z"/><path d="M359.52,15.63C355.38,13.55,352.4,16.9,350,20c-1.64,2.09-5.49,7.12-4.43,10.18,1.37,4,8.28.46,11,.73,4.22.41,11.94,7.6,6.11,12-2.55,1.93-10.31,2.05-12.85-.07l.24,1.82.14-.06c1.81-.63,1-3.53-.8-2.9a3.12,3.12,0,0,0-1.93,1.45,1.51,1.51,0,0,0,.23,1.82c6.86,5.72,23.84,1.64,19.06-9.39-2-4.65-5.85-7.68-11-7.69a41.78,41.78,0,0,0-4.19.36,5.78,5.78,0,0,1-3,.25,8.77,8.77,0,0,1,.6-1.54c.29-2.33,5.82-10.27,8.8-8.77,1.72.87,3.24-1.72,1.51-2.59Z"/><path d="M372.08,26.49l.25-.2-2.51-.66c.56,2.58,1.08,5.12,1.51,7.72a53.56,53.56,0,0,0,1.25,7.41,1.51,1.51,0,0,0,2.95-.4v-.93c0-1.93-3-1.94-3,0v.93l3-.4a52.36,52.36,0,0,1-1.26-7.41c-.42-2.6-1-5.14-1.51-7.72a1.52,1.52,0,0,0-2.5-.66l-.25.2c-1.52,1.18.61,3.29,2.12,2.12Z"/><path d="M372.21,18l0-.2a1.49,1.49,0,0,0-1.05-1l-.2-.05a1.5,1.5,0,1,0-.8,2.9l.2,0-1.05-1,.05.2a1.5,1.5,0,1,0,2.89-.8Z"/><path d="M377,27.44c1,2.15.9,5.5,1.09,7.82.23,2.88.07,5.76,1,8.51.54,1.54,3,1.38,2.95-.39a49.79,49.79,0,0,1,.88-11c.3-1.38,1-2.74,1.24-4.12.31-1.93,0-.89.29.56a101.94,101.94,0,0,0,2,10.36c.46,1.64.8,4,2.53,4.83s3.27-1.79,1.51-2.59c-1.29-.59-1.7-5.05-2-6.37-.53-2.32-.79-4.69-1.19-7-.3-1.74-.67-4.58-3.1-4.25-2.26.31-3,3.6-3.54,5.37A46.45,46.45,0,0,0,379,43.38l3-.4c-1.85-5.32,0-11.89-2.42-17.06-.83-1.74-3.42-.22-2.59,1.52Z"/><path d="M398.46,24.28l0-.16a1.51,1.51,0,0,0-2.2-.9c-2.39,1.38-5.36,5.07-4.67,8,.34,1.44,1.6,2.15,2.54,3.17.49.52,2,2.14,2.22,3,.49,2.29-2.83,3.74-4.56,2.69s-3.16,1.6-1.51,2.59c2.76,1.67,8.51,0,9.38-3.26.57-2.12-1-4.05-2.19-5.64a29.32,29.32,0,0,1-2.28-2.52c-1-1.82.89-4.51,2.58-5.49l-2.2-.9,0,.17c.28,1.9,3.17,1.09,2.89-.8Z"/><path d="M403.76,32.47c-.32-.23.08,1,.14,1.26.24,1,.46,2,.67,3A27.34,27.34,0,0,0,406,41.89c.61,1.41,2.82.63,2.8-.76,0-.48,0-1,0-1.45a1.5,1.5,0,0,0-3,0c0,.48,0,1,0,1.45l2.79-.76c-.89-2.11-1.1-4.54-1.62-6.76-.31-1.37-.48-2.85-1.68-3.73-1.56-1.14-3,1.47-1.51,2.59Z"/><path d="M403.77,23.68a1.5,1.5,0,0,0,0-3,1.5,1.5,0,0,0,0,3Z"/><path d="M411.22,33.19c.37.62.21,2.07.32,2.78.2,1.24.85,2.41,1,3.64l3-.4a8,8,0,0,1,.11-4,11.57,11.57,0,0,1,.82-1.91s.71-1.22.52-1.16L415.77,32c-.2-.32-.25-.31-.13,0s.13.7.17,1.05c.09.67.14,1.34.18,2a13.68,13.68,0,0,0,.3,2.29c.38,1.57,1.25,2.91,3,3,1.93.1,1.92-2.9,0-3,.48,0,.09,0,0-.43s-.19-.77-.24-1.17c-.13-1-.13-2.07-.27-3.1-.2-1.46-.56-3.85-2.64-3.43-1.61.32-2.46,2.71-3,4a11.75,11.75,0,0,0-.55,6.71c.25,1.66,3.14,1.29,2.95-.4s-.88-3-1.1-4.51c-.17-1.17,0-2.38-.62-3.43a1.5,1.5,0,0,0-2.59,1.52Z"/><path d="M423,27.63c-2.13,1.18-4.77,4-3.17,6.49.77,1.2,2.09,1.62,3.08,2.54.17.31.37.38.61.22l-1.24.67a9.78,9.78,0,0,1-3,1.13c-1.9.21-1.92,3.22,0,3,2.15-.24,7.73-1.84,7.45-4.75-.12-1.26-1.33-2.19-2.28-2.86-.44-.31-1.73-.86-1.9-1.37-.29-.89,1.37-2.14,2-2.48,1.7-.93.18-3.52-1.51-2.59Z"/><path d="M431.58,30.87l-.2-.24.39,1.46c.07-.36.19-.7.24-1.08l-2.79.75a11.64,11.64,0,0,1,.6,2.94c.2,1.13.54,2.24.75,3.38.36,1.89,3.25,1.09,2.89-.8-.24-1.27-.61-2.51-.81-3.78a11.7,11.7,0,0,0-.84-3.25c-.71-1.52-2.63-.53-2.8.76.11-.82-.19.59-.19.68a2,2,0,0,0,.64,1.3c1.23,1.49,3.34-.65,2.12-2.12Z"/><path d="M429.52,27.43a1.5,1.5,0,0,0,0-3,1.5,1.5,0,0,0,0,3Z"/><path d="M434.52,33.93c.16,1.33.37,2.65.55,4a3.6,3.6,0,0,0,1.09,2.51,1.51,1.51,0,0,0,2.5-.66c.35-1.44.49-2.9.76-4.35.1-.5.21-1,.34-1.51.07-.27.2-.56.25-.84s.51-.47-.09-.3l-1.69-.69c1,2.37.82,4.78,2.48,6.92,1.18,1.52,3.29-.61,2.12-2.12-1.31-1.69-1.18-4.37-2-6.31a1.5,1.5,0,0,0-1.7-.69c-3,.85-2.79,6.77-3.35,9.09l2.51-.66c-.37-.32-.3-1.28-.36-1.69-.11-.9-.29-1.78-.4-2.68-.23-1.89-3.24-1.92-3,0Z"/><path d="M449,29.18c-1.9.13-4.85,2.25-4.77,4.39a2.94,2.94,0,0,0,1.42,2.23c.36.27,1.05.51,1.27.91s.36,0,.12.28-.59,0-.79-.11c-1.58-1.11-3.08,1.49-1.51,2.59,2,1.38,5.66.15,5.51-2.59a4.21,4.21,0,0,0-2-2.94c-.21-.15-.48-.28-.68-.45-.44-.37-.22,0-.1-.18A3.94,3.94,0,0,1,449,32.18c1.91-.14,1.93-3.14,0-3Z"/><path d="M453.87,31.48l-.21,0a1.45,1.45,0,0,0-1.05,1.05,8,8,0,0,0,.2,2.39c.06.57.14,1.15.24,1.72.21,1.19.8,2.54,2.22,2.51,1.93,0,1.93-3,0-3l.17,0,.67.38c-.25-.19,0,0,0,0l-.09-.35c-.06-.29-.1-.58-.14-.87-.12-.85-.28-1.69-.42-2.54v.79l.05-.27-1.05,1,.22,0a1.51,1.51,0,0,0,1-1.85,1.54,1.54,0,0,0-1.84-1.05Z"/><path d="M453,29.43a1.5,1.5,0,0,0,0-3,1.5,1.5,0,0,0,0,3Z"/><path d="M458,32.93a9.87,9.87,0,0,0,.47,2.69,5.57,5.57,0,0,0,.79,2.49,1.53,1.53,0,0,0,2.59,0c1.14-1.55.84-4,2.21-5.39l-1.06.44c-1.39-.18-.74-.74-.71-.17,0,.19.09.4.12.59s.06.57.09.86a5.77,5.77,0,0,0,1.19,3.3c1.22,1.5,3.33-.64,2.12-2.12-.53-.65-.38-2.18-.53-3a2.7,2.7,0,0,0-1.93-2.45c-1.5-.26-2.28,1.41-2.73,2.57-.23.57-.41,1.16-.61,1.74a7.83,7.83,0,0,1-.75,2.08h2.59a4.15,4.15,0,0,1-.49-1.78,7.18,7.18,0,0,1-.36-1.89c.12-1.93-2.88-1.92-3,0Z"/><path d="M470.77,29.43a3.33,3.33,0,0,0-3.24,4.09A5.31,5.31,0,0,0,469,35.93c.15.16.58.82.77.88s.25-.63.15-.69a3.39,3.39,0,0,1-.41.06c-1.93-.11-1.93,2.89,0,3,1.63.09,3.58-1,3.24-2.88a4.62,4.62,0,0,0-1.33-2.19c-.25-.27-1.64-1.61-.66-1.68,1.91-.14,1.93-3.14,0-3Z"/><path d="M478.52,34.93v-.17h-3a4,4,0,0,0,.95,2.73,1.5,1.5,0,0,0,2.12-2.12c-.11-.1-.09-.08.06.09l-.05-.1c.07.17.08.18,0,0a1.21,1.21,0,0,1-.05-.18s-.08-.46-.05-.23,0-.16,0-.2a1.5,1.5,0,1,0-3,0v.17a1.5,1.5,0,1,0,3,0Z"/><path d="M477.58,29.87l-.42-.42A1.5,1.5,0,1,0,475,31.57l.17.17a1.5,1.5,0,0,0,2.12-2.12l-.17-.17A1.5,1.5,0,1,0,475,31.57l.42.42a1.5,1.5,0,0,0,2.12-2.12Z"/><path d="M480.07,36.08a5.18,5.18,0,0,0,1.08,2.61,1.51,1.51,0,0,0,2.51-.66,10.36,10.36,0,0,1,.58-2c.13-.27.23-.56.35-.84a2.59,2.59,0,0,0,.14-.29c.12-.36.46-.27-.3,0l-1.7-.69a5.25,5.25,0,0,1,.38,1.72,3.44,3.44,0,0,0,1.1,2c1.45,1.26,3.58-.85,2.12-2.12-.35-.31-.34-.73-.4-1.18a4.81,4.81,0,0,0-.61-1.92,1.51,1.51,0,0,0-1.69-.69,3.63,3.63,0,0,0-1.93,2.34,16.65,16.65,0,0,0-.93,2.82l2.5-.67a3.4,3.4,0,0,1-.31-1.29,1.51,1.51,0,0,0-1.84-1.05,1.54,1.54,0,0,0-1.05,1.85Z"/><path d="M490,30.93a3.3,3.3,0,0,0-3.34,3.25,2.75,2.75,0,0,0,1.26,2,5.21,5.21,0,0,0,.78.4c.08,0,.57.33.43.14l.23-1.82c.12,0,.11,0,0,0l-.47.19a4,4,0,0,0-.68.49,1.51,1.51,0,0,0,0,2.12,1.54,1.54,0,0,0,2.12,0c-.22.18.61-.24.5-.19a3,3,0,0,0,.67-.5,1.52,1.52,0,0,0,.24-1.82,4.59,4.59,0,0,0-1.83-1.37l-.3-.14s0,.52,0,.52a4.16,4.16,0,0,0,.42-.42c-.15.11-.4.11,0,.11a1.5,1.5,0,0,0,0-3Z"/><path d="M494,34.18v2.25a1.5,1.5,0,0,0,3,0V34.18a1.5,1.5,0,1,0-3,0Z"/><path d="M496.77,33.93a6.78,6.78,0,0,0,.09,2,1.54,1.54,0,0,0,1.45,1.1c1.07.12,1.85-1,2.23-1.88.11-.24-.22.22,0,0l.06,0a1.06,1.06,0,0,1-.79.31l-.57-.15c-.39-.65-.53-.81-.43-.47s0-.25,0,.05a2.85,2.85,0,0,0,.22,1l.24.5.11.19c-.07-.14-.07-.12,0,0a1.52,1.52,0,0,0,1.85,1.05,1.53,1.53,0,0,0,1-1.85,2.72,2.72,0,0,0-.27-.77l-.14-.25c-.07-.15-.09-.17-.05-.08s0,.06,0,0c0,.24,0,.27,0,.09a4.7,4.7,0,0,0-.1-.74,2,2,0,0,0-2-1.57,2.29,2.29,0,0,0-1.81,1.25c-.11.19-.2.38-.31.56s-.32.38,0,0c-.11.11,0,.08.16-.11.63-.08.81-.14.56-.16l1.44,1.1c0-.09,0-.2,0-.05a2.67,2.67,0,0,1,0-.4c0-.24,0-.47,0-.71a1.5,1.5,0,1,0-3,0Z"/><path d="M504.71,31.62a3.63,3.63,0,0,0-1.18,2.82,2.52,2.52,0,0,0,.55,1.52,2.33,2.33,0,0,0,.65.6c.47.26,0,.14,0-.11l.21-.76c.09-.2.34-.2,0,0l-.44.22c-1.71.9-.19,3.49,1.51,2.59,1.22-.64,2.13-1.53,1.6-3,0-.11-1.17-1.62-1.3-1.42.22.11.29.21.2.31,0-.07,0-.15,0-.24s.14-.26.27-.36c1.47-1.25-.66-3.36-2.12-2.12Z"/><path d="M511.37,33a2.16,2.16,0,0,0,0,4.15,1.5,1.5,0,0,0,.8-2.9.87.87,0,0,1,0,1.65,1.53,1.53,0,0,0,1-1.85A1.52,1.52,0,0,0,511.37,33Z"/><path d="M511.77,33.43a1.5,1.5,0,0,0,0-3,1.5,1.5,0,0,0,0,3Z"/><path d="M514.27,36.18a2,2,0,0,0,1.74-.8,2.24,2.24,0,0,0,.32-.44c.36-.49-.08-.54-1.35-.14,0,.21.46.81.59.94,1.41,1.49,3.16.53,4.51-.43h-1.51c.91.68,1.3,1.31,2.59,1.25a5.39,5.39,0,0,0,3.17-1.32c1.48-1.24-.65-3.35-2.12-2.12-.93.77-1.38.15-2.13-.4a1.44,1.44,0,0,0-1.51,0,9.88,9.88,0,0,0-.91.64c-.35.29.16.29,0,.09-.41-.48-.53-1-1.2-1.22a2.12,2.12,0,0,0-1.69.12,2.21,2.21,0,0,0-.52.39c-.51.53-.45.42,0,.44-1.93-.1-1.93,2.9,0,3Z"/></g></g></svg>