<svg xmlns="http://www.w3.org/2000/svg" viewBox="0 0 52.88 52.45"><title>rightldpi</title><g id="Layer_2" data-name="Layer 2"><g id="right"><path d="M15.14,2.38c-4,.74-8.11,5.45-10.63,8.53C.85,15.39,0,21.93,0,27.5c.05,4.71.47,10.15,3.28,14.11,3.09,4.35,8.79,8.66,14,10.07,11.05,3,23.57-3,29.94-11.78,2.47-3.4,5.51-8,5.68-12.34C53.1,21.67,51,14.47,47.15,10A29.24,29.24,0,0,0,32.86,1.13,33,33,0,0,0,23.22.06c-2,.17-7,3.32-8.59,2.48s-3.22,1.67-1.52,2.59c1.48.79,2.23.51,3.84,0,3.36-1.07,5.23-2,8.94-1.79,5.57.34,10,1.6,14.4,4.95,3.87,2.92,6.53,5.33,8.05,10.13,1.28,4,2.12,8.91.38,12.84-2,4.66-5.27,9.4-9.4,12.29a28.13,28.13,0,0,1-17.77,5.58C15.12,49,5.89,42.84,4.07,36.36A32.61,32.61,0,0,1,4.3,18.48,18.18,18.18,0,0,1,9.68,10c1.64-1.59,3.93-4.34,6.25-4.76,1.9-.35,1.1-3.24-.79-2.9Z"/><path d="M17.57,16.59A20.07,20.07,0,0,0,24,22.33c1.83,1.19,3.47,2.52,5.22,3.81.85.63,3,1.35,3.42,2.2l.23-1.82c-2.06,2.2-5,3.69-7.35,5.57a49.19,49.19,0,0,1-7.86,5.42l1.52,2.59c2.64-1.93,5.26-3.88,7.8-6C29.12,32.36,32,31,33.92,29a1.51,1.51,0,0,0-.3-2.35c-2.57-1.4-4.49-3.55-6.87-5.2-3-2.06-6.2-3.44-8.82-6-1.38-1.35-3.51.77-2.12,2.12,2.51,2.46,5.45,3.84,8.36,5.76,2.76,1.82,5,4.31,7.93,5.9l-.3-2.36c-1.59,1.67-4.05,2.69-5.86,4.2-2.69,2.26-5.49,4.37-8.33,6.45a1.5,1.5,0,0,0,1.52,2.59,35.74,35.74,0,0,0,7.58-4.92c2.55-2.32,5.88-4,8.23-6.54a1.54,1.54,0,0,0,.24-1.81c-1-2-4.16-3.12-5.81-4.44-3.08-2.47-7-3.9-9.21-7.32-1.05-1.61-3.64-.11-2.59,1.52Z"/></g></g></svg>