<svg xmlns="http://www.w3.org/2000/svg" viewBox="0 0 58.58 71.13"><title>right2</title><g id="Layer_2" data-name="Layer 2"><g id="Layer_2-2" data-name="Layer 2"><path d="M11.69,5.32l-1.21.12a1,1,0,0,0-1,.72,59.94,59.94,0,0,0-2.1,15.12,1.27,1.27,0,0,0,2.53,0,56.64,56.64,0,0,1,.29-7.48c.11-1.07.27-6.39,1.7-6.59,1.06-.15.82-2-.26-1.89Z"/><path d="M7.19,3.56A1.78,1.78,0,0,0,7.19,0a1.78,1.78,0,0,0,0,3.56Z"/><path d="M12.61,18.12c-.35,1.24-2-4.15-2-4.5-.27-1.95-.37-3.91-.58-5.86C9.76,5.65,9.76,3,8.38,1.28a1.22,1.22,0,0,0-2,.53c-1,3.52-.69,7-.53,10.67.22,5.08.14,10.18,0,15.26-.27,10.72,0,21.48-.44,32.18-.1,2.29,3.51,2.3,3.57,0,.26-10.06,2.87-19.86,3.2-29.94.29-8.8.86-17.64-1.56-26.21L7.19,5.21c3,6.77,8.9,11.93,12.48,18.45a109.21,109.21,0,0,1,9.84,23.8c.84,3.12,2.18,7.08.2,10-1.41,2.12-4.16,3.25-6.42,4.17-4.25,1.72-8.77,2.77-12.68,5.26l3.3,2.53C15.28,65,21,62.36,24.58,59.93c4.46-3,8.51-7.88,14.11-8.5,2.06-.23,2.18-3.36,0-3.3C31.85,48.3,27,53.41,21.5,56.89,17,59.74,11.19,62.82,9.58,68.27a2.27,2.27,0,0,0,3.3,2.54c7.79-5.06,23.2-5.56,21.81-18.27-.95-8.67-5.21-17.38-8.9-25.18A80.6,80.6,0,0,0,18.2,14.18c-2.66-3.64-5.92-6.69-7.77-10.86-.87-2-4-.56-3.43,1.44C12.15,23,5.79,41.66,5.41,59.92H9c-.48-10.11-.42-20.26-.3-30.38.06-4.47.1-8.94,0-13.41s-1.1-9.27,0-13.68L6.68,3c3,3.59,0,16.3,6,17.28a.66.66,0,0,0,.8-.45l.29-1.37a.61.61,0,0,0-1.17-.32Z"/><path d="M10.7,16.28c-2.85-2.25-5.57-5-9-6.23C.27,9.53-.48,11.41.34,12.37,2.4,14.77,5.65,15.75,8.49,17c4.13,1.76,8.33,3.14,12.58,4.59,10,3.41,19,9.86,28.06,15.21a2.1,2.1,0,0,0,2.54-3.29,94.67,94.67,0,0,0-22-17.28C25.61,14,21,12.43,17.08,9.93c-2.67-1.7-4.7-3.95-8-4.15A2.14,2.14,0,0,0,7.25,9c2.57,3.62,6.18,5.49,9.74,8,4.39,3.09,8,7.19,12.13,10.57,4.44,3.62,9.3,6.68,13.79,10.25,3.82,3.05,8.52,5.31,11.91,8.82l1-3.7c-2.54.63-5.07,0-7.63.26a22.92,22.92,0,0,0-6.22,1.67C37.19,46.72,32.6,49,27.87,50.94a68.37,68.37,0,0,0-11.15,5.84c-2.89,1.87-6.11,3.4-7.83,6.51A2.28,2.28,0,0,0,12,66.38C16.35,64,19.77,60.48,23.32,57a124.34,124.34,0,0,1,10.49-8.53c2.72-2.13,12.28-10.76,4.28-12.74-5-1.25-10.52,3.92-14.37,6.4-4,2.61-12.71,6.25-12.41,12.11a1.89,1.89,0,0,0,3.77,0c.26-2.38,20.84-15.79,22.07-14V38C34.9,43.26,29.25,46.1,25,49.51c-5.25,4.16-9.3,9.72-15.25,13l3.09,3.09c1.65-3,6.56-5.29,9.46-7A88.24,88.24,0,0,1,33.7,53.46c3.72-1.51,7.24-3.6,11-4.88,4.09-1.37,8.13-.32,12.22-1.39a2.24,2.24,0,0,0,1-3.7c-2.9-2.93-6.55-4.64-9.86-7-4.65-3.35-9.17-6.91-13.83-10.27-4.22-3-7.74-6.85-11.7-10.19-3.69-3.12-8.83-5.19-11.64-9.17L9.08,10c2.75.17,5.83,3.64,8.33,4.9,3.94,2,8,3.66,11.79,5.88A96,96,0,0,1,48.71,36.44l2.54-3.3C43.05,29,35.31,23.46,26.78,20c-4.22-1.72-8.67-2.73-12.95-4.25C10.13,14.41,5.2,13.11,2.3,10.4L1,12.72C4.4,13.56,7,15.36,9.83,17.4c.66.47,1.51-.62.87-1.12Z"/></g></g></svg>