<svg xmlns="http://www.w3.org/2000/svg" viewBox="0 0 239.29 197.78"><defs><style>.cls-1{fill:#f9f9f9;}</style></defs><title>scoopldpi</title><g id="Layer_2" data-name="Layer 2"><g id="Layer_1-2" data-name="Layer 1"><path class="cls-1" d="M50.65,33.54c.46.22.75.42,1.24.21a.73.73,0,0,0,.52-.68c-.1-1.18-1.34-3.24-2.68-3.28-.82,0-.77.25-1.35.72-.8.66-1.89,3.05-2.59,3.8a41.75,41.75,0,0,1-3.87,3.53C38.2,41,35.7,43.64,33.5,48c-2.59,5.13-7,8.83-9.28,14.2-1.16,2.75-2,5.59-3.25,8.33-.94,2.11-2.57,4.14-3.38,6.24-1.19,3.07.06,6.6.89,9.6.47,1.71,1,3.4,1.37,5.13.74,3.47.16,4.36-2.36,6.94-1.22,1.24-2.51,2.44-3.75,3.66-.76.74-2.73,3.41-3.77,3.61-1.88.36-4.34-1.49-6.27-1.62-7.65-.49-1,12-1.26,15.43-.13,2-.93,3.16-.37,5.19.73,2.7,1.72,4.35,1.49,7.31-.32,4.22.22,5,3.82,7.67,2.58,1.9,7.09,5.33,7.32,8.91.16,2.52-1.77,2.78-3,4.38-2.2,2.85-1.24,6.59-.35,9.77,1.76,6.29,5.73,15.86,14,12.38,4.19-1.76,5.78-5.85,8.12-9.35,3-4.47,8-1.93,11.85-4.91,2.93-2.26,2.2-6.21,2.2-9.52,0-.53-.22-3.24.24-3.55-.44.3,0,.71.41.84a13.4,13.4,0,0,0,5,.82c5.24,0,6,3.15,6.3,7.76a21.38,21.38,0,0,0,1.58,7.36,13.11,13.11,0,0,0,9.24,7.35c5.07,1.14,12.57-2.88,16.83,1.35s.87,12.1,3.21,17.36a12.11,12.11,0,0,0,9.06,7c5.17.82,8.6-2.49,12.72-5a18,18,0,0,0,8.39-11,20.57,20.57,0,0,0,.29-7.17c-.48-4.14-1-8.91,4.78-7.82,2.25.43,4,1.78,6.37,2.1a25.32,25.32,0,0,0,7.72-.25c5.49-1.06,11-5.22,13.86-10,3.28-5.36,4-14,12.2-13.79,3.63.07,6,1.89,7.66,5a32.41,32.41,0,0,1,1.94,3.28c1,2.72-.1,5.18-.19,7.84a20.51,20.51,0,0,0,4.39,13.46c1.93,2.32,4.25,3.64,6.8,5.14a18.75,18.75,0,0,1,3.75,2.75c1.68,1.63,1.63,2.26,2.11,4.19,1,3.92,3.2,7.2,7.74,6.92,5.93-.35,11-4.16,14.27-8.79,3.55-5.05,8.14-10.28,8.8-16.67.33-3.22-.44-3.45,2-6.91,1-1.39,2.33-2.52,3.32-3.91.8-1.11,1.3-2.43,2.1-3.53,1-1.32,2.57-2.13,3.39-3.57,2.56-4.52-2.39-4-2.86-7.16-.37-2.45,3.7-5.64,5.08-7.18,1.52-1.69,2.51-3.24,2.35-5.56L237,132c2.18-.52,2.88-2.21,1.87-4.13-.79-1.5-2.54-2.42-3.53-3.77-1.91-2.59-.44-4.37-.53-7-.07-2-1.48-3.42-1.72-5.38-.34-2.77-.35-5.68-.67-8.49-.59-5.14-.27-10.56-1.29-15.61-.88-4.34-4-8.56-6-12.51-1.48-2.9-3.13-5.49-4.39-8.52a21.71,21.71,0,0,0-4.11-7c-2.07-2.18-4.1-3.83-5.77-6.43s-3.06-5.72-4.58-8.57c-2.29-4.27-4.51-8.42-8.83-10.89s-9.53-3.41-14.12-5.41A33.41,33.41,0,0,1,169.4,17.51c-2.66-3.64-4-4.69-8.27-6.35a30.2,30.2,0,0,0-6-1.78c-3.63-.65-3.14-.76-5.6-2.59a9,9,0,0,0-2.25-1.4c-4.1-1.57-8.77-1-13-1.85s-8.45-1.28-12.74-2C118.17.93,114.62-.27,111.17.06c-4,.37-7.63,2.49-11.6,2.95a16.3,16.3,0,0,0-4.92,1,68.51,68.51,0,0,1-8.42,2.46C80,8.26,74,9.79,68.52,13.36,63.68,16.53,58,19.47,55.27,24.73c-1.56,3-3.19,4.4-5.71,6.46-1.93,1.57-3.33,3.9-5.49,5.15l2.24,2.9C48,37.36,49.57,35,51.5,33.43c.7-.58-.3-1.57-1-1-1.85,1.54-4.37,2.65-6.44,3.91-1.75,1.06-.63,4,1.42,3.37,3.14-1,5.5-4.52,8-6.55,3.53-2.82,4.57-7.11,7.76-10,4.29-3.93,10.77-8.27,16.29-10.1,4.85-1.6,10-2.24,14.81-3.72,1.85-.56,3.47-1.9,5.36-2.32,1.27-.28,2.65-.1,4-.35,3.67-.68,7.34-2.8,11.09-2.72s7.61,1.61,11.44,1.93,7.57,1.42,11.47,1.87,8.56.32,11.85,2.61c1.36.94,2.36,2.16,4,2.7s2.09.09,3.59.28a24.38,24.38,0,0,1,4.37,1.46c3.3,1.1,4.25,1.84,6.49,4.72a45,45,0,0,0,4,4.7,37.91,37.91,0,0,0,10.73,7.13c3.69,1.69,7.56,2.82,11.37,4.21,6.69,2.45,9.16,7.87,12.24,13.83a44.39,44.39,0,0,0,8.39,11.88c4,4,5.93,10.11,8.62,15.11s6,10.2,6.23,16.07,1.3,11.63,1.59,17.47a20.88,20.88,0,0,0,.52,4.87,12.37,12.37,0,0,1,.58,4.23,17.55,17.55,0,0,0-.25,2.93,8.09,8.09,0,0,0,1.81,4.07,18.42,18.42,0,0,0,1.42,1.63l1.44,1.42c.67,1.07,1.08.77,1.23-.89a2,2,0,0,0-1.45,1.9c.17,2.47-3.17,4.49-4.49,6.27a18.4,18.4,0,0,0-2.41,4.36c-1.32,3.5-.31,4.39,1.72,6.84.82,1,1.06-.37.71.93-.13.47-1.81,1.53-2.21,2-1.68,2-2.81,4.47-4.53,6.55a21.62,21.62,0,0,0-3.29,4.39c-1.33,2.83-.59,6-1.55,8.92-1.77,5.47-7.79,14.27-12.66,17-2.25,1.25-7.7,4-9.28.55-.93-2.05.28-3.11-.94-5.07-2.92-4.67-7.72-5.77-11.59-9.19-5.24-4.64-5.13-10.73-4.43-17.08.43-4-1.93-7.47-4-10.73-1.91-3-5.06-4.07-8.49-4.5a12.79,12.79,0,0,0-10.64,3.86c-4.18,4.19-4.42,10.56-8.74,14.8-5,5-12.12,6.73-18.68,4-3.13-1.29-6.92-1.77-9.81.39-2.69,2-2.88,4.78-2.52,7.87,1,8.29,0,13.39-7.59,18-1.91,1.18-4,3.27-6.22,3.8A8.28,8.28,0,0,1,94,190c-2.93-5.1.08-11.72-2.82-17.06-5.11-9.42-17.22-1.07-24.11-6.23-5.61-4.2-2.35-10.74-4.55-16.1-1.28-3.09-5.06-4.31-8.11-4.56A13,13,0,0,1,49.25,145c-.86-.39-1.33-.9-2.33-.73-2.86.47-2.79,4.39-2.82,6.53,0,1.72.7,4.93-.15,6.49-1.19,2.16-4.76,1.91-6.72,2.22-4.31.68-5.44,2.41-7.49,6.08-2.7,4.85-8.16,10.13-12.18,3.56-1.77-2.89-4.41-8.67-3.89-12.19s4.64-3.94,4.51-7.71c-.13-4-3.64-7.93-6.51-10.38-2.21-1.89-4.77-2.77-5-6-.07-1.32.36-2.59.16-4-.33-2.42-1.95-4.49-1.76-7,.13-1.72.68-2.78.44-4.53a49.33,49.33,0,0,0-1.7-6.16c-.2-.73-1-2.75-.74-3.45.41-1.06,1.08-.43,2.45-.06,4.82,1.27,5.43,1.36,9-2.27,2.79-2.8,7.93-6,8.53-10.13.51-3.49-1.36-7.45-2.29-10.71-.59-2.07-1.49-4.51-.87-6.63s2.39-4.4,3.29-6.49c1.22-2.85,2-5.82,3.18-8.68,1.39-3.43,3.54-6.06,5.75-9,3.28-4.36,4.78-9.24,8.94-13A70.25,70.25,0,0,0,47,35.47c1.66-1.86,2.29-4.08,4.41-3.15C50.54,32,49.82,33.15,50.65,33.54Z"/></g></g></svg>