<svg xmlns="http://www.w3.org/2000/svg" viewBox="0 0 52.71 51.32"><title>search</title><g id="Layer_2" data-name="Layer 2"><g id="search"><path d="M16.76,1.13c-4.08.66-7.51,6-10.27,8.72C3.39,12.9.43,17.65.07,22.18-.78,33,6.19,47,17.38,49.82c11,2.79,22.33,2.41,29.51-7.57A30.88,30.88,0,0,0,52.7,24.7a28.37,28.37,0,0,0-.88-7.62c-.88-3.35-2.61-4.53-4.93-6.88C44.41,7.68,43.15,5.07,40,3.26,37.18,1.6,33.9,1,30.7.3c-3.5-.71-6.23,0-9.69.75-1.68.38-5.51.65-6,2.79-.39,1.89,2.5,2.69,2.9.8,0-.18,7.72-1.56,8.43-1.63a24.53,24.53,0,0,1,9,1.47c3.51,1.13,5.49,3.1,7.74,5.88s5.15,4.67,6,8.27c2.94,12.31-4.9,29.72-19.08,30.08C17.89,49,6.42,42.3,4,29.86c-1.34-6.78-.56-12.45,4.34-17.49,2.21-2.27,6-7.82,9.24-8.35,1.9-.31,1.09-3.2-.8-2.89Z"/><path d="M36.79,10.49c-1.87-3.91-6.22-4.43-10.08-3.16-4.1,1.36-6.09,6.21-5.86,10.26.26,4.34,2.63,9.53,7.09,10.83,4.76,1.38,8.41-1.29,11.5-4.57S44,16.53,40.62,12.63c-2.88-3.31-7.29-5.89-11.71-4.72-8.83,2.35-8.11,15.91,0,18.77,5,1.75,9.64-2.24,12.26-6.2a5.53,5.53,0,0,0-.12-5.8c-1.46-2.62-4.43-3.24-6.25-5.4-.82-1-2.12-.27-2.51.67l-.24.56c-.73,1.78,2.17,2.56,2.9.8l.23-.57-2.51.67c1.67,2,6.32,3.16,6.24,6.1-.08,3.25-6,7.26-8.74,6.45-3.61-1.07-4.9-5.27-4.52-8.7.58-5.21,6.27-5.42,9.67-3.06,1.82,1.26,4.59,2.93,4.42,5.59-.11,1.75-1.7,3.14-2.81,4.33-2.49,2.68-6.67,5.35-10.14,2.33-2.89-2.52-3.67-8.2-2-11.47s7.51-5,9.46-1c.83,1.74,3.42.22,2.59-1.51Z"/><path d="M27.79,25.82a4.07,4.07,0,0,0-.81-.94,1.52,1.52,0,0,0-2.36.3A16.93,16.93,0,0,1,22,29c-1.16,1.13-2.4,2.09-3.48,3.31C17,34,15.26,35.51,14.8,37.75A1.52,1.52,0,0,0,17,39.44c2.57-1.08,4-4.46,6.08-6.29,1.71-1.53,4-3.56,4.82-5.76.56-1.45-1.51-2.45-2.51-1.46-1.25,1.25-1.93,2.89-3.18,4.14-1.43,1.42-3.17,2.37-4.49,3.92-1.49,1.75-4.07,3.66-1.7,5.87s4.49.16,6.48-1.64c2.79-2.53,3.91-6.45,6.38-9.25,1.27-1.44-.85-3.57-2.13-2.12a35.21,35.21,0,0,0-3.88,5.76,14,14,0,0,1-2.21,3.23c-.74.73-1.75,1.18-2.47,1.93-.31.34.29-.1.37-.17a9.2,9.2,0,0,0,.93-1,19.94,19.94,0,0,1,3.16-3A15,15,0,0,0,25.43,31a27.55,27.55,0,0,1,2.1-2.94L25,26.6c-.73,1.88-3.24,3.62-4.65,4.94C18.81,33,17.44,36,15.49,36.85l2.21,1.7c.45-2.24,3.11-4.56,4.73-6a22,22,0,0,0,4.78-5.85L24.86,27l.34.33c1.08,1.59,3.68.09,2.59-1.51Z"/><path d="M27.55,11.64c2-1.53,5.35-1,7.65-.56,2.59.45,5.17,2.62,4.51,5.43-.44,1.88,2.46,2.68,2.89.8,1-4.13-1.28-7.33-5.22-8.86A18.08,18.08,0,0,0,31,7.73a8.53,8.53,0,0,0-5.56,1.79c-1.52,1.18.62,3.29,2.12,2.12Z"/></g></g></svg>