<svg xmlns="http://www.w3.org/2000/svg" viewBox="0 0 52.16 51.21"><title>smiley</title><g id="Layer_2" data-name="Layer 2"><g id="smiley"><path d="M15.68,4.75c-3.54-3.31-5.41,1.47-8,3.8-4,3.58-6.78,7.24-7.43,12.9-.67,5.88,0,11.7,3.82,16.32C7.25,41.65,12,47.86,16.86,49.65a32,32,0,0,0,14.55,1.22c6.19-1,9.59-3,13.67-7.71,3.47-4,7.1-7.26,7.08-12.8,0-5.75-.53-12.91-3-18.17C46.9,7.58,41,3.91,36.49,1.86,30.56-.88,25.21-.24,19.12,1.53,14,3,9.15,5.32,6.63,10.23,4,15.45,1.64,20,2.21,26.05A27.43,27.43,0,0,0,7.46,39.58c3.77,4.91,8,5.58,13.39,8.08,5,2.31,10.5,3.45,15.9,1.38,2.3-.88,3.64-2.45,5.35-4.16,2.18-2.18,4.89-3.82,6.68-6.38,6.82-9.74,1.95-25.84-6.86-32.42C37.25,2.59,31-.31,25.23,1.56c-3.46,1.11-6.84,2.38-10.4,3.19-2.88.66-4.31.33-6,2.81-1.09,1.59,1.51,3.1,2.6,1.51.83-1.22,2.9-1.12,4.2-1.42,2-.49,4.06-1.08,6.07-1.64s4.93-2.1,6.85-2.21c2.57-.14,5.62,1.2,7.84,2.32,8.78,4.4,12.84,13.34,12.31,23-.31,5.65-3.12,8.6-7.1,12.11-2,1.78-3.69,4.29-6.35,5.18a21.34,21.34,0,0,1-7.36.56c-3.09-.24-4.82-1.86-7.53-2.86-2.18-.81-4.61-1.17-6.6-2.48a17.79,17.79,0,0,1-5.84-7.32C4.14,26,4.67,17.46,10.33,10c2.78-3.67,7.3-5,11.58-6.12A19.89,19.89,0,0,1,39,6.71c4.26,2.82,7.56,5.74,8.67,11,1,4.69,2.56,11.57.68,16C44.89,41.81,36.86,48.22,27.9,48.31c-3.8,0-9.26-.88-12.35-3.16A47.47,47.47,0,0,1,5.34,34.52c-3.42-5-3-14,0-19.18.46-.76,8.15-8.5,8.18-8.47,1.41,1.32,3.53-.79,2.12-2.12Z"/><path d="M12.82,30.9c2.81,5.85,11.11,8.65,17.25,7.36a11.31,11.31,0,0,0,6.23-3.72c1.5-1.75,4.12-5,4.43-7.33.26-1.89-2.63-2.7-2.89-.79-.39,2.86-4.63,7.52-7.09,8.46-4.91,1.88-13-.7-15.33-5.49-.84-1.74-3.43-.22-2.6,1.51Z"/><path d="M18.06,14.42a4.19,4.19,0,0,0-.86,2.07,3.2,3.2,0,0,0,.47,2.41,1.87,1.87,0,0,0,2.47.72,2.44,2.44,0,0,0,1-2.75,6.31,6.31,0,0,0-.5-1.54,1.87,1.87,0,0,0-2.52-.72,2.54,2.54,0,0,0-1,1.68,2.4,2.4,0,0,0,.33,2.43c2.31,2.5,7.14-2.1,4.1-4.11a3.05,3.05,0,0,0-3.58.23,4.15,4.15,0,0,0-1.08,2.81,2.11,2.11,0,0,0,3.39,1.66,2.7,2.7,0,0,0,1.35-2.07A2,2,0,0,0,20.35,15a1.5,1.5,0,0,0-.8,2.9l.07,0L19,17.56a.83.83,0,0,1-.29-.54c0-.13,0-.13,0,0s.05-.17,0-.09,0,.05.1-.16.15-.25,0-.1l-.1.1q.15-.12,0,0c-.2.13-.18,0,0,0a1,1,0,0,1,.91.3l.15.19c.09.24.12.31.09.19s0,.38,0,.11-.08.22,0,.06a.94.94,0,0,0,.06-.24c0-.1.07-.19.1-.29,0,.13-.12.23,0,0s.07-.13.1-.2.19-.21,0,0-.1.13,0,.06l-.17.14c-.29.2-.13.09,0,0-.13.06-.29,0,0,0s.12-.05,0,0l.15,0c.08,0,.07,0,0,0s-.12-.05,0,0L19.81,17a1,1,0,0,1-.26-.86c0-.2.15-.17,0,0l.05-.07-.09.09c-.11.1-.13.12-.05.06h0l-.28.17c-.37.23.25-.15-.11,0-.2.1,0,0,.16,0,.45.07.45.58.71.88,0,.16,0,.19,0,.08s0-.13.05-.19L20,17a2.45,2.45,0,0,0,.08-.29l0-.1a.93.93,0,0,1-.41.56l-.76.2a1,1,0,0,1-1-.67l0,.12c0,.15.07.3.1.44s.06.22.1.33a1.87,1.87,0,0,1,.07.22c-.11-.61.18-.93.88-1L20,17a.92.92,0,0,1,.23.25c-.08-.15-.08-.16,0,0,0,0,0-.32,0-.19,0-.05.1-.33.13-.46a2.68,2.68,0,0,1,.07-.27q.14-.39-.15.18a1.53,1.53,0,0,0,0-2.12,1.51,1.51,0,0,0-2.12,0Z"/><path d="M29.73,13.59c-1.16,1.14-.84,4.31.91,4.76,1.32.34,2.15-.76,2.47-1.88a4,4,0,0,0-.39-3.08,1.49,1.49,0,0,0-1.3-.75c-2,.23-2.56,2.5-2,4.18a2.34,2.34,0,0,0,2.19,1.73A2.6,2.6,0,0,0,34,16.62a2.81,2.81,0,0,0-.48-2.79,2.25,2.25,0,0,0-3.42.48,2.52,2.52,0,0,0,.5,3.58,2.32,2.32,0,0,0,3.3-1.34c.49-1.3.18-3.2-1.36-3.62a1.73,1.73,0,0,0-2,.93,4.52,4.52,0,0,0-.38,1.62,1.5,1.5,0,0,0,1.5,1.5,1.54,1.54,0,0,0,1.5-1.5c0-.37-.07.24,0-.12a.49.49,0,0,0,0-.2c0-.08,0-.07,0,0a1.11,1.11,0,0,1-1.07.68l-.75-.21c.13.06-.1-.11-.16-.21s-.06-.35-.1-.13c.05-.25,0,.06,0,.11s-.14.2,0,.07a.83.83,0,0,1,1.25,0,1,1,0,0,1,.21.58c0,.2,0-.21,0,0,0-.17.12-.1-.13,0a.65.65,0,0,1-.59.07.93.93,0,0,1-.48-.32s-.21-.42-.14-.21c0-.12,0-.33,0-.07s-.09.19,0-.05a.78.78,0,0,0-.07.25c0,.11.16-.24,0,0s0,0,.07-.06c-.24.2.3-.14,0,0a1.11,1.11,0,0,1,.44-.12c-.12,0-.1,0,.05,0a.83.83,0,0,1,.37.11s.27.25.14.1c.27.3.12.17.06.05.16.32,0,.09,0-.11s0-.07,0,.07c0-.08,0-.16,0-.24s0-.16,0-.24c0-.27-.07.18,0,.07a1.08,1.08,0,0,0,.05-.21c0-.25-.11.24,0,.1s0,0-.09.1a1.12,1.12,0,0,1-.73.28l-1.29-.74c.06.11.07.12,0,0a2.36,2.36,0,0,1,.1.38c.07.26,0-.18,0,.06s0,.23,0,0a3.05,3.05,0,0,1-.14.54c0,.09,0,.09,0,0s0-.07,0,0c-.2.31.1.31.91,0,.52-.31.88-.27,1.09.11-.1-.16,0,.08,0,.13s0-.13-.06-.19a2.44,2.44,0,0,0-.06-.26c0-.15,0,.23,0,.07a2.67,2.67,0,0,0,0-.49c0,.13-.07.3,0,.08l0,.07a.79.79,0,0,1-.2.33,1.5,1.5,0,0,0-2.12-2.12Z"/></g></g></svg>