<svg xmlns="http://www.w3.org/2000/svg" viewBox="0 0 504.8 95.1"><defs><style>.cls-1{opacity:0.78;}.cls-2{fill:#fff;}</style></defs><title>titleBox</title><g id="Layer_2" data-name="Layer 2"><g id="Layer_2-2" data-name="Layer 2"><g class="cls-1"><path class="cls-2" d="M8.29,59.54c.21-6.8-4-12.91-5.52-19.5C1.9,36.28,1.17,27.49,2.94,24c.63-1.25,2.66-2.59,3.51-4s1.17-2.81,2.18-4c3-3.41,9.44-4.3,14.47-4.54C34.07,11,44.42,10,55.59,10H42.35a6.33,6.33,0,0,1-3.64-.32c.15-2.71,3.9-.33,5.44,0,2.88.61,5.86.34,8.82.34,3.31,0,6.45-.82,9.67-.85,4.57,0,9.3.85,14,.83,7.31,0,14.66.22,22,0,4.34-.11,8.16-1.39,12.39-1.65,4.42-.27,8.32,1.48,12.68,1.69,8.73.42,17.7-.08,26.46-.08,9.21,0,19.44.93,28.53-.12C197.58,7.73,217,8.54,236.3,8.54c9.56,0,19.83.86,29.17-.75A63,63,0,0,1,277,7c5.44,0,8.94-.61,14.14-1.37,7.43-1.08,16.13-.13,23.71-.13h27c7.74,0,14.75-1.58,22.32-1.51,6.91.06,13.82,0,20.74,0s13.45-.51,20.35,0c7.27.58,14.36-1.55,21.76-1.54,3.41,0,7.63-.61,11-.07,4.82.77,5.59,1.72,11.17.82s11-.21,16.79-.37c3.65-.1,6.24.84,9.89,1.2s6.53-.67,10.1.73c2.59,1,8.21,4.47,9.85,6.54,3.34,4.2-2.82,13.34,2.66,16.65l-9.46-16.5,1.47-1c6.08,5.06,5.47,13.2,8.46,19.24.9,1.81,2.72,5.63,3,7.58.5,3-1.83,5.57-1.3,8.67a85.62,85.62,0,0,1,1.57,15c0,8.06.57,19.29-9.88,23.65-4.17,1.74-8.18,1.84-12.73,1.77-6.14-.09-12.09,1.31-18.05,2.3-18.37,3.09-37.39-.76-55.84-.76-3.53,0-7.05,0-10.57,0-4.91,0-7.59.93-12.14,1.58-3.43.48-18.25-1.74-18.77,1.16,2.05.16,3.52-.94,5.52-1.24l18.93-3c-7.53,0-16.06-.85-23.44.13-7.54,1-15.49,2.45-23.15,2.93-6.72.41-13.75-.74-20.43-.12-3.69.35-6.24,1.53-10.15,1.59-3.28.06-6.59,0-9.88,0q-19.41,0-38.81,0c-7.5,0-14.41,1.56-21.75,1.49s-14.5,0-21.75,0H169.06c-9.61,0-18.87.35-28.22-1.17-9.89-1.6-20.46.54-30.44-.46-5.77-.58-10.63-1.39-16.54-1.37-4.52,0-9.17.3-13.67.08C75,89.36,70.34,88,65,88c-4.24,0-8.48,0-12.73,0-6.6,0-13.22-.05-19.82,0A51.41,51.41,0,0,1,22,86.87c-2.43-.4-5.78.34-8-.48-10.7-4-4.07-20-5.59-26.81C7.3,54.71,4.44,50.69,4.51,45.7c.07-5.38,0-10.77,0-16.16"/><path d="M8.89,59.54c.24-7.45-3.66-13.61-5-20.73a38.53,38.53,0,0,1-.58-9.53c.27-4,2.15-5.31,4.32-8.4,1.4-2,1.41-3.61,3.72-5.16a15.45,15.45,0,0,1,4.89-1.83c4.07-1,8.46-.88,12.63-1.1,8.91-.47,17.81-1,26.73-1a1.72,1.72,0,0,0,0-3.43C50.6,8.31,44,9.45,39.18,8l1.23,2.17c-.61,2,17,1.31,18.23,1.17,7.73-.89,15.71.49,23.49.56,8.11.09,16.05.34,24.08-.92s15.93,1.18,24,1.23c8.38.06,16.76-.36,25.14-.15,8.1.21,16.13.54,24.21-.29,17.57-1.82,35.2-1.34,52.84-1.26,8.3.05,16.66.54,25,.12,3.83-.19,7.55-.89,11.36-1.29s7.73-.17,11.6-.36c7.29-.36,14.34-1.92,21.69-1.78,8.11.16,16.21.37,24.33.37,17.34,0,34.52-1.43,51.86-1.46,8.34,0,16.74-.5,25.08-.09s16.18-1.18,24.38-1.42c4.24-.13,8.18-.44,12.38.38a25.36,25.36,0,0,0,7.87.54A135.71,135.71,0,0,1,463.05,5c4.34,0,8.44.84,12.73,1.19,4.63.37,8.38-.19,12.59,2.25,3.55,2.07,6.53,3.75,6.24,8.19-.33,5-1.9,9.69,2.72,13.2,1.75,1.32,3.82-1.18,2.86-2.86l-9.46-16.5L490,13.35l1.47-1L488.92,12c5.13,4.75,5.05,11.59,7.61,17.67,1.19,2.82,3.1,5.54,3.12,8.66,0,3.61-1.37,6.21-.79,10,1.78,11.28,4.77,30.91-9.46,35.19-4.1,1.24-8.38.75-12.59,1A91.08,91.08,0,0,0,465.42,86a122,122,0,0,1-27.12,1.74C422.16,87,405.12,84,389,86.43a93,93,0,0,1-17.09.73c-3.25-.07-8.28-.54-9.79,3.06a2.12,2.12,0,0,0,2,2.68c4.25-.25,8.85-1.76,13.12-2.43l11.89-1.89c2.41-.38,1.76-4.14-.56-4.16-7.23-.06-14.51-.76-21.72-.07s-14.18,2.16-21.32,2.84c-7.41.7-14.75-.39-22.15,0a61.24,61.24,0,0,0-8.07,1.25c-3.89.73-7.87.46-11.82.44-15.32-.09-31-.94-46.31.21s-30.38,1.23-45.7,1.22-30.88-.07-46.32,0c-14.81,0-29.29-2-44.1-1.48-7.32.23-14.36-.82-21.64-1.36-7.93-.59-15.87.47-23.77-.62-14.32-2-28.83-.93-43.26-1.15-3.59-.06-7-.79-10.5-1.17-2.88-.31-6.26.59-8.79-1.16C8.61,80.22,10.08,72.61,10.55,68c.51-5,.38-8.82-1.4-13.65-3-8-2.37-16.27-2.5-24.76-.05-2.76-4.26-2.76-4.29,0-.09,6.66-1.2,14.24.42,20.75C4.16,55.84,6.58,60,6.07,65.83c-.67,7.66-2.47,18.41,6.2,22.35a14.28,14.28,0,0,0,6.32.92c3.13,0,6.13.69,9.24,1,7.7.82,15.72.22,23.46.22s15.46-.18,23.21.94c7.42,1.07,14.78.31,22.23.59s15,1.71,22.6,1.54c7.8-.18,15.31-.62,23.08.44,15.71,2.13,32.08.9,47.89.89,16.25,0,32.5-.09,48.75,0,7.65,0,15.16-1.31,22.79-1.48,8.07-.18,16.16,0,24.22,0,9.1,0,18.72.92,27.75-.15,3.56-.42,6.95-1.44,10.56-1.57,4.36-.14,8.7.28,13.05.35,8,.12,16-1.32,23.95-2.47,9.13-1.33,18.08-.74,27.27-.67l-.57-4.16-10.92,1.73c-4.12.65-8.86,2.19-13,2.44l2,2.68c-.06.13,4.75,0,5.71.05,2.78.06,5.55.32,8.33.38a31.26,31.26,0,0,0,6.38-.65,72.75,72.75,0,0,1,12.85-1c18.17,0,36.49,3,54.63,1.64,9.13-.71,17.91-3,27.11-3.18,6.37-.09,13.13-1.08,17.74-5.93,7.62-8,5.78-23.13,4.32-33a19.25,19.25,0,0,1,.17-8.14A11.12,11.12,0,0,0,504,37.1c-.39-2.93-2.11-5.7-3.29-8.36-3-6.83-3-14.28-8.79-19.66a2.13,2.13,0,0,0-2.54-.33l-1.47,1a2.14,2.14,0,0,0-.75,2.86l9.46,16.5,2.86-2.86c-3.67-2.78.7-11-1.41-15.11s-8.36-7.38-12.46-8.55c-3.22-.91-6.5-.27-9.79-.54-4.35-.36-8.32-1.16-12.73-1.19A112.84,112.84,0,0,0,451,1,32.75,32.75,0,0,1,440.58.85c-7.32-1.45-15.4-.55-22.74.37-8.55,1.06-16.92.43-25.5.62C383.56,2,374.77,2,366,2S348.62,3.47,339.87,3.5s-17.79.13-26.67,0c-7.86-.11-15.63-.76-23.44.35-7.64,1.09-15.26.78-22.89,1.71a182.6,182.6,0,0,1-26,1c-18.14-.32-36.48-.78-54.57.62-17.12,1.33-34.11.9-51.27,1.1-5.2.06-10.43.16-15.57-.76-3.7-.67-6.93-1.29-10.73-.81A123,123,0,0,1,93.11,8.26c-4.88,0-9.76-.06-14.64-.07s-9.39-.65-14.11-.77c-4.12-.11-8.16.75-12.28.86a29.05,29.05,0,0,1-7.85-.4c-1.19-.31-2.31-1-3.56-1.14A3.1,3.1,0,0,0,37,9.25a1.8,1.8,0,0,0,1.23,2.17c5.15,1.52,12,.36,17.35.34V8.33c-10.52.08-21,.9-31.52,1.49-6.75.39-14.23,1-17.91,7.38C4.61,19.88,2,21.91,1.07,24.89S.36,31.44.62,34.56c.76,8.85,6.43,16.26,7.06,25a.61.61,0,0,0,1.21,0Z"/></g><path d="M3.4,29.54c-.11,6.58-1.27,14.08.22,20.52,1.3,5.62,3.68,9.87,3.08,15.77C5.94,73.26,4,84,12.47,87.83a13.82,13.82,0,0,0,6.12.9c3.13,0,6.14.73,9.24,1.06,7.7.84,15.72.27,23.46.3s15.49-.13,23.26,1c7.4,1.09,14.75.34,22.18.63s15,1.73,22.6,1.57c7.8-.17,15.32-.6,23.09.47,15.7,2.15,32.07.94,47.88,1,16.25,0,32.5,0,48.75,0,7.65,0,15.17-1.29,22.79-1.45,8.07-.16,16.16,0,24.22,0,9.1,0,18.72.93,27.75-.12,3.56-.41,6.95-1.44,10.56-1.55,4.36-.14,8.7.28,13.05.36,8.06.13,16.06-1.31,24-2.45,9.11-1.31,18-.71,27.21-.63,3,0,3.05-4.72,0-4.74-7.23,0-14.51-.74-21.72,0S352.74,86.31,345.6,87c-7.41.71-14.75-.37-22.15.06a63.33,63.33,0,0,0-8.11,1.27c-3.88.74-7.85.47-11.78.45-15.32-.07-31-.9-46.31.28s-30.38,1.28-45.7,1.28-30.88,0-46.32,0c-14.81.07-29.29-1.91-44.1-1.42-7.32.23-14.36-.8-21.64-1.33-7.94-.58-15.9.48-23.82-.58-14.31-1.92-28.8-.83-43.21-1-3.58,0-7-.76-10.5-1.13-3-.31-6.35.61-9-1.16C8.16,80.51,9.52,72.82,10,68s.29-8.7-1.54-13.44c-3.13-8.11-2.64-16.36-2.81-25a1.1,1.1,0,0,0-2.2,0Z"/><path d="M369.71,88.73a42.6,42.6,0,0,1-5.52.64l1.22,2.13c1-2.08,12.75-.09,14.86,0a31.93,31.93,0,0,0,6.31-.57A76.6,76.6,0,0,1,399.5,90c18.17.06,36.48,3.19,54.63,1.82,9.13-.69,17.91-3,27.11-3.13,6.41-.08,13.19-1.07,17.84-5.93,7.68-8.06,5.88-23.24,4.43-33.17a18.81,18.81,0,0,1,.2-8,11.46,11.46,0,0,0,.5-4.54c-.39-3-2.13-5.76-3.3-8.47-3-6.81-3-14.43-8.87-19.69a2.42,2.42,0,0,0-3.29,0L487.37,10c-2,1.56.56,4.67,2.67,3.46l1.53-.88-2.82-.37c5,4.84,5,11.55,7.55,17.64,1.17,2.77,3.08,5.46,3.11,8.53,0,3.62-1.37,6.23-.77,10,1.8,11.17,4.84,30.73-9.27,35-4.09,1.24-8.36.76-12.56,1a91.46,91.46,0,0,0-11.41,1.55,122.41,122.41,0,0,1-27.1,1.79C422.21,87,405.1,84,389.09,86.63a94.63,94.63,0,0,1-17.15.92c-2.75,0-8-.5-9.12,2.86a1.42,1.42,0,0,0,1.37,1.79c2.18-.27,3.66-1.11,5.74-1.88.78-.29.76-1.71-.22-1.59Z"/><path d="M9,59.72C10.18,52.6,5.83,46.38,4.39,39.6a38.36,38.36,0,0,1-.73-9,13.21,13.21,0,0,1,.7-5c.79-1.71,2.37-2.72,3.47-4.23,2.57-3.57,3.75-5.94,8.52-7,4.07-1,8.35-.89,12.51-1.12,8.91-.49,17.8-1.06,26.73-1.1,2.64,0,2.65-4.11,0-4.1-10.84.07-21.67.81-32.49,1.46C15.85,9.89,9.19,11,5.44,17.66c-1.56,2.77-4.16,4.4-4.93,7.6a30.35,30.35,0,0,0-.2,9.93c.88,8.63,5.5,16.11,7.31,24.53a.69.69,0,0,0,1.33,0Z"/><path d="M42.35,9.43l-3.07-.68.4,1.53c.42-.82,6,1.1,7.09,1.2a58.88,58.88,0,0,0,11.87-.33c7.73-.83,15.71.6,23.49.71,8.1.11,16.06.39,24.09-.84s15.91,1.17,24,1.23c8.38.06,16.76-.35,25.14-.13,8.1.21,16.13.55,24.21-.28,17.57-1.8,35.21-1.31,52.84-1.23,8.3,0,16.66.53,25,.12,3.83-.2,7.55-.89,11.36-1.3s7.73-.16,11.6-.36c7.29-.36,14.34-1.92,21.69-1.78,8.11.15,16.21.36,24.33.36,17.34,0,34.52-1.44,51.86-1.47,8.34,0,16.74-.49,25.08-.07S419.51,5,427.71,4.73c4.23-.12,8.16-.42,12.34.41a25,25,0,0,0,7.95.55,124,124,0,0,1,15.05-.48c4.34,0,8.44.86,12.73,1.21,4.6.38,8.3-.18,12.47,2.25,3.48,2,6.4,3.64,6.1,8-.35,5.07-1.88,9.88,3,13.24,2,1.38,4.48-1.82,2.59-3.36-3.95-3.25.57-10.8-1.53-15.25-1.87-4-7.71-7.06-11.6-8.54-3.35-1.28-6.62-.68-10.1-.88C472.38,1.63,468.32.69,464,.67c-4,0-8.05-.3-12.06,0-3.76.32-6.95.88-10.69.13-7-1.41-14.56-.8-21.6,0-8.9,1-17.46.66-26.39.88-8.77.2-17.54.21-26.32.16-9.07,0-18,1.48-27.06,1.51-8.89,0-17.79.12-26.67,0-7.87-.11-15.64-.76-23.47.35-7.63,1.09-15.25.74-22.87,1.71-9.06,1.16-17.83,1.15-26.94,1-18.16-.27-36.5-.75-54.62.74-17.38,1.43-34.76,1-52.2,1.08a76.84,76.84,0,0,1-15.23-1.09,29.31,29.31,0,0,0-10.06-.36C97.66,8.3,87.8,8.27,77.55,8.27c-4.69,0-9.35-.71-14-.7-4.41,0-8.78.9-13.2,1a25.18,25.18,0,0,1-7-.62c-1.08-.27-2.1-.92-3.25-.8-1.73.17-2.21.9-2.42,2.54a1.13,1.13,0,0,0,.83,1.08,9.57,9.57,0,0,0,4.09-.17.61.61,0,0,0-.16-1.2Z"/></g></g></svg>