<svg xmlns="http://www.w3.org/2000/svg" viewBox="0 0 52.62 50.75"><title>user</title><g id="Layer_2" data-name="Layer 2"><g id="avatar"><path d="M8.76,9.27c-3.3,1.08-5.09,6.28-5.64,9.29C2.1,24.23,1.84,30.68,4.24,36A28.94,28.94,0,0,0,13.6,46.7,23.42,23.42,0,0,0,30,50.23c4.62-.83,10.9-4.11,14.4-7.06,4.64-3.89,5.09-9.61,6.29-15.19C53,17.6,44.94,8.09,36.38,3.65,26.6-1.42,14.68,1.75,7.43,9.94a.39.39,0,0,0-.09.37l.16.42c.17.45.9.26.72-.19C7.63,9,16.11,4.62,17.38,4.09,25,.91,31,1.24,38.16,5.43,49.55,12.09,52.27,25,48,36.89c-2.16,6-10.29,10.16-16.09,12-6.83,2.17-15.1-.11-20.35-4.85-4.52-4.07-8.23-9.78-8.33-16-.08-4.9-.1-16.16,5.72-18,.46-.15.26-.88-.2-.73Z"/><path d="M5.4,11.34c-8,8.8-5.81,23,1.85,31.17,8.17,8.7,19.16,10.14,30,6.06,5.41-2,10.35-7.84,12.92-12.9s2.07-9.34,1.65-14.83C51.26,13.92,48.68,9.33,43,5.51,38.29,2.31,32.54-.14,26.69,0a22.36,22.36,0,0,0-7.88,1.54c-3.34,1.45-7.68,3.5-10.35,6C5.42,10.36-.95,18.85,2.22,23c.87,1.14,2.82,0,1.95-1.14-1.74-2.29,2.56-8.8,4-10.58C10.65,8.21,14,6.89,17.35,5A20.52,20.52,0,0,1,34.62,3.7C41.17,6.05,47.3,10.05,49,17.18c1.26,5.51,1.82,12.74-1,17.81C42.08,45.71,29.84,51.5,18.16,47.21,5.36,42.51-3.3,24.22,7,12.93c1-1.07-.61-2.66-1.59-1.59Z"/><path d="M30.78,8.67l0-.14a1.13,1.13,0,0,0-1.08-.82c-2.81-.11-4.13-1.45-7,.09a14.62,14.62,0,0,0-5.15,4.86,12.28,12.28,0,0,0-1.42,6.47,12.86,12.86,0,0,0,1.69,4.8c.29.49,2,1.64,1.85,2.24l1.88-.5.16.51H19.48a17.23,17.23,0,0,1,.1,2.38l2.21-.3-.47-2.88c-.17-1.41-2.39-1.46-2.25,0,.17,1.69.75,3.87.24,5.55l2.21.3c0-1.12-.21-2.3-.21-3.4H19.06A8.62,8.62,0,0,1,18.42,31a1.13,1.13,0,0,0,1.88,1.1l.81-.91c.8-.89-.29-2.59-1.36-1.77S18,30.75,17,31.59l1.59,1.59a8,8,0,0,0,1.62-1.67c.93-1.09-.53-2.61-1.59-1.59C14.38,34,7.83,35,8.71,42.06l2.21-.3c-1-5.87,7.8-5.33,10.25-9.56a1.13,1.13,0,0,0-2-1.13c-1.77,3.06-7.06,3.08-9.45,5.55-1.49,1.55-1.37,3.72-1,5.74.21,1.23,2.36,1,2.21-.3-.72-5.82,5.77-7.2,9.24-10.55l-1.59-1.59A8.27,8.27,0,0,1,17,31.59c-1.09,1,.49,2.51,1.59,1.59l2.31-1.86-1.37-1.76-.81.91,1.88,1.09a9.12,9.12,0,0,0,.72-3.73,1.13,1.13,0,0,0-2.25,0c0,1.49.16,2,.21,3.4a1.13,1.13,0,0,0,2.21.3c.58-1.92,0-4.22-.16-6.15H19.07c.17,1.38.28,2.12.55,3.48s2.22.95,2.21-.3a12.85,12.85,0,0,0-.18-3,1.13,1.13,0,0,0-2.17,0,1.68,1.68,0,0,0,.42,1.68,1.13,1.13,0,0,0,1.88-.49A2.8,2.8,0,0,0,21.33,24c-.47-.87-1.61-1.51-2.11-2.46a7.62,7.62,0,0,1-.29-6.33,8.69,8.69,0,0,1,3.25-4.19A5.29,5.29,0,0,1,26.64,9.6c2.17.12,2.21.82,2-.33.29,1.41,2.46.81,2.17-.6Z"/><path d="M29.5,9.37l.07-.11L28,9.67c2.56,1.35,5.61,2.89,6,6.12.34,2.73-1.17,6.51-2.49,8.74-3.8,6.45-11,2.67-11.66-4.16l-2.21.3c.8,5.11,2.72,9.69,8.7,10.06,6.14.37,6.8-6.3,7.57-10.9l-2.21-.3c-.1,3.43-2.59,8-.42,11.14a1.13,1.13,0,0,0,2.06-.87l-.56-2.6c-.19-1.41-2.43-1.44-2.25,0,.53,4.41,2.57,5.13,6.83,6.33a1.13,1.13,0,0,0,.87-2.05,8,8,0,0,0-1.7-.92c-1.19-.47-2,1.47-.87,2.06,4,2.11,7.17,5.19,7,10.1H45c0-3.11.52-6.1-2.39-7.81-2-1.16-4.31-1.44-6.34-2.5-2.19-1.14-2.86-3-3.94-5.14a1.13,1.13,0,0,0-2.09.57v.46a1.13,1.13,0,0,0,2.25,0v-.46l-2.1.57c1.22,2.37.71,4,3.26,5.39a44.58,44.58,0,0,0,5.41,2.05c3.75,1.45,3.71,3.09,3.69,6.87a1.13,1.13,0,0,0,2.25,0c.15-5.73-3.36-9.54-8.15-12l-.87,2a7.1,7.1,0,0,1,1.16.69L38,31.36c-2.25-.63-4.86-1.52-5.18-4.16H30.57a14.53,14.53,0,0,0,.64,3.2l2.06-.87c-1.7-2.46.64-7.18.72-10,0-1.24-2-1.57-2.21-.3-.56,3.35-.82,10.22-6.63,8.9-3.91-.88-4.76-4.62-5.3-8.06-.19-1.24-2.32-1-2.21.3.3,3.25,2.1,8.06,5.25,9.52,2.42,1.13,7,.86,8.89-1.11C34.48,26,36,21,36.15,17.14c.27-5.18-2.74-7.18-7-9.42a1.16,1.16,0,0,0-1.54.41l-.07.1c-.8,1.22,1.15,2.35,1.94,1.14Z"/><path d="M34.4,19.17l-.13.1L36,19.5a9.4,9.4,0,0,0-.79-1,1.14,1.14,0,0,0-1.59,0,2.17,2.17,0,0,0-.89,1.93c-.11,1.23,1.52,1.38,2.1.57,1.68-2.35.39-8.09-1-10.3a1.14,1.14,0,0,0-2.06.27c-.55,1.65.16,3.54.44,5.2s-.19,1.91-.14,3.38a1.13,1.13,0,0,0,2.25,0c.62-6-6.62-15.47-12.51-9.33C16.3,16,17.31,23.66,21.06,30A1.13,1.13,0,0,0,23,28.9C20.9,25.32,19,20,20.8,16c1.3-2.83,3.73-5.34,7.15-4.55,3.18.73,4.38,5.52,4.11,8.08h2.25c0-.6.33-1.14.39-1.9.15-2-1.43-4.11-.77-6.08l-2.05.27c1.05,1.61,2.12,6.52,1,8l2.1.56.23-.34H33.66l.43.53a1.15,1.15,0,0,0,1.77.22l.13-.1c1.14-.88-.46-2.46-1.59-1.59Z"/><path d="M31.8,28.19l-.28,0a1.44,1.44,0,0,0-1.05,1c-.41,2.52-.18,4.67,2.23,5.82,2,1,5.29,1.13,6.78,2.95,1.28,1.56,1.05,3.59,1.27,5.42a1.52,1.52,0,0,0,2.8.76c2-3.12.42-6.06-1.86-8.34a19.76,19.76,0,0,0-4.8-3.44c-.68-.33-1.78-.34-2.36-.81-1-.76-1.14-2.79-1.17-4,0-1.93-3-1.94-3,0,.08,3.45.78,6,4.06,7.22,2.42.89,8.62,4.55,6.54,7.84l2.79.76c-.32-2.66-.21-6-2.38-8.09-.95-.91-2.59-1.29-3.8-1.71a28,28,0,0,1-3.08-1.07c-1.24-.61-1.41-.8-1.13-2.52l-1,1.05.27,0c1.91-.26,1.1-3.15-.79-2.89Z"/><path d="M22,1.9l0-.27A1.53,1.53,0,0,0,20.47.53c-2.11-.17-3.73.78-5.57,1.65C11.33,3.87,9,4.86,6.32,7.87A26.75,26.75,0,0,0,0,23.1c-.38,5.54,1.87,10.74,4,15.71A19.16,19.16,0,0,0,16.44,49.62a28,28,0,0,0,9.43.85c2.92-.17,6.45-.09,9.08-1.53A41.9,41.9,0,0,0,47.59,38.35C53.77,30.59,55,16.44,47,9.68,42.26,5.76,36.67.48,30.24.21,26.93.07,23.17,1,20,1.74c-2.08.5-3.1,1.34-3.55,3.5C16,7.12,18.92,7.93,19.31,6s6-2.28,7.23-2.48c4.15-.68,7,.23,10.41,2.3,4.61,2.78,10.9,6.86,12,12.38,1.23,6,.21,13.13-3.53,18-3,3.9-6.49,6.32-10.53,9-5.17,3.4-15.34,3.2-20.79.25S6.57,37.39,4.53,31.78a21.28,21.28,0,0,1,.87-17c1.33-2.93,3.53-6.19,6.31-7.92,1.91-1.19,6.64-3.52,8.76-3.35L19,2.42l.06.28c.39,1.89,3.28,1.09,2.89-.8Z"/></g></g></svg>