<svg xmlns="http://www.w3.org/2000/svg" viewBox="0 0 10.92 83.09"><title>vertical ruleldpi</title><g id="Layer_2" data-name="Layer 2"><g id="Layer_2-2" data-name="Layer 2"><path d="M.6,79.85c2.26.6,4.84,1.29,6.66,2.8a1.69,1.69,0,0,0,2.84-1.17c.4-7.48.59-15.07.81-22.56s-1.55-14-2.09-21.22.75-14.54-.09-21.76A121.38,121.38,0,0,1,7.49,2.09c0-2.79-4.34-2.79-4.33,0v.46c0,2.78,4.34,2.79,4.33,0V2.09H3.16A78.66,78.66,0,0,0,4.25,15c1.27,7.78-.43,15.75.34,23.58C5.33,46.08,7,53,6.76,60.67c-.22,7-1.32,14.36.07,21.25L9.27,80c-2.56-1.7-5.68-3-8.67-1.81a.85.85,0,0,0,0,1.62Z"/></g></g></svg>