<svg xmlns="http://www.w3.org/2000/svg" viewBox="0 0 21.94 458.32"><title>Asset 408</title><g id="Layer_2" data-name="Layer 2"><g id="Layer_1-2" data-name="Layer 1"><path d="M5.34,2.16,5,2.49A8.26,8.26,0,0,0,3.19,5.68L2.93,7.59a5.45,5.45,0,0,0,.62,2.79A3.57,3.57,0,0,0,4.48,12a3.62,3.62,0,0,0,1.29,1.29,6.71,6.71,0,0,0,4.38,1.55l.41,0A7.39,7.39,0,0,0,18,7.39a5.58,5.58,0,0,0-.64-2.85,5.55,5.55,0,0,0-1.53-2.38,7.38,7.38,0,0,0-10.45,0Z"/><path d="M14.65,33.14c9.71,0,9.73-15.09,0-15.09s-9.73,15.09,0,15.09Z"/><path d="M17.05,66.72l-.67-.43,1.71,1.32L18,67.5l-1.75-1.34-2-.87a6.5,6.5,0,0,0-3.44-.15,4.25,4.25,0,0,0-2.17.58,4.41,4.41,0,0,0-1.9,1.11,4.37,4.37,0,0,0-1.54,1.54A4.31,4.31,0,0,0,4,70.27a6.55,6.55,0,0,0-.74,3.32l.31,2.29.87,2.06,1.34,1.74L7.53,81l2.06.87a6.56,6.56,0,0,0,3.43.16,4.4,4.4,0,0,0,2.18-.59A6.52,6.52,0,0,0,18,79.68l.12-.11L16.38,80.9l.67-.44a8,8,0,0,0,0-13.74Z"/><path d="M19.38,101.45l-.16-.24.77,1.84,0-.1L19.16,101,17.9,99.4l-1.63-1.26a6,6,0,0,0-3-1,4.09,4.09,0,0,0-2.14,0,4,4,0,0,0-2,.55,4,4,0,0,0-1.78,1A6,6,0,0,0,5.26,101l0,.08,1.23-1.59-.17.2a5.65,5.65,0,0,0-1.57,2.44,5.69,5.69,0,0,0-.66,2.93l.28,2a7.63,7.63,0,0,0,2,3.35l.17.2-1.23-1.6,0,.09,1.26,1.63L8.15,112l1.92.81a6,6,0,0,0,3.21.15,4.12,4.12,0,0,0,2-.55,4,4,0,0,0,1.78-1A4.14,4.14,0,0,0,18.53,110,6.09,6.09,0,0,0,20,107.23l0-.1L19.22,109l.16-.24a7,7,0,0,0,0-7.28Z"/><path d="M5.55,127.59c0,.8,0,1.61,0,2.42a26.18,26.18,0,0,0,.54,4l.74,1.76a5.65,5.65,0,0,0,1.9,2.07,7,7,0,0,0,4.46,1.58,8.75,8.75,0,0,0,3.71-1,7.29,7.29,0,0,0,3.38-4.4,24.86,24.86,0,0,0,.54-4c0-.81,0-1.62,0-2.42a7.86,7.86,0,0,0-2.22-5.37A7.74,7.74,0,0,0,13.15,120a7.75,7.75,0,0,0-7.6,7.6Z"/><path d="M5.41,139.82c-.36.78-.67,1.58-1,2.35l-.27.53s1-1,.38-.46c-.43.41-1.12.83.57-.18,1.51-.9,1.09-.58.45-.47l1.71-.23-.25,0,1.75,12.88.22-.07-1.78.24a1.48,1.48,0,0,1,.42,0l-1.86-.25a1.43,1.43,0,0,1,.41.09l-1.75-.74.19.09a9.47,9.47,0,0,0,3.79,1,7.85,7.85,0,0,0,3.79-1,7.53,7.53,0,0,0,3.59-7.49,7.36,7.36,0,0,0-4.48-5.87c-2.62-1.1-6.24-.7-8.21,1.56a9,9,0,0,0-2.4,4.39,7,7,0,0,0,.66,5.05,6.77,6.77,0,0,0,3.14,2.68,6.61,6.61,0,0,0,8.19-2.68c.14-.23.25-.45.37-.69,0-.09,1.25-3.27.32-.78.23-.6.56-1.17.77-1.78.46-1.4-.82,1.83.06-.27.51-1.21.86-2.45,1.29-3.68a5.47,5.47,0,0,0-3.18-6.47c-2.31-1-5.69-.24-6.85,2.24Z"/><path d="M3,165a3.4,3.4,0,0,1-.15.63l.6-1.43c0,.09-.08.17-.13.26l.95-1.23a1.45,1.45,0,0,1-.18.17l1.25-1-.14.07,1.48-.63-.07,0,1.65-.22H8.06l1.67.23-.09,0,1.51.64-.25-.16,1.31,1-.08-.07,1.68,6.34.11-.6-.69,1.63.07-.1L12.21,172a7.79,7.79,0,0,0,1.93-3.35,7.21,7.21,0,0,0-8.86-8.86,7.21,7.21,0,0,0-3.18,12,7.81,7.81,0,0,0,3.34,2l-1.66-.71.11.06-1.38-1.07.4.47a6.55,6.55,0,0,0,6.34,1.67,7.18,7.18,0,0,0,4.54-3.34,6.76,6.76,0,0,0,.89-3.52,8.58,8.58,0,0,0-.25-1.81,3.2,3.2,0,0,0-.18-.52l-.58-1.39a4.52,4.52,0,0,0-1.5-1.63,5.57,5.57,0,0,0-3.52-1.25,6.91,6.91,0,0,0-2.94.8,4.41,4.41,0,0,0-1.63,1.49,4.45,4.45,0,0,0-1,2Z"/><path d="M10.15,193.77c9.89,0,9.91-15.37,0-15.37s-9.91,15.37,0,15.37Z"/><path d="M10.15,238.91c10.07,0,10.09-15.66,0-15.66s-10.09,15.66,0,15.66Z"/><path d="M4.66,201a12.89,12.89,0,0,0,.13,1.85,3.49,3.49,0,0,0,.47,1.76,3.53,3.53,0,0,0,.9,1.54,3.46,3.46,0,0,0,1.26,1.26l.89.68-2.37-2.37.12.16a6.61,6.61,0,0,0,2.32,2.32,6.5,6.5,0,0,0,6.53,0,6.53,6.53,0,0,0,2.32-2.32l.12-.16L15,208.06a12.92,12.92,0,0,0,1.61-1.23l1.09-1.41a5.19,5.19,0,0,0,.83-2.6,12.86,12.86,0,0,0,.12-1.85,7.24,7.24,0,0,0-2-4.94A7.14,7.14,0,0,0,11.65,194,7.11,7.11,0,0,0,6.71,196a7.25,7.25,0,0,0-2,4.94Z"/><path d="M17.35,247.86c-.48-.38-1-.76-1.46-1.12L18,248.89a7.16,7.16,0,0,0-2.77-3,7.32,7.32,0,0,0-5.53-.72A7.36,7.36,0,0,0,6,247.74a5.29,5.29,0,0,0-1.29,2.44A5.45,5.45,0,0,0,4.6,253a5.34,5.34,0,0,0,.86,2.66l1.12,1.45a7.17,7.17,0,0,0,10.14,0,7.39,7.39,0,0,0,1.93-3.63l-2.76,3.59.28-.14a5.89,5.89,0,0,0,1.18-9.11Z"/><path d="M13.15,286.3a7.48,7.48,0,0,0,5.1-2.11,5.37,5.37,0,0,0,1.49-2.33,5.44,5.44,0,0,0,.63-2.78,7.3,7.3,0,0,0-2.12-5.1,7.49,7.49,0,0,0-5.1-2.12A7.47,7.47,0,0,0,8,274a5.37,5.37,0,0,0-1.49,2.32,5.43,5.43,0,0,0-.62,2.78A7.33,7.33,0,0,0,8,284.19a7.55,7.55,0,0,0,5.11,2.11Z"/><path d="M13.27,308a7.67,7.67,0,0,0,5.26-2.18,5.52,5.52,0,0,0,1.54-2.39,5.58,5.58,0,0,0,.64-2.87,7.44,7.44,0,0,0-2.18-5.26,7.69,7.69,0,0,0-5.26-2.18A7.67,7.67,0,0,0,8,295.34a5.52,5.52,0,0,0-1.54,2.39,5.58,5.58,0,0,0-.64,2.87A7.44,7.44,0,0,0,8,305.86,7.69,7.69,0,0,0,13.27,308Z"/><path d="M15.65,333.92l-.28.46a6.76,6.76,0,0,0,.89-1.18c.12-.18.24-.37.35-.56l-2.06,2.06a6.58,6.58,0,0,0,2.75-2.58c.18-.31.31-.63.51-.93a7.13,7.13,0,0,0-2.56-9.76,7.25,7.25,0,0,0-5.5-.72l-1.7.72A7.22,7.22,0,0,0,5.49,324l-.13.17a7.25,7.25,0,0,0,0,7.35,8.3,8.3,0,0,0,1.36,1.75,7.26,7.26,0,0,0,4.93,2,7.73,7.73,0,0,0,4.93-2,8.64,8.64,0,0,0,1.36-1.75,7.32,7.32,0,0,0,0-7.35l-.13-.17A5.37,5.37,0,0,0,16,322a5.39,5.39,0,0,0-2.43-1.28,7.31,7.31,0,0,0-5.49.72,7.13,7.13,0,0,0-2.56,9.76c.19.3.33.62.5.93a6.6,6.6,0,0,0,2.76,2.58l-2.07-2.06c.12.19.23.38.35.56s1.31,2,.61.72a4.67,4.67,0,0,0,8,0Z"/><path d="M15.6,362.73a.43.43,0,0,1,0-.16l-.24,1.83a1.11,1.11,0,0,1,.07-.26l-.7,1.66a1.61,1.61,0,0,1,.17-.28L8.79,369a7.74,7.74,0,0,0,4.58-1.25,7,7,0,0,0-3.56-13.16,7.74,7.74,0,0,0-4.59,1.23A7.09,7.09,0,0,0,1.71,362,16.17,16.17,0,0,0,2,364a7.17,7.17,0,0,0,.4,1A6.15,6.15,0,0,0,4,367.54l1.38,1.06,1.62.68,1.81.25a5.15,5.15,0,0,0,2.62-.59,3.45,3.45,0,0,0,1.5-.87,3.48,3.48,0,0,0,1.22-1.22,3.45,3.45,0,0,0,.87-1.5,5.15,5.15,0,0,0,.59-2.62Z"/><path d="M11.65,389c6.39,0,6.4-9.93,0-9.93s-6.41,9.93,0,9.93Z"/><path d="M8.65,410.51a6.95,6.95,0,0,0,6.94-6.94,7,7,0,0,0-2-4.9,7.16,7.16,0,0,0-4.9-2,7.16,7.16,0,0,0-4.91,2,6.94,6.94,0,0,0,0,9.81,7.2,7.2,0,0,0,4.91,2Z"/><path d="M10.15,438.54a6.47,6.47,0,0,0,6.47-6.47,6.55,6.55,0,0,0-1.9-4.57,6.72,6.72,0,0,0-4.57-1.9,6.72,6.72,0,0,0-4.58,1.9,6.48,6.48,0,0,0,0,9.15,6.75,6.75,0,0,0,4.58,1.89Z"/><path d="M8.65,458.32c2.89,0,2.9-4.5,0-4.5s-2.9,4.5,0,4.5Z"/></g></g></svg>