<svg xmlns="http://www.w3.org/2000/svg" viewBox="0 0 1260.75 589.2"><title>Asset 366</title><g id="Layer_2" data-name="Layer 2"><g id="Layer_1-2" data-name="Layer 1"><path d="M10.72,203.21l-2.55.31A2.42,2.42,0,0,0,6,205.21c-1.34,4.89,0,8.85,1.39,13.57,2,7,.38,14.06.52,21.17.1,4.91,1.32,9.55,2.19,14.35,1.25,6.94.28,14,.28,21,0,12.24,1.06,25.2,4.25,37a33.32,33.32,0,0,1,.17,17.75A63.71,63.71,0,0,0,13,348.49c.33,6.41-.86,11.72-2.35,17.86-1.37,5.7-1.11,11.59-2.34,17.33a82.2,82.2,0,0,0-1.7,17.08c-.07,6.9-1.32,13.77-1.93,20.64-2.45,27.51-1.36,55.44-1.41,83,0,5.95,0,11.9,0,17.84,0,6.81-1.54,12.43-2.86,19-2,10.14,2.31,19.75,10.33,26,9,7.07,18,5.55,28.68,5.82,6.12.15,12,2.16,18,3,6.23.86,12.41-.43,18.65,0s12.13,2.27,18.28,2.85c7.13.67,14.16,1.05,21.25,2.27,12.56,2.15,24.86,4.3,37.65,4.22s25.56-1.35,38.35-1.3,24.79,3.39,37.43,4.5c25.76,2.25,51.42-4,77.21-3.44,13.47.3,26.83,1,40.24-.83s26.65-4,39.9-6.14c6.17-1,12.24-2.49,18.37-3.63,6.77-1.25,13.47-1.08,20.24-1.91,12-1.45,24.11-7.41,36.34-5.56,5.59.85,10.81,3.06,16.54,3.14,6.2.09,12.13-1.92,18.19-2.9,6.59-1.06,13.16.14,19.78-.26,6.26-.38,12.14-2.72,18.37-3.35,12.7-1.28,25.56-.77,38.29-.29,13.83.52,27.63.68,41.47.68,27.48,0,54.85-.16,82.29,1.58,27,1.71,54,1.82,81.07,3.29,13.54.73,27.26.2,40.75,1.2,6.2.46,12.22,2.3,18.41,2.9,6.51.62,13.06.07,19.58,0,13.1-.17,25.83,3.18,39,3.17,13.34,0,26.56-.13,39.88.94,28,2.24,55.83,2,83.88,2,27.76,0,55.52.08,83.28-.22,6.62-.07,13.27-.14,19.82.87,5.91.91,11.78,2.22,17.78,2.42,13.5.47,27.11-.14,40.62-.06,13.26.08,26.21-2.79,39.44-3,6.18-.08,6.2-9.69,0-9.61-13.23.19-26.18,3.07-39.44,3-13.51-.08-27.13.57-40.62.07-5.84-.21-11.53-1.56-17.29-2.38a127.5,127.5,0,0,0-19.14-.91c-13.39.11-26.78.26-40.17.26-27.43,0-54.86-.05-82.29,0-27.11,0-54-3-81.09-2.87-6.54,0-13.09.21-19.58-.67-6.22-.85-12.36-2.18-18.65-2.44s-12.3.29-18.45.25c-6.6,0-12.81-1.47-19.29-2.48-12.87-2-26.45-.88-39.47-1.52s-26.25-1.55-39.39-2c-13.56-.43-27.09-.37-40.64-1.17-13-.76-25.92-1.77-38.91-2-27.16-.5-54.35.57-81.51-.31-12.83-.41-25.67-1.18-38.52-.78a109.59,109.59,0,0,0-17.53,1.54c-6.43,1.23-11.93,2.66-18.57,2.42a75.9,75.9,0,0,0-17.75,1.07c-7.09,1.39-13.23,2.8-20.41,1.08-5.09-1.22-9.88-2.54-15.18-2.37-6,.18-11.89,1.55-17.69,3-6.05,1.48-12.05,3.08-18.31,3.32a122.28,122.28,0,0,0-17.6,1.84c-12.91,2.38-25.84,4.27-38.76,6.53-13.78,2.4-27.13,4.4-41.15,4.19-12.76-.19-25.41-.84-38.17.15-12.53,1-25,2.68-37.58,3.18a135.15,135.15,0,0,1-18.66-.42c-6.61-.66-13-2.47-19.59-3.34-25.19-3.31-50.61,2.72-75.77-1.11-12.45-1.9-24.59-3.93-37.14-5-6.15-.52-12.13-2.23-18.28-2.83-6.84-.68-13.62.87-20.44-.3-5.41-.92-10.68-2.43-16.2-2.71-5.83-.28-11.92,1.3-17.63-.32a20.91,20.91,0,0,1-12-9.7c-3.44-6.14-1.24-11.61.27-17.9,2.76-11.46,1-24.6.93-36.31q-.06-20.57-.13-41.13C12,445,12.08,431.51,13.33,418c.56-6.12,1.51-12.18,1.49-18.34,0-6.64,1.35-12.63,2.26-19.15.75-5.37.9-10.51,2.28-15.8a53.18,53.18,0,0,0,1.33-17.24c-.69-11.69,4.79-22.65,1.75-34.25a166,166,0,0,1-5.29-37.91c-.15-5.85.35-11.74-.25-17.57C16.28,251.7,14,246,13.65,240c-.36-5.68.53-11.41-.17-17.08-.35-2.81-5.59-14.7-2.16-15.24,2.48-.39,1.92-4.73-.6-4.42Z"/><path d="M18.47,198.73c-1.32,3.12-4,5-6.32,7.4l3.45,1.43c.65-6.46,1.87-12.95,1.68-19.47-.2-7-3.58-13.05-3.3-20.11.64-16.34,1.73-32.62,2.8-48.94s.18-32.43,0-48.77c-.07-7.39.1-14.8.11-22.19,0-8.46,2-16.37,7.79-22.78,7.79-8.64,19.73-10.18,30.73-10.51,14.34-.42,28.73,1.24,43,.44,7.43-.41,14.4-3.07,21.75-3.62,8.8-.65,17.82.09,26.64.15,16.57.11,33.13.63,49.65-.95,16.81-1.6,32.58-2.59,49.39-.42s33.82,4.2,50.72,6.33c33.47,4.22,66.7,10.59,100.27,13.81S464.27,36.35,498,38s67.46-.87,101.08,2.24a437.18,437.18,0,0,0,50.15,1.65c16.94-.36,33.48.94,50.36,2,32.72,2,65.3-1,98,.08,16.6.57,33,3.42,49.62,3.88s33.14-.22,49.69.51c7.39.32,14.8.74,22.2.42,8.22-.36,16.21-2.49,24.42-2.74,7.5-.23,15,.65,22.41,1.28,8.28.69,16.5.66,24.8.63q25.35-.08,50.69,0c16.4,0,32.37-1.43,48.7-2.51,15.33-1,30.49-4,45.87-3.72,17.44.27,34.86.3,52.17,2.72,13.62,1.9,27,4.49,37.37,14.22a83.81,83.81,0,0,1,12.86,14.85c4.15,6.4,5.82,13.13,7.55,20.45,1.69,7.16,4,14.25,4.85,21.59,1,8.51.14,17.36-.54,25.87-1.36,17.07-4.14,34-6.72,50.91-5.08,33.23-8.49,66.8-11,100.32s-4.53,67.75-.5,101.24c2,16.35,5.57,32.53,7.27,48.9,1.65,16,.74,32,3.38,47.9,1.4,8.4,3,16.79,4.46,25.18,1.38,7.75,3.47,15.68,3.84,23.57.61,13.11-8,27.38-22.28,27.63-7.4.12-12-5.14-18.94-6.41-6.39-1.18-12.08,1.86-18.25,2.88-6.44,1.07-3.71,10.87,2.7,9.81,3.7-.61,7.2-2.41,10.9-2.86,4.09-.49,7,2,10.42,3.65a29.51,29.51,0,0,0,17.79,2.36c11.9-2,21.42-11.52,25.39-22.66,5.1-14.32-.57-31-3.1-45.32-1.47-8.32-3.28-16.65-4.31-25-1.06-8.74-1.14-17.57-1.49-26.35-.67-17.06-3.93-33.63-6.45-50.47a349.65,349.65,0,0,1-3.91-53c.11-35,3-69.95,6.58-104.76,1.88-18.07,3.9-36.1,6.63-54.06,2.58-17,5.35-33.92,6.82-51a194.77,194.77,0,0,0,1-23.9c-.31-8.29-2.43-16.25-4.47-24.24-1.62-6.37-2.7-12.84-5.31-18.9a64.92,64.92,0,0,0-11.12-16.88c-8.6-9.81-18.17-17.34-30.86-21-15.43-4.4-32.41-5.66-48.38-6.08-16.91-.45-33.8-1.15-50.53,1.68-7.68,1.3-15.37,1.32-23.11,1.94-8.74.71-17.44,1.85-26.2,2.2-17.17.69-34.48,0-51.67.05-17.39,0-34.53,0-51.87-1.37-16.55-1.3-32.42,2.74-48.94,2.31s-33.2-.65-49.85-.75c-17.34-.1-34.2-2.27-51.44-3.53-16.91-1.25-33.9-.39-50.82.14-17.19.55-34.4.51-51.57-.37s-34.2-2.62-51.49-2.27-34.21.25-51.4-1.33A446.06,446.06,0,0,0,548.87,30c-35.24.92-70.56-1.57-105.68-4.32-17.46-1.36-34.95-2.75-52.37-4.55-18.26-1.88-36.28-5.2-54.44-7.83-17.24-2.5-34.53-4.68-51.82-6.81C267,4.37,249.18,1.08,231.51.14c-16.42-.87-32.65,2.49-49,3.05-17.46.59-35,.07-52.51-.2a91,91,0,0,0-22.72,2.48c-8.9,2-18.25,1.36-27.31,1C67.34,6,54.24,5.39,41.75,7.63,31.56,9.46,22.3,14.29,16.17,22.8c-9.25,12.84-7.12,28.1-7.34,43-.26,17,1.35,33.81.41,50.83S7.32,150.83,7,168c-.15,6.65,2.41,11.13,3.9,17.31,1.71,7.13.63,15,.71,22.27,0,2.19,2.61,2.52,3.76,1,2.3-3,4.71-5.07,5.81-8.73.45-1.54-2-2.67-2.66-1.12Z"/></g></g></svg>