<svg xmlns="http://www.w3.org/2000/svg" viewBox="0 0 236.66 223.19"><title>Asset 336</title><g id="Layer_2" data-name="Layer 2"><g id="Layer_1-2" data-name="Layer 1"><path d="M85.67,16c-11.33.21-21.84,6.81-31.12,12.77C44.62,35.14,34.36,41,25.15,48.39a46,46,0,0,0-5,5.3c-1.67,1.84-3.74,3.37-5.07,5.5C11.82,64.32,8.26,69.59,5.43,75-.13,85.55-.08,97.85,0,109.49c.06,6.72.18,13.7.56,20.42.37,6.53.55,13.17,1.59,19.63.92,5.73,2,11.68,4.65,16.9a87,87,0,0,0,10.27,15,76,76,0,0,0,12,11.46c4.72,3.75,9.24,7.91,14.72,10.52,4.71,2.24,8.87,4.93,13.79,6.79,6.23,2.35,12.56,4.25,18.93,6.19,6.57,2,13.1,2.91,19.82,4.24A117.57,117.57,0,0,0,116,223.13c13.08.32,26.78-.68,39.39-4.34,23.5-6.82,47.2-20.93,60.62-42,7.12-11.15,10.07-23.63,14.17-36a123.18,123.18,0,0,0,6.45-38c0-24.09-9-50-25.32-67.9C201.48,24.11,189,18,176.06,11.51A105.53,105.53,0,0,0,135.34.22,123.1,123.1,0,0,0,94.57,4.84C81,8.75,67.14,13.15,55.62,21.58a4.06,4.06,0,0,0,4.09,7c21-9.37,41.8-17.31,65-18.36a93.8,93.8,0,0,1,33.52,4.33c10.87,3.66,21.86,9.64,31.68,15.56C209.23,41.75,220.22,63.46,224.47,85a101.53,101.53,0,0,1,.43,36.17,93.83,93.83,0,0,1-3.62,15.33c-1.86,5.6-3,11.45-5,17-4.08,11.11-9.38,20.66-17.49,29.3s-18.15,14.83-28.5,20.18c-21.38,11.06-48,13.2-71.46,8.67-21.51-4.16-43.22-9.12-60.68-23.11-8.54-6.86-15.52-13.78-21.49-23.05-6.55-10.17-6.28-23-7.22-34.6-.27-3.44.1-6.86-.06-10.29-.14-3.06-.64-6.07-.75-9.13-.25-7.06-.32-14,.85-20.91a43.94,43.94,0,0,1,6.44-17.09c2.9-4.67,5.49-9.59,9.12-13.64,2-2.21,3.5-4.59,5.88-6.42,1.87-1.44,3.92-2.62,5.78-4.08C39.55,47,42,44.35,45,42.31c2.35-1.59,4.91-2.86,7.26-4.45,5.09-3.45,10.16-6.85,15.32-10.2,5.91-3.84,10.74-7.59,18.06-8.15,2.22-.17,2.29-3.56,0-3.52Z"/></g></g></svg>