<svg xmlns="http://www.w3.org/2000/svg" viewBox="0 0 49.99 392.82"><title>Asset 400</title><g id="Layer_2" data-name="Layer 2"><g id="Layer_1-2" data-name="Layer 1"><path d="M5.11,6.69C2.79,12,2.62,18.72,2,23,1.4,26.49.26,29.84,0,33.44-.21,37.31.9,41,1.18,44.79c-.15-2-.13,1.64-.14,2.08C1,48.35.9,49.81,1,51.3a47.72,47.72,0,0,0,1,6.56c.15.74.56,3.91.34,1C3,67.22,2.82,71.94,4.14,80c.16,1,.33,1.87.53,2.81.14.61.56,4.63.44,1.36C5.21,87,5,89.78,5,92.59c.1,6.51,1.22,13,1.24,19.48,0,7.25-.48,14,.67,21.24.42,2.68,1,5.34,1.57,8,1.19,5.21-.11-2.66.36,2.86a54.78,54.78,0,0,0,1.07,7.34c.1.42.89,5,.59,1.69.09,1,0,2.09.07,3.12a75.86,75.86,0,0,0,1.7,11.21,39.33,39.33,0,0,1,.61,6.29c.18,3.72.08,7.45,0,11.18-.07,6.06,0,12.13-.16,18.19a60.08,60.08,0,0,0,.18,8.05c.21,2.07.53,4.07.88,6.09.19,1,.38,2,.56,3.06q-.33-3-.14,0c.25-.67.63-3.11,0,.38-.48,2.52-.92,4.89-1.2,7.49A38.11,38.11,0,0,0,13.67,239c.18,1,.41,2,.61,3.05-.67-3.53-.1-.24-.07.75.07,3.24-.12,6.49-.07,9.73,0,2.94.24,5.85.57,8.77.32,2.71.79,5.33,1.2,8-.46-3,0-.24,0,.37,0,6.31,0,12.7-.6,19-.66,7.43-1.22,14.62-1.27,22.09,0,3.44-.22,6.92-.15,10.36.06,3.14.6-3.75-.17,1.41-.39,2.65-.84,5.31-1.06,8-1.25,14.93,2.6,30,2.68,44.94,0,9.07,7.94,17.76,17.34,17.34S50.1,385.19,50,375.47c-.14-13.23-2.83-26.26-3.09-39.47,0-1.24,0-2.47,0-3.71,0-5.46-.5,3,.2-2.28a103.31,103.31,0,0,0,1.19-10.67c.2-6.6-.28-13.24.08-19.84.72-13.08,3-26.18.34-39.22-.08-.38-.57-3.32-.22-.72-.19-1.45-.26-2.92-.32-4.38-.13-2.65-.12-5.31-.1-8a69.91,69.91,0,0,0-.3-8.19c-.29-2.54-.68-5-1.15-7.45L46.3,230c.25,1.71.36,1.61.32-.29l-.15,1.56c.16-.78.31-1.56.46-2.35a56.06,56.06,0,0,0,1-7,45.92,45.92,0,0,0-1-10.58c-.17-1-.42-2-.58-3.05.58,3.6,0-1.48,0-1.92,0-3.09.14-6.18.14-9.27-.05-13.41.4-27.08-2.78-40.22-.88-3.6-.4-1.54-.3-.64-.18-1.56-.14-3.16-.29-4.73a46.82,46.82,0,0,0-.89-5.88c-.1-.43-1.83-4.93-.82-1.54-1.06-3.57-.87-7.75-1.69-11.46-.25-1.16-.56-2.3-.82-3.46.06.25-1-5.22-.73-3-.85-6.2.15-12.63-.37-18.87-.56-6.69-1.42-13.24-1.46-20a47.34,47.34,0,0,0-1.17-10.93c-.27-1.11-.68-2.19-.88-3.31.47,2.59,0-2.44,0-2.5a59.86,59.86,0,0,0-1-7.54C32.63,60,33,64,33,60.48c-.1-3.93-1.26-7.64-1.8-11.47.11.8.1,1.7,0-1.25a56.21,56.21,0,0,0-.7-7.55,38.87,38.87,0,0,0-1-4.79c-.94-3.19-.45,1.45-.26-2-.1,1.81.2-1.58.27-2a56.35,56.35,0,0,0,.93-8.07c0-1.07-.06-2.15-.07-3.22s0-2.1,0-3.14c-.3,1.45-.26,1.57.12.37,2.37-6.39-2.12-14-8-16.37S7.94.29,5.11,6.69Z"/></g></g></svg>