<svg xmlns="http://www.w3.org/2000/svg" viewBox="0 0 336.78 155.5"><title>Asset 382</title><g id="Layer_2" data-name="Layer 2"><g id="Layer_1-2" data-name="Layer 1"><path d="M3.27,9.55C-.4,12.73-.1,20.09.11,24.42c.4,8,.85,16.08,1.25,24.12.31,6.34.11,12.76.86,19.06.91,7.55,2.92,15.14,3.48,22.69A100.69,100.69,0,0,1,5.32,110c-.71,5.48-2.4,13.6.33,18.71,2.9,5.44,9.5,7.4,15.2,7.85,7.35.59,14.6.8,22,.85,14.8.1,29.83-.4,44.55,1.29s29.82,4.91,44.75,5,30,.89,45,1.29c15.38.42,30.4,3,45.58,5.25,14.81,2.18,29.76,6.47,44.84,4.89,6.72-.71,13.43-1.86,20.21-1.74,6.53.12,12.92.76,19.42,1,5.79.19,10.58,1.08,16.18-1.15s8.72-7.51,10.56-13.13c4.6-14,2.57-28.87,1.55-43.24-1.1-15.58-3-31.23-5.12-46.71-1.81-13.46-1.39-31.1-17.24-36.12-14.8-4.69-30.92-2.92-46.14-2s-30.41.25-45.63-.06c-17.31-.35-34.57-3-51.82-4.36s-34.5-2.19-51.74-4S83.37-.76,66,.22c-16.75.94-34,5-50.69,2.65-4.93-.7-9.92,1.2-11.36,6.45-1.2,4.37,1.49,10.6,6.45,11.36a100.08,100.08,0,0,0,19.16,1.18c7.64-.25,15.18-1.2,22.78-2A217.34,217.34,0,0,1,95.06,19c14.52,1.25,29,3.21,43.53,4.28,14.17,1,28.34,1.45,42.5,2.78,28.2,2.65,56.52,4.94,84.87,3.33,7.2-.4,14.35-.87,21.56-.95,3.09,0,6.23-.27,9.32,0s9.12.56,11.65,2.3c3.59,2.46,3.46,8.32,3.84,12.12.79,7.73,2.31,15.37,3.06,23.1,1.44,14.88,3.22,29.69,4.54,44.58a90.24,90.24,0,0,1,0,17.08,38.63,38.63,0,0,1-1.72,8.23c-.23.67-.59,1.28-.87,1.93a12.86,12.86,0,0,1-.87,1.64c.83-.66,1-.94.43-.84-2.27.73-3.43.33-5.82.11-2.66-.23-5.33,0-8-.34a109.37,109.37,0,0,0-19.82-.45c-5.83.42-11.6,1.41-17.4,2-7.29.75-14.8-.12-22-1.3-7-1.17-14-2.4-21.12-3.34s-14.3-2.44-21.46-3.28c-13.51-1.57-27.19-1.41-40.76-2.25-13.94-.86-28,.32-41.82-1.41-14-1.74-28.13-4-42.27-4.36-7.47-.16-14.84-.62-22.34-.52-8,.11-16,.41-24,.18-3.05-.09-6.25-.33-9.28-.66-1.1-.12-2.12-.65-3.18-.79q-2.1-1.42-.51.36a15.48,15.48,0,0,1-.08-2.36c-.25-6.85.66-13.52.37-20.37-.14-3.41.06-6.85-.2-10.24C17,85.93,16,82.43,15.37,78.91c-1.26-7.16-2-14.23-2.58-21.47-.62-7.91-1.65-15.82-2.62-23.7q-.64-5.25-1.41-10.49c-.27-1.87-.3-3.77-.62-5.63C7.87,16,6.24,13.39,7,11.69c.92-2.22-2.22-3.42-3.68-2.14Z"/></g></g></svg>