<svg xmlns="http://www.w3.org/2000/svg" viewBox="0 0 16.44 161.73"><title>Asset 417</title><g id="Layer_2" data-name="Layer 2"><g id="Layer_1-2" data-name="Layer 1"><path d="M4.21,1.61C1.9,6.93,2.09,13.44,1.66,19.19,1.16,25.82,1,32.44.81,39.09.5,52.35.27,65.62,0,78.89c-.21,11.8,1.1,23.39,1,35.19C.84,127.46.4,140.94.83,154.33c.35,11,16.9,9.24,15.15-2.05l-.16-1c-1.12-7.2-13.44-7.2-14.56,0l-.15,1c-1.73,11.12,14.79,13.2,15.14,2.05.42-13.07,0-26.24-.17-39.31-.19-12.13-1.81-24-1.91-36.13Q14,59.48,13.44,40.08c-.19-6.65-.42-13.26-.9-19.9-.44-6-.25-13-2.66-18.57-.94-2.15-4.74-2.15-5.67,0Z"/></g></g></svg>