<svg xmlns="http://www.w3.org/2000/svg" viewBox="0 0 10.9 86.36"><title>Asset 355</title><g id="Layer_2" data-name="Layer 2"><g id="Layer_1-2" data-name="Layer 1"><path d="M2.44,1.27l-.6.88a2.47,2.47,0,0,0-1.72,3C2.49,10.89,1.92,16.93,1.46,23A72.72,72.72,0,0,0,2.35,41.7C3,45.14,3.93,48.63,4.13,52.12a89.24,89.24,0,0,1-.53,10.2C3.2,69.12,1.53,75.51.67,82.24a3.81,3.81,0,0,0,2.81,3.69,19.77,19.77,0,0,0,3.67.43c4.3.08,4.59-5.72,1-7.09a7.31,7.31,0,0,0-2.59-.72l2.81,3.69c.78-7,2.3-13.61,2.53-20.75A79.6,79.6,0,0,0,8.79,40.74C7.25,33.72,7.25,27.09,7.48,20c.19-5.65.24-11.74-2.85-16.69V5.77a6.3,6.3,0,0,0,1.3-4c.05-2-3-2.45-3.49-.47Z"/></g></g></svg>