<svg xmlns="http://www.w3.org/2000/svg" viewBox="0 0 553.16 144.22"><title>Asset 387</title><g id="Layer_2" data-name="Layer 2"><g id="Layer_1-2" data-name="Layer 1"><path d="M8.44,34.14l.78.28-4.56-6a39.29,39.29,0,0,1-.81,13.27C2.51,47,.74,51.82,1.14,57.35c.76,10.5-1.76,21.08-1,31.56.79,10.72-1.21,22.24.92,32.78A35.87,35.87,0,0,0,5.2,132.92c3,4.66,7.61,6.69,12.65,8.39,5.56,1.88,10,2.74,15.89,2.07,4.12-.47,9.3.28,14-.08,5.24-.4,10.11-.94,15.39-.4s10.76.91,16.19,1.07c10.76.33,21.92.56,32.6-.89,4.38-.59,9.08-.34,14.06-.61,5.78-.32,11.57-1.1,17.34-1.57,21.23-1.73,43-3,64.22-1.28a225.61,225.61,0,0,0,33.39.55c5-.34,9.63-1.07,14.63-1,5.22.08,10.45.15,15.67.07,21.11-.36,42.17-2.76,63.3-2.8,4.85,0,9.7.25,14.55.23,5.27,0,10.47-1,15.74-1.05,11.31-.13,22.5.06,33.81-.75,12.31-.89,24.69-3,37-2.84,11.17.17,22.26-1.84,33.42-1.89,11.32-.06,22.42-3.2,33.69-3.23,6,0,12,.27,17.94.28,6.2,0,11.22.7,17.35,1,7,.35,12.94-6.19,12.94-12.94,0-7.28-5.93-12.6-12.94-12.93-4.2-.2-9-1-13.66-1-5.44,0-10.87.05-16.3-.12-9.88-.29-19.56,1.35-29.34,2.58-9.44,1.2-19.09,1-28.59,1.79-10.33.86-20.62.87-30.94,2-41.25,4.51-82.68,3.11-124,6.36-10.13.8-20.47,1.21-30.64,1.28-4.75,0-9.55-.25-14.29,0-5.41.3-10.57,1.26-16,1.2A279.61,279.61,0,0,1,202.76,114c-10.4-1.31-20.95-.86-31.41-.86-10.7,0-21.26.81-31.92,1.61-10.32.78-21.17,1.27-31.06,2.15-9.43.84-20.15.47-30,.31-4.82-.08-9.6-.31-14.39-.74-5.62-.5-10.67.06-16.25.55-5.92.52-12-.81-17.88.63-.51.13-4.54,1.27-4.59,1.74q6.1-.21,3-.58c-1.34-.22-2.69-.41-4-.56-2.87-.44-.92-.15.49,1.48.4.47.91,2.56.65,1-.22-1.29-1-2.49-1.34-3.77a36.67,36.67,0,0,1-.39-7.64c-.07-5.55.18-11.15-.45-16.67S21.83,82,21.63,76.35c-.22-6.35-.12-12.84-1.46-19.09-.52-2.44-1.16-4.06-1-6.59s.56-5.1.68-7.66c.28-5.7-1.13-10.93-3-16.22a6.5,6.5,0,0,0-6-4.56l-.81-.06c-7.24-.53-7.72,9.79-1.62,12Z"/><path d="M21.12,29.26c-.58,5.49-5.18,4.64-.74,3.32-.87.26.85-.07.84-.07.29-.07,2.09-.38.31-.12.84-.12,1.78-.18,2.58-.23a48.62,48.62,0,0,1,13,.68,131.41,131.41,0,0,0,31.41,2.78C78.73,35.36,88.86,34.28,99,33.8s20.23.06,30.39-.58c40.85-2.58,81.76-3,122.68-2.84,10.31,0,20.57,1,30.87,1.17,10,.15,20,0,30,0q31.38.09,62.76.21c20.65.07,41.44.79,62.06-.6,4.72-.31,9.44-1,14.16-1.17,5.25-.15,10.46.22,15.71-.13,9.37-.63,18.88-1.55,28.26-1.77,5.34-.13,10.71.11,16.05.12l8.59,0h3.14c.58,0,1.15,0,1.72,0,.85,0,.74,0-.31-.1-.71,1.22-5.25-3.59-6.55-4.74-.88-.8-.25-1.53-.22.43,0,2.48-.06,4.94-.2,7.41a90.58,90.58,0,0,0,.43,15.88c.75,6.21,1.64,12.43,2.81,18.58a85.26,85.26,0,0,1,1.37,13.38c.25,5.91,1.05,8.85.74,14.92-.29,5.73-.39,11.48-.56,17.21-.24,7.9,7.11,15.46,15.09,15.1s15.35-6.64,15.1-15.1c-.16-5.18-.38-10.38-.47-15.57s-1-11.71-1.31-16c-.68-9.78-2.56-20.37-4.24-31.63-1.36-9.15.16-18.25-.89-27.36C544.77,7.86,536.88.2,523.74.23c-10.3,0-20.92-.66-31.19.23s-20.92,2-31.34,2.07c-10.72.11-21.26,1.22-32,1.7-11,.48-21.91.4-32.87.44-44.5.15-89.13,1.33-133.59-.39-22.76-.89-45.52,0-68.26.7-21.1.69-42.16,1.24-63.23,2.7-12.34.85-24.73.65-37,2s-24.66,3.19-37.1,3.14c-12-.05-24-4.28-35.76-.77C12.7,14.62,2.05,20.55,5.29,31.41,8,40.58,20.19,38,21.12,29.26Z"/></g></g></svg>