<svg xmlns="http://www.w3.org/2000/svg" viewBox="0 0 15.26 299.35"><title>Asset 378</title><g id="Layer_2" data-name="Layer 2"><g id="Layer_1-2" data-name="Layer 1"><path d="M5.39,3.65a3.78,3.78,0,0,0,.2,3.07c.19.39.1,0-.26-1.08A2.62,2.62,0,0,0,5.7,7a2.9,2.9,0,0,0,1,1,3.8,3.8,0,0,0,1.8.44,3,3,0,0,0,2.67-1.4,6.56,6.56,0,0,0,.72-1.57,5.43,5.43,0,0,0-.4-4.12A2.77,2.77,0,0,0,8.41.1a2.86,2.86,0,0,0-2,2.67c0,.46,0,.92,0,1.39s.19-.62,0,0a6.7,6.7,0,0,1-.24.76L8.07,3A1.45,1.45,0,0,1,7.81,3c-.06-.12,1.32,0,1,0a3.07,3.07,0,0,0-2.17.29L8,3H7.88l1.3.35A1.84,1.84,0,0,1,9.85,4q.22.63.15.33c-.18-.53,0,.52,0,0A2.36,2.36,0,0,0,8,2,2.34,2.34,0,0,0,5.39,3.65Z"/><path d="M12.12,29.77l.12-.88-.79,1.37c2.31-1,1.83-4.33,2.6-6.34.93-2.45,1.72-4.23.79-6.88A3.2,3.2,0,0,0,11,14.84c-3.05.89-3.85,3.39-3.45,6.28.44,3.18,5.63,3,6.24,0,.7-3.43-.92-6.28-4.61-6.51-3.86-.25-3.89,5-.85,6.21L7.52,19.4h6.24l-1.12,1.52-3.87-2.2C9.59,20.66,8,23,7.83,25.06s.24,4.49,2.4,5.36L9.06,28.89l.11.88a1.48,1.48,0,0,0,2.95,0Z"/><path d="M11.67,39.24a3.31,3.31,0,0,1-.78-2.78,2.21,2.21,0,0,0-1.52-2.68,3.68,3.68,0,0,0-4.48,2.78A4.17,4.17,0,0,0,8,41.36a2.89,2.89,0,0,0,3.48-2A8,8,0,0,0,11.86,38a2.88,2.88,0,0,0-2-3.46,2.88,2.88,0,0,0-3.46,2,8.08,8.08,0,0,0-.38,1.36L8.78,35.8a1.37,1.37,0,0,1,1.19.69c.09.17.15,1,.18.63-.07.42-.08.53,0,.32s0-.11-.12.24c-.38.71.32-.24-.1.08l-3-.78c.34.6.6,1.55,1,2.25A7.92,7.92,0,0,0,9.62,41.3c1.43,1.15,3.37-.67,2.05-2.06Z"/><path d="M10.64,58.68A4.93,4.93,0,0,0,11,56.75,6,6,0,0,0,11,56c0-.12-.11-1-.13-.74L9,57.72c1.94-.29,3.14-2.41,3.19-4.23a4.41,4.41,0,0,0-1.08-3.1,5.68,5.68,0,0,0-3.44-1.22,3.07,3.07,0,0,0-3,2.69,3.11,3.11,0,0,0,2.21,3.39,10.7,10.7,0,0,0,2.11.36L6.29,54.1c.2.34.24.4.09.18a1,1,0,0,1,0-.76,5.16,5.16,0,0,0-.52,1.08c-.8,1.95,1.45,3.45,3.12,3.12l.18,0L7.4,57.46c.46.25.12-.2.15.08a4.26,4.26,0,0,1,0,.73c-.06,1.89,2.41,1.9,3,.41Z"/><path d="M10.55,73.27c.26-3.15.13-7-3.45-8.21a2.47,2.47,0,0,0-2.77,1.12c-1.43,3.28-1.57,7.27.89,10.1A2.75,2.75,0,0,0,8,77a5.68,5.68,0,0,0,4-5.09,6.17,6.17,0,0,0-2.95-5.55c-2.28-1.29-5.48,1.43-3.81,3.82a9.87,9.87,0,0,1,.75,1c.17.32.2.37.07.16q.11.54.06.09c0,.37,0,.39,0,.08-.09.33-.1.37,0,.09s.16-.15-.1.11c.14-.16,0-.14-.25.07l3.43.45c-.85-.82-.73-2.81-.42-4.2l-2.37,1.8a3.45,3.45,0,0,0,.71.09c.62-.06-.06,0-.12-.16.09.28.4.51.49.85a11.46,11.46,0,0,1,.22,2.62,1.41,1.41,0,0,0,2.81,0Z"/><path d="M9.14,90.39l-.34-.62L9,91.19a5.39,5.39,0,0,0,.13-1.06l-.69,1.66a6.51,6.51,0,0,0,1.84-2.92,6.38,6.38,0,0,0,.25-1.68A3.12,3.12,0,0,0,9,84.5c-1.24-.91-2.81-.08-3.59.94a2.82,2.82,0,0,0-.53,1.61c.1.82.13,1,.09.56,0,.14,0,.27,0,.41a1.79,1.79,0,0,1,0,.4c0-.22,0-.23,0,0a1.66,1.66,0,0,1-.2.57A2.38,2.38,0,0,0,6.15,92.4a5.42,5.42,0,0,0,1.06.15L5.9,92l.52.48a1.74,1.74,0,0,0,2.72-2.1Z"/><path d="M7.7,105.68c.81-1.86,1.22-3.67-.09-5.41a2.75,2.75,0,0,0-3.64-1A2.69,2.69,0,0,0,3,103c.23.4.49.79.74,1.18A2.84,2.84,0,0,0,9,102.71c.17-2,.54-4.25,0-6.22a3,3,0,0,0-5.65,0c-.57,2-.21,4.21.06,6.22l4.79-2a11.46,11.46,0,0,1-1-1l-3.76,3.76c.37.34.42.58.8,1,.91.92.07-.53.11.33.08,1.61,2.59,2.67,3.36.91Z"/><path d="M7.81,121.26a20.94,20.94,0,0,1,.78-4.71h-5a3.81,3.81,0,0,0,3.06,2.79c2,.3,3.35-1.09,3.87-2.9a4.26,4.26,0,0,0-5.08-5.39c-2.54.46-2.54,3.93-.67,5.14.06,0,.83.55.93.48-.12.08-.7-1.67-.76-1.54l1.69-1.3.54,0,1.19.69v.05c-1.8-2.88-6-.37-4.51,2.63a12.48,12.48,0,0,1,.67,4.09,1.67,1.67,0,0,0,3.33,0Z"/><path d="M7.83,142.26A23.62,23.62,0,0,1,8.35,138l-1,1.33.5-.34-1.43.39,1.25-.17c1.73-.22,3.13-1.39,2.87-3.32a2.91,2.91,0,0,0-3.65-2.43l-1.22.35A2.86,2.86,0,0,0,4,138l.33.56L4,137.39c0,1.63.34,3.25.48,4.87a1.69,1.69,0,0,0,3.37,0Z"/><path d="M6.15,135.54c2.92,0,2.93-4.55,0-4.55s-2.94,4.55,0,4.55Z"/><path d="M7.69,157.26c.22-1.63.43-3.26.75-4.88A2.44,2.44,0,0,0,7,149.54a2.4,2.4,0,0,0-3,1c-.17.33-.31.67-.45,1-.22.52.28-.81-.11.28a3.46,3.46,0,0,0,.08,2.66A4.3,4.3,0,0,0,6.6,157a3,3,0,0,0,3.66-3.67,6,6,0,0,0-2.66-4.07c-1.77-1.29-4.86.42-4.6,2.63a4.66,4.66,0,0,0,1.19,2.87,2.79,2.79,0,0,0,4.34-.56,3.84,3.84,0,0,0,.58-2.31L3.9,154a5.45,5.45,0,0,0,.46.38c.44.3-.1-.21,0,0s-.07-.51,0-.14a3.65,3.65,0,0,0,.2.64l2.87-3.77a1.11,1.11,0,0,1,1,.48c.31.37.37.4.2.08s-.45-.67-.69-.94l.69,1.19a4.62,4.62,0,0,1-.18-.82l-4.65,1.28a42.44,42.44,0,0,1,.81,4.88,1.55,1.55,0,0,0,3.09,0Z"/><path d="M7.83,178.26a1.42,1.42,0,0,1,.08-.74L7,178.68c1-.63,1.4-1.71,2.07-2.53a5.62,5.62,0,0,0,1.42-4.59c-.38-2.52-2.3-4.38-4.94-3.41-2.33.86-2.71,3.46-1.77,5.48,1,2.2,4.38,1.46,5-.64a3.14,3.14,0,0,0,.15-.74c.09-.61.06-.51-.08.28l-1,1.05c-.92.13-1.08.2-.49.21l-2.52-1.44c.06.1.28.7.26.58,0-.35-.11.76,0,.36s-.25.76-.09.29c-.12.36-.31.71-.45,1.06a5,5,0,0,0,0,4.07c.66,1.62,3.4,1.62,3.31-.45Z"/><path d="M11.18,198.32c.89-4.6,1.83-10.25.35-14.81-.62-1.9-2.43-2.4-4.15-1.68-2.52,1.06-3,3.73-2.22,6.12,1,3.25,5.44,1.84,5-1.37l-.57.4-3.47-2c1.76,4.24.32,8.91,1,13.31.33,2.05,3.69,2,4.07,0Z"/><path d="M4.41,202.74l-.29.63,1.29-1C4.34,202.55,3,203,2.52,204a2.74,2.74,0,0,0-.29,1.57A2.3,2.3,0,0,0,2.91,207a2.86,2.86,0,0,0,2.6.73l.88-.14A2.52,2.52,0,0,0,8.12,206,2.74,2.74,0,0,0,8,203.67l-.14-.3.29,1.08,0-.69a2,2,0,0,0-3.75-1Z"/><path d="M6.15,220.4a3.13,3.13,0,0,0-2.12.45c.18-.13-.25.21-.28.23a2.15,2.15,0,0,0-.33.46,2.35,2.35,0,0,0-.14,1.57,1.68,1.68,0,0,0,2.06,1.17,4.78,4.78,0,0,0,1.21-.51L5.14,224l.18,0a2.64,2.64,0,0,0,3.16-1.79,4.55,4.55,0,0,0,.23-1.76,2.71,2.71,0,0,0-1.36-2.36,4.76,4.76,0,0,0-4.56,0,6.14,6.14,0,0,0-2.55,3.33c-1,2.94,1.06,6.44,4.41,6.1a2.8,2.8,0,0,0,.74-5.48c-.55-.16.35.24.14.08a1.09,1.09,0,0,0-.31-.18l.38.3c-.14-.16-.12-.13.08.1s.2.27.1.09L6,223c-.2-.61-.05.73,0,0,0,.15-.19.79,0,.32a1.46,1.46,0,0,0,.1-.34c0,.12-.36.62-.12.33l.23-.38-.28.38.1-.1s.51-.49,0,0,.68-.25.07-.05-.06,0,.06,0c-.3,0-.66,0-.16.07l-2.64-2a1.76,1.76,0,0,1,.15.44c0-.35,0-.38,0-.09a2.72,2.72,0,0,0,.89,2L4,221.26c0-.06,0-.07,0,0l2.29.6c.06.17,0,.14,0-.09s-.11-.25.07.27l-.42,1c-.15.16-.13.09.21.09,1.79,0,1.68-2.51,0-2.72Z"/><path d="M6,248a6.27,6.27,0,0,1,.34-.53L5.13,248c1.33,0,2-1,2.61-2,0,0,.39-.65.14-.29a8.06,8.06,0,0,0,.53-.66,5,5,0,0,0,.52-1.51,4.09,4.09,0,0,0-4.28-5A2.75,2.75,0,0,0,2,240.89a2.72,2.72,0,0,0,2,3,4.87,4.87,0,0,1,.52.12q.48.14-.06-.09a1.53,1.53,0,0,1-.49-.52c-.14-.39-.16-.44-.08-.16-.23-.55-.07,0-.06.3a4.47,4.47,0,0,0,.14,1.26V243.6c-.28,1.19-1,2.43-.19,3.57l-.17-1.28a6.91,6.91,0,0,1-.35,1c-.63,1.67,1.9,2.59,2.78,1.18Z"/><path d="M7.59,262.66c.28-.8.47-1.62.76-2.4a2.23,2.23,0,0,0-1.3-2.64,2.26,2.26,0,0,0-2.79.92,7.51,7.51,0,0,0-.89,6.59A2.47,2.47,0,0,0,7,266.6c2-1.37,2.25-3.45,1.16-5.5-1.21-2.27-5-.72-4.2,1.77.12.35,0,.21.13.14s.27-.52.44-.65l3.6,1.47a4.87,4.87,0,0,1,.25-3.57H4c.28.76.45,1.61.67,2.4a1.51,1.51,0,0,0,2.89,0Z"/><path d="M7.27,286.4a3.65,3.65,0,0,0-3.06,3.16c-.22,1.1.23,3.59-.58,4.42a2.39,2.39,0,0,0-.37,2.82l.33.66c1.74,4.54,7.83-.18,3.89-3L6.91,294l.37,2.82A8.6,8.6,0,0,0,8,292.19a11.73,11.73,0,0,1-.14-2.13c.07-.63.38-1.14.4-1.79l-.45,1.1a1,1,0,0,1,.52-.4,1.41,1.41,0,0,0-1.09-2.57Z"/></g></g></svg>