<svg xmlns="http://www.w3.org/2000/svg" viewBox="0 0 276.56 99.8"><title>Asset 389</title><g id="Layer_2" data-name="Layer 2"><g id="Layer_1-2" data-name="Layer 1"><path d="M2.2,22.11c-.13,2.5.31,4.91.1,7.41-.26,2.91-.7,5.73-.78,8.65a27.15,27.15,0,0,1-.94,5.35c-.61,3,0,5.64.41,8.57V47a45.21,45.21,0,0,0-1,7.69C.08,57.46.91,60.21.94,63,1,68.49.38,74.5,2.49,79.7c3.42,8.46,15.94,10,18.8,0,1.44-5-.23-10.61-.31-15.82-.06-3.22-1.05-6.19-1.35-9.34-.21-2.12.36-4.16.16-6.3,0,0-.28-3.68-.43-1.73s.54-1.91.54-1.89a35.8,35.8,0,0,0,.29-8.08c-.27-5.76-1.83-10.91-2.89-16.47-1.69-8.87-14.68-6.23-15.1,2Z"/><path d="M20,19.23l.27-.76L16,21.68c3.66-.28,6.54-1,10.14-.1a103.29,103.29,0,0,0,11.47,2c1.93.26,3.56.07,5.44.16a27.68,27.68,0,0,1,4,.9c3.75.75,7.52.13,11.29-.13,7.9-.54,15.78-.17,23.69-.88a33.8,33.8,0,0,0,6.86-1.07c.13-.05,2.88-.72.94-.51-1.4.15-.12.07.48.24,4.35,1.19,8.06-.17,12.11-.35,3.62-.16,7.35.94,11,1.23a119.08,119.08,0,0,1,12.79,1.41c4,.74,7.49,2.18,11.64,2.62a110.21,110.21,0,0,0,12.46.38,65.61,65.61,0,0,1,10.92.8,26.88,26.88,0,0,0,6.46.28,16.72,16.72,0,0,0,4.22-.65c1.85-.73-3.15-.85.45.12,4.65,1.24,8.82.7,13.48.15,2.79-.33,8.21.19,11.94.27,10,.23,20.07.39,30.11.41l14.9,0c2.55,0,5.11.06,7.67,0l2.4-.07c4.2-.13-2.11-.46,2.46.22,6.65,1,13.22-1.09,15.92-7.82,2.34-5.81.62-13.87-5.52-16.85a28.22,28.22,0,0,0-14.27-3.21c-4.68.16-9.38,0-14.07,0-9.3,0-18.6,0-27.9.17l-13.66.3c-5.37.12-11-.28-16.27,1.12-2.42.64.44.36-1.09.16a38.93,38.93,0,0,0-7.53-.69c-2.2.13-4.72,1-6.53,1.21.1,0,.17.05.25,0-1.83.19-3.91-.63-5.74-.77-7.76-.63-15.75,1.74-23.31-.13C126.81.52,117.7,1.27,108.79.34A36,36,0,0,0,96.55.72c-.33.07-2.79.78-1.75.67-2.93.3-5.25-.63-8.29,0-3.54.75-6.7,1.8-10.32,2.16-4.6.46-9.37.23-13.9,1.07-4,.74-8.17,2.44-12.21,2.66-1.72.09-3.41-.48-5.14-.41-2.17.08-4,.94-6,1.49-4.41,1.18-9.11.82-13.61,1s-7.73,2.26-11.53,4.14a4.28,4.28,0,0,0-2.16,3.78l0,.8A4.24,4.24,0,0,0,20,19.23Z"/><path d="M23.66,84.32A4.81,4.81,0,0,0,23,83.1C17.57,74.59,4.6,82.1,9.44,91c3.86,7.12,12.19,8.81,19.68,8.77A87,87,0,0,0,39.94,99c3.43-.46,7-1.82,10.49-1.74,4.34.1,8.53,1.36,13,1.27a83.48,83.48,0,0,1,12.35.84c8.6,1.11,17.06-.41,25.69-.22,17.95.38,36-.56,53.9-1.67,9.47-.59,18.95.19,28.43.25s18.76-.21,28.12,0c3.72.1,6.46.94,11,1,.74,0,1.49,0,2.23,0,2.48-.08-1.82-.28.95-.07s5.36.91,8.17.7a96.56,96.56,0,0,1,12-.62c1.86,0,3.77-.12,5.62,0-.84,0-2-.07,1.15.3a15.79,15.79,0,0,0,6.65-.62c6.26-1.92,11.08-8.69,9.2-15.34-1.83-6.46-7.31-10.35-13.72-11.31a88.89,88.89,0,0,0-11.55-.47,54.29,54.29,0,0,0-8.9.62c.24,0-2.54.33-1.46.22s-2.35-.09-.79,0c-9.26-.72-15.35-1.72-24.5-1.65-9.69.07-19.39-.09-29.09.06-18,.28-36,2.13-53.76,3.4-10.34.74-20.61.72-30.95,1.13-4.59.18-9,1.31-13.54,1.19s-9.09-1.11-13.71-1a93.49,93.49,0,0,1-13.5-.4C48.27,74.34,43,75.41,38,76.78c-6.8,1.87-12.81,5.44-19.71,2.71L23,91a6.29,6.29,0,0,0,.66-6.71Z"/><path d="M260.84,45.16c.57.72.05,5,.08,6.24.1,4.1.44,7.8-.26,11.86a69.85,69.85,0,0,0-1,10.2,16.92,16.92,0,0,0,.61,4.31c.11.46.2,2.79.61,1.67l2-3.47-.62.57c-7.47,6.89,3.69,18,11.14,11.14,4.09-3.77,3.69-9.07,1.38-13.69-1.76-3.51-1.92-7.23-2.24-11.7s-1.53-9-2.18-13.48c-.5-3.35-.92-7.27-3.48-9.75-4.09-3.94-9.51,1.86-6.1,6.1Z"/></g></g></svg>