<svg xmlns="http://www.w3.org/2000/svg" viewBox="0 0 1057.8 46.56"><title>Asset 402</title><g id="Layer_2" data-name="Layer 2"><g id="Layer_1-2" data-name="Layer 1"><path d="M11.37,10.23l-1.07-.11C-1.36,9-4.23,29.09,7.51,30.77c3.92.57,7.75,1.57,11.69,2.05,4.68.57,9.4.24,14.1.52,8.78.52,17.5,1.18,26.29,1.36,9,.19,18,.59,27,.21,8.67-.36,17.3-1.69,26-2.46a379.55,379.55,0,0,1,53.32-.8c.6,0,5.46.51,3.48.26,2.59.33,5.17.9,7.77,1.08,3.5.25,8.39-.24,11,.06,9.44,1.08,18.54,3,28.08,3.24a82.59,82.59,0,0,0,13.88-.64c1.13-.16,2.25-.32,3.37-.54-.06,0,2.67-.49,1.27-.29s1.35-.08,1.31-.08c.41,0,4.46.31,3.06.14a252.21,252.21,0,0,0,25.37,1.59c3,0,8.54-.22,10-.1,2.52.21,8.89,1.48,13.07,1.38s8.56-1.07,11.34-1.18c5.22-.21,10.23.2,15.44-.55.89-.13,5.17-.81,2.26-.72-.81,0,2.5.63,3.38.79,4.66.89,9.24.66,13.93.67q12.71,0,25.42.21c17.76.23,35.4-1.38,53.14-1.37,8.79,0,17.39.84,26.15,1.41,4.11.27,8.2.2,12.31.08,2.18-.07,4.36-.15,6.53-.11.93,0,1.85.06,2.77.11,3,.14-2.13-.37,1.06.08,19,2.66,37.55,6.29,56.78,6.31,8.9,0,17.89-.64,26.77-.11,2,.11.64,0,.22,0,.92.11,1.84.33,2.76.47A83.36,83.36,0,0,0,557,44.9c1.93.09,3.88,0,5.82.1,1.26,0,2.54.09,3.79.22-1.68-.17,1,.18,1.33.23a62.93,62.93,0,0,0,14.43,1c2.53-.16,5.47-.19,7.87-1,1.89-.61-.19.2-1-.09-1.66-.61,1.27.17,1.69.23,9.35,1.41,19,.72,28.42.76a88.87,88.87,0,0,0,14.38-1.11c.82-.12,1.64-.28,2.46-.4-2.76.4.1,0,.59,0,2.21-.08,4.41-.12,6.62-.09,8.88.14,17.59-.13,26.45-.76,9.07-.64,18-.14,27,0a90.68,90.68,0,0,0,14.62-1.11c1.57-.24,3.16-.46,4.72-.78,1.94-.4-.34.06-.64.07l4.26-.15c4.62-.16,9.14-1.16,13.71-1.72-2.67.33,1.95,0,2.71-.07,2.57-.11,5.15-.09,7.73,0,8.73.16,17.41.46,26.15.28s17.6-.5,26.4-.32c2.26.05,4.52.12,6.78.25,1,.05,1.93.09,2.89.17-.34,0-2.33-.36-.31,0,5.17.82,10.35,2,15.6,1.48,2.62-.27,5.27-.64,7.86-1.17.06,0,2.78-.53,1.1-.28-1.89.28,1.67,0,2.09,0,4.73,0,9.07.34,13.8-.3,2.21-.29,4.4-.75,6.61-1,2.06-.27.18.06-.15.07,1.27,0,2.54,0,3.81,0,4.58,0,9.15,0,13.73,0,8.82,0,17.4-.47,26.19-1.16,8.48-.66,17-.08,25.52.11A171,171,0,0,0,948.68,37c2.56-.35,5.11-.9,7.67-1.2-2.45.29,1.94.09,2.64.1,4.62.08,9.21.8,13.83.68a68.33,68.33,0,0,0,8.19-.88c.92-.14,1.84-.31,2.76-.44-.75.11-2.95.16.35,0,4.35-.2,8.65-.16,13-.47,8.2-.59,16.42.24,24.63-.07l2.82-.1c.09,0,3.13.12,1.25-.06-1.44-.13,2.53.61,3.23.73,5.41.95,10.66,1.06,15.88-1,8.42-3.29,15.2-11.78,12.11-21.33-2.64-8.15-12.3-15.69-21.34-12.12-.51.21-2.54,1.61-.64.6l1,0c-1.57-.06-1.59,0-.07.1,2.67.61-1.6-.46-2.32-.58A78.9,78.9,0,0,0,1018,.32c-8.32.19-16.51-.15-24.83.39-3.84.25-7.66-.06-11.49.39-3,.34-6,1.08-9,1.3,2.43-.18-2.78-.23-3.59-.27-4-.16-8-.69-12-.6a62.64,62.64,0,0,0-9.06,1L945.43,3c-.75.14-2.72.4-.86.17-16.9,2.05-34-.7-50.87.89-8.78.83-17.44.94-26.25,1-4.25,0-8.51-.1-12.75,0-5.13.12-10.05,1.65-15.11,2,2.7-.16-2.74-.37-3.45-.42a44.84,44.84,0,0,0-5.31-.13A73,73,0,0,0,822,7.65c-.83.15-1.65.35-2.48.48-2.65.43,2.26.1-.58,0-.4,0-4-.29-2,0,1.76.23-1-.21-1.08-.23-2.6-.48-5.24-.85-7.87-1.15-4.4-.49-8.89-.54-13.32-.59-17.51-.18-35,.27-52.54.17a97.39,97.39,0,0,0-13.56.84c-2.43.32-4.83.76-7.25,1.09,2.77-.38-2.26,0-3.15,0A95.87,95.87,0,0,0,705,9.91c-.45.08-3.06.3-.57.09-.93.08-1.85.13-2.77.17-2.2.09-4.41.07-6.61,0-17.57-.45-35,1.05-52.55.94a90,90,0,0,0-14.37,1.22c-.4.06-3.81.61-1.89.35,1.74-.25-1.05.08-1.14.08-2.55.1-5.11,0-7.66,0q-5.88,0-11.76,0c-2.08,0-4.83-.4-6.87.05-1.74.38-.52.28.3.3a26,26,0,0,1-3.13-.48,31.43,31.43,0,0,0-9.9-.24c-1.28.17-2.61.44-3.91.57.84-.08,2.85-.12-.69,0-1.83.05-3.67.14-5.5,0,.41,0,2.07.25-.11,0-2.45-.31-4.87-.78-7.34-1-3.84-.41-7.67-.41-11.52-.49-3.51-.07-2.05-.12-1.2,0-.92-.11-1.84-.32-2.76-.47a76.65,76.65,0,0,0-10.13-1.07c-8.93-.18-17.88.27-26.81.24a165.07,165.07,0,0,1-24.2-1.71c-9.61-1.51-19.28-3.24-28.94-4.32-8.39-.94-16.88.24-25.3-.3-8.76-.56-17.36-1.2-26.14-1.11S394.24,3.5,385.58,4c-17.18,1-34.47.39-51.68.49-1.67,0-3.35,0-5,.08l-2.31,0c2.34,0,.53.12-.39-.09-5.9-1.36-10.9-1.07-16.85,0-2.41.41-.43.25-3,.11-2.17-.12-4.37-.11-6.55,0a76.27,76.27,0,0,0-8,.88c-.91.13-1.84.32-2.76.42,2.26-.24-1.16,0-1.55,0-.87,0-4.1,0-3.59,0,1.68.15-1.92-.31-2.3-.37-1.67-.26-3.37-.53-5.06-.7-4-.4-8.12,0-12.16,0s-8.32.13-12.46,0c-.87,0-1.72-.06-2.58-.11,0,0-2.73-.26-1.21-.1S247,4.46,247,4.46c-2.21-.3-4.44-.63-6.67-.88a46.69,46.69,0,0,0-13.58,1c-.58.1-4.47.65-2.59.5-2.35.19-4.74,0-7.1,0-8.88-.13-15.76-1.28-24.71-2.48A95.32,95.32,0,0,0,179,2.13c-3,0-7.93-1-12.27-1.27-8.86-.5-17.83-.06-26.7,0A260.88,260.88,0,0,0,113.46,2c-8.68.92-17.6,2.83-26,3.59C70.16,7.13,52.63,6.65,35.25,7.81,30.54,8.12,26,9,21.39,9.74c-3.65.58-7.4.18-11.09.38v21L11.37,31c13.36-1.33,13.39-19.48,0-20.81Z"/></g></g></svg>