<svg xmlns="http://www.w3.org/2000/svg" viewBox="0 0 27.98 424.62"><title>Asset 423</title><g id="Layer_2" data-name="Layer 2"><g id="Layer_1-2" data-name="Layer 1"><path d="M19.16,10.27a20.57,20.57,0,0,0,1.18-1.84L10.62,2.75c-2,3.45-.81,5.23-.5,8.78.23,2.66-.74,5.63-.95,8.29-.26,3.19-.35,6.43-.48,9.64C8.55,33,9.82,36.35,9.79,39.69c0,2.18-1.44,4.26-1.86,6.47-.67,3.51-.07,7.05-.34,10.58-.55,7-.5,13.94-.57,21A125.41,125.41,0,0,1,5.81,95.26a52,52,0,0,0-.62,9.06c.07,3.35-.79,6.13-1.31,9.42a25.38,25.38,0,0,0,.58,10.08A33.11,33.11,0,0,1,5.15,133C4.9,140.62,5,148.25,5,155.88c0,7-.52,14.19.57,21.11a104.43,104.43,0,0,1,1.12,19.76c-.44,14.58-.31,29.17-.34,43.76,0,7.11-.12,14.22,0,21.32a175.9,175.9,0,0,1-1.31,21C4.3,289.81,4.74,297,4.72,304c0,7.39-.57,14.59-1.17,21.95-.65,7.86-.18,15.73-.11,23.61s-1.25,15.28-1.66,23a66,66,0,0,1-1.37,8c-.82,4.64-.28,9,.5,13.62.5,2.91.13,4.38-.36,7.34a64.31,64.31,0,0,0-.43,12.56c.42,14,22.11,14.06,21.79,0l0-1c-.32-14-21.43-14-21.75,0l0,1H21.91c0-2.71-.27-5.56,0-8.24.39-3.49,1.48-6.73,1.22-10.3-.21-2.87-1.1-5.66-1.35-8.52-.35-3.91,1.59-7.71,1.78-11.66.29-6.2,1.37-12.34,1.54-18.59.19-7.26-.23-14.51-.28-21.77,0-6.7.87-13.28,1.27-19.95.46-7.41.17-14.92.17-22.34,0-6.46.8-12.51,1.39-18.91.66-7.11,0-14.42,0-21.55,0-15.44-.23-30.89-.07-46.32.07-6.76.55-13.52.26-20.28-.31-6.92-1.83-13.44-1.84-20.39s0-13.93,0-20.9c0-7.56,1.07-15.76-.59-23.2-.59-2.61-1.27-3.9-.64-6.44a33.63,33.63,0,0,0,1-8.87C25.67,99.3,27,93,27.09,86.46c.1-7.6-.47-15.18-.55-22.78,0-4,.55-7.86.12-11.79-.38-3.47.74-5.82,1-9.25.24-3.87-1.22-7-2-10.62s-.47-7.57-.72-11.24c-.46-6.89-.47-13.8-5.46-19.17C15.2-3,6.83,3.17,10.62,8.43c.45.59.86,1.21,1.25,1.84a4.28,4.28,0,0,0,7.29,0Z"/></g></g></svg>