<svg xmlns="http://www.w3.org/2000/svg" viewBox="0 0 45.62 253.48"><title>Asset 398</title><g id="Layer_2" data-name="Layer 2"><g id="Layer_1-2" data-name="Layer 1"><path d="M13.81.63C6-2.4.86,6.08,1,12.66c.08,2.85.75,5.65,1.06,8.48-.41-3.73,0,1.48.12,2.67.19,2,.34,4,.41,6,.15,4.18-.35,8.3-.44,12.48-.11,4.6.56,9.17.54,13.77,0,8.28.78,16.46.35,24.73-.21,4.06-.29,8.13-.58,12.18a31.39,31.39,0,0,1-.55,3.88,88,88,0,0,0-1.11,9.42c-.4,8.4-1,16.93-.78,25.34.12,4.8,1.11,9.27,1.92,13.95.32,1.91-.11,0-.11-.2,0,1.21-.18,2.41-.22,3.62a54.77,54.77,0,0,0,.79,9.62c.08.59.5,4.68.36,2.68.15,2.1.16,4.21.36,6.31.28,3,.71,5.92,1.14,8.87.13.9.27,1.8.4,2.7.11.67.61,4.06.33,1.9,1.39,10.82,2,17.6,1.71,27.06A71.6,71.6,0,0,0,8,224.38c.47,2.32,1.2,4.54,1.89,6.8.26.87.52,1.74.77,2.61,1.33,4.62.14-2.26.32,2.43.34,9,7.69,17.68,17.25,17.25,10.3-.46,16.05-7.62,17.25-17.25.6-4.79-.66-9.73-2.19-14.25-.57-1.68-1.18-3.35-1.66-5.06-.24-.83-.44-1.66-.63-2.49-1-4.2-.34,1.3-.12-1.1.77-8.24-.36-17.1-1.91-25.14-.55-2.84.16,2.14-.08-.83-.07-.9-.12-1.8-.2-2.69-.27-2.68-.66-5.36-1.08-8-.32-2.09-.72-4.17-1.11-6.26-.14-.77-.93-5.47-.71-3.7-.59-4.7-.89-9.42-1.72-14.1A26,26,0,0,1,33.6,150c0,.49.14,1.6.2-.13a50.27,50.27,0,0,0-.29-8.41,43.27,43.27,0,0,0-1.18-5.87c-.21-.74-.45-1.47-.61-2.22.17.77.17,2.64,0-.87-.2-3.92-.24-7.84-.18-11.77.12-8.14.2-16.09,1.06-24.19.88-8.28.06-17.58-1.05-25.82S29.68,55.42,28.32,47C26.91,38.29,26.26,29.44,24,20.86a57.56,57.56,0,0,0-3.52-9.32A23.94,23.94,0,0,1,19,6.45V11l.11-.43L17,14.16l.33-.36c4.24-4.69,2.1-11-3.48-13.17Z"/></g></g></svg>