<svg xmlns="http://www.w3.org/2000/svg" viewBox="0 0 66.59 65.09"><title>Asset 338</title><g id="Layer_2" data-name="Layer 2"><g id="Layer_1-2" data-name="Layer 1"><path d="M24,2.78c-3.29-.89-4-1.34-7.16.3A33.55,33.55,0,0,0,8.38,9.23C6.2,11.44,5.2,14.19,4,17,2.36,20.71.64,23.77.67,27.89c0,3.33-1.06,6.41-.52,9.75a24.52,24.52,0,0,0,3.72,9.42c4.07,6.06,10.68,11.08,17.21,14.19,14.45,6.89,32.85,4.91,42-9.32,4.7-7.34,3.71-17.32,2.8-25.52C65,19,63.13,12,57.24,6.87,50.44,1,42.05.08,33.42,0c-9.54-.08-16.1,1.14-21.85,9.19C8.84,13,14.63,16.93,17.83,14c2.53-2.31,4.84-4.53,8.32-5.1,4-.64,8.73-.23,12.71,0,6.28.37,12.61,2.8,15.81,8.56,1.65,3,2.22,6.77,2.58,10.09.42,3.82,1,8.42.69,12.2A18.41,18.41,0,0,1,43.88,56.4a31.82,31.82,0,0,1-22.36-3.14C15.36,49.94,8.6,44.77,6.61,37.73c-.81-2.89.13-5.45,0-8.35-.2-4.14.77-6.94,2.14-10.74C11,12.43,16.21,4.42,23.68,5c1.28.1,1.5-1.88.3-2.21Z"/></g></g></svg>