<svg xmlns="http://www.w3.org/2000/svg" viewBox="0 0 18.57 203.96"><title>Asset 418</title><g id="Layer_2" data-name="Layer 2"><g id="Layer_1-2" data-name="Layer 1"><path d="M5.84.06C-3,1.76.65,19.08,1.17,25c.32,3.82-.42,7.59-.36,11.41.07,4,.83,7.94,1.19,11.9.87,9.35,2.49,18.6,2.32,28C3.62,116.51,4,156.72,4,196.89c0,9.41,14.64,9.43,14.62,0-.08-37.64.13-75.3-.29-112.94a185.06,185.06,0,0,0-1.94-26.61c-1.24-8-3.71-16.23-4-24.34a92.73,92.73,0,0,0-1.91-15.32c-.46-2.3-1-4.61-1.23-6.95A27.32,27.32,0,0,1,9.07,7c0-.93.78-1.66.14-1.14,3-2.37-.34-6.39-3.37-5.8Z"/></g></g></svg>