<svg xmlns="http://www.w3.org/2000/svg" viewBox="0 0 763.82 486.62"><title>Asset 352</title><g id="Layer_2" data-name="Layer 2"><g id="Layer_1-2" data-name="Layer 1"><path d="M6.63,37.86c.13-4.54,0-9.17.91-13.65.64-3.24-4.31-3.92-4.46-.6C2.71,31.49,5.45,39,6,46.86a2.34,2.34,0,0,0,4.68,0C11.11,39,7.85,31.49,7.62,23.61l-4.46.6c.84,4.48.75,9.11.89,13.65a1.29,1.29,0,0,0,2.58,0Z"/><path d="M17.68,78.62c-2.14-.7-1.56-1.77-1.08-3.15L12,74.19c-1.11,6.66-.43,13.94-.24,20.67a2.63,2.63,0,0,0,5.25,0c.2-6.69,1.09-14.09-.37-20.67-.59-2.71-4.67-2-4.73.64-.08,3.74,1.78,5.89,5.47,6.32,1.5.18,1.66-2.1.34-2.53Z"/><path d="M15.14,125.66c2.61-2.48,3.23-5.1,4.23-8.46a1.89,1.89,0,0,0-3.45-1.45c-3.63,6.23-2.57,14-6.44,20-1.5,2.35,2.22,4.5,3.72,2.18,4-6.24,2.6-13.89,6-20.3l-3.45-.46c1.06,2.71-.36,5-2.19,6.87a1.13,1.13,0,0,0,1.6,1.59Z"/><path d="M5.86,163.87c0,3,0,6,.09,9a2.39,2.39,0,0,0,4.78,0c.1-3,.09-6,.09-9,0-3.2-5-3.2-5,0Z"/><path d="M12.7,229.88c.33-7.75.58-15.47,1.49-23.17H8.47c.16,6.95-3.73,13.16-2.8,20.17.43,3.29,5.55,3.52,5.34,0-.4-6.92,3.78-13.15,3.18-20.17-.32-3.68-6.17-3.6-5.72,0,1,7.7,1.18,15.42,1.51,23.17a1.36,1.36,0,0,0,2.72,0Z"/><path d="M5.83,253.88c-.08,4.56,1.94,8.38,3.14,12.65.85,3.06,5.48,1.78,4.74-1.3-.91-3.79-2.84-7.4-2.86-11.35,0-3.23-5-3.23-5,0Z"/><path d="M3.63,308.64a8.64,8.64,0,0,1,1.46-1.82c2.52-1.85-.52-5.47-2.55-3.3-3.64,3.9-2.37,9.28,1.68,12.29,2,1.5,4.58-1.84,2.69-3.5a4.77,4.77,0,0,1-1.06-6.24L1.93,305A8.69,8.69,0,0,1,1,307.13a1.5,1.5,0,0,0,2.59,1.51Z"/><path d="M.77,337.89c-.28,10-.91,20-.54,30a2.11,2.11,0,0,0,4.22,0c.37-10-.27-20-.54-30a1.57,1.57,0,0,0-3.14,0Z"/><path d="M.19,400.3c-.56,4.07.16,7.1,1.51,10.92,1.94,5.45,1.13,11,1.39,16.68a2.25,2.25,0,0,0,4.5,0c.28-5,.85-10-.37-14.9-1.09-4.32-3.19-7.44-2.65-12.11.28-2.47-4-3.07-4.38-.59Z"/><path d="M4,445.9c-.11,5.84-.67,9.57,4.08,13.61,6,5.09,12.69,11.18,20.65,12.49,2.71.45,3.94-3.57,1.16-4.2-6.67-1.52-12-6.36-17.37-10.39-4.23-3.2-5.68-6.13-5.9-11.51a1.31,1.31,0,0,0-2.62,0Z"/><path d="M15.86,16.86C15.35,8.47,28.59,6.28,34.72,7.11c2.92.4,4.25-4,1.25-4.52-9.06-1.5-26.32,2.24-23.1,14.67.42,1.63,3.1,1.34,3-.4Z"/><path d="M58,6.51,56,8.35c-1.28,1-1.79,3.25,0,4.12,4.67,2.28,8,.58,12.53-1.21,6.08-2.41,11.75,1.5,17.82,2.17,2.92.32,3.45-4.36.68-5.06-4.88-1.24-9.78-3.74-14.91-3.49-5,.25-9.33,4.92-14.28,3.23l1.42,3.5A11.05,11.05,0,0,1,61,8.81c1.28-1.76-1.51-3.82-3-2.3Z"/><path d="M132.54,1.36a10.52,10.52,0,0,0-.18,1.77,4.29,4.29,0,0,0,0,.88v.28l.22-.61a2.12,2.12,0,0,0-.33,1,2.16,2.16,0,0,0,.05,1.1,4.38,4.38,0,0,0,.41.91,7.48,7.48,0,0,0,1.16,1.58,7.58,7.58,0,0,0,7.17,2.18,2.7,2.7,0,0,0,1.94-3,2.77,2.77,0,0,0-2.67-2.35c.21,0-.67-.13-.81-.16a8.34,8.34,0,0,1-.85-.26c-.78-.28.36.25-.35-.15l-.47-.29c.18.14.19.14,0,0s-.64-.72-.36-.37a4.45,4.45,0,0,0-1.14-1.23c-1.62-.94,0,.31.05.19s-.21-.83-.23-1A1.91,1.91,0,0,0,134.6,0a1.86,1.86,0,0,0-2.06,1.35Z"/><path d="M196.54,12.25c3.4,1.91,6.16,4.35,10.3,4.06s7.31-3.37,11.52-2.92c2.81.3,3.49-4.52.67-5-3.52-.57-5.92.28-9,1.89-4.6,2.39-7.44,1.13-11.84-.84-1.85-.83-3.48,1.75-1.63,2.79Z"/><path d="M269,15.37c2.22.48,3.05,1.08,5.26,1.18,1.62.07,3.24.06,4.85.07q5.65.07,11.31-.19a2.58,2.58,0,0,0,0-5.15q-5.65-.27-11.31-.19c-1.61,0-3.24,0-4.85.07-2.21.1-3,.71-5.26,1.18a1.58,1.58,0,0,0,0,3Z"/><path d="M325,17.3l.8-2.4-1.39,1.39a34.68,34.68,0,0,1,3.95-.1c1.34,0,2.68,0,4,0,3,0,3-4.6,0-4.69-1.53,0-3.06-.17-4.59-.13a12.46,12.46,0,0,0-4.43,1.07,2.1,2.1,0,0,0-1.46,1.92l-.21,2.49c-.16,2,2.74,2.16,3.32.44Z"/><path d="M381.76,6.91c-2.17,4.32-1.1,8,4,9.12a53.37,53.37,0,0,0,7.37.77,40.25,40.25,0,0,1,10.61,2.52c2.72,1,4.54-3.36,2-4.67a28.63,28.63,0,0,0-11.41-3.12c-2.4-.15-10.12.9-9.07-3.18.51-2-2.45-3.4-3.43-1.44Z"/><path d="M455.38,21.43c8.15.58,15.9-1.8,24-2,3.24-.1,3.27-5.08,0-5.07-8.28,0-15.84,3.29-24,4a1.57,1.57,0,0,0,0,3.14Z"/><path d="M528.61,13.86l.3,2.48a2.12,2.12,0,0,0,1.46,1.92c9.34,3.58,18.44,0,27.71-1.92,3.3-.67,1.84-5.47-1.37-5-4,.62-23.12,7-24.6,2-.54-1.84-3.75-1.59-3.5.48Z"/><path d="M595.93,15.55c3.7,1.16,7,3.23,10.83,3.81,4.51.67,9.12.06,13.64-.07a2.44,2.44,0,0,0,0-4.87c-4.37-.11-8.92.41-13.25-.23-3.64-.55-7-1.88-10.75-2.09-2-.12-2.3,2.87-.47,3.45Z"/><path d="M652.38,14.88c8.6,9.61,23.57,1.37,34,1.06,2.67-.08,2.69-4.16,0-4.17-9.34,0-24.19,8.47-32,1.06a1.45,1.45,0,0,0-2,2.05Z"/><path d="M713.87,9.18c-.63-.08-1.26-.19-1.88-.33-2.17-.42-3.84,2.68-1.6,3.8,2.56,1.28,5.4,1,8.23,1,3.27.06,6.52,0,9.79-.1a2.72,2.72,0,0,0,0-5.43C725.14,8,721.89,8,718.62,8c-2.83.05-5.67-.26-8.23,1-2.22,1.11-.59,4.23,1.6,3.8.62-.14,1.25-.25,1.88-.33,1.66-.25,1.66-3.1,0-3.35Z"/><path d="M739.61,18.23c8.21,3.48,14.08,9.69,15.9,18.51a21.67,21.67,0,0,1-1.1,12.37c-1.28,3.61-2.09,6.6-1.35,10.4.54,2.75,4.77,2,4.79-.65,0-5.18,2.89-9.56,3.41-14.65a30.31,30.31,0,0,0-2.18-13.5c-3.07-8-10.33-12.86-18.24-15.39-1.69-.54-2.91,2.2-1.23,2.91Z"/><path d="M754.15,64.86c0,6-.14,12,0,18a1.32,1.32,0,0,0,2.63,0c.09-6,0-12-.05-18a1.27,1.27,0,0,0-2.53,0Z"/><path d="M750.56,106.86c.37,5.36-2.75,9.8-3.56,15-.94,5.91-.44,12.1-.09,18.05a2.51,2.51,0,0,0,5,0c.31-6-.39-12.1.1-18.05.42-5.14,2.9-9.7,2.25-15-.29-2.3-3.88-2.42-3.71,0Z"/><path d="M753.91,166.87c-.11,4.65.21,9.21-1.16,13.71-1,3.46-2.18,6.64-2.3,10.29-.09,2.54,3.81,2.52,3.93,0,.22-4.29,2.23-8.05,2.89-12.24.62-3.93-.08-7.83-.36-11.76a1.5,1.5,0,0,0-3,0Z"/><path d="M747.23,220.88c-.48,4.55-1.32,9.29-.7,13.87s3.46,8.52,3.35,13.13c-.06,2.77,4.57,3.55,5,.67.64-4.54-.79-7.65-2.09-11.9-1.55-5.05-.77-10.57-1.17-15.77a2.18,2.18,0,0,0-4.36,0Z"/><path d="M750.3,295.88c-.36,9.3,1.08,18.53,2.79,27.65.49,2.64,5,2.07,4.74-.64-.85-9.05-2.77-17.92-3.31-27a2.11,2.11,0,0,0-4.22,0Z"/><path d="M756.38,334.89c-.37,12-1.12,24-.43,36a2.47,2.47,0,0,0,4.93,0c.69-12-.06-24-.43-36a2,2,0,0,0-4.07,0Z"/><path d="M756.21,394.89c-.37,8.48-1.71,17.68,3.16,25.2,1.4,2.16,5.18.84,4.33-1.82-2.52-7.84-2.81-15.22-3.08-23.38a2.21,2.21,0,0,0-4.41,0Z"/><path d="M756.25,424.3c-1.07,5.32-3.61,10.07-3.51,15.6.06,3.44,5.26,3.44,5.35,0,.11-5,1.79-9.53,2.49-14.41.41-2.79-3.75-4.09-4.33-1.19Z"/><path d="M62.82,477.62c1.86-.68,4-2.42,5.94-2.48,1.31,0,2.75,1.07,3.88,1.63a13.78,13.78,0,0,0,4.08,1.39c2.91.44,4.26-3.83,1.25-4.52-3.37-.77-6.13-3.8-9.78-3.57-2.89.18-4.62,2.7-6.74,4.29-1.47,1.1-.7,4,1.37,3.26Z"/><path d="M128.35,480.75c6,0,11.57,2.29,17.44,3.19,2.62.4,3.83-3.45,1.12-4.07-6.42-1.49-12.38-4-19-2.75-2.09.38-1.55,3.63.49,3.63Z"/><path d="M191.36,483.38c6,.33,12,.68,18,.61a2.09,2.09,0,0,0,0-4.17c-6-.08-12,.27-18,.61a1.48,1.48,0,0,0,0,2.95Z"/><path d="M245.36,486.26c8,.18,16,.39,24,.33a1.69,1.69,0,0,0,0-3.38c-8,0-16,.16-24,.33a1.36,1.36,0,0,0,0,2.72Z"/><path d="M311.37,486.43c5,.12,10,.2,15,.18a1.71,1.71,0,0,0,0-3.42c-5,0-10,.07-15,.19a1.53,1.53,0,0,0,0,3.05Z"/><path d="M376.8,481c3.84.76,7.82-.58,11.46-1.71,5.28-1.64,10.57-3.34,16.12-3.65a2.72,2.72,0,0,0,0-5.44c-5.31-.23-10.07,1-15,2.81-3.65,1.32-8,4-12,3.76-2.41-.15-3,3.76-.58,4.23Z"/><path d="M443.38,480.66c7.84.26,14.79.3,22.09-2.9,2.22-1,.6-4.89-1.66-3.94-6.67,2.81-13.29,3.14-20.43,3.32a1.76,1.76,0,0,0,0,3.52Z"/><path d="M497.39,480.85c8.36.17,16.39-1.43,24.59-2.82,2.42-.42,1.88-4.61-.59-4.33-8,.92-15.91,2.9-24,3.26a2,2,0,0,0,0,3.89Z"/><path d="M566.4,476c4,0,8-.06,12-.23a2.86,2.86,0,0,0,0-5.72c-4-.17-8-.19-12-.23s-4,6.23,0,6.18Z"/><path d="M613.37,477.66c6.1,2.78,10.41,1.67,16.77.82,7.09-1,13.87-1.82,20.9-3.27,2.59-.54,2.06-5-.64-4.7-6.11.77-12,2.34-18.19,3s-11.12,3-17.27.43c-2.12-.88-3.67,2.77-1.57,3.72Z"/><path d="M671.41,475c5.1-.25,9.08,3.59,14.16,3.77,5.56.21,10.33-3.33,15.84-3.26,3.4.05,3.28-4.9,0-5.2-5.63-.52-10,2.64-15.44,3.09-5.09.42-9.37-3.09-14.56-2.57-2.63.25-2.73,4.3,0,4.17Z"/><path d="M716.41,474.45c7.2.3,14.27,1.76,21.49,1.76,5.66,0,12.61-.33,16.3-5.27,1.42-1.91-1.62-4.1-3.24-2.5-4,4-12.13,3.39-17.32,3.33-5.74-.07-11.5-.52-17.23-.42a1.55,1.55,0,0,0,0,3.1Z"/><path d="M755.85,471.48a22.74,22.74,0,0,0,2.47-.42,1.77,1.77,0,0,0,1.25-1.25l.52-2.45a1.78,1.78,0,0,0-1.21-2.13,1.76,1.76,0,0,0-2.14,1.21l-.63,2.41,1.26-1.25c-.81.17-1.6.47-2.39.72a1.64,1.64,0,1,0,.87,3.16Z"/></g></g></svg>