<svg xmlns="http://www.w3.org/2000/svg" viewBox="0 0 16.62 258.92"><title>Asset 420</title><g id="Layer_2" data-name="Layer 2"><g id="Layer_1-2" data-name="Layer 1"><path d="M6.59.15C2.07,1.72.75,6.79.7,11.17c0,3.22.71,6.51,1.07,9.7A125.39,125.39,0,0,1,2.1,34c0,4.12,1.19,8.12,1.15,12.26,0,4.46-.33,8.93-.47,13.38-.28,9.27-.32,18.54-.41,27.81-.16,17.41-3.26,34.4-1.14,51.75a113.6,113.6,0,0,1,.38,12c.07,4.38.52,8.85,0,13.23C.69,172.88-.68,181,.39,189.61c2.58,20.59,1.08,41.44,1,62.15,0,9.53,14.81,9.55,14.81,0,0-17.23.85-34.49.07-51.72-.37-8.13-1.93-15.84-1.48-24,.22-3.91,1.13-7.71,1.47-11.6A98.18,98.18,0,0,0,16.15,152c-.16-3.74-.12-7.48-.5-11.21-.41-4-1.44-8-1.57-12-.26-7.93.58-15.63,1.28-23.49.76-8.42.1-17.11,0-25.55-.14-8.63-.41-17.25-.68-25.87-.15-4.85-.14-9.61-1.08-14.38-.86-4.42-1-8.78-1.63-13.21a78.42,78.42,0,0,0-3-12.45c-.64-2-2.72-7.32-.24-8.76s.88-6-2.1-5Z"/></g></g></svg>