<svg xmlns="http://www.w3.org/2000/svg" viewBox="0 0 82.25 82.74"><title>Asset 343</title><g id="Layer_2" data-name="Layer 2"><g id="Layer_1-2" data-name="Layer 1"><path d="M13.73,16.08c-2.35,2.39-5.05,4.38-6.92,7.22-2.1,3.19-3.06,6.89-4.39,10.41.47-1.25-.37.6-.4.68A19,19,0,0,0,.19,41.31,49,49,0,0,0,.55,53C2.92,68,14.38,77.83,28.2,81c-3.46-.81,8.45,1.21,3.92.53,2.44.37,4.86.82,7.32,1a32.66,32.66,0,0,0,10.06-.49A45.18,45.18,0,0,0,70.23,70.34c11-11.27,16.29-32.93,7.91-47-4.15-7-9.7-11.51-16.51-15.67C55.28,3.79,46.26.07,38.56,0a40.28,40.28,0,0,0-12.8,1.79,34.71,34.71,0,0,0-7,3.28c-.58.36-3,1.91.09.14-5.33,3-9.67,4.59-12.84,10.38A20.12,20.12,0,0,0,4.87,33.22c4.81,11.39,19.31,12.25,27.51,4.05,1.61-1.61,6.83-7.39,0-1.87-6.59,5.37,0,1.43,2.43.26.69-.32,5-1.6,1.58-.95-1.82.39-1.59.43.67.13-2.34-.58-2.48-.57-.4,0,1.5.47,3,.87,4.57,1.28,3.19.86.95.38.26,0,2.71,1.62,5.84,3,8.39,4.82-2.87-2.06,1.4,1.22,1.15,1.48-.39.43-1.55-3.49-1.47-3.46s-.38,4.63-.14,2.94c.12-1,0-.61-.26,1.21-.23,1.3-.48,2.59-.77,3.87.67-3.25-.13.21-.66,1.21q-1.53,2.33-.31.51a26.37,26.37,0,0,1-2.2,2.16c2.11-1.77-1.79,1-1.91,1.09-.62.35-4.21,1.48-1.89,1,3-.57-1.81-.11-2-.11a51,51,0,0,0-9,.32c-2.7.41.08-.23.75,0a29.25,29.25,0,0,0-4.74-.85L25.1,52q3.49,2,1.06-.26c.43,1.61-1.82-3.57-1.32-2.26a20.11,20.11,0,0,1-1.38-6.93c-.08-3.95-.39,2.18.31-1.64.39-2.09.65-4.25,1.25-6.3,1-3.39,2.55-6.52,3.45-9.94C30.68,16.24,20,9.71,13.73,16.08Z"/></g></g></svg>