<svg xmlns="http://www.w3.org/2000/svg" viewBox="0 0 945.55 131.42"><title>Asset 405</title><g id="Layer_2" data-name="Layer 2"><g id="Layer_1-2" data-name="Layer 1"><path d="M21.84,13.25C20.29,7.47,16.06,3.76,10,3.58,4.44,3.41.92,8.14.4,13.19.11,16,1.11,18.8.84,21.57.42,26-.26,29.66.1,34.1c.3,3.75,1.07,7.46,1,11.19C1,49.73.12,53.65.73,58.11c1.13,8.18,2.59,16.22,4.5,24.25,2.31,9.68,7.56,16.27,15.44,22,13.41,9.78,31.48,7.54,47.07,6.32,16.65-1.3,33.14-1.19,49.83-1.16,3.91,0,7.81,0,11.7.32.73.06,5.07.55,2.5.22,2.39.31,4.76.72,7.13,1.1,8.08,1.3,16.2,2.4,24.3,3.56,5.11.73,10.23,1.44,15.36,2,.88.1,5.91.66,4,.41,2.22.29,4.43.66,6.64,1,9.5,1.52,19,3,28.57,3.81,17.37,1.51,34.79,2.62,52.24,2.81,9.54.11,18.92.38,28.38-1,0,0,3-.44,1.37-.23s1.42-.13,1.39-.13c1.94-.12,3.89-.13,5.84-.15q6.93-.09,13.85-.08c17.31,0,34.4,2.08,51.62,3.55,8.23.7,16.38,2.19,24.64,2.61s16.44,1.45,24.64,1.73c16.72.57,33.5-.48,50.23,0,4,.12,8,.33,12,.3,4.57,0,11.25-.94,14.18-1.3-1.63.2,1.47-.14,1.42-.13,1-.08,1.89-.16,2.84-.22,1.89-.13,3.79-.2,5.69-.24,4.45-.1,8.89,0,13.34.05a94.92,94.92,0,0,0,14.06-1.44c.22,0,2.92-.3.94-.14s.82,0,1,0c2.54,0,5.05,0,7.59,0a81.3,81.3,0,0,0,13.23-.66c1.36-.18,2.72-.36,4.07-.56.16,0,3-.36,1-.15s.89-.06,1-.06c1.56-.06,3.12-.1,4.69-.1,8.16,0,16.31.22,24.47.38,3.9.07,7.83.12,11.73-.19,2.75-.23,5.5-.64,8.21-1.1,1.12-.19,2.23-.48,3.35-.64-2,.29-.92.11.45.13,7.56.14,15.14.2,22.7.25a92.05,92.05,0,0,0,14.54-1.15c1.13-.17,6.28-.64,2.7-.47,1.83-.09,3.92.15,5.72-.13s.05-.2-.54-.25c1.09.09,2.28.45,3.34.64,2.68.5,5.4,1,8.11,1.2,5.21.48,10.13-1.2,15.24-1.75-2.76.3,1.37.14,2.2.14,1.71,0,3.41.05,5.12.08,4.35.07,8.71,0,13.06,0,17.23,0,34.36-.79,51.57-1.29,16.85-.48,33.79-.14,50.64,0,.89,0,1.78.06,2.66,0-.33,0-2.91-.61-.93-.06a57.62,57.62,0,0,0,8.77,1.4,88.73,88.73,0,0,0,11.76.14c1.83,0,3.66-.08,5.49-.09.24,0,3.17.27,1,0s.48.16.74.21a68.5,68.5,0,0,0,15,1.51,91.34,91.34,0,0,0,14.87-1c.68-.11,4.87-.93,2.91-.65-2.33.33,1.06.07,1.65.08,1.1,0,2.2.13,3.3.11a47.35,47.35,0,0,0,8.39-1c.88-.17,6.19-1.17,3-.74,5-.66,9.9-1.3,14.84-2.14,2-.33,4.32-1.08,6.33-1-3-.08,1.18.51,2.19.52a39,39,0,0,0,9-1c.8-.18,1.59-.4,2.39-.61-.61.16-3.78,0-.28.15,9.71.48,19-8.88,18.56-18.56a19,19,0,0,0-18.56-18.57,33.68,33.68,0,0,0-8,.82,10.75,10.75,0,0,0-2.39.61c-2.27,1.1,2.77.43.14.14-4.93-.55-9.86.33-14.71,1.12-1.81.3-3.61.63-5.41,1l-2.7.47c-.45.07-4.19.6-2.05.34,1.93-.23-1.07.08-1.18.09-1.93.22-3.88.46-5.79.79-.88.15-1.74.31-2.61.53-1.37.36-2.28.44-.35.33-4.75.27-9.11,0-13.91,1-.73.13-5,.82-2.88.65,2.41-.18-.48-.07-.8-.08-1.32,0-2.65,0-4,0-2,0-4,0-6,0-3.49,0-.58,0,.24.15l-2.26-.44a68.51,68.51,0,0,0-14.42-1.25c-3.67.1-7.48-.11-11.13.21-2,.18.31.08.77.16-.78-.14-1.54-.31-2.32-.45a73.44,73.44,0,0,0-8.74-1.2c-8.14-.49-16.47,0-24.63.06-16.55,0-33,.46-49.51,1.19s-33.17.16-49.76.32a49.21,49.21,0,0,0-13.51,1.68c-2,.61,0,.15.34,0-.06,0-3.1.15-1,.16,1.88,0-.67-.11-1-.17-1.39-.26-2.78-.54-4.18-.76A59,59,0,0,0,658,87.82c-2.67.18-5.34.56-8,1l-2.44.42c-4.94.86,1.47.31-1.35.14-7.55-.44-15.39,0-23,0a88.9,88.9,0,0,0-11.88.53A64,64,0,0,0,604.8,91c-2.68.65,2.43.1-.43,0-1.19,0-2.4.12-3.59.15-7.93.21-15.87-.23-23.8-.28-3.91,0-7.84-.19-11.75,0-3,.15-6,.61-9,1l-2.55.37c-2.8.44,2.48,0-.37,0-8.93,0-17.6,0-26.47,1.34-.82.12-1.64.29-2.47.38.46,0,2.58,0,.58-.16-1.78-.11-3.64.08-5.44.06-4.44,0-8.88-.11-13.32,0s-8.53.6-12.78,1.17c1.06-.14-6.45.76-3.66.51,1.83-.17-1.14,0-1.22,0-2.14.08-4.27.16-6.42.15-8.06,0-16.11-.38-24.18-.37-16.32,0-32.54.54-48.78-1.13-8.11-.83-16.25-.63-24.38-1.62s-16.4-1.39-24.62-2.16-16.3-2.23-24.53-2.52c-8.54-.31-17.12-.22-25.67-.12a107.26,107.26,0,0,0-12.54.64c-1.87.24-3.75.51-5.62.77-2.08.29-.37.09,0,0a60.08,60.08,0,0,1-6.57.31c-8.38,0-16.78-.05-25.15-.28-17.28-.49-34.87-1.19-52-3.52,2.19.3-2.3-.39-2.92-.48l-5.69-.92c-5.34-.85-10.7-1.64-16.07-2.27-8.66-1-13.22-1.69-22.52-3l-4.27-.58c-4.49-.6-2.33-.33-1.34-.18L150,77.7c-5.11-.75-10.23-1.51-15.36-2.1-7.87-.91-15.69-.66-23.59-.6-16.43.13-32.57.84-48.94,2.35-3.78.35-7.54.78-11.32,1.09-2.21.18-4.43.34-6.64.43-1.24,0-5.78-.29-2.42.32a31.21,31.21,0,0,1-3.68-1c2.66.83.42,0-.82-.73a17.24,17.24,0,0,0-1.78-1.19c-1.5-.69.12-.16.38.55.49,1.36-.41-.65-.5-.8.75,1.37.21.75-.15-.37-2.32-7-3.72-14.52-6.34-21.46-1-2.7-.63-5.63-.9-8.91A46.87,46.87,0,0,0,24.6,31.64a37.38,37.38,0,0,1-2.59-8,41.62,41.62,0,0,0-1.23-6.44,14.67,14.67,0,0,1-1.15-4L10,22.81l1-.09-4.83-1.3.84.52L3.65,18.53l.11-.3c1.85,4.71,6.27,8,11.53,6.55a9.51,9.51,0,0,0,6.55-11.53Z"/><path d="M27.28,27.22c-.57.47-3,1.48-3.31,2-.45.7-.3-.25.69.15.1,0,2.14.14.78,0s.58.09.7.1c4,.58,8,1,12.1,1.29,8.09.49,16.18.73,24.28,1C71,32,77.3,33.47,86.11,34.39c3.63.38,7.27.57,10.91.74l6.36.29c.77,0,5.41.43,3.63.19,16.92,2.27,33.86,2,50.93,2.19,8.24.11,16.39-.11,24.61-.27,7.71-.14,15.43.78,23.17.64,16.29-.31,32.43,2.45,48.68,3.27,3.92.19,7.85.28,11.77.16,1.93-.06,3.83-.2,5.75-.43s3.58-.47,5.37-.72c.36-.06,4.07-.48,2.07-.3,8-.7,16.06.37,24.05-.14,3-.18,5.92-.67,8.86-1.08,0,0,2.86-.36,1.23-.18s1.25-.1,1.26-.1c3.59-.2,7.17-.21,10.74-.59,1.35-.15,9.69-1.08,5.89-.79,1.79-.14,3.58-.21,5.38-.19,3.93.06,7.84.49,11.77.43a67.76,67.76,0,0,0,9-.9c1.07-.16,5.07-.75,1.92-.42,4.47-.47,8.89-.46,13.36-1.21.81-.14,5.78-.95,3-.7,1.88-.17,3.81-.12,5.69-.12,4.14,0,8.27.22,12.41.24,2.12,0,4.26,0,6.39-.16.05,0,3,0,1.25-.11s.91.24,1.06.28A51.29,51.29,0,0,0,416.68,36c1.82,0,3.65-.14,5.47-.08.41,0,3.94.41,1.85.1-1.9-.29.81.19,1,.22,4.7.93,9.46,1.48,14.21,2.06,16.51,2,33,2.46,49.62,2.45a89.64,89.64,0,0,0,14.05-1.47c.15,0,2.87-.34,1-.16s1.13,0,1.23,0c2.21-.1,4.41-.19,6.62-.19,8.31,0,16.61.51,24.92.54q25.3.09,50.63.15c16.6,0,33,2.67,49.52,3,17,.38,34,1,50.93,1.44s34,.23,51,.25c8.51,0,17,0,25.53.12,3.9,0,7.85.21,11.73-.1a54.35,54.35,0,0,0,8.13-1.27c.81-.19,1.61-.42,2.41-.6-1.74.39-1.64.11.08.2a66.1,66.1,0,0,0,12.5-.31c1.33-.18,2.73-.32,4.06-.58.08,0,2.83-.51,1.11-.29s1.3,0,1.36,0c1.28,0,2.57.08,3.85,0,4.92-.22,9.79-1.46,14.62-2.37,2-.38.2-.07-.19,0,.94-.13,1.9-.18,2.84-.29,3.19-.36,6.38-.76,9.54-1.34.49-.09,3.56-.44.71-.19.92-.08,1.84-.14,2.77-.18,1.87-.1,3.75-.11,5.62-.12,4,0,8-.18,11.93-.23.92,0,1.83,0,2.74,0,.48,0,4.22.28,2,0-2-.22.86.2,1,.23l2.6.49c4.82.89,9.68,1.64,14.55,2.14,3.91.4,7.81.39,11.73.41.92,0,1.85,0,2.77,0-.42,0-2.75-.83-1.09-.09A21.63,21.63,0,0,0,899,41.26c2.67.42,5.33.56,8,.84-4.09-.42,1.23.75,2.29,1a19.36,19.36,0,0,0,4.68.75l.76.16-5.17-3c-.61-.53-2.39-3.1-1.11-.91-1.38-2.37-.91-2.12-.2.14a15.64,15.64,0,0,0,.62,2.08c.47.93-.19,1,.26.18a14.37,14.37,0,0,1,.35-2.35,17.85,17.85,0,0,1-.59,2.44c-.53,2-1.17,4-1.64,6-1.75,7.55-2.14,15.33-3.8,22.9-1,4.77-2.19,9.67-2,14.58a52.27,52.27,0,0,0,1.14,8.34c.17.8.41,1.59.59,2.39-.17-.76-.06-3.86-.19,0-.33,9.81,8.86,19.19,18.75,18.75,10.35-.47,18.52-8.24,18.75-18.75a41,41,0,0,0-.84-8.34c-.2-1.07-.51-2.11-.78-3.17-.1-.38-.32-2.8-.24-.84.08,2.22.16-.92.19-1-.1.3-.65,2.7,0,.58A57.8,57.8,0,0,0,940.16,77c.44-2.81.8-5.64,1.17-8.47.15-1.18.32-2.36.45-3.55.25-2.19,0,.13-.08.48a112.6,112.6,0,0,1,2.58-12.31c4.37-16.82-2.41-41.64-22.1-45-1.71-.29-7.87-1.87-4.8-.69,2,.79-.35-.29-.67-.41a34.91,34.91,0,0,0-8.18-1.5c-1-.1-2.06-.17-3.09-.2.42,0,2.76.8.82.1a31.41,31.41,0,0,0-5-1.28c-4.95-.89-9.84-.67-14.83-.75-2.08,0-4.14-.16-6.22-.35-.14,0-3-.43-1.11-.13s-1.65-.31-2-.37A137.41,137.41,0,0,0,850,.47c-4,.08-8.08,0-12.12.28-2.85.24-5.71.62-8.54,1.08-.93.15-1.85.33-2.78.5-5.68,1.06,1.55.08-1.74.26A92.34,92.34,0,0,0,810,4.91c-.09,0-2.94.47-1.14.28s-1.25,0-1.32,0a55.87,55.87,0,0,0-10.62.9c-1.21.21-5,.46-2,.47-1.7,0-3.38,0-5.08-.06a47.13,47.13,0,0,0-14.63,1.41c-.71.2-3.31.55-.15.27-1,.09-2,0-3,.06-2,0-4,0-5.92,0-4.61,0-9.2-.08-13.81-.08L726,8.18c-17.66,0-35.28.07-52.93-.55-17.14-.6-34.39-.25-51.47-1.75-34.66-3-69.34-1.33-104.09-2.12-4.13-.09-8.27-.13-12.38.18-2.76.21-5.51.6-8.25,1-1,.15-6.8.84-3.62.63-8.16.55-16.51.32-24.69.14Q455.73,5.42,443,4.07c-2.21-.23-4.42-.45-6.62-.76,2.57.36-1.43-.29-2.18-.41a77.74,77.74,0,0,0-14.74-1.49c-1.83,0-3.66.14-5.49.18-3.78.06-1.36-.13-.56,0-.81-.17-1.6-.42-2.41-.6a63.55,63.55,0,0,0-15.2-1c-9.37.22-18.6-.7-27.89,1.14-.82.17-4.76.71-2.19.53-1.57.11-3.15.1-4.73.24-2.77.25-5.57.64-8.31,1.09-.8.14-1.59.33-2.39.44,1.85-.27,0,0-.81,0-3.93.09-7.84-.22-11.76-.3a52.81,52.81,0,0,0-6.29.2c-1.8.19-3.6.47-5.39.73-.31,0-3.73.49-1.93.3s-.76,0-.93,0c-1.06.07-2.12.15-3.18.21-1.73.08-3.47.09-5.2.23-3,.24-5.92.71-8.85,1.14-.87.13-1.73.3-2.6.4,1.88-.21.06-.05-.78,0-9.1.2-18.23-.44-27.27.77a123.26,123.26,0,0,1-24.76.73c-8.61-.53-17.21-1.39-25.82-2-7.86-.54-15.5-.72-23.38-.64-8.08.07-16-.75-24.1-.09-17.29,1.43-34.94.6-52.29.91-1.82,0-3.65.13-5.47.07-1.12,0-2.24-.16-3.36-.27.37,0,1.82.23,0,0a137.94,137.94,0,0,0-14.49-1.26A190.62,190.62,0,0,1,79.38,3.2C63.06.77,46.51,4,30.12,4.21c-7,.1-14.72.48-19.81,6-4.37,4.78-4.73,12.25,0,17,5,5,11.9,4.08,17,0Z"/></g></g></svg>