<svg xmlns="http://www.w3.org/2000/svg" viewBox="0 0 1101.43 557.59"><title>Asset 386</title><g id="Layer_2" data-name="Layer 2"><g id="Layer_1-2" data-name="Layer 1"><path d="M4.74,40c-2.19,3.13-2.1,7-2.48,10.67Q1.65,56.44,1,62.28C.32,69.13-.13,77.65,4.12,83.55c5.2,7.23,15,7.69,20.08,0,2.9-4.36,2.64-8.6,1-13.34-1-2.91-.76-4.48-1-7.93C24,58.66,23.52,55,23.14,51.41c-.4-3.85-.28-8.19-2.57-11.46-4.11-5.87-11.72-5.87-15.83,0Z"/><path d="M6.45,113.39C2.19,117,1.38,124,1.19,129.26a41.37,41.37,0,0,0,2.3,15.86c3.87,10.36,17.54,10.59,21.34,0,2.34-6.54,1.3-11.68-1.06-17.94,0,.07-.88-2.61-1.06-3.57-.38-2-.15-4.11-1-6.18-2.65-6.62-9.69-8.76-15.29-4Z"/><path d="M21.72,209.85c.26-1.58.65-3.14.94-4.72.13-.73.23-1.47.37-2.2.08-.38,1.31-2.83.23-1.17,6.18-9.48-8.76-21.46-16-12.3C2,196.18,2,203.5,1.74,211.69c-.26,8.92.36,17.18,5.38,24.86s14.93,7.2,20.08,0c5.46-7.67.29-16.69-1-24.85-.84-5.45-1.21-9.53-1.58-15.06l-7.46,9.79.54-.13-8.41-2.22c-.93-1-.21-.33-.17.9,0,1.07.12,2.14.23,3.2.65,6.41,11.06,9.25,12.34,1.67Z"/><path d="M16.32,265.82l-.32,0c-3.83-.4-8,2.43-9.84,5.64C3.8,275.62,3.63,280,3.38,284.68,3,291.1,9.27,297.24,15.66,297a12.45,12.45,0,0,0,8.68-3.6c2.08-2.26,3.92-5.5,3.6-8.68-.18-1.79-.46-3.57-.7-5.35l.43,3.22c-.24-1.83-.46-3.67-.74-5.5l.43,3.15a10.06,10.06,0,0,1,0-2.63l-.41,3,.08-.4-8,8,.31-.06a11.38,11.38,0,0,0,6.78-5.22,11.73,11.73,0,0,0,1.35-7.23,10.83,10.83,0,0,0-3.12-6.52,13,13,0,0,0-8-3.32Z"/><path d="M8,318.38C.52,322,.06,333.76,0,340.88c-.07,9.76,2.74,18.93,12.52,22.68,4.3,1.66,9.85-.8,12.41-4.23,3.07-4.1,2.95-8.58.93-13.12a7.83,7.83,0,0,1,1.22,4.17c-.17-1.36-.35-2.72-.55-4.07-.2-.78-.58-1.57-.81-2.35-.67-2.23-1.18-4.59-1.65-6.87-.21-1-.4-2.07-.55-3.11.4,2.83,0-1.25-.05-1.79,0-.82.09-1.65.06-2.46.15,3.94.33-1.38.21-2.3-1-8.05-8.08-12.82-15.77-9.05Z"/><path d="M3.8,382.66C1.85,396-.67,411,8.61,422.22c7,8.46,20.49,1.18,20.64-8.55.08-5.36-1.9-10.28-2.73-15.51-.66-4.18-1.09-8.44-1.64-12.65-.68-5.3-3.55-9.85-9.3-10.54-4.75-.56-11,2.35-11.78,7.69Z"/><path d="M11.86,446c-10.69,2-10,16.09-10.39,24.33-.4,9.53.22,20.61,9.58,25.81,10,5.54,23.69-6.11,16.55-16.55-.67-1-.57-.78.31.77-.09-.67-.2-1.34-.32-2a20.85,20.85,0,0,1-.51-2.18c.15,1.49.15,1.46,0-.08-.16-2.11-.18-4.24-.36-6.35-.15-1.94-.53-3.88-.85-5.8-.09-.55-.47-3.58-.21-1.08a39.52,39.52,0,0,1-.18-4.21c0,4.15,0-4.38-.31-5.1-2.35-5.78-6.95-8.72-13.29-7.55Z"/><path d="M7.14,526.05a27.37,27.37,0,0,0-.22,12.08V532c-1.46,3.92,0,9.52,3.09,12.35a15.18,15.18,0,0,0,9.66,4c4.62.36,9.1-3.27,10.79-7.26,1.75-4.15,1.07-9.74-2.45-12.9-2-1.8-4.08-3.82-6.91-4.25l6.9,5.3a12.49,12.49,0,0,1-1-1.61s1.26,3.07.4.91a23.22,23.22,0,0,0-3.85-6.84c-4.79-5.73-14.75-2.43-16.44,4.34Z"/><path d="M44.13,550.06c4.76,8,15,8.35,23.1,6.79,8.34-1.61,16.65.52,24.89-1.93,10.77-3.2,10.42-18.16,0-21.51-8.25-2.66-17.61-2.41-26-.24-3.34.86-6.56,2.8-9.88,3.5,1-.21-.09,0-.7,0-3.23-.19-5.44-.37-8.28,1.51-3.91,2.59-5.65,7.7-3.13,11.93Z"/><path d="M153.66,557.26a21.28,21.28,0,0,0,4.7-.71c1.2-.23,1.41-.29.62-.18q-2.21.28,2.64-.36c-1.46.17-.86.13.26,0a10.3,10.3,0,0,1,1.47,0c-1.1-.17-1.21-.18-.31,0,7.08.91,14.73.9,19.7-5.23,3.58-4.43,4.68-10.26.89-15-3.67-4.6-9.53-5.58-14.75-2.94,1.13-.57,2.42-.32.47-.68a16.44,16.44,0,0,0-3.06-.14,38.12,38.12,0,0,0-8,.8c-5.13,1.12-11.07,4.07-13.66,8.81-3.67,6.72.85,15.92,9,15.68Z"/><path d="M258.6,548.72c4.54-.35,8.12.87,12.57,1.91,6.09,1.42,11.7.58,17.52-1.44,10.5-3.64,11.2-18.69,0-22.06a52,52,0,0,0-6.63-1.38c-3.5-.56-4.34-.7-7.8-1.37a39.23,39.23,0,0,0-18.78,1.29c-5.53,1.78-9.29,7-8.41,12.88.81,5.37,5.62,10.63,11.53,10.17Z"/><path d="M17,7.22l.56.11a8.68,8.68,0,0,0-2.3,17c3.09,1.07,6.28,1.3,9.37,2.37a38.68,38.68,0,0,0,10.52,1.8c10.37.57,12.72-16,2.46-18.23-3.08-.66-6-1.79-9.11-2.39a32,32,0,0,0-5.76-.74c-.5,0-4.92,0-3.25.43L22.34,18.3l.69-.74c4-4.26.11-12.41-6-10.34Z"/><path d="M68.7,21.93c3.88,2.74,8.6,1.84,12.92,1.1-1.31.22-1.71.12-.14.11.43,0,1.94,0,.67-.09a32.67,32.67,0,0,0,9.95-.69c10.73-2.47,10.34-18.65,0-21.34a24.8,24.8,0,0,0-14.84.23C75.6,1.84,74,2.66,72.42,3.38c1.29-.58.82-.39-.25,0A36.91,36.91,0,0,0,68.7,4.72c-3.11,1.37-4.94,5.41-4.94,8.61,0,3.74,2,6.53,4.94,8.6Z"/><path d="M135.94,33.13c5.28,3.42,13.35,3.59,19.54,3.22,7-.42,13.91-1.56,20.16-4.77,8.16-4.19,6.4-17.92-2.6-19.88-6.75-1.47-13.17-.37-19.84,1C147.58,13.85,141,14.51,135.94,17c-6.62,3.26-5.47,12.55,0,16.1Z"/><path d="M206.29,27.84c3.59,4.65,7.69,6,13.46,6.25,3.47.16,6.93-.19,10.4-.09a10.41,10.41,0,0,0,9.94-7.57c.94-4.11-.5-9.78-4.74-11.65a22.64,22.64,0,0,0-14.59-1.58c-1.42.3-2.8.81-4.24,1.06,1.3-.22-.66,0-1.1.05a14.82,14.82,0,0,0-3.92.71c-4.64,1.7-9,8-5.21,12.82Z"/><path d="M289.23,35a44.45,44.45,0,0,0,23.4-.47c10.49-3.09,10.93-18.82,0-21.7-7.86-2.07-15.9-.34-23.4,2.49-4.26,1.61-7.49,5-7.49,9.84A10.42,10.42,0,0,0,289.23,35Z"/><path d="M362.84,32.37c3.79,3.25,9,3.63,13.72,4.62a56.83,56.83,0,0,0,20,.37c10.56-1.47,10.57-19.87,0-21.34a67.14,67.14,0,0,0-20.16.36c-6.79,1-12.71,1.52-15.53,8.64a7.32,7.32,0,0,0,1.95,7.35Z"/><path d="M446.12,34.28c7.83,7.15,19.59,4.9,28.05.38,6.89-3.68,7.42-15.41,0-18.94a22,22,0,0,0-13.1-1.81,38.61,38.61,0,0,0-5.71,1.19c-1,.17-.4.1,1.74-.22l-3.69.5c2.32-.24,2.9-.33,1.74-.29q3.57.73,2,.21c-10.7-3.73-19.24,11.51-11,19Z"/><path d="M524.74,35.12c1.38,0,1.45,0,.2,0,.72.2,1.46.37,2.2.52a28.88,28.88,0,0,0,6.43.58c4.13-.17,7.82-1.41,11.8-2.23,5-1,9.18-6.69,9-11.75s-3.58-10.87-9-11.75c-5.1-.84-9.56-1-14.55.53-.47.14-5.23,1.53-2.76,1-2.22.48-4.19.41-6.28,1.26-5.14,2.08-8.87,6.32-8,12.22a11.13,11.13,0,0,0,11,9.67Z"/><path d="M588.87,31.52a3.47,3.47,0,0,1,1.18-.29l-5.51-.72c1.37.79-1.64-1.3-.31-.31a13.09,13.09,0,0,0,4.42,2.57,30,30,0,0,0,4.44.58c2.23.24-1.42-.23-.35-.05a36.91,36.91,0,0,0,4.45.48c2.86.1-2.38-.41,1.8.15a30.54,30.54,0,0,0,9.23-.53c11.35-1.87,10.83-20.14,0-22.42-6.57-1.38-12.67-1.7-18.81,1.53-4.95,2.61-7.94,6.19-8.4,11.84l1-3.61a19,19,0,0,0-1.18,2.7c-1.64,4.58,3.51,9.69,8.07,8.08Z"/><path d="M667,34.65c9.44,1.2,19.08-.79,28.19-3,12.32-3,9.86-22.74-3-22.28-9.86.34-18.25,4.37-27.69,6.69a9.42,9.42,0,0,0-6.79,10.39c.76,5,4.48,7.61,9.31,8.22Z"/><path d="M745.67,30.89A21.1,21.1,0,0,0,756,32c1.95-.2,3.89-.66,5.83-.85-1.66.16,2.09,0,2,0,8.26-.49,16.05-3.42,18.68-12,2.46-8-5.74-16.39-13.84-13.84-4.35,1.37-5.62,2.2-10.34,3.94-4.3,1.58-8.06,3.63-12.62,4.45-3.79.68-6.53,4.93-6.53,8.58,0,4.22,2.85,7.09,6.53,8.58Z"/><path d="M805.29,27.25a16.4,16.4,0,0,0,6.6,1.92c-2.35-.31,1.2.34,1.48.43a27.74,27.74,0,0,0,3.94,1.12c6.68,1.15,12.44-.64,18.3-3.64,6.87-3.52,7.33-15.41,0-18.78-6.78-3.12-12.17-2.82-19.17-.58a36.65,36.65,0,0,0-7.24,3,13.14,13.14,0,0,0-3.13,2.51l-1.47,1.9c-.53.84-.57.83-.11,0L808,13l-.94.38c-5.81,2.29-7.89,10.33-1.81,13.88Z"/><path d="M884,26.72c9,1.33,20,2.23,28.56-1.27,5.14-2.1,8.88-6.33,8-12.24a11.24,11.24,0,0,0-11-9.68c-8.54-.4-17.31,3.2-25.59,5.09-8.57,2-9.32,16.73,0,18.1Z"/><path d="M968.7,8.22c-2.32-.26-4.15.89-5.8,2.34-2.82,2.48-2.94,8,0,10.5,8.57,7.14,22.84,5.91,32.44,1.72C1004,19,999.42,5,990.61,5.31a69.18,69.18,0,0,0-12.87,2.14c-3.86.88-7.72.36-11.56,1.2l7.23,1.91-.31-.37,1.78,6.73.07-.49c.69-4.49-1.71-7.71-6.25-8.21Z"/><path d="M1035.48,27.2c8.8,2.7,19.16,2.91,27.55-1.09,9.11-4.35,4.16-18-4.92-18.17-7-.12-13.42,3.25-20.43,3-9.53-.32-10.94,13.57-2.2,16.25Z"/><path d="M1077.47,37.62l1,.69-4.82-8.4c-.38,5.6-2.91,10.62-3.55,16.28-.9,8-1.69,14.08,1.71,21.65,3.13,7,14.34,6.39,17.65,0,4-7.68,4.15-15.33,4.72-23.78.53-7.92,1.25-14.37-3.92-21-2.06-2.65-6.44-3.33-9.47-2.5l-1.1.3c-8.14,2.22-8.4,12.39-2.19,16.79Z"/><path d="M1073.74,97.82c-4.27,3.55-5.55,8.22-5.4,13.62,0,1.65-.62,4.56-.44,7.52.26,4.39,1.11,7.42,4.11,10.82,3.51,4,10.65,3.76,14.19,0,4.47-4.76,5.4-12.07,3.94-18.29a29.79,29.79,0,0,0-2.69-7c-.08-.15-1-1.84-1.15-1.77.36-.15.4,3.73.4.47,0-7-8.09-9.43-13-5.36Z"/><path d="M1079,149.49c-3.18,10-7.34,21-4.16,31.53,3.07,10.15,17.54,10.17,20.61,0,3.18-10.51-1-21.51-4.16-31.53a6.43,6.43,0,0,0-12.29,0Z"/><path d="M1078.78,220.92c-7.83,4.27-10.49,16.29-11,24.46-.56,9.14-1.14,18.58,1,27.56,2.75,11.71,20.93,11.71,23.69,0,2.06-8.75,1.56-17.8,1-26.7-.21-3.25-.65-6.15-.18-9.35.9-6,1.09-9.37-2.87-14.47-2.62-3.37-8.2-3.35-11.59-1.5Z"/><path d="M1077.36,299.57a12.72,12.72,0,0,0-1.9,8.89c.31,1.62.22.9.52-.44.31-.66.31-.65,0,0-.56,1.25-1.1,2.52-1.62,3.79a19.1,19.1,0,0,0,3.82,18.76c4.09,5,12.63,4.2,16.83,0,9.14-9.12,8.78-27.82-2.86-34.9-5.13-3.13-11.7-1-14.8,3.88Z"/><path d="M1076.28,357.77c-1.39,2.4-3,4.29-4,6.9a37.44,37.44,0,0,0-2.63,9.9c-.9,6.68-1.56,12.94,1.06,19.34,1.59,3.88,4.13,6.86,8.57,7.39,3.68.44,8.66-1.17,10.28-4.92a48.35,48.35,0,0,0,3.82-20.22,42.23,42.23,0,0,0-1.09-9.37c-.84-3.57-2.59-5.9-4.31-9-2.45-4.45-9.17-4.33-11.65,0Z"/><path d="M1081.89,405.16l-2.81,1.83a5.89,5.89,0,0,0-2.46,7.49,5.75,5.75,0,0,0,2.46,2.87,5.91,5.91,0,0,0,4.62.61l3.1-1.14a6.4,6.4,0,0,0,2.81-1.64l1-1.29a6.17,6.17,0,0,0,.32-5.68,6.09,6.09,0,0,0-3.37-3.37,6.18,6.18,0,0,0-5.67.32Z"/><path d="M1072.59,422.6c.31.46.07,0,.08-.12a9.52,9.52,0,0,1-.66,2.19c-.54,1.59-1.16,3.12-1.6,4.75-1.58,5.78-3,11.2-2,17.19,1.79,10.56,19.53,10.56,21.33,0,1.2-7-1.14-13.53-2.71-20.36-1.06-4.63-2.5-8.75-6.52-11.6-4.7-3.33-11.2,3.27-8,8Z"/><path d="M312.92,545.39a10.09,10.09,0,0,0,4,2.81c3.71,1.56-1.22-.55,1.22.5a29.22,29.22,0,0,0,6.5,2.29,23.23,23.23,0,0,0,8.91-.11,19,19,0,0,0,2.33-.72c.76-.25,3.24-.46.78-.37a11.68,11.68,0,0,0,11.42-10.08c.72-5.37-2.64-11.59-8.33-12.76a24.73,24.73,0,0,0-8.7-.34,21.13,21.13,0,0,0-3.53.58c-1.14.28-1.25.36-.31.25s.83-.07-.36-.06l1.25.13a19.14,19.14,0,0,0-2.5-.4,18.84,18.84,0,0,0-3.43-.23c-4.59.21-8.47,2-10.83,6.13-2.47,4.26-1.32,8.79,1.6,12.38Z"/><path d="M381.89,546.64c4.34,1,8.45,2.67,12.87,3.37,8.47,1.35,16.59-1.2,21.24-8.79,6.16-10.06-6.26-22.94-16.42-16.42-2.17,1.39,2.57-1.51,2.49-.61,0-.05-2.18,0-2.31,0-1.89,0-3.77-.18-5.64-.37,1.73.18,1.22.16-.21,0-1.6-.23-3.21-.51-4.82-.66a30.65,30.65,0,0,0-7.2.55c-5.09.73-8.77,6.75-8.77,11.51,0,5.07,3.69,10.36,8.77,11.51Z"/><path d="M460.52,542.85c-2.32-.73,4.75,1.91,2.69,1.15.88.33,1.76.59,2.66.86a40,40,0,0,0,8.57,1.61,20.45,20.45,0,0,0,16.88-6.62c7.23-8.45.28-20.19-10.58-18.17,2.09-.39-1.29,0-1.49,0-.79,0-1.58-.18-2.37-.21a37,37,0,0,0-8.75.73c-5.23,1.16-10.09,4-12.37,9-2.16,4.75-.53,10.05,4.76,11.71Z"/><path d="M532.4,543.6a52,52,0,0,0,8.69,1.31,53.22,53.22,0,0,0,8.76-1.08c5-.77,9.09-6.84,8.88-11.67a14.33,14.33,0,0,0-1.66-6.1c-1.22-2.33-4.54-5.15-7.22-5.56-2.84-.43-5.92-1.18-8.76-1.09a58.85,58.85,0,0,0-8.69,1.31c-4.87,1-8.93,6.55-8.71,11.44s3.49,10.41,8.71,11.44Z"/><path d="M624.43,535c5.8,7.42,16.81,5,24.31,2.46,4.74-1.59,8.84-6,8.61-11.3a12.15,12.15,0,0,0-8.61-11.3,24.62,24.62,0,0,0-12.41-.46c-.75.17-4.82,1-1.16.58a20.64,20.64,0,0,0-5.74,1c-3.78,1.6-6.77,3.73-7.92,7.93s.34,7.74,2.92,11Z"/><path d="M717.62,536.19c1.63-.21-3.63-.47.34-.09,1,.09,1.81.14,2.76.14,1.25,0,2.56.2,3.81.12,1.05-.07.15-.21-.38-.19,1.52-.07,3.27.51,4.87.52a34.88,34.88,0,0,0,8.14-1c11.12-2.67,10.67-19.13,0-22.06a23.75,23.75,0,0,0-18.59,2c-4.1,2.16-8.26,4.84-9.17,9.79-.88,4.74,2.25,11.59,8.22,10.79Z"/><path d="M775.08,527.28l.46,1.05-.88-6.76c-2.7,7.07,4.54,14.51,10.61,16.42,7,2.2,14,3.88,21.21,1.88A12.67,12.67,0,0,0,815.55,526c-.9-6.7-6.07-10.2-12.43-11,2,.24-1-.57-1.28-.65a36.62,36.62,0,0,0-3.63-.6,30.35,30.35,0,0,0-11.24.11c-.71.15-1.51.28-2.2.49-.13,0-2.67,1-.75.42s-2.22.16-2.64.28a11.89,11.89,0,0,0-4.47,2.64l6.21-2.57-1-.12c-6.84-.81-9.22,7.35-7,12.27Z"/><path d="M858.14,536.52c10.72,3.53,24.18,6.24,35.19,2.81,11.48-3.58,11.49-19.75,0-23.33-11-3.43-24.46-.73-35.19,2.81a9.27,9.27,0,0,0,0,17.71Z"/><path d="M946.81,536.46c2.43,2.63,5.64,3.39,9.05,3.69a29.66,29.66,0,0,1,5.34.72c3.81.75,5.47,1.27,8.92,1.15a26.22,26.22,0,0,0,8.61-1.56c4.41-1.75,7.79-4.74,8.39-9.74.5-4.18-1.33-9.83-5.6-11.68a36.57,36.57,0,0,0-23.64-2.15c-3.83.83-7.88,2.1-10.71,4.94a10.64,10.64,0,0,0-.36,14.63Z"/><path d="M1014.71,535.06a23.65,23.65,0,0,0,18.24,7.21c2.8-.07,5.29-.64,7.53-.75a59.27,59.27,0,0,0,11.64-1.42c10.92-2.75,10.69-19,0-21.87a34.44,34.44,0,0,0-18.7-.27c-4.19,1.22-8.39,2.92-12.81,2.86-7.31-.09-10.91,9.15-5.9,14.24Z"/><path d="M1076.62,490.2c-4.2,3.37-4.63,10.09-4.48,15,0,1.38.08,2.78.16,4.16.09,1.72.34,3.43.59,5.13.09.7.2,1.39.33,2.08a6.07,6.07,0,0,1,.17-3.65l23-6.06-.53-.45c-5.44-4.59-13-5.24-18.43,0l-.47.45c-7,6.79-4.27,18.6,4.43,22.27,8,3.36,20.37-2.55,19-12.55a28.29,28.29,0,0,0-3.06-10.17c0-.09-1.49-2.59-1.45-2.62q1.44,3.39.13.29c-.28-.68-.57-1.35-.86-2s-.59-1.34-.89-2c.82,1.82.28.75-.14-.48-.23-.67-.33-1.41-.59-2.05-.32-.81.27,2.2.2-.29-.27-9.3-10.48-12.39-17.1-7.08Z"/><path d="M587.37,537a11.19,11.19,0,0,0,3.73.62c-1.76-.41-2-.44-.69-.1,2.19.72-1.93-1,.89.39,2.64,1.28,5.34,2.79,8.26,3.23l3.31-24.4a44.51,44.51,0,0,0-9.35.72l-1.62.23c1.45-.19,1.7-.23.74-.13-1.27,0-2.49.1-3.77,0v26.27a50.73,50.73,0,0,0,8.08-.35c2-.22,4-.39,5.94-.74.53-.1,5.33-1,2.24-.59,6.73-.88,13.37-5.36,13-13s-5.75-12.21-13-13a36,36,0,0,0-10.65.49l-3.42.62c-.75.15-1.5.29-2.26.42,1.63-.19,1.65-.21.07-.06-6.83.57-13.47,5.64-13.13,13.13.3,6.79,5.78,13.55,13.13,13.14a56.1,56.1,0,0,0,9.3-1.38c1.05-.25,2.1-.52,3.16-.74q.78-.18,1.59-.3c-1.53.2-1.55.26,0,.17,6.49-.15,12.72-5.6,12.42-12.42a12.71,12.71,0,0,0-12.42-12.42c1.35.08,2.24.48.4-.1-.58-.18-1.15-.4-1.73-.61a24,24,0,0,0-5.52-1.56c-6.25-.84-11.58.88-15.25,6.3C576.6,527,581,535,587.37,537Z"/><path d="M697.7,526.63h-.17l1.61.21a3.12,3.12,0,0,1-.62-.15l1.5.63a3.76,3.76,0,0,1-.55-.32l1.32,1a1.7,1.7,0,0,1-.24-.22l1.93,4.68.09-.66a6.82,6.82,0,0,0-.94-3.45,6.69,6.69,0,0,0-2.45-2.45,6.84,6.84,0,0,0-9.35,2.45,6.89,6.89,0,0,0,0,6.89,11.11,11.11,0,0,0,1.37,1.89,6.93,6.93,0,0,0,5.07,2,8.24,8.24,0,0,0,2.32-.34,8.9,8.9,0,0,0,2.14-1l1.21-.94a4.43,4.43,0,0,0,1.24-1.93,5.73,5.73,0,0,0,.31-3.91,7,7,0,0,0-1.55-2.64,6.27,6.27,0,0,0-4.24-1.76Z"/><path d="M698.61,527.72c-5.2-4.39-9.28-11.33-17.1-10.41-5.08.6-8.7,4.56-9.63,9.49a19.71,19.71,0,0,0,1.53,13.09c2.65,5.32,12.05,5.71,14.58,0a15.42,15.42,0,0,0,1.52-8.38c-.08-.87.24-4-.25-1.52a4.07,4.07,0,0,1,.23-1.07c-1.27,1.76-2.22,3.46-4.34,4-.63.06-.72.09-.26.09s.37,0-.12,0-.53-.07-.09,0,.63.15.94.24c-.7-.21-.06,0,.28.14.53.24,1.05.52,1.57.79,1.91,1,3.76,2,5.76,2.78,5.1,2,9.48-5.78,5.38-9.24Z"/></g></g></svg>