<svg xmlns="http://www.w3.org/2000/svg" viewBox="0 0 35.66 146.41"><title>Asset 397</title><g id="Layer_2" data-name="Layer 2"><g id="Layer_1-2" data-name="Layer 1"><path d="M.24,8.56c-.71,5.55.31,11,1,16.48A122.92,122.92,0,0,1,2.09,41.8c-.23,12.83.42,25.53-.31,38.36-.71,12.21-1.69,24.53-.33,36.69.58,5.24-.39,11,1.16,16.11,2.79,9.22,12.53,15.75,22.15,12.69C33.2,143,39,132.33,33.5,124.17c-2.2-3.24,1.57,10.11.59,2.84-.16-1.26-1.26-4-.34-2s.19,0,.19-1c0-.61,0-1.21,0-1.82a95.26,95.26,0,0,0-1.34-11.43c0-.36-.37-2.74-.18-1.12-.18-1.53-.29-3.06-.36-4.6-.54-11.51-.85-23-1.48-34.55-.35-6.28-1.52-12.38-2.33-18.59-.71-5.39-.82-10.76-1.89-16.12A130.4,130.4,0,0,0,22.21,20c-1.57-4.65-4-8.94-5-13.77C16.32,2.11,11.69-.51,7.72.08,3.13.77.81,4.16.24,8.56Z"/></g></g></svg>