<svg xmlns="http://www.w3.org/2000/svg" viewBox="0 0 844.51 460.2"><title>Asset 364</title><g id="Layer_2" data-name="Layer 2"><g id="Layer_1-2" data-name="Layer 1"><path d="M3.41,2.13C2.84,23.5.74,44.64,4.24,65.89c3.43,20.79,9.8,41,9.72,62.27-.18,43,12.42,84.48,14,127.27.38,10.08,3.5,19.72,3.43,29.78-.07,10.23-.53,20.48-.92,30.7-.38,9.95-.61,19.94.88,29.83.75,4.92,1.72,9.78,2.13,14.74s.15,10.19.52,15.29c.7,9.91,2.22,20,3.82,29.77,1.35,8.29,4.67,15.78,11.77,20.63,6.43,4.39,14.35,6.27,21.73,8.36,8.39,2.36,16.13,5.89,24.9,6.75,10,1,20.05-.42,30.07,0,10.76.39,21.77,2.88,32.47,4.25s21.16,4.2,31.91,5.28,21.34-.74,32-1.87c21.2-2.24,42.61-.41,63.88-2.05,10.54-.82,21.62-2.6,32.19-1.82,4.71.34,9.18,2.21,13.87,2.79,5.43.68,11,.25,16.43.19,9.47-.11,18.22-3.88,27.71-3.4,4.62.23,9.13.68,13.74,0,5.23-.73,10.11-2.59,15-4.45A80,80,0,0,1,431.69,435c9.5-.34,18.27,1.27,27.57,3,11.19,2,22.41,3.93,33.6,6,10.29,1.93,20.48,4.51,30.85,6,5.21.75,10.49.75,15.68,1.5s10.43,2.23,15.76,2.72c5.09.48,10.18-.12,15.27-.07,5.92.06,11.72,1.66,17.56,2.54,21.18,3.21,42.61,3.47,64,3.49,11.13,0,22.22.11,33.32-.79,10.81-.88,21.58-2.24,32.41-2.72,11.08-.49,21.49.65,32.4,2.43,10.07,1.64,20.28,1,30.45,1.09a102.83,102.83,0,0,0,14.26-.45c4.91-.66,9.73-2.34,14.67-2.67,7.8-.53,15.67,4.25,23.33,2.5,10.76-2.46,12-15.67,11.67-24.7-.37-11.7-3.69-23-3.5-34.73.07-5,.43-9.94.38-14.92-.06-5.68-1.14-11.05-1.83-16.66-1.36-11-.43-22.2-.49-33.28,0-10.5-1.9-20.6-3.18-31-1.33-10.75-.55-21.64-.6-32.45,0-10.55-2.47-20.66-3-31.13-.56-10.3-.62-20.14-2.84-30.29-2.27-10.4-2.39-20.48-3.38-31-.46-4.84-1.49-9.59-2.21-14.4-.85-5.66-.61-11.34-.59-17.05,0-11.25-.08-22.5-.07-33.75,0-5,.36-10.09-.11-15.06-.45-4.78-2.08-9.3-2.74-14-.69-4.92-.07-10-.27-14.89a82.35,82.35,0,0,0-2.59-15.74c-1.13-4.72-2.43-9.43-3.15-14.24s1-9.91-.14-14.79c-1.92-8.13-9.11-11.86-16.37-14.34-8.62-3-17-6.27-26-8.16C751.22-1.38,730-.13,709.23,1.59,687.32,3.41,665.5,6,643.5,6.47s-43.66.9-65.57,3.49a1146.83,1146.83,0,0,1-133.56,8c-44.85,0-89.8-.85-134.63.26-10.52.26-20.91.72-31.2-1.75a52.54,52.54,0,0,0-14.06-1.67c-5.45.16-11.12,1.25-16.54.37-4.49-.72-8.54-2.56-13.15-3A128.1,128.1,0,0,0,219.36,12c-10.36.21-20.74.69-30.91-1.5S168.91,9,158.72,9.3s-19.39-3.65-29.47-3.62C106.8,5.74,84.33,6,61.87,6c-5.28,0-10.77.55-16,0C41.59,5.47,37.55,3.75,33.32,3,23.92,1.44,14.41,2.9,5,3c-6.6.07-6.62,10.33,0,10.27,9.54-.1,19.43-1.93,28.84.33,4,1,7.9,2.23,12.05,2.62,5.29.49,10.72,0,16,0,21.87,0,43.73.09,65.58-.31,10.07-.19,19.36,3.71,29.43,3.63s19.58-1.27,29.63.92c9.72,2.11,19.32,1.81,29.22,1.74,4.85,0,9.7-.29,14.54-.12,5.07.18,9.14,1.68,14,2.8,9.9,2.31,20.06-1.2,30,1a117.28,117.28,0,0,0,28.85,2.65c21.79-.37,43.57-.38,65.36-.39,43.69,0,87.73,1.61,131.32-1.65,21.59-1.62,43.12-2.41,64.65-4.86,21.36-2.44,42.4-4.67,63.92-4.87s43-1.51,64.46-3.55c21-2,42.41-4.37,63.48-2.43a117.41,117.41,0,0,1,28.36,6.34c3.69,1.31,7.34,2.69,11,4,3.33,1.16,7.28,2.59,8.35,6.31,1.15,4-.5,8.83,0,13a140.41,140.41,0,0,0,3.06,14.92c1.18,4.88,2.44,9.75,2.65,14.79.21,5.33-.29,10.66.41,16,.57,4.37,2.06,8.57,2.6,12.94.64,5.23.11,10.75.1,16,0,10.93.1,21.86.07,32.79a128.2,128.2,0,0,0,.3,14.93c.55,4.82,1.61,9.56,2.27,14.36,1.38,10.1.83,20.25,2.81,30.33,2,10.25,3.5,19.82,3.65,30.3.14,10.15,2.91,20,3.1,30.18.2,10.58-.67,21.28.21,31.84.86,10.24,3.22,20.27,3.59,30.56.37,10.48-.48,21,.06,31.44s2.6,20.26,2.25,30.73c-.27,8.26-.25,16.22,1.17,24.38.8,4.62,1.53,9.25,1.89,13.93s.7,10-.65,14.65c-1.14,4-2.8,4.68-6.77,3.81a100.51,100.51,0,0,0-12.4-2.28c-5-.43-9.85.5-14.75,1.55-10,2.15-20.15,1.45-30.34,1.48-5,0-10,.22-14.9-.45-4.76-.66-9.45-1.74-14.22-2.36-10.31-1.32-20.76-.95-31.1-.14-10.8.85-21.56,2.22-32.39,2.77s-21.6.25-32.38.21c-21.12-.1-42.27-.75-63.06-4.72-10.68-2-21.4-.1-32.06-2.17-9.92-1.94-20-2.17-29.89-4.07-21.05-4-42.11-7.89-63.17-11.83-16.81-3.14-34.5-3.55-50.76,2.49a127.71,127.71,0,0,1-13.19,4.58c-5.45,1.35-10.8.67-16.33.43-8.95-.39-17.06,3.29-25.89,3.49-5,.11-10.05.45-15,.08s-9.6-2.3-14.52-2.84c-10.12-1.12-21,.67-31.08,1.49-21,1.72-42.18.08-63.14,2.05-10.23,1-20.54,3-30.85,2.63-10.69-.42-21-3.41-31.6-4.89-10.11-1.42-20.26-2.94-30.38-4.19s-20.1,0-30.17,0A55.7,55.7,0,0,1,88.76,431c-4.22-1.15-8.21-3-12.42-4.2C69,424.67,61,423.26,54.54,419c-7.59-5-8.28-14.3-9.38-22.5-1.44-10.69-2.68-21-3.07-31.82-.34-9.72-3-19.14-3.53-28.83-.59-9.95.09-19.92.32-29.87.23-9.77,1.17-20-.19-29.68-.58-4.13-1.89-8.1-2.59-12.21-1-5.56-.7-11.4-1.17-17-1.68-20.54-5.62-40.8-9-61.09-1.78-10.51-3.43-21-4.52-31.65s-1-21.08-1.52-31.67c-.92-19.81-7.15-38.75-10.65-58.15C5.47,43.9,6.94,23,6.5,2.13a1.55,1.55,0,0,0-3.09,0Z"/></g></g></svg>