<svg xmlns="http://www.w3.org/2000/svg" viewBox="0 0 951.98 90.7"><title>Asset 425</title><g id="Layer_2" data-name="Layer 2"><g id="Layer_1-2" data-name="Layer 1"><path d="M7.28,45.55c4-.86,5.73-3.85,5.65-7.84-.16-7.22-10.6-7.08-11.12,0-1,13.74-6.17,31.82,7.35,41.14,5.51,3.8,12.7,3.55,19.11,4.35,3.69.47,7.42.25,11.12.64,3.89.41,7.74,1.13,11.66,1.24,3.58.1,7.17-.14,10.75,0,4.33.15,8.53,1.33,12.85,1.63,8,.55,16-.16,24,.08,3.75.11,7.43.88,11.15,1.32a96.82,96.82,0,0,0,12.52.31,179.89,179.89,0,0,1,23.55,1.51c7.55.92,15.11.16,22.69.15,8,0,16,.37,24,.57,15.57.4,30.84-1.3,46.35-1.79,7.73-.24,15.51-1.36,23.25-1.83,8-.5,16-1.73,24-2.43s16.17-.39,24.25-1.07c8.26-.7,16.53-.53,24.78-1.39A948.58,948.58,0,0,1,435.4,77.25c8.34,0,16.68,0,25,.08,8,.06,15.89-1.33,23.88-1.69,16.51-.74,33-2.66,49.51-2.71,17.23-.05,34.45,0,51.68,0,7.74,0,15.25.52,23,.18,8-.36,15.88.79,23.86,1.33a59.35,59.35,0,0,0,12.57-.33c4-.57,7.88-1.81,11.88-2.27,3.69-.41,7.43-.14,11.13-.52,4.54-.45,9.06-1,13.6-1.46,8-.73,15.88-2.07,23.86-2.18,8.19-.11,16.06-.9,24.2-1.49,4.07-.3,8.15-.2,12.22-.45s7.89-1.12,11.87-1.43c7.8-.62,15.63.5,23.45.1,3.56-.19,7-1,10.57-1.28,4.31-.4,8.52-.34,12.82-1,7.43-1.22,15-.78,22.54-.79,16,0,32-2.73,48.07-2,8.2.39,16.37,2,24.56,2.7,8,.67,15.9.55,23.86,1s15.8,1.22,23.73,1.28c11.59.09,11.6-17.9,0-18-7.63-.06-15.2-.82-22.81-1.24-7.94-.45-15.88-.3-23.81-.94-8.23-.67-16.41-2.23-24.63-2.75-7.56-.48-15.21.26-22.77.42-7.82.17-15.53,1.46-23.37,1.47s-16-.63-23.76.38c-7.36,1-14.7,1.59-22.06,2.52s-14.63,0-21.9.06c-8,.1-15.86,1.68-23.88,1.94-7.82.26-15.44,1.74-23.28,1.79-16.06.11-31.81,3.58-47.81,4.15a84.55,84.55,0,0,0-11.79.95c-3.89.69-7.67,2-11.64,2.11-7.74.31-15.41-1.12-23.12-1.47-7.88-.36-15.67.88-23.55.22-8.13-.68-16.36-.27-24.52-.26-16.44,0-32.94-.42-49.36.48-8.1.44-16.18,1.14-24.26,1.71s-16.07.67-24,1.8-16.23.67-24.31.69q-11.69,0-23.36.06c-16.41,0-32.75,1.4-49.12,2.39-8.15.48-16.34.53-24.47,1.31s-16.13,2.08-24.25,2.48S309,67.83,300.8,68.14s-15.9.4-24,1.36c-14.91,1.78-30,3-45,3.63-7.55.3-15,1.61-22.58,1.85-7.75.25-15.5,0-23.24-.15-15.21-.39-30.36.63-45.46-1.07-7.67-.86-15.39-.52-23.08-.42-7.89.11-15.56-1.64-23.46-1.5-7.55.13-15.42.8-22.9-.38-7.67-1.2-15.1-.54-22.78-1.1-7.3-.53-14.83-1-22-2.06-2.73-.42-6.24.26-8.79-.79-3.15-1.29-3.68-4.24-3.91-7.24-.56-7.49-.69-15.05-.64-22.56H1.81v.83l3.82-3.83-1.23.35C-2.38,37,.47,47,7.28,45.55Z"/><path d="M14.63,44.49c-.33,1-.36.15.82.07s2.22-.42,3.34-.5a55.64,55.64,0,0,1,6.71,0c6.48.3,12.89,0,19.37-.31,16.36-.71,32.06,3.17,48.31,3.57,8,.21,15.85-.49,23.82-1s16.14-.21,24.19-.17a101,101,0,0,1,11.8.27c3.85.47,7.59,1.28,11.48,1.37a74,74,0,0,0,11.44-.36c3.46-.46,6.76-1.4,10.28-1.2,7.88.43,15.63,0,23.54.16,8.6.15,17.2.53,25.77-.53,8.39-1,16.74-2.38,25.15-3.41,3.69-.45,7.3,0,11-.26,4-.22,7.93-1.26,12-1.41,7.4-.26,14.84-1.78,22.19-1.7a204,204,0,0,0,22.93-.55c3.72-.37,7.43-.85,11.12-1.41,4.26-.65,8.37-.49,12.64-.77,7.52-.49,14.88-2.81,22.42-3s14.84-1.38,22.33-1.59c8.47-.23,16.95-.29,25.43-.26,17,.07,33.95.46,50.92.52a156.12,156.12,0,0,0,24-1.26c7.21-1.07,13.95,1.86,21.05.46,7.48-1.46,15.41-1,23-.89,8.28.07,16.56.28,24.84.35,17,.15,34,.09,51.07.12,8.24,0,16.52.22,24.77-.1,7.78-.3,15.3-1.36,23.11-1.21,7.54.15,14.86-1.64,22.4-1.57,8.73.07,17.46,0,26.18,0,8.21,0,16.69.76,24.8-.7,7.43-1.33,14.92-1.09,22.39-2.17,8.06-1.17,16.13-1.26,24.26-1.46,3.62-.1,7-1.12,10.59-1.39,3.72-.27,7.72,1,11.47,1.22,8,.48,16-1,24-1.34a116.37,116.37,0,0,0,11.65-.72c4.17-.59,8.33-2,12.51-2.39,3.45-.32,6.54-.23,10-1,4-.9,8.25-.46,12.33-.44,7.84,0,15.34,1.28,23.11,2.09,3.44.37,6.7,1.1,10.1,1.68,4,.69,7.63.57,11.5,1.91,1,.35,4.52,1.3,4.69,1.45,1.61,1.37,2.23,4.88,2.53,6.8,1,6.5.18,14.06.16,20.82,0,11.23,17.4,11.24,17.44,0,0-13.08,2.33-29.63-7.87-39.91-4.78-4.82-13.79-7.12-20.33-7.8-8-.82-16-1.93-24-3.19A150.61,150.61,0,0,0,870.59,0c-4,0-7.77,1.32-11.68,1.59a86.5,86.5,0,0,0-12.35,1.48c-8,1.7-16.19,1.51-24.36,2.27A108.76,108.76,0,0,1,799,5c-4-.46-7.64.74-11.58,1.12-4.39.43-8.93.11-13.35.3-8.41.37-16.67,2-25.08,2.24-7.82.27-15.25,2-23.08,2-9.17,0-18.34,0-27.52.07a186.06,186.06,0,0,0-24.87,1.25c-7.7,1.05-15.54.27-23.3,1.13-16.91,1.87-34.36.78-51.34.81q-26.21,0-52.41-.19c-8.47-.08-17.13-.42-25.58.35-3.25.3-5.74,1.36-8.88.74a45.29,45.29,0,0,0-12.35-.83c-4.14.32-8.17,1.28-12.33,1.51s-8.47.15-12.71.15q-13.21,0-26.42-.17c-17.6-.18-35.27-.55-52.87.24-3.89.17-7.65,1-11.52,1.47s-7.56,0-11.33.22c-8,.56-15.69,3-23.7,3-8.23,0-16.33,2-24.54,2.62s-16.25-.4-24.28.5c-16,1.8-32.07,2.54-48.09,4.38-8.64,1-17.11,3.05-25.82,3.36s-17.24-.27-25.85.11c-7.79.35-15.64-.57-23.32.93s-15.2.47-22.87-.4c-8.18-.92-16.7-.26-24.93-.23s-16.46.94-24.74,1.44a144.36,144.36,0,0,1-25.8-.42c-8.42-1-16.77-2-25.27-1.58-8.35.45-16.58,2-24.93,2.37a69.29,69.29,0,0,0-12.93,1.36c-4,1-8.39,3-9.33,7.36C4.86,47.71,12.9,50,14.63,44.49Z"/></g></g></svg>