<svg xmlns="http://www.w3.org/2000/svg" viewBox="0 0 438.9 18.89"><title>Asset 376</title><g id="Layer_2" data-name="Layer 2"><g id="Layer_1-2" data-name="Layer 1"><path d="M5.85,15.09a4.8,4.8,0,0,0,3.81,1.63,3.06,3.06,0,0,0,2.92-3.84,8.26,8.26,0,0,0-3.6-5,3.26,3.26,0,0,0-3.29,0C4.24,8.59,3,9.65,1.61,10.45c-3.31,1.88-1,6.79,2.53,6a4.37,4.37,0,0,0,1.63-.69,3.05,3.05,0,0,0-.72-5.49A4.48,4.48,0,0,0,3.27,10l1.65,6.11c1.4-.81,2.62-1.88,4.06-2.62H5.69a2.9,2.9,0,0,1,.81.73c.35.4-.15-.25.13.2a7.53,7.53,0,0,1,.41.8l1.81-4.46c-.3,0-1,0,0,.08.47,0,1,.21.43-.16a2.81,2.81,0,0,0-3.41,4.41Z"/><path d="M20.75,9.8h-.68c.47,0-.51,0-.68,0A2.26,2.26,0,0,0,17.17,12a3.74,3.74,0,0,0,1.71,3.21c.49.29-.43-.32-.13-.15a2.54,2.54,0,0,0,1.15.67,7.36,7.36,0,0,0,.8.12,4.67,4.67,0,0,0,1.39-.2A4.76,4.76,0,0,0,25.45,10c-.58-2.31-4.08-2.87-5.21-.68a4.11,4.11,0,0,0-.52,3,2.66,2.66,0,0,0,3.86,1.57,3.55,3.55,0,0,0,1.58-1.73L20,11.5c.2.68,0-.6,0-.15s.21-.81,0-.19c.27-.79.22-.48.08-.26s.54-.56.06-.12c-.3.29.66-.37.1-.08-.39.2.66-.21.23-.09l-.21.06-.2,0a4.61,4.61,0,0,0-.86.36l1.26-.34a1.14,1.14,0,0,1,1,.43c-.21-.22.12.18.14.21-.1-.14-.19-.48,0,.07l-1,2.51a1,1,0,0,0,.43-.26c.24-.21.29-.24.16-.09.19-.12.39-.22.59-.33a1.87,1.87,0,0,0-.94-3.46Z"/><path d="M43.61,15.65A3.79,3.79,0,0,1,43.19,14l-.35,1.27a1.39,1.39,0,0,0,.22-.37l.28-.66a1,1,0,0,1-.16.29l.73-.12a3.31,3.31,0,0,0,2.39-3.13,5.19,5.19,0,0,0-1.48-3.83l.54,4.14a4.43,4.43,0,0,0,1-2.89,3.14,3.14,0,0,0-3.92-3,5.36,5.36,0,0,0-3,2.43c-1,1.27-.37,3.06.53,4.14a.91.91,0,0,0-.07-.14l.83-3.16c-1.25,1.14-2.65,2.36-2.81,4.16a3.08,3.08,0,0,0,.26,1.64,2,2,0,0,0,.55.87c-.15-.19-.17-.2,0,0a16.43,16.43,0,0,0,1.69,1.94c1.26,1.25,4,0,3.22-1.87Z"/><path d="M68.75,10.25c-1.57.15-3.29-1.38-4.75-1.87a5,5,0,0,0-5.31,1c-2.53,2.59-2.92,9.21,1.85,9.49,6.38.39,12-10.94,3.77-12.6a3.09,3.09,0,0,0-3.38,1.38,8.63,8.63,0,0,0-.82,1.77c-.8,2.21,2.09,4.4,4,3.09a8.77,8.77,0,0,0,1.5-1.23l-2.92.77a2.26,2.26,0,0,1,.67.16c.3.21-.39-.23-.46-.31.33.35-.15-.23-.22-.39-.28-.73.21.89-.11-.48.11.5,0-.5,0-.14,0,.15-.26.67.06,0a6.83,6.83,0,0,1-.58,1c.35-.51-.23.25-.39.42a11.15,11.15,0,0,1-.89.79c-.29.23.41-.29,0,0a3.91,3.91,0,0,1-.44.26c-.24.14.57-.07.08,0s.48.12.2,0c.16.08.88.13,1.26.55.17.19.21.52.36.67-.24-.25-.11-.3,0-.73.13-.8.09-1.26.63-1.34,1-.15,2.19.42,3.15.59a7.37,7.37,0,0,0,3.17,0c1.47-.41,1.25-2.91-.38-2.76Z"/><path d="M91.43,12.17a9.29,9.29,0,0,0-5.15-3.83c-3.15-.78-5.48,1.81-5.37,4.85.25,6.69,10.42,4.78,11.56-.45a3,3,0,0,0-1.35-3.33A6.62,6.62,0,0,0,86,8.92,2.85,2.85,0,0,0,84,12a2.81,2.81,0,0,0,2.79,2.46,4.89,4.89,0,0,1,2.1.31L86.68,12a1.79,1.79,0,0,1,.24-.91c-.15.25-.1.2.16-.15-.19.2-.38.39-.58.57.55-.49-.21.09-.35.18l-.41.21c.33-.14.34-.15,0,0l-.42.12c-.32.06-.28.07.13,0h-.2q-.48,0,.18.06c-.29-.08-.24,0,.17.11a1.33,1.33,0,0,1,.48.49c.13.36.15.38,0,.08,0,.26,0,.22,0-.13s0-.35,0,0c.08-.29.07-.27,0,.07-.12.12-.91.72-.57.51-.34.22-.32,0,.08,0s.26,0,0,0l.43.09a4.72,4.72,0,0,1,2.35,1.31c1.49,1.6,4.29-.49,3.06-2.36Z"/><path d="M115.66,5.67c-5.83-1.38-12.16,2.49-12,8.87a2.76,2.76,0,0,0,2,2.62,6.69,6.69,0,0,0,7.58-5c1.2-5-4.88-6.46-8.28-4.15-2,1.35-1.36,4.75,1.28,4.72.72,0,1.39-.1,2.11-.18h.33c.53,0,0,0,0,0l.21.06-.77-.45a1.72,1.72,0,0,1-.4-.69,4.08,4.08,0,0,1,0-.78c0,.12-.25.59,0,.26a5,5,0,0,1-.61.73l-.21.14c-.09.06-.41.28-.19.1s0,0-.31,0l2.63,2c-.47-3.08,3.74-5,6.22-5.11,1.69-.06,2.17-2.62.41-3Z"/><path d="M138.17,13.16,138,11.91a2.16,2.16,0,0,0-1.5-2c-3.95-1.47-8.54-.79-10.34,3.48a2.85,2.85,0,0,0,.42,3.23c2.21,2.74,6.61,1.53,8.89-.41,2.92-2.48,2.56-7.59-1.55-8.61-2.74-.69-4.11,2.41-2.56,4.38a1.47,1.47,0,0,0,.49.5c.25.27.3.3.15.1s-.1-.3,0,0a1.15,1.15,0,0,1,0-.61c.19-.53-.19.09.16-.2-.08.06-.79.69-.43.44a2.2,2.2,0,0,1-1.35.57c.29,0,.27,0,0,0s-.33,0,0,0c-.3-.09-.29-.08,0,0s.24.22,0,0l.68,2.59c.6-1.84,2.74-1.87,4.39-1.59L134,12.46l.37,1.21c.61,2,4,1.73,3.78-.51Z"/><path d="M161.79,8.62c-1.5-1.9-4.67-2.89-7-2.86-3,0-5.78,2.54-4.9,5.72,1.5,5.4,10.41,3.28,12.42-.62a3,3,0,0,0-1-4A5,5,0,0,0,158.75,6c-2.17-.23-3.13,2.4-2.31,4a5.17,5.17,0,0,0,1.91,1.89l-1-4c-.29.56,0,.09-.1.16s-.1.11.14-.08a3,3,0,0,1-.42.27,7.67,7.67,0,0,1-.7.36c.52-.21-.23.06-.34.08s-1.2.24-.55.17a6.27,6.27,0,0,1-.75,0c-.65,0-.22-.16-.12,0-.31-.09-.26-.06.14.09a1.18,1.18,0,0,1,.41.39,1.43,1.43,0,0,1,.31,1.12c.06-.73-.46.42-.46.48,0-.12.22-.09.33-.11-.26,0,.55,0,.67,0a5.63,5.63,0,0,1,2.84.81c2.08,2,4.78-.93,3.08-3.08Z"/><path d="M178.57,11.66a12.79,12.79,0,0,0-.44-2.15v1.24h0a2.61,2.61,0,0,0-1.79-3.15,5.71,5.71,0,0,0-3.9.57,2.6,2.6,0,0,0-1.34,2.33,4.25,4.25,0,0,0,2,3.6,4.41,4.41,0,0,0,3.49.21,11.57,11.57,0,0,0,4.91-3.43c1.31-1.54,1-4.12-1.14-4.71-1.59-.44-2.53.58-3.55,1.54-.14.13-1,.85-.58.52-.38.27-.8.49-1.19.75s.4-.06-.11,0,.58.06,0,0a2,2,0,0,1,1.14.54c.35.39.43.45.24.17.13.35.15.36,0,0l-1.24,3.05c.11-.06.65-.33.53-.3s-.46.05,0,.09a2.48,2.48,0,0,0,2.21-1.26l0,0-1.41,1.07-.27.06-1.46-.61c.18.17.15.11.22.3.69,1.81,3.67,1.72,3.59-.48Z"/><path d="M200.38,10.6c.35-.22-.37,0,.07,0a2.83,2.83,0,0,0,.4-.08,3.13,3.13,0,0,0,1.52-.76,2.73,2.73,0,0,0,.8-2,3,3,0,0,0-.41-1.42c-.07-.12-.73-1.08-.34-.42a3,3,0,1,0-4.71,3.63A5.08,5.08,0,0,0,204,10.92a5.22,5.22,0,0,0,2.07-2.07,5.45,5.45,0,0,0,.6-1.88,3.16,3.16,0,0,0-.07-1.4l-.3-.7c.17.36.2.39.07.06a2.8,2.8,0,0,0-2.63-2,2.77,2.77,0,0,0-2.62,2c-.08.33-.05.3.09-.06l-.3.7s-.18.61-.18.61c.18-.38.22-.47.11-.27s-.05.12.21-.23c-.41.4.58-.26.07,0l.41-.16q-.47.12.3,0c-.54,0,.67.25.11,0l.37.17c-.22-.14-.23-.13,0,0s.18.15,0,0a2.6,2.6,0,0,1-.3-.36l-1.32,5c-.91-.15-1.18-.15-.81,0l-1.17-.69,0,0-.77-1.85v0l.36-1.31.3-.37L198.8,6s-1.09.88-.69.52a4.69,4.69,0,0,0-.81,1,2.27,2.27,0,0,0,3.08,3.08Z"/><path d="M221.67,10.55a1.87,1.87,0,0,1,1.72-1.16L222,8.8a2.8,2.8,0,0,0,2.26.95,2.7,2.7,0,0,0,2.62-2.32A2.64,2.64,0,0,0,225,4.51l-.23-.06,1.21.71-.33-.36A3.3,3.3,0,0,0,222,4.12a3.26,3.26,0,0,0-2,3.48,3.34,3.34,0,0,0,2.39,2.77,3.46,3.46,0,0,0,3.76-1.53l.24-.36-1.64,1.26.23-.09-2.06-4.88a3.15,3.15,0,0,0-1.5,2.62l1-1.72c-1.45,1.09-3.21,2-3.56,4.09a1.48,1.48,0,0,0,2.85.79Z"/><path d="M240.85,7.23c-2.78.6-4.14,3.11-4.45,5.74a2,2,0,0,0,1,1.73c4.55,2.28,11-2.41,10.67-7.35A2.54,2.54,0,0,0,246.28,5c-3-1.1-6.22-.2-7.25,3-.78,2.44,3.06,4.14,4.2,1.77,0-.09.35-.57.11-.36s.12,0,.2,0a6.7,6.7,0,0,1,1.45.26l-1.78-2.34c.25,2.63-2.63,3.81-4.81,3.62l1.92,1.47a2,2,0,0,1,1.32-2.36,1.48,1.48,0,0,0-.79-2.85Z"/><path d="M267.56,7.26a13.71,13.71,0,0,1-1.46-1.39l.54.93c-.43-2.09-2.9-2.55-4.65-2a2.8,2.8,0,0,0-1.65,4.06,4.56,4.56,0,0,0,6.31,2,6,6,0,0,0,2.19-2.16c.69-1.17,1.16-3.07.27-4.24a2.78,2.78,0,0,0-4.71,0,3.3,3.3,0,0,0-.49,1.73c.07-.46.07-.53,0-.23l-.05.17c.18-.41.2-.47.06-.21s-.11.21.15-.14c0,0-.6.61-.2.24.2-.15.21-.16,0,0s-.18.11.24-.09c-.29.08-.19.07.3,0-.22,0-.19,0,.08,0s.3,0,.08,0a1.32,1.32,0,0,1,.68.4q-.3-.3.06.15c-.08-.12-.15-.24-.22-.37l-.43,3.35c-.17.15-.93.29-.48.27a3,3,0,0,0,1.9-.84l-1.5.62c-.11,0-.26-.14-.06,0l.53.25c.41.19.82.37,1.24.52a1.61,1.61,0,0,0,1.91-.94,1.66,1.66,0,0,0-.66-2Z"/><path d="M291.28,5.19c-1.7-.56-3.37-1.71-5.41-1.83a5,5,0,0,0-5.36,4.21,3,3,0,0,0,1.36,3.34,8.39,8.39,0,0,0,11-3.44C293.75,5.9,293,3.4,291,3a7.67,7.67,0,0,0-1.79-.19,2.84,2.84,0,0,0-1.42,5.25,8.72,8.72,0,0,0,1.6.77l-1.8-4.44c-.84,1.47-2,1.61-3.47,1.08l2.17,2.85c0-.65-.07,0-.24.27a.58.58,0,0,1-.34.21c-.2.07-.16.06.11,0,0,.07.07,0,.42,0l1,0c.88.08,2.19.28,3.49.39,2.39.19,2.62-3.32.54-4Z"/><path d="M310.77,5.24l-.46-.13,1.27,1c-1-1.7-3-1.65-4.75-1.76A2.84,2.84,0,0,0,304,7.11c-.21,3,3.59,3.87,5.85,3.77,3.13-.14,5.73-1.64,6.16-4.93a2.64,2.64,0,0,0-1.38-2.39c-1.86-.8-3.89-1.26-5.72-.11-1.66,1-1.71,4.35.61,4.67a9.88,9.88,0,0,1,2.32.22L310.6,5.21c-.08.64,0,.23.27-.15-.21.2-.17.19.13,0l-.35.2c.69-.09-.19,0-.37.07-.51.14.44,0-.28,0h-.79c-.15,0-.3,0-.44,0,.39,0,.44.06.13,0s-.61-.38-.15,0a1.71,1.71,0,0,1-.23-.13,2.31,2.31,0,0,1,1.1,1.94L306.83,9.9c1.8-.13,3.65,0,4.75-1.69l-1.27,1,.46-.1c2-.43,1.82-3.32,0-3.84Z"/><path d="M340.24,5.49c.34,0-.52-.08-.65-.1-.47-.08-.93-.14-1.39-.2.18,0-.8-.11-1-.12a4.61,4.61,0,0,0-1.28.14c-2.4.6-3.13,3.1-2.24,5.22,2.08,4.94,8.61,1.22,10-2.33.63-1.64-.95-3-2.39-3.14a4.36,4.36,0,0,0-1.57.09,2.2,2.2,0,0,0-1,3.65,4.35,4.35,0,0,0,1.27.89l-.5-3.9c-.22.27-.41.56-.62.83l.09-.12-.28.32c-.17.16-.33.33-.5.48s-.58.45-.25.22a5.84,5.84,0,0,1-.8.48c.37-.18-.05,0-.21.06.31,0,.37,0,.18,0s-.12,0,.21,0a6.93,6.93,0,0,1,.6.4c-.24,0,.14-.72-.05-.15-.07.21-.6,1.18-.27.77-.22.16-.25.2-.11.12l-.1.05A3.88,3.88,0,0,0,338,9c.47-.11,1.47-.09,2.24-.15a1.67,1.67,0,0,0,0-3.33Z"/><path d="M359.32,8.67c1.82.46,3,0,3.62-1.76l-4.22-1.17c-.6,1.46.54,3,1.78,3.66a5.22,5.22,0,0,0,3.92.22,10.56,10.56,0,0,0,6.13-4.53,2.78,2.78,0,0,0-.42-3.29,6,6,0,0,0-9,.56c-.95,1.21-1.35,3.11,0,4.28a7.8,7.8,0,0,0,1.79,1.3c2,.93,4.56-.61,3.89-3a7.56,7.56,0,0,0-.93-2V6c.08-.11.54-.3.42-.39l-.42-3.29a5.3,5.3,0,0,1-2.46,2.06,3.68,3.68,0,0,1-1.09.3c.11,0,.26.14.36.16-.42-.1-.76-.55-1.26-.66-2.74-.58-3.91,3.52-1.16,4.23l.21.05-1.37-1.37c1.1-1.35,1.18-1.84.23-1.48a1.58,1.58,0,0,0,0,3Z"/><path d="M387.43,4.52a3.22,3.22,0,0,0-2.23.72,2.06,2.06,0,0,0-.57.57c-.53.69-.1.11.1-.11A3.19,3.19,0,0,0,383.85,8a3.14,3.14,0,0,0,1.5,2.61,3,3,0,0,0,3,0l1.23-.74a3.07,3.07,0,0,0-3.09-5.3l-1.19.81,4.44,1.81a.71.71,0,0,0,0-.2q-.57-1.35-.06-.15l.1.77a.76.76,0,0,1,0-.15l-.11.76c.12-.46-.08-.14-.58,1,.18-.17.07-.09-.34.25a2.7,2.7,0,0,0,1.22-3,2.78,2.78,0,0,0-2.56-1.95Z"/><path d="M408.62,4.94l-1,.24a2.48,2.48,0,0,0-1.72,3,4.24,4.24,0,0,0,3,2.81,4.67,4.67,0,0,0,2.23,0,2.72,2.72,0,0,0,1.82-1.82c-.24.68,0,.11,0,0s0-.12-.09.05-.16.19,0,0a3,3,0,1,0-5-1.31c.07.22.07.21,0,0s0-.26,0,0a5.59,5.59,0,0,0,0,.57L409.73,6l-.28.07c.46,0,.56-.06.29,0s-.17,0,.32.06q-.37-.1.27.15c-.49-.4.35.34,0,0-.16-.19-.12-.12.14.19L410,5.81l-.5,3.87.87-.54a2.3,2.3,0,0,0-1.77-4.2Z"/><path d="M428.73,8.61a2.19,2.19,0,0,1,1.31.17l-.76-1c.59,1.82,2.92,2.92,4.78,2.94a5,5,0,0,0,4.79-4.35c.56-3.4-4.16-4.85-5.24-1.45a5.58,5.58,0,0,1-.69,2l.87-.87c-.41.32.13-.13.3,0A4.29,4.29,0,0,0,433,5.72a3.48,3.48,0,0,0-2.91.2l1.27-.17a5.93,5.93,0,0,0-3,0c-1.48.46-1.31,3.08.38,2.85Z"/></g></g></svg>