<svg xmlns="http://www.w3.org/2000/svg" viewBox="0 0 28.42 486.63"><title>Asset 413</title><g id="Layer_2" data-name="Layer 2"><g id="Layer_1-2" data-name="Layer 1"><path d="M19.26,9.27l.53-.54C25,3.45,16.26-3.8,11.54,2.36,8.84,5.9,9.15,11.42,8.61,15.72A127.87,127.87,0,0,0,8,29.83l2.75-6.66-.86.72C4.49,28.32,8,36.7,13.74,38.54l1.16.37C23.52,41.66,28.57,32,25.53,25.08c-1.5-3.41-1.76-7.5-2.22-11.15-.49-3.87-.27-8.38-2.7-11.57L12.36,8.73l.53.54a4.58,4.58,0,0,0,6.37,0Z"/><path d="M19.31,59l.48-.71L14.93,52c-7,2-5.45,9.37-5.42,14.93,0,3.12-.73,6.17-.68,9.29,0,2.74,1,5.46,1,7.91a9.42,9.42,0,0,0,9.28,9.28c5.47,0,8.74-4.27,9.29-9.28.35-3.27-1-5.58-1.84-8.59s-.65-6.09-1.16-9.07c-.88-5.2-2-13.13-8.14-14.47-3.4-.75-7.09,3-4.86,6.32l.48.71a3.81,3.81,0,0,0,6.47,0Z"/><path d="M8.34,116.88a48.39,48.39,0,0,1,.75,13.86c-.4,4.8-1.67,10-1.13,14.84s3.25,8.83,8.34,9.44c4.21.5,9.89-2.1,10.54-6.89a92.89,92.89,0,0,0,.38-19c-.44-6-1.22-13.12-4.86-18.15-5.09-7-15.72-2.89-14,5.91Z"/><path d="M5.9,172.58c-.24,2.86,0,5.37-1,8a39.08,39.08,0,0,0-2.76,11.67c-.67,7.94-2.45,17.65,1.81,24.8a9.05,9.05,0,0,0,14,1.8c3.73-3.72,3.57-11.7-1.81-14-3.07-1.33-6-1.91-9,0l12.24,3.21c-1.17-2.34-.8-5.35-1-7.94-.3-4-1-8.16-.9-12.16.09-3,1.14-5.79.5-8.89s-3.34-4.88-3.88-7.59c-1-4.9-7.83-3.3-8.2,1.11Z"/><path d="M3.2,244.18c-1.36,3.55-1.2,7.53-1.36,11.29-.18,4.08-.43,8.15-.55,12.23-.06,2.27.12,4.55.05,6.82-.07,2-.81,3.07-1.17,5.23-1.16,6.84,3.83,12,10.72,10.73,9.18-1.64,9-12.4,8.24-19.48-.41-3.9-.48-7.84-.65-11.77-.22-4.88.23-10.45-1.54-15.05-2.58-6.73-11.15-6.74-13.74,0Z"/><path d="M5.28,310.89a300.58,300.58,0,0,0-1.82,41.68c.32,12.36,18.91,12.38,19.22,0a299,299,0,0,0-1.81-41.68c-1.18-10-14.41-10-15.59,0Z"/><path d="M7.09,383C5,390.64,4.93,398.68,4.58,406.52c-.36,8.26-.93,16.53.72,24.69,1.56,7.69,14,7.69,15.55,0,1.59-7.87,1.06-15.79.75-23.75-.3-7.7-1.9-15.15-2.36-22.78C18.83,377.92,9,376,7.09,383Z"/><path d="M6.7,454.27c.69,3.48-.44,7.09-.89,10.53a48.1,48.1,0,0,0-.7,6.64c0,2.57,1.13,4.71,1.31,7.12.3,4,2.86,7.51,7.07,8,3.69.44,8.24-1.79,9-5.84a13,13,0,0,0,0-6.33c-.4-1.38-1.41-2.64-1.73-4-.57-2.37-.33-5.2-.39-7.68-.14-5.87-.42-11-5.35-14.82-4.28-3.3-9.13,2.13-8.29,6.38Z"/></g></g></svg>