<svg xmlns="http://www.w3.org/2000/svg" viewBox="0 0 1104.15 50.43"><title>Asset 401</title><g id="Layer_2" data-name="Layer 2"><g id="Layer_1-2" data-name="Layer 1"><path d="M7,38.71c5.89.82,11,4.07,16.76,5.44,8.31,2,15.53,1.71,23.28-2.06,8.15-4,8.53-18.18,0-22-4-1.82-7.71-3.13-12.22-3.06-3.49,0-6.7,1-9.14,1.09-6.43.23-12.53-.2-18.68,2.22C3,21.88,0,25,0,29.51c0,3.81,2.93,8.63,7,9.2Z"/><path d="M92.31,21.88c-5.83-3.09-10.43-2.35-16.26.28-5.52,2.48-7.89,10.23-6.39,15.69A14.27,14.27,0,0,0,83.07,48.06c6.87.19,13.73,0,20.61.55,3.74.28,4.09.4,7.49.89,6.68,1,11.86.44,17-4.38,4.63-4.35,4.67-11,2.11-16.36-4.56-9.53-16.56-9.42-25.69-9.54a169.73,169.73,0,0,0-21.5,1l12,20.91q-1.51,1.76-.24.29c5-5.76,5-15.6-2.52-19.58Z"/><path d="M150.16,43.52C155,48.18,163.35,50.42,170,50c8.37-.54,17.09,2.5,24.6-2.52,8.93-6,8.77-17.79,0-23.8-6.61-4.53-19.39-4-26.88-1.34a36.14,36.14,0,0,1-3.44,1.36c1.63-.4-1.46-.12-2-.15-4.75-.23-8.8.72-12.12,4.32-4,4.32-4.46,11.37,0,15.65Z"/><path d="M219.69,43.72c5.25,6.28,15.49,6.81,23.13,6.39a57.06,57.06,0,0,0,7.26-.86c3-.55-1.55-.43,2-.18,4.35.3,8.74-.16,12.43-2.74,14-9.76,5.33-30.12-11.42-27.09-3.41.61,1.65.23-.35-.15s-4.4.37-6.25.66A76.58,76.58,0,0,0,239,21.52c-5.38,1.4-10.45.06-16.83,3.36-7.39,3.82-7.09,13.27-2.43,18.84Z"/><path d="M297.8,43.67c6.09,3.77,15.11,4.31,22.11,3.7,1.47-.13,2.93-.34,4.39-.53l5.69-.76c2-.28,2.27-.31.91-.12,5.66-.6,10.36-1.32,15.5-3.89,5.78-2.89,8.43-10.67,6.78-16.66A15.12,15.12,0,0,0,339,14.57c-7.59-.22-15.13,2-22.47,3.7-3.19.72.62,0-.91.2s-3,.38-4.53.6-1.8.29-.85.18c1.31-.15-2.44.2-2.91.23a46.35,46.35,0,0,0-6.42.71c-11.31,2.28-11.9,18-3.07,23.48Z"/><path d="M372.1,32.15c2.54,11.92,20.62,13.47,30.45,14.14,3.89.26,7.71-.2,11.58-.1,5.84.15,12.54-1.33,16.43-6.14,4.2-5.19,5.89-11.84,2.32-17.95s-10.22-8-16.73-6.8q10.11.06,1.13-.78c-.84-.06-1.69-.08-2.54-.07a45.77,45.77,0,0,0-7.41.63c-.53.08-6.37,1-3.94.68-2,.27-4.13.35-6.18.45-4.24.2-8.53.42-12.75.77-7.91.64-14.1,7-12.36,15.17Z"/><path d="M462.77,42.74C466,45.07,470.66,46,474.55,47a58.71,58.71,0,0,0,13.68,1.42c9.82.14,20.24,1.72,29.14-3.34,9.38-5.33,9.38-19.61,0-24.94-8.6-4.89-19.55-3.91-29.14-3.28-1.65.11-3.28.38-4.92.51-.62.05-6.36-.06-3.81.18-6.06-.57-11.16-1.8-16.73,1.9-8.94,6-8.36,17.26,0,23.32Z"/><path d="M567.09,28.07l-2-1.88L553,46.88c4.2,1.46,9.88.57,14.29.18,5.11-.45,10.2-.17,15.29-.56a108.55,108.55,0,0,1,12.87-.65c8.35.33,14.77-3.22,19.49-10,9-12.89-8.52-29-21.17-21.17l4.81-1.25-1.23.06a21.32,21.32,0,0,0-2.53-.08,49.55,49.55,0,0,0-9.09.73c-2.19.34-4.34.84-6.52,1.23-2.68.48,1.95-.09-.83.1-1.42.1-2.84.14-4.27.28-6.59.66-11.3,2.44-17.4,4.74,1.45-.54.73-.37-.32,0a32,32,0,0,0-5.08,2.16c-3.69,2.07-5.47,5.13-7,9-2.73,7,3.64,14.56,10.3,15.46,8,1.08,13.13-4.78,14-12.16.3-2.5.47-5-1.58-6.88Z"/><path d="M639,39.27c7.53,4,18.1,4.46,26.51,4.74a89.57,89.57,0,0,0,10.74-.46c6.89-.6,11.26-2.44,16.64-6.7,8-6.34,3.78-18-2.94-22.82-5.12-3.7-11.19-4.07-17.21-3.1-1.76.29-3.52.64-5.27,1-5,.91,2.29.08-2.87.32-8.2.39-18.25.74-25.6,4.68-8.43,4.51-8.45,17.88,0,22.38Z"/><path d="M719.51,29.85c5.54,6.21,17.84,7.36,25.58,7.06,10.23-.4,20.67-1.49,29.84-6.09,8.66-4.34,9.11-19.28,0-23.48-6.79-3.13-12.55-4.16-20-2.74-3.86.74-7.57,2.08-11.38,3-3,.75-6.15,1.19-9.22,1.79-.92.19-1.85.36-2.77.51,1.17-.16,1-.17-.57,0a21.85,21.85,0,0,0-6.44.76c-8.5,2.68-10.88,12.65-5.06,19.17Z"/><path d="M803.43,14.9l-.06.23c-1.15,4.24-.1,9.64,3.34,12.63,6.7,5.86,14,8.14,22.65,9.55A99.47,99.47,0,0,1,840.8,40c7,2,12.5,1.58,19-1.64,5.45-2.7,8.1-9.67,7.34-15.32-.87-6.5-5.16-10.43-11-12.79q2.28.77-1.15-.57a9.92,9.92,0,0,0-3.7-1.19c-1.69-.45-3.41-.86-5.14-1.14a59.1,59.1,0,0,0-11.8-.86c-2.85.1-5.66.24-8.52.14-1.52-.06-3-.08-4.55-.11-2.68,0,1,.44-2-.45-6-1.8-11.26,1.35-14.65,6a6.76,6.76,0,0,0-1.25,2.87Z"/><path d="M893.86,29c4.13,2.56,8.9,1.71,12.66,2.52,5,1.09,10.13,1.71,15.22,2.33,11.44,1.39,24.64,5,35.3-.46,9.81-5,9.49-20.46,0-25.58-6.6-3.56-13.24-3.27-20.48-3.51a153.91,153.91,0,0,0-17,.24c-10.38.79-26.42,1.25-30.22,13.25-1.35,4.25.92,9,4.57,11.21Z"/><path d="M996.75,29.85c.9,0,3.33.35,1.16-.05,1.26.23,2.49.55,3.74.85a86.88,86.88,0,0,0,8.8,1.65c10.41,1.4,20.63,3.61,29.15-4.18,5.76-5.26,5.75-15.82,0-21.08-8.75-8-17.66-5-28.15-4.43-6,.31-12.34.43-18,2.67s-9.95,7.15-9,13.72a12.49,12.49,0,0,0,12.28,10.85Z"/><path d="M1067.51,20.49c9,3.25,18,7.83,27.84,4.52a12.49,12.49,0,0,0,0-23.86c-9.8-3.31-18.86,1.27-27.84,4.52a7.76,7.76,0,0,0,0,14.82Z"/></g></g></svg>