<svg xmlns="http://www.w3.org/2000/svg" viewBox="0 0 52.65 409.06"><title>Asset 403</title><g id="Layer_2" data-name="Layer 2"><g id="Layer_1-2" data-name="Layer 1"><path d="M7.53,1.14c-4.17,2.08-5.82,6-6.08,10.41a36.23,36.23,0,0,1-.56,6.07c-1.24,7.3-1,14.25-.48,21.58C1.27,52,2.65,64.73,2.71,77.58c0,2.68.69,5.29.9,8-.18-2.27,0,.85,0,1.07a90.05,90.05,0,0,0,1.22,13c.26,1.56.57,3.12.81,4.68-.39-2.54.17,1.4.23,2,.38,3.8.61,7.62.73,11.43.43,13.78.12,27.68-.65,41.44C4.38,186.82,4.1,214.51,4,242.23c0,7.06-.31,13.87,1,20.86.14.73,1,5.85.42,1.25.13,1.09.17,2.21.28,3.31.3,2.77.81,5.51,1.12,8.27-.52-4.54,0,1.08.05,1.59.15,2.89.22,5.72.58,8.6-.46-3.68,1.09,11.6.67,5.08.09,1.39.18,2.78.28,4.17a38.93,38.93,0,0,0,1,6.88c.24.94,1.78,2.95.62,1.12L10,302.31c0,1.15,0,2.3-.05,3.45,0,2-.07,4,0,6a75,75,0,0,0,1.6,13.35c.23,1.09,1.41,4.54.28.3A23.34,23.34,0,0,1,12,331.1c0,6.52-.58,13.06-.77,19.57-.23,7.49-.81,14.68.19,22.14a40.54,40.54,0,0,0,1,5.62q1.14,3,2.47,6c.75,1.66.82,1.83.19.51-.23-1.2-.29-4.87-.66-1.31-.21,2.07-.18,4.22-.23,6.31-.22,10,9,19.58,19.13,19.12,10.52-.47,18.92-8.4,19.12-19.12a82.08,82.08,0,0,0,.06-9.41c-.52-5.39-2.46-8.88-4-14,1.8,5.94-.4-2.35.47,1.21.7,2.83-.07-2.26-.08-2.43-.1-3.46.12-6.93.28-10.39.59-12.72,2.37-26.56-.85-39-1.34-5.2-.2,3.61-.36-1.59,0-1.11-.1-2.23-.13-3.35-.06-2.87.2-5.75.06-8.62a41.12,41.12,0,0,0-1.25-8c-.39-1.48-2.26-4.11-.37.33a16.67,16.67,0,0,1-.24-3.48q-.41-3.37-.89-6.74t0,0c-.28-2.87-.27-5.74-.5-8.62s-.65-5.62-1.07-8.32c-.13-.83-.35-3.68,0,.16a106.72,106.72,0,0,0-1.41-11.53c-.17-.88-.68-5.76-.46-1.2-.1-2,0-4.11,0-6.16.34-28-1.1-55.88,0-83.82.56-14.14.68-28.31.21-42.45A209.54,209.54,0,0,0,40,100.69c-.26-1.88-.53-3.76-.87-5.63,0,.16-1.14-6-.68-2.85-.69-4.61-.66-9.3-1.37-13.93-.09-.56-.28-3.56-.16-.7-.09-2.27,0-4.55-.19-6.82-.33-4.56-1.23-9.13-1.93-13.65-1.13-7.39-2-14.8-4-22C29.87,31.51,28.89,28,28,24.36s-.4-5.76-1.44-9.83C24.55,6.45,16.57-3.38,7.53,1.14Z"/></g></g></svg>