<svg xmlns="http://www.w3.org/2000/svg" viewBox="0 0 35.81 74.37"><title>Asset 396</title><g id="Layer_2" data-name="Layer 2"><g id="Layer_1-2" data-name="Layer 1"><path d="M4.21,7.12C2.5,15.51.72,23.8.11,32.39c-.7,9.87,2.05,20.83,4.3,30.43,1.81,7.73,10,12.43,17.49,11.42,7-.94,14.87-7.8,13.82-15.66A40.23,40.23,0,0,0,32.93,47.7c-1.43-3.39-1.06-2.42-2.13-5.18-1.78-4.62-3.66-8.9-4.11-13.86-.22-2.5-.34-5-.62-7.49-.23-2-.58-4-.9-5.92.21,1.27.17,1.23,0,0C24.37,9.42,23.33,5,18.29,1.39c-4.86-3.48-12.92,0-14.08,5.73Z"/></g></g></svg>