<svg xmlns="http://www.w3.org/2000/svg" viewBox="0 0 115.27 13.9"><title>Asset 370</title><g id="Layer_2" data-name="Layer 2"><g id="Layer_1-2" data-name="Layer 1"><path d="M3,6.05l-.08.08-1.44.19c1.61.53,3.7-.23,5.43-.2s3.47.17,5.2.1a2.49,2.49,0,0,0,0-5C8.23,1.07-.11-.89,0,5.24a1.63,1.63,0,0,0,3,.81Z"/><path d="M26.56,5.75a22.53,22.53,0,0,0,6.56.4,2.42,2.42,0,0,0,0-4.83,22.53,22.53,0,0,0-6.56.41,2.1,2.1,0,0,0,0,4Z"/><path d="M53.81,2.24l.06.56.56-1.36-.14.12a2.25,2.25,0,0,0-.17,3,2.24,2.24,0,0,0,2.93.59,10.93,10.93,0,0,0,1.66-1.3A2.25,2.25,0,0,0,56,.3a10.31,10.31,0,0,0-1.69,1.26L55.9.89h-.11l1.65,1-.27-.5a1.8,1.8,0,0,0-3.36.91Z"/><path d="M81.15,7.14l.21,1.24a1.59,1.59,0,0,0,1.12,1.11,7.47,7.47,0,0,0,1.63.32,1.56,1.56,0,0,0,1.55-1.36,1.61,1.61,0,0,0-1.13-1.73,6.14,6.14,0,0,0-1.21-.31l1.12,1.12-.36-1.2a1.52,1.52,0,0,0-2.93.81Z"/><path d="M108.11,7.68c-.45,0-.9.09-1.35.11a2.37,2.37,0,0,0-2.23,1.7c-.66,2.66,1.38,4.62,4,4.39a10.8,10.8,0,0,0,3.4-.88l1-.47c.24-.11,1.31-.61.37-.22a2.71,2.71,0,0,0,1.92-2.93,2.67,2.67,0,0,0-2.63-2.31,9.16,9.16,0,0,0-3.86,1.19c-.25.12-.49.25-.74.36.59-.26-.29.06-.38.1s.1-.07.36,0a1.66,1.66,0,0,1,1,.68c.1.31.11.33,0,0l-1.07,2.61c.41-.21.82-.4,1.23-.58,1.84-.83,1-4-1-3.84Z"/></g></g></svg>