<svg xmlns="http://www.w3.org/2000/svg" viewBox="0 0 322.9 103.81"><title>Asset 383</title><g id="Layer_2" data-name="Layer 2"><g id="Layer_1-2" data-name="Layer 1"><path d="M5.83,19.43c-.28,2.38-1.66,4.71-2.07,7.11a74,74,0,0,0-.57,8C2.77,41.52,2,48.45,1.7,55.39c-.39,11-2.56,21.9-1.32,32.93C2,102.5,17.82,96.48,27.14,97.2c6,.46,11.63,1.14,17.67,1,6.92-.13,13.85,1.33,20.76,1.87,13.46,1.06,26.84,3.33,40.35,3.69,6.65.18,13.72-.43,20.37-.93,6.5-.49,13-.6,19.52-1.16,29.06-2.51,58.15-2.49,87.26-1.58,6.21.19,12.43.35,18.64.37,6.78,0,13.72-1.13,20.51-1.56,12.51-.8,25.13-.86,37.52-2.81,5.72-.91,10.83-1.54,12.57-8.15,1.26-4.79.15-9.54-.21-14.34-1-13.25-.58-26.47-1.9-39.69-.58-5.83-1.75-11.27-5.12-16.16-4.15-6-9.75-8.06-16.89-8.29-12.43-.42-24.95,1.21-37.26,2.81A230,230,0,0,1,219,14c-13.74-.76-27.49-.7-41.21-1.33a212.66,212.66,0,0,1-24.54-2.59c-7-1.16-13.73-3.47-20.75-4.46C117.66,3.56,102.92.65,87.94.08,72.63-.5,57.45,2.14,42.31,4c-6.91.83-13.85,1-20.72,2-6.05.86-12.29.4-17.25,4.45-3.4,2.77-2.88,8.6,0,11.47,3.35,3.36,8.06,2.78,11.46,0l.57-.46-3.58,2.09c3.42-1.36,8.49-1.52,12.43-1.83,5.71-.43,11.38-.79,17.09-1.47,12.19-1.47,24.18-3,36.43-3.77,11.76-.75,24,.72,35.58,2.58,5.33.85,10.68,1.63,16,2.52,6.28,1.06,12.32,3.12,18.62,4.16a212.7,212.7,0,0,0,37.27,3.14c12.23-.17,24.44,1.11,36.65,1.42a247.11,247.11,0,0,0,38.07-1.94c11.3-1.49,22.72-2.88,34.11-2.87,2,0,5-.52,6.62.83,1.43,1.21,2.09,4.11,2.42,5.85A92.9,92.9,0,0,1,305.5,50c-.08,6.68.5,13.28.64,19.95,0,1.84.07,3.66.27,5.49,0,.46.63,4.87.48,3.5.08.76.16,1.52.19,2.27,0,.51-.5,3,.08,2.15L310,80.54c1.62-.91-3.67.26-2.81.12-1.1.18-2.15.48-3.24.67a70.66,70.66,0,0,1-8.84.81c-6.09.28-12.12.56-18.19.92-12.12.73-23.92,2.2-36.08,2.09-13.26-.13-26.52-.74-39.79-.53s-26.68,1.29-40,2.08c-25.52,1.49-51.35,4.92-76.83,1.7C78,87.62,71.81,87,65.57,86.49c-6-.45-12.12-1.73-18.17-1.84-5.85-.11-11.5.27-17.34-.38-5.67-.62-11.16.53-16.82.71-1,0-4.6-.64-2.05,1,1.79,1.11.9-.34.74-1.92-.28-2.83-.92-5.69-1.12-8.51-.45-6.06,1.16-12.22,1-18.3-.21-6.93.17-13.86-.1-20.82-.13-3.43-.35-6.83-.27-10.26.06-2.18.48-4.54.22-6.69a2.91,2.91,0,0,0-5.81,0Z"/></g></g></svg>