<svg xmlns="http://www.w3.org/2000/svg" viewBox="0 0 30.72 480.07"><title>Asset 409</title><g id="Layer_2" data-name="Layer 2"><g id="Layer_1-2" data-name="Layer 1"><path d="M15.36,0c-4.08.61-8,2-10.85,5.07A9.58,9.58,0,0,0,4.8,19C9.67,23.6,18,22.42,20.93,16.22A9.76,9.76,0,0,0,19.49,5.4c-1.9-2.22-4.35-3.31-7-4.38L10.7,14.2a8.57,8.57,0,0,0,4.26-1c4.73-2.08,3.67-8.8,0-11.17A8.71,8.71,0,0,0,10.7.78C7.81.5,5,3.06,4.23,5.71s.41,6.39,3.08,7.58c1,.45,2,1,3,1.46s-.21-.29-.55-.86A2.7,2.7,0,0,1,9.51,11c.65-1.08,1.39-1.08,2.42-.77-.78-.23-.16-.45-.13,0,0,0,.41,1.69.29,1,0-.39,0-.28-.06.32l.13-.42c-.19.43-.19.48,0,.15a4.9,4.9,0,0,1,.38-.62c-.41.59.56-.63.56-.64.31-.32.64-.63,1-.95a19,19,0,0,1,3.74-3.31C21.07,3.86,18.7-.46,15.36,0Z"/><path d="M16.73,31.09c-.89-.42.39.54-.26-.11.36.36.31.43,0,0s-.58-.93-.85-1.41L16.3,32a14.58,14.58,0,0,0-.25-1.86A5.77,5.77,0,0,0,11.23,26,5.88,5.88,0,0,0,5.46,28.8C3.1,32.37,4.65,37.27,7,40.47c3,4.18,8.37,7.75,13.55,4.71,5.64-3.3,5.68-11.06,1.06-15.28a12,12,0,0,0-7.9-3.42,9.78,9.78,0,0,0-4.73,1.23,8.69,8.69,0,0,0-3.89,5c-1.77,4.69,3.75,10.32,8.48,8.48a6.29,6.29,0,0,0,.88-.22s-2.11.19-1.23.18c-2.32,0-1.76-.31-1.1-.11a2.39,2.39,0,0,0,.51.13c.41,0-1.32-.71-1-.42a1.94,1.94,0,0,0,.48.28c.54.16-1.2-1-.81-.64.09.09.93.81.9.83s-1.13-1.59-.69-.85S11,39.26,11,39.31a5.53,5.53,0,0,1,1.43-5.22c-.55.59,1-.76.94-.71A6.82,6.82,0,0,1,16,32.64c-.68,0,1.88.33,1.18.16-.29-.06-.85-.31.25.16s.09,0-.22-.19c-1-.57,1.12,1,.21.17a11.79,11.79,0,0,1-.94-.93c-.13-.15-.25-.32-.38-.45.09.09.85,1.27.46.57-.17-.32-.37-.64-.56-1-.45-.73.64,1.54.15.21-.09-.25-.15-.89,0,.28.06.63.09.79.07.5q-.06-2-1.37,3.35l-4.79,1.27c.49.1.4,0-.27-.22-.49-.4-.55-.44-.15-.13s.91.74,1.4,1.05a8.4,8.4,0,0,0,3.65,1.11c3.92.42,5.59-5.88,2-7.51Z"/><path d="M18.66,67.86c-2.23-1.35-4.45-2.71-7.15-2.83C7.26,64.83,4,67.84,3,71.86.62,81.61,13.32,88.29,21.18,84,28,80.33,27.11,72,23.12,66.56c-2.31-3.14-5.87-6.52-10-6.52a9.51,9.51,0,0,0-8.73,6.67C3.27,70.26,4.22,73,6.46,75.8c2.86,3.57,9.71,2.51,11.63-1.5.35-.72.67-1.46,1-2.21q1.23-3.32-3.84,3.69L9,75c.37.17.68.4,1,.58,1,.52-1.61-1.52-.25-.15.36.36.74.7,1.09,1.06.18.18.36.37.53.56q.76.92-.51-.69a6.64,6.64,0,0,0,.77,1.22c.34.7.21.4-.39-.92.21.76.18.38-.08-1.14,0,.77.08.38.21-1.18A5.26,5.26,0,0,1,12.86,72c-.51.48-.26.29.75-.58,1.21-.46,1.42-.56.66-.31s-.6.15.42,0c-.73,0-.54,0,.6.12-.72-.23-.64-.17.24.17a8.73,8.73,0,0,1-.93-.55c.67.54.74.56.2,0a3,3,0,0,1,.72,1.39,3.65,3.65,0,0,1-1.9,4,3.23,3.23,0,0,1-1.77.48q.35,0,.69,0c1,.09-1.28-.22.35,0a13.93,13.93,0,0,0,4.6,0c1.85-.25,3.29-2.39,3.49-4.06a4.92,4.92,0,0,0-2.32-4.85Z"/><path d="M11.7,114.2c9.83,0,9.84-15.28,0-15.28s-9.85,15.28,0,15.28Z"/><path d="M14,123a6.23,6.23,0,0,1-.81-1.33c-1.24-2.36-4.85-4-7.45-3C-.68,121.08-.33,129,.36,134.7,1.13,141.18,4,149,11.85,148.86c9.59-.19,14.51-13.18,10-20.8a13.77,13.77,0,0,0-11.46-6.52c-7.15.19-10.82,6-9.73,12.73s12.4,8.37,15.17,2a2.15,2.15,0,0,1,.52-.9l-3.09,3.09c1.22-.86.27-.68-2.87.54-1.38-.26-1.74-.28-1.05-.07s.35.1-.8-.33c.8.51.64.37-.5-.42l-1.56-2.64c-.1-1.27-.13-1.38-.07-.33l0,1.12c0,.62,0,.5.1-.37q-.63,2.13,1.09-1.34l.94-.68a6,6,0,0,1,6.22.52c.59.49.68.53.26.12.77,1,.93,1.22.5.53-.37-.41-.59-1.85,0,0-.32-1.07-.68-2.11-.92-3.2-.14-.65-.25-1.31-.36-2s-.07-.38.06.49c0-.36-.08-.72-.11-1.08-.06-.94-.08-1.87-.1-2.81,0-1.29,0-.18-.11.49.22-1.89.41-3.71-.79-5.38l-7.45,9.7-.08,0a6.3,6.3,0,0,0,7.38-.95c1.81-1.8,2.49-5.19,1-7.38Z"/><path d="M17.41,176.31c.66-2.22.21-5.42-.45-7.61-1-3.37-4.45-4.4-7.45-3-3.58,1.64-5.5,5.61-5.75,9.41-.29,4.46,1.94,8,5.58,10.48,2.15,1.44,4.88,1.08,7.05,0,3.73-1.83,6.57-5.87,7.66-9.82a12.48,12.48,0,0,0-3-12.14,15.1,15.1,0,0,0-10.22-5.09c-5.13-.13-10.08,4.16-9.53,9.55.32,3.16,2.06,6.37,5.44,7.14,3.09.71,6.81-.42,8.36-3.4.67-1.2,0-.62-1.88,1.71-3.23.49-4.14.79-2.75.91-1.5-.26-1.84-.28-1,0-1.23-.55-1.46-.64-.69-.25.38.26.8.53,1.2.78.68.5.53.36-.47-.4.23.18.45.38.67.59.56.61.4.38-.48-.7.38.64.26.37-.34-.82l-.16-1c0,.84,0,.75.07-.28-.14.45-1.15,2.51-.33,1.17a11.06,11.06,0,0,1-.63,1,2,2,0,0,1,1-1h7.05c-1.41-.6-.77-.52,0,.46-.37-.63-.38-.57,0,.2-.17-.71-.2-.66-.08.14a7.36,7.36,0,0,1,0-1c-.09.71-.06.72.1,0s.35-1.26.6-1.87l-7.45,3a5.12,5.12,0,0,0,2.22.9.74.74,0,0,1,.55.29c-.38-.71-.52-.73-.4-.05,0,3.2,4.62,3.78,5.53.75Z"/><path d="M1.32,208.44c-1.79,5.22.32,12.16,4.55,15.65,3.23,2.67,7.5,3.77,11.37,1.7,2.53-1.36,4.2-3.66,5.69-6a16.47,16.47,0,0,0,3-9.1,13.32,13.32,0,0,0-4.16-9.56,11.46,11.46,0,0,0-10.64-2.5,11.88,11.88,0,0,0-5.1,3,10.55,10.55,0,0,0-3.18,7c-.61,4.64,5.2,8.51,9.31,7.09a15.88,15.88,0,0,0,4-2.17l-.59.43c.65-.36.67-.39.05-.09s-.6.27,0,.07l-1.17.2a4.21,4.21,0,0,1-3.12-1.18c-.59-.87-.74-1-.43-.53s.19.33-.17-.36l0-.74c0,.75,0,.82,0,.2.25-1.14-.26.53-.34.75.52-1.42-.27.47-.36.65-.21.43-.44.85-.67,1.27-.55,1-.54.35.06,0,2.25-1.31,2.59-1,4.83-.88l.33.35a6.82,6.82,0,0,1-.75-.77c.61.74.26.22,0-.31s.16.8-.09-.34c0-.15-.51-2-.2-.56L13.25,210c.08.78.1.82,0,.11a6.12,6.12,0,0,0-12-1.62Z"/><path d="M23.05,241.44,21.9,241l2.43,4.27c.51-3.2-.47-6.22-1.71-9.17s-4.84-5.54-8.13-3.31C8.27,237,6.67,245.15,8.82,252.1c1,3.26,2.76,6.41,5.81,8.17,3.91,2.27,8.92,1.17,12.12-1.8C37.4,248.56,24.7,228,11.11,234.78c-4.95,2.46-4.86,9.09-1.64,12.74a10.86,10.86,0,0,0,4.69,2.9c4.3,1.67,10.24-2.69,9.68-7.36a11.14,11.14,0,0,0-1.63-5.37L19.3,248.78a6.41,6.41,0,0,1-3.93.5c-1.06-.53-1.32-.63-.77-.32.37.22.32.17-.14-.16,0,0-.45-.45.27.32s.64.92.12.08a6.36,6.36,0,0,1,.63,1.11c-.48-1.37.11-.06-.06.19s0-.51,0-1,.12-.58,0-.17-.08.37.21-.51l1.4-1.4,5.29.87c.08-.08.13.86-.16-.22a14.55,14.55,0,0,1-.74-2c-.59-2.53.38-4.71,1.18-7.12l-8.13,3.31A7.41,7.41,0,0,1,18,246.05a3.49,3.49,0,0,0,3,1.72l1.21,0c3.95.07,4-5,.86-6.35Z"/><path d="M25.51,287.61c-2.47-4.57-6.19-11.8-12.5-10s-9,11.86-7.68,17.66C6.84,302,15,305,20.68,301.38c4.67-3,6.92-8.87,6.19-14.26a12.94,12.94,0,0,0-5-8.67c-3.72-2.88-10.4-4.1-13.85,0a7.46,7.46,0,0,0,0,10.27,9.26,9.26,0,0,0,4.49,2.41s1.19.4,1.2.39-2-1-.69-.23c.78.48-1.45-1.31-.63-.43-.2-.22-1.2-1.64-.5-.59s-.42-.51-.28-.73a6.88,6.88,0,0,0,.28,1c.37.95-.24-.78-.1-1a10.19,10.19,0,0,0,0,1.09c.17,1.14.42-1.44.13-.73a4,4,0,0,0-.2.86c-.09,1.11.66-1.3.31-.63,0,.1-.43.61-.4.72-.16-.55,1.28-1.36.3-.51l.95-.74c-.43.24-.33.21.31-.08a3.3,3.3,0,0,1,2.14-.22q-.72-.19.69.33l1.5,1.47c.76,1,.1.66.05,0s-.05,1.06,0-.2c0-.56,0-1.15,0-1.71,0-1.15-.1.33,0-.3.07-.4.15-.79.24-1.18s.48-1.13.41-1.6q.19-.63,0-.15l-1,.93a2.5,2.5,0,0,1-2.66.27c-.26-.12-.25-.12,0,0,0,.07.18.12.47.38,1.56,1.45,2.65,3.35,4.33,4.67,3.28,2.59,8.25-.57,6-4.66Z"/><path d="M11.59,321.3c-.69.4-1.38,1.08-2.07,1.41,0-.25-.08-.3-.27-.14a8.38,8.38,0,0,0-1.4.62,6.5,6.5,0,0,0-2.95,6,15.33,15.33,0,0,0,4.15,10c7,7,16.08-2.2,17.57-9.33,1.1-5.29-1.5-11-6.93-12.63a10.84,10.84,0,0,0-10.39,3c-5,4.87-7.22,15.09.32,18.91a7.18,7.18,0,0,0,7.86-.55c2.1-1.62,3.5-4.79,2.54-7.44-.3-.84.08,1.16.08,1.18,0-.18-.06-.38,0-.55.16-1-.22,1.17-.22,1.15.08-.78.24-1.58.35-2.37,0,0-.25,2.15-.12,1.1,0-.2.22-.48.2-.66,0,.19-.92,1.72-.37.89a3.18,3.18,0,0,0,.35-.62c.39-.87-.41.62-.61.73.19-.1.27-.38.46-.5.83-.5-1.82.91-.35.3-3,1.25-6.64.72-7.78-3.36-.36-1.28-.17.64,0-.57s0,0-.12.23a18.57,18.57,0,0,1-.65,1.76c-.29.72.66-1.07.05-.22-.19.27-.82.93-.18.43a4.29,4.29,0,0,1,2.2-1.17,2.39,2.39,0,0,1,2.36,0c1.17.43,1.51.5,1,.22s.68.79.3.19c-.05-.07-.71-.85-.37-.39s-.3-.5-.36-.6c-.19-.29-.33-.61-.51-.9-.44-.71.3.8.08.1s.23,1.9-.06-.25a12.31,12.31,0,0,0-.9-2.42l-.36,2.78a5,5,0,0,1,1-1.35c2.46-2.6-.67-6.86-3.86-5Z"/><path d="M17.69,369.66c1.46.06.93.86,1,.1,0-.09-.27-1.16-.34-1.55s-.13-.07,0-.7c.21-1.48,1.28-2-.68.41,3.9-4.77.31-11.64-6-10.34-7,1.44-7.49,10.65-6.35,16.18,1.26,6.08,6.33,12.69,13.37,10.66,7.92-2.29,9.05-12.56,5.56-19a12.16,12.16,0,0,0-9.88-6.35c-5.33-.22-10.24,4-9.72,9.61.46,4.9,4.23,7.94,9.15,7a3.06,3.06,0,0,0,1.17-.36c4.68-2,6.25-6.83,2.87-10.89a2.92,2.92,0,0,0-.85-.83l1.13,8.76c-.78,1.22-3.85,2.32-5.27,1.93a3.35,3.35,0,0,1-2-1.49c.73,1-.35-1.65,0,0a13.59,13.59,0,0,0,.36,1.43c.1.56.08.39-.08-.5,0,.73,0,.78.08.15a6.39,6.39,0,0,1,3.59-3.55,5.17,5.17,0,0,1,3.66.4c.54.26,1.12.53,1.2,1.11a5.55,5.55,0,0,0-.69-1.26c.42.79.3.87.07,0-.11-.43-.2-.89-.34-1.31-.48-1.41-.1,1.08-.07-.3,0-.5,0-1.05,0-1.55s.35-1.93-.06-.08c.11-.48.6-1.74-.11.06.29-.73.6-1.43.85-2.17H7.31c.21.58.45,1.16.71,1.72-.38-.88-.44-1-.21-.32a16.8,16.8,0,0,0,1.1,2.63A31.31,31.31,0,0,0,10.58,373c1.79,3,4.53,5,8.15,4.31,4.45-.88,3.19-7.47-1-7.64Z"/><path d="M11.22,403.68c-1.52,4.21.68,9.79,5.23,11.05s9.28-3.09,10.41-7.2c2.31-8.39-6.25-15.31-14.16-13C4.3,397,1.93,407.9,6.59,414.68c3.24,4.71,9.05,6.87,14.33,4.18,3.19-1.62,5.17-4.51,6.74-7.62,2.82-5.6-2.92-11.79-8.66-8.66A27.83,27.83,0,0,0,15.49,405c-1,.73-1,.74,0,0a6.75,6.75,0,0,1-.8.51c1.1-.39,1.27-.47.54-.25a4.76,4.76,0,0,1,2.28-.1,2.39,2.39,0,0,1,1.27.65c.46.4.48.4.06,0,.71,1,.85,1.15.43.48s-.28-.53.24.58a5.39,5.39,0,0,1-.22-.88l.16,1.12a6.76,6.76,0,0,1,0-.9c-.21,1.28-.23,1.52-.06.71s.16-.55-.29.64q.48-.76-.12.09a2.84,2.84,0,0,1-1.23,1.12,5.79,5.79,0,0,1,.79-.49c-1.14.43-1.34.55-.6.35a4,4,0,0,1-2.41,0c1.23.32-1.59-.81-.38-.23,1.57.77-.84-.76-.1,0a3.46,3.46,0,0,1-1.08-1.85l.1.33c-.11-1.21-.15-1.45-.14-.74a3,3,0,0,1,.48-1.8q-.49.81.21-.18a6,6,0,0,1-.74.68l5.76-1.53c.76.23,1.16,1,1.62,1.55.17.18.1,1.37.13.2A5.14,5.14,0,0,0,16.88,400a5.24,5.24,0,0,0-5.66,3.7Z"/><path d="M22.54,448a12.39,12.39,0,0,0-.14-5c-.16-.78-.59-1.45-.82-2.21-.15-.51.08.59,0-.13a5.32,5.32,0,0,0-.74-1.74,5.06,5.06,0,0,0-4.41-2.53A5.36,5.36,0,0,0,12,438.89c-1.34,1.79-1.72,4.67-1.56,6.83.24,3.41,1.76,6.8,4.89,8.48a8.73,8.73,0,0,0,11.14-2.4,9.13,9.13,0,0,0-1.23-12.14,7.13,7.13,0,0,0-4.89-2,8.08,8.08,0,0,0-4.9,2c-1.89,1.49-2.51,3.59-2.76,5.89a6.37,6.37,0,0,0,1.89,4.57A7.17,7.17,0,0,0,19.19,452c2.4.18,4.37-1.05,6.09-2.56H15.49c.71.59-.25-.47-.36-.66.25.45.22.35-.09-.28a2.17,2.17,0,0,1-.34-1.19,2.23,2.23,0,0,1,0-1.28c.11-.69.13-.86.06-.52s0,.18.22-.44a2.3,2.3,0,0,1,.62-1.05,4.61,4.61,0,0,1,4.74-1.58c-.86-.16.5.21.66.31l.88.68c-.29-.31-.25-.24.13.22.68.93-.07-.23-.22-.52a5.17,5.17,0,0,0-.34-.71c.13.17.42,1.24.23.49a6.71,6.71,0,0,0-.31-1.19c.56,1.15,0,1,.11.49s-.3,1.45-.09.61l-4.92,3.75a5.14,5.14,0,0,1,1.24,0L15.57,446c-.33-.2-.18-.18.07.05s.22.41.09.05,0,.56,0,.23,0,.69,0,.71c-.29,3.86,6.08,4.77,6.81.92Z"/><path d="M19.41,478.76C22,476,24.19,471.91,23.93,468c-.22-3.24-2.71-6.39-6.24-6.23s-5.86,2.75-6.23,6.23a10.7,10.7,0,0,0,.34,3.13c.2,1,0-.3,0-.33.1.05.08.87.08,1a14.58,14.58,0,0,1,0,1.48l0,.77c0,.16-.11,1.08,0,.29-.28,2,.19,4,2.09,5.13a4.61,4.61,0,0,0,5.51-.71Z"/></g></g></svg>