<svg xmlns="http://www.w3.org/2000/svg" viewBox="0 0 11.85 303.45"><title>Asset 373</title><g id="Layer_2" data-name="Layer 2"><g id="Layer_1-2" data-name="Layer 1"><path d="M4.6,2.6C4.32,6.38,3.18,11.85,7.42,14c2.24,1.12,5.44-1.33,3.75-3.75S10.11,5.31,10,2.6C9.85-.89,4.86-.84,4.6,2.6Z"/><path d="M11.64,23.6A3.74,3.74,0,0,0,11,21.3l.23.84,0-.29A2.38,2.38,0,0,0,9.5,19.54a4.2,4.2,0,0,0-5.17,3.09,7.55,7.55,0,0,0-.09,2.46,17.75,17.75,0,0,0,.51,2.21,2.64,2.64,0,0,0,5.1,0A14.47,14.47,0,0,0,10,24.08c0-.23,0-.45,0-.68s.2-.92,0-.06a2.14,2.14,0,0,1-.32.64.75.75,0,0,1-.32.21,1.78,1.78,0,0,0,.76-.27,2.19,2.19,0,0,0,.66-.59l-2,.26A.61.61,0,0,1,9,24a1.35,1.35,0,0,0,2.63-.35Z"/><path d="M10.3,38.53l-1.21-.07a1.87,1.87,0,0,0-1.67,1h0L9,38.77H8.94a2.53,2.53,0,0,0-2.4,1.83c-.08.19-.56.91-.81,1.28a8.49,8.49,0,0,0-.89,2.05,2.52,2.52,0,0,0,1.48,3,2.61,2.61,0,0,0,3.19-1l.1-.13c.21-.25.41-.51.6-.77a8.17,8.17,0,0,0,.52-1.17,9.64,9.64,0,0,0,.6-1.91A2.58,2.58,0,0,0,9.6,38.85h0l1.31,1,0,0-.89,2.18,1-.61a1.58,1.58,0,0,0-.79-2.92Z"/><path d="M8.9,59.21l-.4,1.15,1.93-1.1c-4.61-1.62-5.77,4.59-6.52,7.66C2.77,71.55,1.57,76.66,5.9,80c2.68,2.05,5.16-2.12,3.36-4.35s-.63-6.18-.32-8.78c.17-1.37.16-2.89,1-4C11.05,61.47,11.41,62,11.7,60a1.45,1.45,0,0,0-2.8-.77Z"/><path d="M7.3,89.76l.39.23a2.13,2.13,0,0,0-2.51-.32C1.26,91.58.92,98.4,2,102A2.73,2.73,0,0,0,4.56,104a3,3,0,0,0,1.24,0C8,103.74,9.21,100.79,7,99.55a9.83,9.83,0,0,0-1.73-.75l1.83,1.84a15.82,15.82,0,0,1-.57-5,4.42,4.42,0,0,1,.55-2c.58-.88,1.19-1.19,1.24-2.39l-1,1.34.37-.13c1.35-.47,1.24-2.7-.35-2.62Z"/><path d="M7.77,115.35h0a2.44,2.44,0,0,0-2.61,1.06A11,11,0,0,0,3,122a4.11,4.11,0,0,0,4.33,4.54c2.63-.2,3.57-4.25.66-4.88-.62-.13-.47-.24,0,.2s.19.64.27.24c0-.19,0-.14,0,.14a4,4,0,0,1,0-.49c.1-.53-.08.25.07-.36a30.7,30.7,0,0,1,1.07-3.24,2.3,2.3,0,0,0-.6-2.25,2,2,0,0,0-1-.59Z"/><path d="M7.65,140.81c-.17.83-.15.9.06.19A2.16,2.16,0,0,0,4,138.82c-1.27,1.83-1.81,4.72-2.27,6.9a15.61,15.61,0,0,0,.07,7.38,3,3,0,0,0,2.78,2.12,3.44,3.44,0,0,0,1.24,0c2.44-.17,3.84-3.64,1.34-4.93a10.72,10.72,0,0,0-1.82-.75l2,2a14.64,14.64,0,0,1,.07-6.42c.39-2,1-3.85.52-5.81l-4.24.57a3.49,3.49,0,0,0,3.61,3.52c1.6.09,1.68-2.12.35-2.62Z"/><path d="M10.45,165.05c.35-2,0-4.26-2.81-4.3A2.39,2.39,0,0,0,5.52,162c-1.65,3.75-1.25,8.34-.68,12.3a2.53,2.53,0,0,0,2.8,1.83,2.59,2.59,0,0,0,2.21-2.51c.39-3.24-.3-6.47.16-9.73l-1.72,1.72a6,6,0,0,0,1.31-.52l-2.35-.3-.16-.17c.1,1.82,3,2.46,3.36.46Z"/><path d="M7.45,187.55l.21-1.17a2.33,2.33,0,0,0-1-2.53,4.76,4.76,0,0,0-2-.55,2.29,2.29,0,0,0-2,1.17,23.05,23.05,0,0,0-2.08,7.06c-.17,2.28,1.51,3.94,1.44,6.06-.09,2.6,4,3.18,4.56.62.51-2.2-.29-3.42-.78-5.45s.65-4.44,1.2-6.46L5.31,188c-.86.17.11.06.42.08l-1.7-1,.06,0c.16,1.77,3,2.5,3.36.46Z"/><path d="M.53,212.59a75.11,75.11,0,0,0-.07,10.5,2.34,2.34,0,0,0,4.68,0,75.11,75.11,0,0,0-.07-10.5,2.27,2.27,0,0,0-4.54,0Z"/><path d="M4.3,233.26l-1.24-.08A2.21,2.21,0,0,0,1,234.77,17.21,17.21,0,0,0,0,241.15c0,2.1-.22,4.57.48,6.57a2.39,2.39,0,0,0,4.56,0c.63-2,.15-4.14,0-6.16a33,33,0,0,1,.14-6.21l-1.08,1.87c.35-.19.71-.38,1.07-.55,1.73-.86.76-3.32-.92-3.41Z"/><path d="M5.45,265.09l.07-.51-.61,1.05.64-.41-3.73-2.14c-.09,1.45-.19,2.89-.2,4.34,0,1.77,0,3,1.54,4.11a2.22,2.22,0,0,0,2.28,0C7,270.42,7,269.19,7,267.42c0-1.45-.11-2.89-.2-4.34a2.51,2.51,0,0,0-3.73-2.14,2.5,2.5,0,0,0,0,4.28l.64.41-.61-1.05.07.51a1.15,1.15,0,0,0,2.3,0Z"/><path d="M7.7,283.14a3.73,3.73,0,0,0-.46-.09l.94.72-.12-.21a2.21,2.21,0,0,0-2.46-1,4.8,4.8,0,0,0-3.28,2.7,5.76,5.76,0,0,0,.06,4.95,2.22,2.22,0,0,0,2.51,1,2.28,2.28,0,0,0,1.64-2.14c0-.48.06-1,.1-1.43,0-.66-.13.47,0-.16,0-.22.09-.44.16-.67s0-.12-.07.13a3.37,3.37,0,0,1,.19-.32l-.13.17c.18-.17.17-.17,0,0,.22-.11.22-.13,0,0l.52-.22A2.28,2.28,0,0,0,8.34,285l-1.1,1.1H7.3c1.58-.16,2.16-2.53.4-2.95Z"/><path d="M8,293.69a29.52,29.52,0,0,0-5,3.47,4,4,0,0,0-1.28,3.77c.5,1.82,2.35,2.48,4.05,2.52,2.66.07,3.22-4,.63-4.65-.24-.06-.47-.15-.7-.21-.42-.11.18.12.33.25-.29-.25.27.48.3.58s0,.81,0,.69c.08-.48-.11.14,0,0s.14-.27.22-.39a5.58,5.58,0,0,1,.52-.73,24.22,24.22,0,0,1,2.83-2.72c1.37-1.2-.43-3.56-2-2.54Z"/></g></g></svg>