<svg xmlns="http://www.w3.org/2000/svg" viewBox="0 0 1080.42 479.37"><title>Asset 428</title><g id="Layer_2" data-name="Layer 2"><g id="Layer_1-2" data-name="Layer 1"><path d="M1070.06,35.13c-1.78,5-6.73,2.76-10.79,4.43-4.57,1.88-5.25,6.74-5.74,11.18-1.23,10.89,2.07,21.43,4.48,31.92,3.29,14.31,3.55,28.21,3.83,42.81a269,269,0,0,1-2.6,41.39c-.87,6.54-1.7,13.1-2.1,19.69-.43,7.22-.06,14.45-1.18,21.62-1,6.41-2.69,12.66-3.42,19.12a157.74,157.74,0,0,0-.63,21.19c.31,13.77.88,27.63.3,41.4-.29,6.62-2,12.89-3.14,19.38-1.36,7.67-1.55,15.32-1.67,23.09-.25,17,.14,34,.12,51,0,7.41.5,14.8.4,22.2a103.49,103.49,0,0,1-2.69,20.2c-1.39,6.44,7,12.82,12,7,9.38-11,8.36-25.4,7.8-39-.59-14.57-.54-29.19-.72-43.77-.19-15-.41-29.59,2.3-44.34,2.61-14.22,1.79-28.69,1.27-43.07-.48-13.29-2.21-26.87.31-40.05a174.43,174.43,0,0,0,3-19.28c.59-7.67.2-15.37.86-23.05,1.2-14.06,3.71-27.9,3.83-42,.11-13.68.09-27.87-1.88-41.41s-8.2-26.89-8.82-40.67a47,47,0,0,1,0-8.05c.14-1,.17.39.56-1.72.57-3.14-.93,0,.31-.94,4-3.08,7-3.53,8.16-9.11a2.16,2.16,0,0,0-4.16-1.15Z"/><path d="M9.48,19c-.93,6.56-4.28,12.67-6,19.1S4.19,50,7.07,55.62c6.17,12.08,4.17,26.08,3.32,39.19a169.2,169.2,0,0,1-2.33,20.81A127.85,127.85,0,0,0,5.5,137.75c-.21,15.82,1.37,31.89-1.6,47.5-6,31.35-1.51,63.5.48,95,.49,7.66.92,15.44,0,23.08C3.62,310.25,1.93,317,1,323.89-1,339.49.55,355.8.84,371.5a430.92,430.92,0,0,0,4.25,54.3c2.05,14,7.86,29.43,3,43.4l7.4-5.64-3.32.36C1,465.13,3,481.13,14.21,479.21l3.29-.56c2.6-.45,4.66-3,5.36-5.37,3.95-13.37,1.5-27-1.17-40.35a323.29,323.29,0,0,1-5.37-45.18c-.9-16-1.12-32.05-1.42-48.05-.29-15,4.46-29.35,4.47-44.31,0-15.62-2.32-31.15-3.52-46.7-.64-8.32-.77-16.63-.79-25,0-8.08-.64-16.35.15-24.4.73-7.36,2.67-14.56,3.39-21.94.78-7.94.24-16.06.09-24-.15-8.21-.63-16.59.25-24.78.79-7.24,2.49-14.35,3.14-21.61.67-7.51.65-15.21.8-22.75s0-15-1.6-22.25c-1.57-7-7.06-12.5-8.28-19.47-.7-4,.34-7.38,1.24-11.25a34.76,34.76,0,0,0,.67-11.55c-.3-2.8-5-4.08-5.43-.73Z"/><path d="M40.3,3.7C39.11,14.62,51.16,17.06,59.43,17.62c4.45.31,9.1-.05,13.5.71,7.34,1.27,14.35,5.24,21.4,7.58a79.73,79.73,0,0,0,25.82,3.61c8.72-.05,17.63.19,26.26-1.19s16.14-3,24.85-1.51c7.62,1.32,15.89,1.36,23.17,3.89,6.44,2.25,12.62,4,19.16,1,2.71-1.22,5-3.09,7.51-4.63,3.74-2.28,8.2-3.42,12.47-4.25,16.45-3.21,32.79,2.75,49.24,2.82,9,0,17.91-.78,26.88-.78s17.27,2.22,26.05,2.66c7.59.39,15-1.4,22.54-2.1,8.58-.8,16.33,1.51,24.65,3.14a60.12,60.12,0,0,0,23.94-.09c8.22-1.66,15.93-3.29,24.37-3.26,17.54.05,35.36-.05,52.87,1,9,.57,17.68,2.62,26.61,3.54,8.32.86,16.63-.09,24.87-1.28,9.09-1.31,18-2.67,27.2-2.92,9-.25,18.06-.05,27.09.14,9.21.19,18.45.49,27.66-.09,8.85-.55,17.66-1.69,26.49-2.54,18.59-1.8,37.49-1.35,56.16-1.28a122.51,122.51,0,0,1,25.06,2.35c7.7,1.59,15.55,3.09,23.44,2.35,8.6-.81,16.91-3.63,25.46-4.81s17.27-1.19,25.64,1.53c8.17,2.66,15.88,3.17,24.46,3,9.34-.19,18.67-.24,28-.24s19-.31,28.49.19c8.88.46,17.68,1.78,26.51,2.75a129.92,129.92,0,0,0,25.4.7c8.58-.73,17.06-2.29,25.62-3.22s17.41-1.2,26,.6c8.29,1.74,16.51,4.17,25.08,3.24,7.76-.85,15-4.37,22.76-5,7.21-.55,7.27-10.78,0-11.25-7.78-.5-14.34,2-21.84,3.37-8.63,1.52-16.89-1.63-25.29-3.12-17.07-3-33.6.86-50.56,2.52-17.15,1.67-33.85-1.92-50.89-3.12-18.34-1.29-37.2-.67-55.57-.21-8.35.21-16.11.45-24.11-2.2a62.93,62.93,0,0,0-25.07-2.74,179.37,179.37,0,0,0-24.87,4.3c-7.84,1.76-15.16,1.18-23-.39s-15.69-3.07-23.81-3.22c-9.29-.16-18.58,0-27.87.07-9,.08-18-.15-27,.45s-17.63,1.75-26.44,2.58C608,14,590.26,13,572.44,13a198.74,198.74,0,0,0-26.93,1.59c-8.27,1.14-16.48,2.82-24.84,3.17-8.73.37-17-1.66-25.6-2.72a226.58,226.58,0,0,0-26.56-1.43c-8.54-.06-17.08.13-25.62-.15-8.24-.27-16.46-.59-24.65.55-7.85,1.1-15.5,3.94-23.47,4s-15.7-2.74-23.57-3.91-15.58-.17-23.51,1c-8.25,1.19-15.45.21-23.62-.89-17.09-2.31-34.25,1.19-51.36-.35-16.41-1.48-31.68-5.14-47.93,0a39.61,39.61,0,0,0-9.68,4.3c-2.38,1.52-4.66,3.73-7.45,4.42-3.25.81-6.74-.71-9.74-1.82a40.81,40.81,0,0,0-10.67-2.54c-7.92-.75-15.68-3.35-23.65-3.48s-15.85,2.73-23.86,3.37a207.18,207.18,0,0,1-27.18.32c-8.61-.46-16.43-3.25-24.42-6.28C82.35,9.92,76.85,7.84,70.64,7.58c-4.77-.2-9.57.1-14.33-.35C54,7,48.34,6.73,48,3.7a3.85,3.85,0,0,0-7.69,0Z"/><path d="M32.14,470.94a19,19,0,0,0,8.29-2.1c2.42-1.25,4.56-3.25,7.29-3.79,6.75-1.34,15.33-.22,22.12.6,8.34,1,15.91,4.59,24.45,5s17-.72,25.5-.47,16.81.9,25.16-.7c8-1.52,14.52-4.33,22.74-2.49,8,1.81,15.5,4,23.83,3.94,8.69,0,17.42-1.17,26.09-.36,9,.85,18,2.73,27,3.62s17.9,1.39,26.88,1.6a440,440,0,0,0,54-2.2c18.06-1.81,35-4.69,53-.56a108.22,108.22,0,0,0,24,3.13c8.21,0,16.39-.68,24.59-.93,19-.57,38.11.08,57.14,0a223,223,0,0,0,51.17-6.49,239.1,239.1,0,0,1,53.45-6.15c9.43-.11,18.85.09,28.27.32,8.29.21,17.36-.64,25.45,1.34s15.56,4,24,4.1c9,.12,17.37,2,26.26,3,17.57,1.93,35.51.43,53.15.59s35.56-.79,53.1,2.14c8.81,1.47,17.63,2.8,26.58,2.14s18.08-2.19,27.11-3.33,18.16-1.9,27.25-1.15c9.25.76,18.34,3.13,27.62,3.94,18.63,1.63,37-.39,55.15-4.87,8.6-2.12,16.7-3.87,25.57-2.38,8.46,1.42,16.65,3.47,25.26,3.83,14.46.59,29,1.85,43.33-1.07a49.21,49.21,0,0,0,19.34-8.27c3.6-2.66,5.41-7.19,3-11.35-2.08-3.56-7.73-5.65-11.35-3-11.35,8.36-26,8.21-39.52,7.73-7-.25-14.32-.2-21.29-1.16-8.58-1.18-16.88-3.83-25.6-4s-17.42,2.28-25.85,4.33a143.41,143.41,0,0,1-27.17,4A152.76,152.76,0,0,1,901,458.26c-9.31-1.26-18.32-3.45-27.78-3.53-18.16-.15-36,5.31-54.07,5-8.22-.15-16.24-2-24.35-3.16-9-1.27-17.77-1.21-26.79-1.13q-27.24.24-54.45.78c-8.61.19-17.41.27-25.92-1.25a109,109,0,0,0-13.44-2c-4.42-.23-8.87.08-13.28-.3-7.74-.67-14.9-4.06-22.71-4.64-8.9-.67-18-.44-26.91-.61C593.17,447,575,447,557,449.27c-17.35,2.18-34,7.68-51.39,9.69-18.23,2.12-36.78,1.28-55.09,1.31-8.93,0-17.87-.15-26.78.26-8.23.38-16.46,1.06-24.7.83s-15.93-2.63-24.05-3.92a105.8,105.8,0,0,0-26.89-1.12c-17.82,1.72-35.4,4.28-53.34,4.93a377.62,377.62,0,0,1-53.91-1.68c-8.65-.93-17.26-2.94-25.95-3.32s-17.39.83-26.1.61c-8-.21-15.54-3.42-23.51-4.24s-15.26,1.94-23,3.73c-8.21,1.9-16.78.86-25.12,1-8.5.12-17,1.52-25.52.85-8-.64-15.47-4.05-23.58-4.49-7-.38-15-1.63-21.8.76-6,2.11-9,8.4-14.95,10.14-3.42,1-2.88,6.48.86,6.35Z"/></g></g></svg>