<svg xmlns="http://www.w3.org/2000/svg" viewBox="0 0 44.67 452.24"><title>Asset 393</title><g id="Layer_2" data-name="Layer 2"><g id="Layer_1-2" data-name="Layer 1"><path d="M15.76,32c.38-.35.39-.39,0-.1-.71.53-.35.25,1.07-.84a17.83,17.83,0,0,0,1.62-2.13c.79-1.08,1.61-2.16,2.38-3.26a18.69,18.69,0,0,0,1.74-2.88c.93-2.17,1.14-2.67.61-1.48s-.32.69.65-1.56a17.94,17.94,0,0,0,.5-3.27C25,10.66,18,6,12.85,7.66,5,10.27.49,19.59,2.69,27.56c2,7.15,9.4,10.64,16.33,9.11,4.78-1.06,8.24-5,10.8-8.89a23.74,23.74,0,0,0,4-12.21A15.19,15.19,0,0,0,19.38,0C12.74-.29,7.43,5,3.84,9.94A19,19,0,0,0,.49,25.6C1.78,31.08,7.9,36,13.65,35.62s10.54-2,14.56-6.15a26,26,0,0,0,3.65-4.8,22.27,22.27,0,0,0,1.86-4.45c.69-2.14-1.45,3-.35.74,2.45-5,2.37-11.55-2-15.57-4-3.7-10.71-5.24-15.56-2a26.66,26.66,0,0,0-7.73,7.38C6.14,13.59,10,9,8.37,10.5c2-1.42,2.46-1.76,1.27-1a7,7,0,0,1,4-1.14l13.17,10a11,11,0,0,1,0,5.4c-1.07,2.34-1.3,2.86-.67,1.59a18,18,0,0,0,1.08-1.7c-1.26,2.56-1.48,1.89-.38.75,2.18-2.26-2.06,1.29-.74.57L15.83,26.3,7.88,18.39l.11.44s-.38-3.74-.39-2c0-.62.77-3.49.14-1.4-.12.39-.23.8-.33,1.2-.65,2.43,1.35-2.24.1-.22a5.25,5.25,0,0,0-.53.91c-.34.52-.15.29.56-.69a6.64,6.64,0,0,1,2.66-2.37,6.81,6.81,0,0,1-.89.54l10.16,0,4.33,5.52a4.11,4.11,0,0,1-.23-.85c.09.33,0,2.72.23,1.39a5.78,5.78,0,0,0,0-1c.07-.79.05-.66-.06.37-.17,1.32-.14,1.16.07-.47a13.44,13.44,0,0,0,.23-2c0-.5,0-.27-.13.7A4.94,4.94,0,0,1,23.12,21L8.84,22.86c.39.48-3-6.11-1.89-3.75-.07.76-.08.85,0,.26s.05-.51,0,0c-.23,1.08-.48,2.15-.71,3.24a11.78,11.78,0,0,0,.74,8.22c1.55,3.33,6.47,3.52,8.83,1.14Z"/><path d="M32.86,59.4s1.24,2.12.92,2a5.08,5.08,0,0,1,0-1.08,28.55,28.55,0,0,0,.35-3.07c0-1.09-.28,1.9-.09.39a23.58,23.58,0,0,0,.28-2.78A9,9,0,0,0,33.93,52c-.24-.73-1.67-4.6-.48-1-2.07-6.25-8.36-8.53-14.15-5.76-4.39,2.1-7,7.84-8.36,12.27C9.71,61.72,9.15,66.83,10.67,71c2.77,7.63,10.09,11.67,18,9.51,6.11-1.67,11.44-7.7,12.94-13.8C43.27,60.1,42,53,37,48.05a17.86,17.86,0,0,0-17.43-4.29,21.2,21.2,0,0,0-12.2,9.59A17.17,17.17,0,0,0,5.6,65.74c.93,4.08,4.05,6.94,7.2,9.32s8,2.09,11.43.65c3.94-1.66,5.89-4.46,7.44-8.32q-5,7-2.56,4.56a13.36,13.36,0,0,0,2.43-3.28,10,10,0,0,0,.82-1.34C30.62,69.45,30.22,70,31.18,69c.73-.65.53-.51-.6.43s-1.36,1-.53.53a9.49,9.49,0,0,1-5.22,1.4,10.76,10.76,0,0,1-5.27-1.48l-3.89-3.91a9.43,9.43,0,0,1-1.15-4.65,8.43,8.43,0,0,1,0,1.42c0,2.42.92-3.18.08-.8q1.53-3.16.6-1.45,5.31-4.11,2.66-2.87l6.4-1.73L31.37,59l1.26,1.57c1.42,2.45.69,1.7.4.6-.1-.36-.4-2-.09-.23.34,2,.05-.52.05-.81,0-.54,0-1.07,0-1.61,0-1.56-.31,0-.16.46-.15-.43.35-1.4.44-1.81a18.82,18.82,0,0,0,.5-3.58L29,61.88l.32-.2-4.63,1.26a5,5,0,0,1-4.78-2.81c-1.24-2.12-.52-.81-.42-.06A20.14,20.14,0,0,0,20,62.75a11.07,11.07,0,0,0,5,6.81c6.51,3.93,12.58-4.81,7.84-10.16Z"/><path d="M22.28,97.44l-1.24,0c-3.84.12-8.44,2.08-10.14,5.82a26,26,0,0,0-1.43,18.42c1.62,5.13,5.29,9.47,10.62,10.95,5.8,1.61,11.59-.65,15.84-4.62a24.57,24.57,0,0,0,5.29-7.59c1.35-2.94,2.33-5.32,2.37-8.62A15.46,15.46,0,0,0,39,100.76a19.2,19.2,0,0,0-18-4.7A17.84,17.84,0,0,0,8.13,110c-.93,5.35.21,10.33,4.7,13.8,3.86,3,10.32,4,14.58,1a58.55,58.55,0,0,0,4.85-3.89l-2.82,2.18a9.52,9.52,0,0,1,1.86-1.17l-3.36,1.42a5.42,5.42,0,0,1,1-.28l-3.74.5a8.44,8.44,0,0,1,2,0l-3.71-.5a10,10,0,0,1,1.3.35L21.52,122a3.45,3.45,0,0,1,.74.38l-2.79-2.16a2.05,2.05,0,0,1,.53.49L17.85,118l.16.28L16.63,115l.07.23-.49-3.64a4.72,4.72,0,0,1,0,.92l.48-3.62a15.11,15.11,0,0,1-1.13,3.74l1.34-3.18A13.46,13.46,0,0,1,15.51,112l2-2.66a10.39,10.39,0,0,1-1.18,1.21l2.63-2a5.34,5.34,0,0,1-.82.51l3.09-1.3a3.13,3.13,0,0,1-.74.21l3.42-.46a1.78,1.78,0,0,1-.46,0l3.41.46a2.21,2.21,0,0,1-.42-.12l3.05,1.29a1.9,1.9,0,0,1-.39-.23l2.58,2a4,4,0,0,1-.71-.72l2,2.57a7.79,7.79,0,0,1-.73-1.29l1.27,3a16.48,16.48,0,0,1-1-3.74L33,114a22,22,0,0,1-.22-4.73l-8.63,11.33,1.19-.47c2.76-1.08,5.43-2.54,6.89-5.3a11.9,11.9,0,0,0,1.37-7.35c-.74-5.48-5.56-10.19-11.33-10Z"/><path d="M28.61,167.71l.65-1.83c2.45-6.86-3.88-14-10.65-14a11.4,11.4,0,0,0-7.81,3.23c-2.94,3-3.62,6.8-2.84,10.75,2,10.27,13.3,16.85,23,12.77,9-3.82,16.05-16,13-25.69a17.57,17.57,0,0,0-14.45-12.6,19.07,19.07,0,0,0-13,3.07c-5.29,3.46-9.13,9.11-9.25,15.56a15.68,15.68,0,0,0,11.46,15.5,13.57,13.57,0,0,0,14.19-4.84,12.74,12.74,0,0,0,2.66-6.39c.44-3.23-.3-5.61-1.6-8.61l-.14-.32,1.37,3.26-.07-.31.49,3.67c0-.31,0-.61,0-.92l-.51,3.76a3.74,3.74,0,0,1,.28-1l-1.44,3.42A17,17,0,0,1,35,164.49l-2.25,2.92a13.54,13.54,0,0,1,1.94-1.92l-2.9,2.25a9.61,9.61,0,0,1,1.51-.91l-3.41,1.44a6.7,6.7,0,0,1,1.16-.34l-3.77.51a3,3,0,0,1,.74,0l-3.76-.5a2.47,2.47,0,0,1,.7.17l-3.37-1.42c.65.35.46.18-.57-.5a7.55,7.55,0,0,1-2.42-2.51l-1.4-3.32a4.21,4.21,0,0,1,.33,1.08l-.5-3.67a9.67,9.67,0,0,1-.06,2.28l.49-3.63c-.15,1-1.08,2.86-.94,3.75q1.36-3,.49-1.25l-.3.51q2.22-2.67,1-1.32,2.88-2,1.62-1.26a9.93,9.93,0,0,1,5.59-1c1.32.24,1.58.25.76,0,2,.94,2.6,1.17,1.77.67s2.23,2.2.62.39c-.53-.59-1-1.2-1.59-1.76l-2.23,17.35c2.1-1.26,3.57-2.38,4.42-4.77Z"/><path d="M30.28,203.48c-5.29-3-11.25-3.52-16,.86-3.8,3.5-5.55,8.67-5.91,13.69s.78,10.88,4.66,14.39c6,5.44,14.85,4.92,20.58-.69,8.19-8,8.29-24.95.41-33.19a17.2,17.2,0,0,0-21.67-2.32c-4.19,2.71-7.25,7.5-7,12.63s2.76,8.74,6.83,11.83c6.37,4.85,14.18-.79,16.52-6.72a7.13,7.13,0,0,1-3.84,4.86l.55-.33c-.38.21-5.33,1.24-3.17,1.25,6.25,0-11.34-2.57-8.37-5.71,0,0,.59,2.16.62,2.28.69,2.33-.06-3.27-.11-.83,0,.77,0,1.54,0,2.32,0,1-.6,3.25.11-.1-.3,1-.25,1,.14,0A6.38,6.38,0,0,1,17.84,214l6.85-.75q7.27,7.07,5,3.51c.67,1.3.54,2,.28.27l-.14-.65q-.3-1.78.12,1a8.93,8.93,0,0,0-.11-1.59c0-.48.28-1.93.05-2.22.56.72-.81,2.34-1,2.87-.5,1.27.07-.11.53-.51s.25-.29-.46.31q.63-.44,1.29-.81a7,7,0,0,0,0-12Z"/><path d="M28.15,265.16c-2.29-5.14-7.82-8.67-13.44-7.34a12.61,12.61,0,0,0-8.17,6.64,27.36,27.36,0,0,0-2.15,18.23A16.2,16.2,0,0,0,28.5,292.83c10.86-6.48,14.07-21.13,8.42-32C32.34,252,21.29,248,12.44,253,7,256.08,4.08,261.38,2.63,267.2A14.38,14.38,0,0,0,6.27,281c3.4,3.4,9.09,5.26,13.78,3.64a33,33,0,0,0,5.63-2.35c1.86-1.08,3.26-2.74,4.92-4.07l-3.17,2.45a3.33,3.33,0,0,1,.7-.42l-3.75,1.59a2.7,2.7,0,0,1,.69-.18l-4.19.56h.36l-4.18-.56.36.07-3.75-1.58a2.4,2.4,0,0,1,.77.45l-3.17-2.45a5.32,5.32,0,0,1,.82.89l-2.43-3.15a14.56,14.56,0,0,1,1.15,1.94L9.25,274.1a9.4,9.4,0,0,1,.45,1.81l-.54-4.08a15.32,15.32,0,0,1,0,2.71l.54-4c-.14.91-.29,1.82-.51,2.71-.1.41-.22.82-.36,1.22,1.13-2.46,1.42-3.2.89-2.21-1.23,2.24,2.5-2.74,1.16-1.4-1,.91-.25.36,2.16-1.63,3-1.06,3.88-1.44,2.64-1.15l3.68-.49c-1.34.12,3.71.63,2.83.43-1.31-.3,3.79,1.85,2.45,1-.17-.11,3.23,2.65,1.93,1.4-.94-.91,2.14,3.17,1.31,1.7l-.94-1.64c-.84-1.45,1.08,2.93.68,1.63-.11-.34-.25-.66-.35-1-.21-.64-.31-1.33-.52-2-.43-1.33.41,1.81.22,1.83a7.89,7.89,0,0,1-.07-.94c0-.53,0-1.08,0-1.61,0,0,0-.64,0-.64.63.08-1.56,4.87-1,3.93l-8.13,4.66a3.85,3.85,0,0,1-3.07-1c-.51-.45-.47-.38.14.21a8.54,8.54,0,0,0,11.2.66c3.59-2.77,4-7.05,2.2-11Z"/><path d="M26.52,320a25.22,25.22,0,0,0-2.05-5.05,29.24,29.24,0,0,0-1.89-2.57c2,2.7-.34-.53-.79-1A11.09,11.09,0,0,0,8.18,310C.91,314.82-1,326.13.59,334.13A19.64,19.64,0,0,0,9,346.47c5.93,4,13.76,3,18.91-1.77,9.17-8.41,8.53-24-.41-32.38A14.56,14.56,0,0,0,6.87,332.87c4.8,4.81,12,5,17.73,1.82L3.68,326.18a40.55,40.55,0,0,0,3.24,6.37,9.11,9.11,0,0,1,1.19,2.18l-.85-1.86a5.36,5.36,0,0,1-.06-3.07c.26-1.27.24-1.3,0-.1L8,327.86q-1.5,2.44,2.84-1.82a5.35,5.35,0,0,1,5.81-2.41c2.43,0,4.07.05,5.85,1.77-1.58-1.53,1.36,2.44.34.44.41.8.87,2.51.32.66-.1-.33-.16-1.47-.41-1.69.38.33.29,2.89.13.62,0-.56-.08-1.13-.1-1.69s0-1.23,0-1.84c0-2-.42.93,0,.22a4.31,4.31,0,0,0,.37-1.21l-2,3.32q-8.19,2-4.84,2.3L12,325.37a4.66,4.66,0,0,1,.85.46c-.82-.67-1-.8-.52-.37a13,13,0,0,0,1.69,1.8c4.91,5.8,14.65-.4,12.54-7.29Z"/><path d="M26.55,374.69a6.27,6.27,0,0,1,1.66,4.36c.05-.28,0-.61.05-.91a17,17,0,0,0,.1-2.14c-.44-7.46-6.63-12.05-13.9-10.59l-.45.11h6c-5.34-1.24-11.51.64-14.27,5.7A15.68,15.68,0,0,0,4,375.66a19.93,19.93,0,0,0,.44,10.14C6.64,392.38,11.13,398,17.94,400c9.28,2.8,18.79-4.29,20.93-13.24a25.84,25.84,0,0,0,0-12.72c-1.76-6.23-6.73-10.73-12.73-12.78-5.78-2-12.57.06-16.78,4.33a22.69,22.69,0,0,0-3.4,4.58c-1.62,2.88-1.81,5.8-2.19,8.93l.49-3.63a6.58,6.58,0,0,1-.32,1.38l1.31-3.11-.09.18c-2.33,4.79-2.35,10,1,14.37,3.08,4,8.63,6.16,13.6,4.63,3.48-1.06,5.34-2.68,8.17-4.88L25,390.25a21.56,21.56,0,0,0,5.64-5.59c.25-.38.48-.76.75-1.12l-2.25,2.91a5.61,5.61,0,0,1,.75-.79L27,387.9a3.81,3.81,0,0,1,.65-.38L24.23,389a2,2,0,0,1,.47-.14l-3.82.52a1.81,1.81,0,0,1,.52,0l-3.83-.52a4.22,4.22,0,0,1,.86.24L15,387.61a7.67,7.67,0,0,1,1,.6L13.06,386a9.34,9.34,0,0,1,1.53,1.42l-2.25-2.91a6.45,6.45,0,0,1,.49.94L11.39,382a12.29,12.29,0,0,1,.64,2.47l-.51-3.74a11.74,11.74,0,0,1,.06,2.9l.49-3.67a8,8,0,0,1-.4,1.37l1.38-3.27a7.22,7.22,0,0,1-.63,1.16l2.13-2.75a4.9,4.9,0,0,1-.75.76l2.74-2.11a3.65,3.65,0,0,1-.61.34l3.21-1.35a3.61,3.61,0,0,1-.65.15l3.57-.47a5.12,5.12,0,0,1-.68,0l3.55.47A4.18,4.18,0,0,1,24,374l3.17,1.34a6.79,6.79,0,0,1-1.38-.8l2.66,2.06a10.55,10.55,0,0,1-1.67-1.67l2,2.61a11.55,11.55,0,0,1-1.43-2.39l1.28,3a8.64,8.64,0,0,1-.58-2l.44,3.32a6.2,6.2,0,0,1,0-1.61l-.44,3.28c.71-3.68.9-7.18-1.38-10.51l1.14,8.66a1.88,1.88,0,0,1,.14-.42l-16.13,6.56c.11.06.55.41.66.4s-2.21-1.73-1.17-.91a24.86,24.86,0,0,0,3,2.23A11.72,11.72,0,0,0,23,388.32c6-1.4,7.85-9.44,3.6-13.63Z"/><path d="M21.87,431.19a26.44,26.44,0,0,0-3.45-4l1.11,8.58c.33-.58.67-1.16,1-1.72l-19.2-5.2c0,.23.49-3.22.21-1.91a14.83,14.83,0,0,0-.34,3.25c0,.59.09,1.19.12,1.78.1,1.87.24,3.7.49,5.57.69,5.16,2.86,10.86,8,13.22,4.58,2.11,11,2.4,14.6-1.88a21.55,21.55,0,0,0,5.09-17.15,15.72,15.72,0,0,0-7.35-11.59,14.44,14.44,0,0,0-17.83,2.39C-2.2,429.3.57,441.14,9.92,443.66c2.23.6-5.63-2.41-.52-.25a14.89,14.89,0,0,0,5.48,1.15l-3.53-.47c.79.14.47,0-.94-.5a5.57,5.57,0,0,1-2.36-1.37,7.75,7.75,0,0,1-2.69-2.93l.18.32S4.1,436,4.7,437.81c.41,1.24-.64,1.37-.21-1.91a15.56,15.56,0,0,0,0,1.93c0,1.39.64-3.56.23-1.91-.28,1.1-1.11,2.07.77-1.67l13.61-5.53q-1.7-.37,1.88.84a8.3,8.3,0,0,1,3.2,3.16,4.45,4.45,0,0,0-.65-1.17c1.38,1.77.94,2.39.45.91-.19-.57-.36-1.16-.53-1.74-.95-3.36-1.73-6.73-4.5-9.17-3.32-2.95-8.5-4.18-12.48-1.61C3,422.2,0,427.3,1.74,431.57l.2.48c1.58,3.82,5,7.82,9.69,7.38l1.79-.17-3.58-1,1.45.7c.34.17,1.66,1,.42,0,2.55,2,5.76,2.68,8.49.5,2.41-1.91,3.46-5.59,1.67-8.34Z"/></g></g></svg>