<svg xmlns="http://www.w3.org/2000/svg" viewBox="0 0 14.89 405.28"><title>Asset 359</title><g id="Layer_2" data-name="Layer 2"><g id="Layer_1-2" data-name="Layer 1"><path d="M12.36,11c-1-2.69-2.57-5.57-2.61-8.48,0-1.46-1.57-3-3.1-2.37C-1.93,3.45,4.47,12.21,3.36,18.65c-1,6-2,11.54-1.41,17.69C2.57,43.25,4.13,50,4.79,56.94c1.37,14.24.38,28.58-.16,42.83A372.51,372.51,0,0,0,5.92,143.2a289.8,289.8,0,0,1,.44,43.9c-1,14.44-2.26,28.77-2.29,43.26,0,6.85.13,13.72,0,20.57-.17,7-1.53,13.81-2.61,20.71a130.78,130.78,0,0,0-.25,36.7c.87,6.85,3.15,13.8,3,20.71C4.07,336.48,2,343.72,1.26,351.1c-.78,8.18-.21,16.59-.22,24.8,0,8.49,0,17,0,25.48,0,5.19,8.06,5.2,8.06,0,0-15-.22-30.06,0-45.08.18-12.53,4.8-24.35,2.18-36.92a140.33,140.33,0,0,1-3.06-35.81c.62-12.23,3.84-24,3.83-36.33,0-13.82-.22-27.62.74-41.43,1-14.18,2.46-28.33,2.09-42.56S12.57,134.68,12,120.37c-.6-13.74.36-27.48.49-41.23a193.51,193.51,0,0,0-.85-22.2c-.79-7.46-2.67-14.79-3.23-22.27C7.91,28.61,9.79,23,9.82,17.09,9.85,13.4,5.89,6.94,9,4.23L4.94,3.15a29.13,29.13,0,0,0,5.11,9.17c.84,1.09,2.77-.09,2.31-1.34Z"/></g></g></svg>