<svg xmlns="http://www.w3.org/2000/svg" viewBox="0 0 275.41 124.53"><title>Asset 346</title><g id="Layer_2" data-name="Layer 2"><g id="Layer_1-2" data-name="Layer 1"><path d="M14.76,26.66a8.44,8.44,0,0,0-2.34-7c-1-1.16-3.47-1-4.12.53-3.72,8.68-2.77,20-1.8,29.2,1.25,11.87,1.9,24.09,3.92,35.85.89,5.17,1.82,9.69,1.88,14.94,0,3.76.34,7.56,2.28,10.87,5.69,9.76,17.49,9.68,27.31,9.59,6.52-.06,12.28,2.34,18.66,3.18,6.19.82,12.35.15,18.49-.76s12.37-2.12,18.67-2.12c6.69,0,13.3,1.18,19.91,2,14.17,1.85,28.67,1,42.93,1.09,14,0,28,.14,41.95.12,13.1,0,26.46.85,39.53-.1,9-.65,19.16-2.42,26.16-8.64,9.06-8,8.05-19.7,5.22-30.34-3.31-12.46-6.08-25-6.63-38-.39-9.07,1.66-18.35,0-27.34s-8.72-11.69-17.1-12.5C238.89,6.25,228,5,217.28,3.17,211.83,2.21,206.44,1,200.9.78c-6.83-.25-13.7,0-20.53,0C166.19.71,151.93-1,137.81.9,122.7,3,107.8,6.25,92.66,8.09S62.11,9.3,46.83,10.5C32.19,11.65,17.15,14,3.35,19.13c-4.73,1.77-4.58,10,1.29,9.54,1.75-.15,3.49-.27,5.25-.35,6-.27,6-9.17,0-9.33-1.76,0-3.5-.06-5.25,0l1.29,9.53C17.93,25,29.8,22,42.28,20.76c11.78-1.18,23.55-.8,35.35-1.44a333.17,333.17,0,0,0,36.83-4.59c11.68-2,23.39-4.61,35.27-4.82,12.07-.22,24.16.65,36.23.65,5.56,0,11.19-.32,16.74,0s11.23,1.9,16.86,2.64c9.61,1.26,19.13,2.78,28.78,3.54,2.72.21,7,.15,8.53,2.83,1.66,2.93,1,8,.89,11.13-.39,9.71-.64,19,.65,28.73,1.5,11.22,4.79,21.84,7.1,32.86,5.43,25.91-28.9,22.6-45.07,22.66l-77.88.29c-6.18,0-12.4.28-18.57-.21-6.34-.5-12.6-1.68-18.93-2.25-11.77-1.07-22.66,2-34.28,2.91-6.86.53-12.73-1-19.35-2.38-6.11-1.29-12.08-.37-18.23-.7-5.37-.3-11.45-2.71-12.74-8.41-.87-3.85-.28-8-.85-11.92-.94-6.45-2.72-12.66-3.4-19.19S14.94,60,13.82,53.43C12,42.9,11.48,32.75,13.09,22.19L9.24,23.76a4,4,0,0,1,1.84,3.4c.33,2.25,3.48,1.42,3.68-.5Z"/></g></g></svg>