<svg xmlns="http://www.w3.org/2000/svg" viewBox="0 0 1098.06 428.13"><title>Asset 406</title><g id="Layer_2" data-name="Layer 2"><g id="Layer_1-2" data-name="Layer 1"><path d="M20.46,52.43l1.16.45L16.1,45.64c.17,2.76.85,5.35,1.25,8.06.34,2.23-.18,4.3-.53,6.54a215.53,215.53,0,0,0-2.5,22.08c-.31,5.61-2.24,11-3.2,16.55a52.63,52.63,0,0,0-.93,10.62c0,1.25,1.19,8.32.24,8.83l.68-2.5c-.47.83-.93,1.66-1.36,2.51A36.43,36.43,0,0,0,7.81,123c-1,3.4-.34,6.7-.87,10,.37-2.34-.67,1.58-.69,1.67-.18.84-.3,1.65-.44,2.5-.64,4-.39,7.7-.59,11.66-.25,4.81-1.79,11.6-1.93,17.43,0,1.11-.1,2.26-.06,3.37.13,4.22.79-1.24-.21,2.21a51.66,51.66,0,0,0-1.79,10.85c-.35,5.19.21,10.43.32,15.63.05,2.69.18,5.39.12,8.08-.08,4.19.63-1.64-.41,2.54a48.26,48.26,0,0,0-1.15,7.14A38.9,38.9,0,0,0,.92,227a23,23,0,0,1,.66,6.77c0,6.74-.13,13.49-.12,20.24,0,6.07,0,12.14,0,18.2-.06,7.05,1.39,14,1.41,19.57,0,3.08-.06,6.13.22,9.2.17,1.94.45,3.9.75,5.82,0-.24.71,5.55.56,2.93.21,3.51,0,6.67.67,10.23.16.83.37,1.62.57,2.44.3,1,.55,2,.75,3-.16-.94-.2-.87-.11.21.15,3.2-.16,6.41-.24,9.61-.12,4.36.7,8.32,1,12.65-.14-2,0,1.61,0,2a53,53,0,0,0,1,8.34,83,83,0,0,0,2.49,8.33c2.49,7.44,6.22,12.54,11.62,18,6.36,6.49,13.25,9.42,22.35,7a15.28,15.28,0,0,0-8.12-29.47c2.76-.76,11.18,5.51,8.74,2.39A27.63,27.63,0,0,0,42.64,362l-2.07-2c-2.06-2-.44-.63-.08.23a58,58,0,0,1-3.17-12c-.49-7.14-1.09-9.44-.85-16.47a64.24,64.24,0,0,0-2-18.62c.18.71,0,3.31.08,0,0-1.42.07-2.83,0-4.25a36.91,36.91,0,0,0-.89-6.52c0,.1-.65-2.84-.41-1.38-1.08-6.71-.22-13.61-1.28-20.4-.68-4.34-.46-8.42-.47-14.11,0-6.39-.06-12.78-.09-19.17,0-6.07.38-12.24-.07-18.3-.26-3.38-1.29-6.6-1.63-9.93.19,1.94.13-2.52,0-.91,0,.48.63-2.89.78-3.71,1.08-5.93.94-11.66.77-17.63-.07-2.47-.25-4.95-.35-7.42-.06-1.4-.12-2.79-.1-4.19,0-.5.43-4.87,0-2.44a88.87,88.87,0,0,0,1.71-16.44c-.08-5.88,1.21-11.58,1.29-17.43,0-2.63-.35-5.27-.2-7.9-.16,2.91.52-1.64.7-2.63a25.84,25.84,0,0,0,.6-6.89c0-.05-.25-2.73-.31-1.06,0,1.34,0,0,.36-.65a31.42,31.42,0,0,0,2.28-6.06c1.58-6.55-.58-13,.07-19.5.72-7.36,2.59-14.4,2.31-21.88s-1.52-14.73-2.7-22.08a44.27,44.27,0,0,0-1.73-8.4c-1.09-3-3.16-5.32-4.34-8.2-1.32-3.24-3.62-5.35-7.24-5.52l-1.21,0c-8.82-.39-9.14,11.56-1.95,14.36Z"/><path d="M17.43,26.94l-.23.79L20.54,22l-.41.45,5.73-3.34-.51.15h6.92l2.07.81L39,24.76l-.46,10.59c-.88.68-.9.77-.07.26A17.3,17.3,0,0,0,41,34.25c1.08-.55,2.18-1,3.29-1.53-.54.23-1.88.81.57-.21a41.24,41.24,0,0,1,4.46-1.87c-2,.59,2.16,0,1.12,0,2.35,0,5.37.2,8,.3,4,.16,9.34,1.38,14.43,1.76,6.11.47,11.84,1.84,18.24,1.83,2.34,0,2.81-.22,4.62.14,2.6.51,5.13,1.38,7.69,2a91.86,91.86,0,0,0,19,2.58c5.76.22,10.32,1.38,16.68,1.77,5.74.35,11.56-.05,17.31,0q77,.24,153.92.44c5.53,0,11.11.46,16.63.19,7.35-.35,12.59-1.61,19.58-1.61,11.75,0,23.49.55,35.23.81,11.11.24,22.71-3.29,33.72-1.7-2.44-.35,1.18.39,1.74.49,1.58.3,3.17.51,4.77.73a61,61,0,0,0,9.36.34A54.82,54.82,0,0,1,445.7,42c24,4.52,48.18,2.71,72.42,4.69,3.11.25,6.17,0,9.29,0,.32,0,4.51.09,2.69,0-2-.15,3.6.62,3.08.54,6.54,1.07,12.51,1,19.07,1.07,4.63,0,10.12,1.52,16.58,1.74,5.63.18,12.41-.32,17.23.07s11.5,1.58,17.15,1.8c6.37.26,12.75.06,19.11-.14,11.95-.37,23.89-.33,35.85-.32,25.22,0,50.45.21,75.67,0,12.31-.09,24.76-.26,37-1.37,3.37-.31,6.64-1.13,10-1.65-2.15.34,1.59-.06,2.1-.06,1.25,0,2.49,0,3.73.08a76.6,76.6,0,0,0,8.3,0c2-.16,4.13-.51,6.16-.81.23,0,5.27-.81,2.53-.5,5.89-.67,11.93-.38,17.87-.9,6.92-.61,13.84-.5,20.74-1.43,6.42-.86,8.61-1.39,15.12-1.88,7.14-.54,14.14-.58,21.28-1.48.31,0,3.26-.33.88-.11,1.21-.11,2.41-.19,3.62-.27,2.83-.18,5.62-.46,8.43-.8,6.29-.75,12.53-.54,18.85-.53,2.62,0,5.26.08,7.88-.11A58,58,0,0,0,925,38.7c.61-.11,3.74-.7,1.23-.4,3.52-.42,6.79-.08,10.35-.82,1.06-.22,2-.53,3.07-.79,3.29-.81-1.25-.26,2.11,0a28.74,28.74,0,0,0,5.69-.56l2.24-.3c-1.19.08-1.2.08,0,0,2.64-.22,5.3-.23,7.94-.48,3.28-.3,6.53-.89,9.79-1.38,5.37-.82-1.67-.06,1.69-.12,1.82,0,3.63,0,5.45,0,2.72,0,5.46.09,8.18,0,.41,0,3.44.21.69-.11,1.18.13,2.37.42,3.53.66A107,107,0,0,0,1007.57,37c5.39.06,10.79-.1,16.18-.21,2.74,0,5.48-.2,8.22-.24,1,0,2.83.75.62,0a33.12,33.12,0,0,0,4.47,1.3,44.71,44.71,0,0,0,10.25.52,18.34,18.34,0,0,0,2.77,0c2.06-.37-3.5-1.19-.11,0,.74.26,1.56.48,2.31.7-3.22-1-2.1-.81-1-.14a8.8,8.8,0,0,1-3-2.94c2.15,3.09-1.54-2.19-.49-2.69-.46.22.06,8.91.06,9.59a63.92,63.92,0,0,1-.15,7.83c.31-2.62-.19.34-.3.72-.41,1.4-.72,2.87-1.05,4.3a59.19,59.19,0,0,0-1.52,10.93,69.35,69.35,0,0,0,.17,7.9c.07,1.14.11,2.27.18,3.4-.31-4.86-.19,1.86-.29,2.72a35.26,35.26,0,0,0,.64,11,30.07,30.07,0,0,0,.67,3c1,3.38.47-2.11.38,1.72a94.13,94.13,0,0,1-.82,11.75c-1.09,6.9-1,13.5-1,20.43a29.54,29.54,0,0,1,0,3.76c.37-2.7-.41,1-.53,1.61a31.15,31.15,0,0,0,.11,13.11c.21,1,.66,2,.78,3-.36-3-.23.3-.34.7.72-2.61-.2,1.09-.31,1.75-.41,2.42-.77,4.86-1.06,7.31-.68,5.71-.25,11.48-.33,17.21a60.27,60.27,0,0,0,.23,9.21,34.45,34.45,0,0,0,1.07,5.8c.94,3,.33-.41.4,1.31.22,5.17-.55,10.29-.07,15.46.31,3.45,1.31,6.94,1.56,10.38-.06-.9,0-2.86-.26.53a26.61,26.61,0,0,0,.65,8.12c.24,1,.85,2,1,3-.41-2.88-.4.37-.47.83-.5,3.76,1.18,7.46,1.62,11.13-.5-4.14-.2,2.71-.1,3.69.23,2.16.54,4.35.88,6.5.64,4.12.43-1.78.18,2-.84,13.15,1.76,24.4,5.7,36.83.9,2.85,1.4,5.79,2.25,8.64.27.9.56,4,.3.22.08,1.15.06,2.29.11,3.44a85.63,85.63,0,0,0,1.27,11.17c.59,3.35,0-4.41.11,1.47,0,1.93.19,3.86.21,5.79.1,11.4-.59,22.84-1.57,34.18-.47,5.54-.55,11.23-.69,16.77a31.78,31.78,0,0,0,1.48,9.9c1.16,3.85,0,.3.2-.31v1.51a6.27,6.27,0,0,1,1-4.11c-4.23,9.26-3,21.43,7,26.68,8.5,4.49,22.24,2.95,26.68-7,3.68-8.23,5.22-15.74,3.26-24.68-.29-1.33-.77-2.61-1-3.93.8,3.77.22,1.22.47,0,.75-3.67.06-7.49.17-11.2.36-12,1.54-23.85,1.52-35.86,0-6.92-1.28-13.48-2-20.32.46,4.51.2-1.23.17-1.79-.07-1.14-.16-2.25-.28-3.4a84,84,0,0,0-2.7-13.5c-1.59-5.92-4-11.58-5.71-17.47-.35-1.22-.64-2.46-1-3.69-1.24-4.87-.51,1.08-.21-1.47a51.22,51.22,0,0,0-.07-9.59,67.66,67.66,0,0,0-1.87-10.82c-.76-3,.24,4.42-.06-1.32a49.79,49.79,0,0,0-.79-6.43c-.24-1.22-.56-2.39-.87-3.59-.71-2.77,0,4.58-.06-1.43a32.05,32.05,0,0,0-.72-6.66c-.24-1-1.71-4.59-1.12-1.58-.25-1.28.21-3,.17-4.33a42.44,42.44,0,0,0-1.08-7.25c-.21-1.09-.48-2.17-.64-3.27.51,3.42.08-.43.06-1.28-.18-7.1.72-13.8-1-20.85-.28-1.14-.81-2.25-1-3.41.46,2.78.21-.06.28-.59a75.12,75.12,0,0,0,0-9.25c0-2.88-.11-5.78,0-8.66.16-3.38-.73,3.9.21-1.76.46-2.71.92-5.5,1.18-8.22a37.31,37.31,0,0,0-.75-11.72,13,13,0,0,0-.81-3c2.45,3.82-1,5.91.42,2.65,2.68-6.34,1-15.56,1.09-22.29,0-.63.24-4.56,0-1.86.13-1.2.41-2.43.58-3.61a112.32,112.32,0,0,0,1.09-11.41,55.07,55.07,0,0,0,.1-6.55c-.29-4.21-1.83-8.1-2.22-12.22.33,3.49.74-2.89.79-3.91.15-2.63-.31-5.24-.38-7.87,0-1.37,0-2.75,0-4.11,0-1,.79-4.07.07-1,.68-2.88,1.43-5.73,1.92-8.66,1.18-7.06,1-14.09.91-21.22s-1.77-13.87-6.21-19.62c-7.74-10-20.49-12.47-32.49-11.66,2.24-.15,1.09.26-.17-.2a27.84,27.84,0,0,0-7.5-1.53,58.29,58.29,0,0,0-7.24-.12c-6.27.22-12.55.41-18.82.44-1.9,0-3.82-.11-5.72-.08-.39,0-3.56-.24-.85.1-3-.37-5.85-1.26-8.78-1.8C987.26.1,980.58,0,973.64,0a70.4,70.4,0,0,0-9.52.54c-1.9.25-3.81.49-5.69.84-.32.06-3.19.47-.82.2-2.92.33-5.87.29-8.8.57-2.08.19-4.2.57-6.24.82-5.38.66,2.6.23-2.5,0-3.85-.19-7.21,1.05-10.85,1.74.74-.14,3.06-.14-1,0A58,58,0,0,0,922,5.2c-1.78.24-3.47.6-5.23,1-1.25.25-2.31-.29-.07,0-3.69-.42-7.8,0-11.52,0A179.73,179.73,0,0,0,887,7.3c-2.76.27-5.53.35-8.29.66-2.38.28-4.74.69-7.12,1,2.76-.31-2.63.18-2.75.19-12.57.54-25.38,2.7-37,3.27-6.43.32-12.92,1.24-19.34,1.33-3,0-5.89-.09-8.83.17-2.32.21-4.73.61-7,1l-2.59.45c1.54-.14,1.26-.14-.83,0-6.51,0-12.87-.49-19.33.7a124.45,124.45,0,0,1-17,1.65c-26.63,1.23-53.36.67-80,.69-13.15,0-26.31,0-39.46,0-12.65.07-25.33,1.2-38,.34-5.73-.39-10.17-1.55-17-1.71-2.91-.06-5.82.05-8.73.09a54.13,54.13,0,0,1-7.91-.21,109.12,109.12,0,0,0-19.17-1.39,51.58,51.58,0,0,1-5.56-.09c.78.08,2.46.38-.9-.22a68.29,68.29,0,0,0-12.75-1.34c-12.55.13-25-1.46-37.58-1.29-12.12.16-23.77.08-34.55-2A132.6,132.6,0,0,0,435.76,8a70.1,70.1,0,0,0-8.07.09c-5,.41.89.42-1.85,0-2.17-.32-4.3-.84-6.48-1.14-13.83-1.85-24.61,1.58-37.66,1.52-12.4,0-24.82-.47-37.23-.14-6.76.18-13.61,1.8-19.5,2-6.63.22-13.3,0-19.94,0-53.45.17-106.93-.19-160.38.59-6.84.1-11.42-1.28-18.58-1.64C119.68,9,116,9.1,110.35,7.83c-5.82-1.32-11.59-2.78-17.62-2.59s-11.44-.89-17.9-1.1C69,4,64.87,2.89,58.4,2.84c-7,0-13.74,0-20.3,2.84C28,10,14.05,16,14,29.07c0,6.79,4.12,13.34,10.84,15.24,7.53,2.13,16.06-2.7,17.59-10.49,1.35-6.85-1.94-14-9-15.91a13.14,13.14,0,0,0-15.92,9Z"/><path d="M27.22,367.55a27,27,0,0,1-3.94-3.69l-1.92,14.9.69-.45-7.88,1c1.57.36,5.79,1.37,7,.18l-3.66.18q-1.83-.76-.66-.15c1.24,1.57,5.59,2.76,7,3.3l-5.94-3.46c.64.59,1.23,1,2,1.6,3.91,3-.93-1.19-.87-1.19-.36,0-.13-.32.1.91a19.89,19.89,0,0,0,.58,2.14,58.15,58.15,0,0,0,5,11.77c4.1,7.19,10.25,13.72,17.81,17.26a141.45,141.45,0,0,0,14,6.15c3.42,1.23,7.13,1.7,10.67,2.5A80.65,80.65,0,0,0,80.87,422a25.43,25.43,0,0,1,2.61.18c-.43-.07-1.93-.22,0,.16a86,86,0,0,0,10,1.35c8.4.67,16.9,0,25.32.09,1.27,0,5.29.67,2.23-.06a65.92,65.92,0,0,0,6.71,1.21,32.77,32.77,0,0,0,10.2-.33c.83-.12,1.65-.24,2.48-.38,2.84-.47-2.73.11.58-.13,18-1.31,35.92,1.36,53.94,1.67,9.36.16,18.61,1.58,28,1.63,8.81,0,17.62,0,26.43.13,18.06.17,36.19,1.47,54.2-.45,9.1-1,18.2-.2,27.29-1.29s18-1.42,26.92-2.39c18.44-2,36.82-1.92,55.33-1.55,18.31.36,36.52.47,54.81-.35,18.78-.85,37.53-1.67,56.28.15,34.85,3.38,69.67-2.5,104.51-3.32,37.51-.88,75.11-.16,112.63-.11,9.09,0,18.1-.09,27.18-.71,8.84-.61,17.81-.19,26.61-1.09,2-.2,4-.55,6-.77-3,.32.33,0,.79,0q2.91-.11,5.84-.18c4.66-.11,9.2-.62,13.83-1.12,4.25-.46,8.5-.3,12.75-.67,4.77-.4,9.45-1.26,14.25-1.3,18.17-.17,36.51-.36,54.67.17,9,.27,17.65.56,26.66-.15,8.69-.68,17.45.16,26.15.18,8.89,0,17.79.18,26.68-.12,2.14-.08,4.29-.17,6.43-.13,1.27,0,5.36.5,2,0,5.76.9,11.49,1.74,17.31,2.14,4.1.28,8.22.43,12.32.79,1.06.09,5.43.88,2.34.22,2.16.46,4.34.91,6.52,1.25a60.47,60.47,0,0,0,27.68-1.87c9.07-2.8,16.77-4.28,24.34-10.73,7.75-6.61,7.3-20.74,0-27.45-8.23-7.55-19.2-7.08-27.45,0,1.57-1.35,5.44-2.48,1.45-1.36-1.46.41-2.94.71-4.42,1.05-3.32.76-6.54,1.85-9.84,2.68-2.66.67,3.23.07.43-.13-.77-.06-1.61.08-2.39.08s-1.6-.12-2.36-.07c-2.55.16,1.6.09,1.39.27-.42.38-5.22-1-6-1.15-3.56-.56-7.16-1-10.75-1.35-4.1-.37-8.21-.52-12.31-.77-1.9-.12-3.78-.28-5.67-.43-.63,0-3.74-.58-.49,0-1.19-.21-2.38-.43-3.58-.61-9.47-1.43-18.8-.72-28.33-.7-9,0-18,.08-26.94-.18-9.15-.27-18.15,1-27.26.89-18.14-.2-36.25-.43-54.4-.47a265.09,265.09,0,0,0-27.47,1.19c-4.24.42-8.48.24-12.72.68-4.63.49-9.18,1.12-13.84,1.25-5.33.15-10.5,1-15.8,1.34,3-.2-1.5,0-2.41,0-2.56.1-5.13,0-7.7.08-9.19.15-18.32,1.29-27.5,1.5-37.38.88-74.82-.09-112.2.26-18.39.17-36.54,1.77-54.87,2.83-17.49,1-34.95,2.63-52.51,1.87-9-.38-17.86-1.54-26.83-1.8-9.22-.27-18.44,0-27.65.37-18.35.78-36.61,1.64-55,1.36s-37-.95-55.45.46-36.67,4.82-55.08,4.63c-10.29-.1-16.25,1.56-27.1,1.93-9.07.32-18.15.13-27.22,0-18.15-.28-36.3.54-54.39-1-9-.74-18-.49-27-1s-18-1.21-27-1.17a117.34,117.34,0,0,0-13,.64c-2.92.34-5.82.8-8.71,1.31-1.94.34,3.82.63.31-.09-9.22-1.89-18.42-1.4-27.76-1-10,.41-15-1.1-24.69-1.1-1,0-5.94-.5-3.21,0-1.66-.31-3.29-.69-5-.94.47.07-6.52-1.11-3.63-.49,2.36.51-2-.6-.36,0,1.36.5-1.48-.64-1.38-.6-1.84-.78-3.68-1.6-5.58-2.25s-4.09-1-6.06-1.76c-1.76-.64.12,0,.33.09-.65-.38-1.29-.74-1.91-1.17-2-1.39,1.28,1.3-.42-.48-.52-.55-1.07-1.08-1.6-1.64,0,0-1.52-1.89-.77-.89a22.49,22.49,0,0,0-1.41-2.31c-2.51-4.29-1.16-3.51-3.87-8.58-2.37-4.42-6-8.39-10.77-10.31A15.57,15.57,0,0,0,27,356.41c-1.66.07,2.39.34.58.19-1.29-.1-2.57-.39-3.86-.52a18.18,18.18,0,0,0-8.78.84c-5.82,2.34-10.1,7.76-8.18,14.42a31.44,31.44,0,0,0,1.6,4c2.08,4.68,8.94,5.76,13,3.4a37.57,37.57,0,0,0,5.86-4.58c1.77-1.56,1.88-5.09,0-6.63Z"/></g></g></svg>