<svg xmlns="http://www.w3.org/2000/svg" viewBox="0 0 21.65 361.49"><title>Asset 422</title><g id="Layer_2" data-name="Layer 2"><g id="Layer_1-2" data-name="Layer 1"><path d="M3.59,9.05l1.21.37L1.35,4.88c.17,2.66-.39,5.23,0,7.89s.36,5.31.79,8.05C3,25.89,4.16,31,4.25,36.13c0,2.63.57,4.92.85,7.47.2,1.84-.81,3.6-1.18,5.53A64.72,64.72,0,0,0,3.36,65.7c.43,4.87-.75,9.28-.67,14.22.1,6.15.44,12.27.41,18.43,0,5.73-.44,11.59-.09,17.31.37,6.17,1.83,11.39,1,17.64-.73,5.57-.32,10.15.28,15.68S2.93,160.24,3,165.83c.08,6-1.12,11.86-1.35,17.83-.25,6.43,0,12.67-1,19A41.18,41.18,0,0,0,0,211c.16,3,1.22,5.64,1.62,8.53s-.13,5.8,0,8.63c.15,3.3.69,6.56,1.05,9.85a326.87,326.87,0,0,1,1.95,37.41c0,6.86.66,13.48,1.23,20.3s.3,13.73.28,20.56c0,6.36-1.45,12.54-1.48,18.9,0,3.55.45,7.45,0,11-.33,2.77-1.57,5.06-1.55,8,.08,9.83,15.35,9.85,15.28,0,0-1.88,1.27-4.37,1.45-6.37.27-2.87.06-5.82.06-8.69,0-6.24.91-12.11,1.39-18.3,1-12.38-.66-24.61-1.27-36.93-.29-5.88,0-11.81,0-17.7,0-6.75-1.14-13.23-1.5-19.93-.29-5.44-1-10.79-1.36-16.22-.23-3,.06-6.05,0-9.09-.11-3.46-1.29-6.52-1.67-9.89-.61-5.48,1.52-11.22,1.56-16.74A157.53,157.53,0,0,1,18,174.34c.8-6,.27-11.88,1.28-17.8.95-5.59-.36-10.3-.4-15.81s1.69-10.85,1.16-16.39c-.58-6-1.47-11.36-1.44-17.43s.13-12.46-.09-18.66c-.19-5.24-.71-10.11.18-15.29.53-3.11,0-5.76-.27-8.83-.29-3.24-.16-6.57-.23-9.82A38.54,38.54,0,0,1,19,47.73c.57-3.89-.62-5.81-1.53-9.33-1.32-5.12-1.23-10.82-2.59-16C13.2,16.12,12.2,9.89,10.6,3.63,10,1.44,8.12.4,6.06.17L4.81,0c-5.3-.59-6,7.57-1.22,9Z"/></g></g></svg>