<svg xmlns="http://www.w3.org/2000/svg" viewBox="0 0 311.88 80.34"><title>Asset 350</title><g id="Layer_2" data-name="Layer 2"><g id="Layer_1-2" data-name="Layer 1"><path d="M16,19.65c-2.68-1-3.64-3.65-4.82-5.88a2.64,2.64,0,0,0-2.94-1.2C-2.61,15.35.4,34.33.33,42.39c0,5.9-1.88,13.51,4.3,17.19a10.09,10.09,0,0,0,4.29,1.21c2.93.23,4.2.07,7.05,1.26,4.49,1.86,8.58,1.84,13.38,1.58,5.13-.27,9.09,1,14,2.27s10.2,1.33,15.31,1.43c11.45.22,22.95-.8,34.38-.19,10.83.57,21.33,3,32.22,2.94,10.58,0,21.91,1.2,32.38-.43,5.76-.89,11-2.77,16.87-2.45a89.8,89.8,0,0,0,17.49-1c5.78-.78,11.56-1.37,17.37-1.85,5.57-.46,10.82-3.49,16.38-3.23s5.33-7.92,0-8.63c-4-.52-7.42.72-11.16,1.92-4.57,1.46-9.44,1.41-14.19,1.95-4.17.49-8.32,1.08-12.48,1.66-5.21.72-10,.47-15.25.36-4.46-.1-8.56,1-12.85,2-4.75,1.13-9.37,1.1-14.22,1.09-9.88,0-19.94.62-29.79-.18-9.55-.77-18.84-2.73-28.46-2.63-9.88.1-19.75.68-29.64.54-4.67-.06-9.23-.16-13.75-1.42-4-1.12-7.84-2.19-12-2.12-4.83.08-8.86.91-13.47-1a17.43,17.43,0,0,0-4.2-1.4C12.11,53,9.73,54,8.08,52.6c-2.36-2-1-7.39-1-10.21-.06-2.62-.31-5.23-.41-7.84-.2-4.78-1.32-14.36,3.63-17.22l-3.15-.41c2.4,2.44,4.84,4.4,8.25,5.13a1.25,1.25,0,0,0,.66-2.4Z"/><path d="M13.38,25.68C9.15,23.83,15,15.79,16.89,13.57,21.76,8,29.41,9.31,36,9.47c8,.2,15.68,1.8,23.56,2.72,8.35,1,16.85.63,25.24.65q54.19.13,108.4.25c17.26,0,34.49,1.52,51.75,1.33a124.49,124.49,0,0,0,22.57-1.85c7-1.39,14-3.94,21.22-3.48,5.91.38,8.35,3.65,10.19,9A65.2,65.2,0,0,1,302,33.39c.48,5.32.68,10.73.79,16.08.13,6,.26,13.75-5.21,17.56-4.87,3.39-11.7,3.63-17.41,3.7a102.55,102.55,0,0,1-20.79-1.39c-8.45-1.67-16.65-4.54-25.3-5.13-9-.6-17.51,2.61-26.38,3.29a4.36,4.36,0,0,0,0,8.72c9,.57,17.4-3.29,26.38-2.68,9.35.63,18.26,4.24,27.54,5.5,12.16,1.64,28,2.76,39.17-3.26,13.57-7.34,11.12-24.62,10.53-37.55-.49-10.55-1.69-24.29-9.11-32.52-10.35-11.47-29.08-2.36-41.57-.86-19.8,2.37-39.92,0-59.77-.23C159,4.14,117.13,4.68,75.28,5,64.61,5,54.46,3.41,43.88,2.5,36.12,1.84,26,.84,18.67,4,13,6.51,9,12.61,7.46,18.5c-1.2,4.53-.25,9.6,5.23,9.71,1.27,0,2-2,.69-2.53Z"/></g></g></svg>