<svg xmlns="http://www.w3.org/2000/svg" viewBox="0 0 20.56 399.61"><title>Asset 411</title><g id="Layer_2" data-name="Layer 2"><g id="Layer_1-2" data-name="Layer 1"><path d="M16.34,6.6l-.55-.36-7.56-1,.18,1.08,3.44-6c-5,1.62-7.16,6-6.8,11.08a56.1,56.1,0,0,1,.53,6.06c-.12,2.94-1,5.72-1,8.66,0,10,15.11,9.93,15.47,0a47.19,47.19,0,0,0-1.13-11.85c-.36-1.52-1.24-3-1.48-4.54S17.29,8,17.9,6.34C19.11,3.06,16,.41,13.16.12L12.22,0C8.76-.33,7.52,3.71,8.65,6.24a10.62,10.62,0,0,0,3.65,4.4c2.43,1.83,5.49-1.67,4-4Z"/><path d="M20.4,50.59c-.32-1-.8-2-1-3a5.85,5.85,0,0,0-8.53-3.47c-4,2.4-5.68,7.18-6.71,11.53-1.24,5.3.4,9.2,1.43,14.26.61,3,3.82,5.13,6.74,5.13,3.34,0,5.52-2.25,6.73-5.13A11.48,11.48,0,0,0,19.39,63c-.34-1.47-1.34-2.81-1.54-4.28-.36-2.62.57-5.65,1.51-8l-7.15,4a30.67,30.67,0,0,0,4.58.58,3.78,3.78,0,0,0,3.61-4.75Z"/><path d="M16.54,92.8C10.43,89.67,5.59,95,4.17,100.54a20.8,20.8,0,0,0-.07,11.39,7,7,0,0,0,13.38,0,21.67,21.67,0,0,0,.59-7.53c0-.66,0-1.32,0-2,0-1.4-.34,1.43,0,0,.39-1.7-.35.35-.8.94a10.74,10.74,0,0,0,1.53-2c1.33-3,1-6.9-2.24-8.57Z"/><path d="M16.36,142a8.83,8.83,0,0,0-4-4.94c-3.33-2.15-7.22.12-8.41,3.42-1.42,3.92-.18,8.06-.15,12.09s-.89,7.69,0,11.81c.62,3,4.17,5.83,7.3,5.57l1.25-.11c6.64-.56,10.44-9.82,3.64-13.45l-1.06-.57,3.48,4.53c-1-3-.4-6.49-1-9.61-.34-1.68-.87-3.31-1.32-5-.2-.74-.4-1.48-.55-2.23-.24-1.27.29-3.11-.37-.56l-3.48,3.48-2.31-.36c2.81,2.82,8.58,0,7.06-4.11Z"/><path d="M2,198.58c-.93,7.93-2.33,18.81,1,26.17,2.18,4.75,10.38,4.75,12.55,0,3.37-7.36,2-18.24,1-26.17-1.1-9.38-13.52-9.4-14.62,0Z"/><path d="M1.1,256.23C0,259,.19,263.44,0,266.34c-.24,4.45.68,11.49,3.26,15.24,2.32,3.37,7.81,5.06,10.89,1.4,4.66-5.53,1.81-9.89,1-16-.44-3.4.54-7.43-.73-10.73-2.53-6.54-10.86-6.58-13.38,0Z"/><path d="M13.36,318.2a14.35,14.35,0,0,1,.46-1.78c2.17-5.57-6.25-10.28-10-5.85-4,4.72-5.06,14.56.09,19,2.8,2.39,6.58,2.91,9.61.57,2.74-2.11,3.92-6.38,1.89-9.44v7.39c1.46-1.95,1.3-5.43,0-7.39q-.42-.69,0,.27.7,1.72-.53-1.24a2.52,2.52,0,0,0-.37-.71c.73.68.45,1.28.11.09-.11-.37-.14-.79-.27-1.15-.28-.78.1,1.69,0,.19,0-.39-.05-.77-.06-1.16s0-.7-.06-1.06-.51-3.51-.18-1.07l-4.42,5.8.78-.27-5.47-3.11a3.45,3.45,0,0,1,.29,1c.91,4,7.2,4,8.14,0Z"/><path d="M10.06,370.46q.74-.36,1.47-.75l-9.92-4c2.23,9-7,31.21,7.15,33.77,6.15,1.11,10.26-3.43,9.4-9.4a86,86,0,0,1-.79-13.33c.07-6.16.1-12.92-4.47-17.61s-13.73.07-11.29,6.57c1.33,3.53,4.44,6.77,8.45,4.79Z"/></g></g></svg>