<svg xmlns="http://www.w3.org/2000/svg" viewBox="0 0 162.73 158.95"><title>Asset 344</title><g id="Layer_2" data-name="Layer 2"><g id="Layer_1-2" data-name="Layer 1"><path d="M43.26,22C36.66,20.3,29.41,23.52,24,27.14c-6.8,4.53-12,9.3-14.54,17.58C8.34,48.36,6.2,51.65,5.1,55.36a88.52,88.52,0,0,0-2.8,13c-.55,4.06-.54,8.08-.75,12.16C1.36,84.13,0,88.07,0,92.36s1.2,8.3,2.14,12.31c1,4.43,2,9,4.27,13a21,21,0,0,0,1.16,1.79c1.36,1.89-.55-1.54.61.66s1.8,4.83,3.08,7.09a59.87,59.87,0,0,0,8.9,11.47C26.74,145.63,35,150.17,44,153.28a66.38,66.38,0,0,0,13.83,2.78c5.64.7,6.67,1,12.59,1.8a44.14,44.14,0,0,0,6.5.5,33.65,33.65,0,0,0,3.62-.39c4.64-.63,1.27.12.46,0-2.38-.42,4.51.64,3.79.56,1.16.13,2.27.2,3.44.27a63.08,63.08,0,0,0,7,.12,39.68,39.68,0,0,0,16-4.63c1.67-.83,3.29-1.76,5-2.61,2.35-1.19-2.13.74.37-.19,1.25-.46,2.52-.86,3.76-1.35a34.77,34.77,0,0,0,13.1-8.47,45.23,45.23,0,0,1,3.61-3.31c2.05-1.71,3.28-4,5-6,1-1.23-.49.59-.56.65.71-.68,1.49-1.33,2.14-2.07a27.31,27.31,0,0,0,4.21-6.32c1.78-3.71,3.8-7,4.9-11.06.25-.93.46-1.88.8-2.78-.27.71-1,2,.52-1,.95-1.85,2-3.66,3-5.47a41.52,41.52,0,0,0,5.32-16.53c1-8.58.56-18.78-1.67-27.07a100.47,100.47,0,0,0-5.33-13.81l-1.05-2.39c-.15-.34-1.52-3.63-.82-1.91.58,1.45-.33-.87-.36-.94-.81-2-1.7-4.16-2.66-6.17-3.83-8-11.14-16.12-18.17-21.55-8.13-6.28-18.43-8.12-28-11.21A41.61,41.61,0,0,0,95,1c-1-.09-2,0-3,0,1.48.07,2.58.41.66-.32-4-1.51-8.1-.11-12,.6C84.3.61,81.24,1,80.53,1A44.75,44.75,0,0,0,73.24,2a76.54,76.54,0,0,0-13.4,2.89c-2.56.89,2.41.08-.33,0a45,45,0,0,0-7.32.82,35,35,0,0,0-9.13,2.88c-4.42,2-8.32,4.82-12.46,7.3-2.92,1.75-5.84,3.21-8.23,5.74-3,3.22-4.54,6.79-6.21,10.8-4.65,11.17,8.91,23,19.49,19.49a73.78,73.78,0,0,0,15.77-7.36c2.35-1.44,4.69-3,7.16-4.19,2.13-1.05-.53.51-.94.23h.14c.86-.07,1.73-.1,2.6-.11,5.93-.41,11.53-2,17.32-3.1,1.39-.27,2.8-.51,4.19-.81-1.82.39-1.12.1.34,0a92.54,92.54,0,0,0,10.42-1.6H83.21c2.69.71,4.18,1.41,7.38,1.49.52,0,4.25-.46,2-.27-2.06.17,1.5.4,2.2.61,1.46.44,2.89,1,4.35,1.48,2.51.8,5,1.18,7.6,1.78a30.32,30.32,0,0,1,4.68,1.39c-2.78-1.14,1.13.88-.26,0s1.64,1.65,2,2c1.15,1.22,2.21,2.52,3.36,3.73.27.28,3.38,3.29,1.92,1.75s1,1.55,1.24,2a79.89,79.89,0,0,1,3.64,7.79c.58,1.32,1.19,2.62,1.79,3.92,0,0,2.14,4.85,1.1,2.31a37.06,37.06,0,0,1,2.53,8.22c-.46-3-.1,1.79-.09,2.09,0,1.3.12,2.59.18,3.88s.16,2.67.17,4c0,.8,0,1.6,0,2.4-.08,1.24,0,1.06.22-.56l-.33,1.49c.78-1.45.86-1.57.24-.38-.63,1.35-1.36,2.65-2,4a94.45,94.45,0,0,0-4.91,11.26c-.41,1.21-.7,2.42-1,3.66a17.17,17.17,0,0,1-.45,2q-.55,2,.61-1.53s-2.1,4.3-2.06,4.2c-.38.89-2.55,4.48-.83,2a42.2,42.2,0,0,0-4.77,9.43l3.93-6.76-.83.71,6.83-4a23.06,23.06,0,0,0-12.45,6.43,8.35,8.35,0,0,0-1.41,1.57c-1,2,1.93-1.26,0,.19-1.37,1-.1.16.36,0-1,.42-2,.72-3,1.11a106.31,106.31,0,0,0-10.92,5.11A20.22,20.22,0,0,0,94,126.51c-1.64,1.18-.11.07,0-.09s2.64,0,.28,0c-1.16,0-2.33,0-3.5,0-3.6,0-7.33-.45-10.89-.08-1.66.17-3.32.56-5,.72-1.91.19.09-.1.34-.1a51.07,51.07,0,0,1-5.67-.19c-3.38-.32-6.74-.61-10.12-.85a29.13,29.13,0,0,1-9.15-1.84c-4.61-1.51-8.69-4.26-12.8-8.77-2.29-2.51-2.54-4-4.33-7.48a18.37,18.37,0,0,0-1.14-1.9c.36.54-3-4.21-1.94-2.56,1.26,2-.19-.81-.49-1.79C28.81,98.84,28,96,27.24,93.24c-.23-.8-.58-4.26-.64-2.07,0-1.19.6-4.45.7-6.51.31-6.34-.82-12.55.24-18.86a66.8,66.8,0,0,1,3.19-11.35c.6-1.76,1.79-4.89,1.33-6.67-.3-1.13.3-.38,0-.1-.74.62-1.91,2.55-.29.89C35,45.23,38.11,36,43.26,35.22c6.9-1,6.12-11.6,0-13.19Z"/></g></g></svg>