<svg xmlns="http://www.w3.org/2000/svg" viewBox="0 0 414.18 13.01"><title>Asset 372</title><g id="Layer_2" data-name="Layer 2"><g id="Layer_1-2" data-name="Layer 1"><path d="M52.38,9.16a3,3,0,0,0,.92,2.33,5.77,5.77,0,0,0,2.69.92,29.58,29.58,0,0,0,5.86.6c2.52,0,3.27-4,.61-4.56-1.41-.28-2.82-.47-4.25-.64A12,12,0,0,0,54,7.72l2.43,1-.41-.55c-1-1.33-3.91-1.2-3.67,1Z"/><path d="M2.76,5.79a34.62,34.62,0,0,0,5.09-.07,2.79,2.79,0,0,0,0-5.58A37.62,37.62,0,0,0,2.76.07a2.86,2.86,0,0,0,0,5.72Z"/><path d="M21.33,3.35s.35,1.11.26.66,0,.81,0,1a4.28,4.28,0,0,0,1.49,1.88,9.57,9.57,0,0,0,5.07,1.92c3.37.44,7.41-.07,9.87-2.64a2.41,2.41,0,0,0-3.41-3.41C33.28,4,30.48,4,28.74,3.9a8.69,8.69,0,0,1-3-.68c-.37-.17-.69-.48-1-.63a2.12,2.12,0,0,0-1.07-.29c.71.42.89.37.54-.16C23.45.42,21,1.72,21.33,3.35Z"/><path d="M51.11,2.93c.33,7.27,8.35,7,13.74,6.75,2.88-.11,2.9-4.45,0-4.5C61.64,5.13,55.2,7,54.52,2.47,54.23.54,51,1,51.11,2.93Z"/><path d="M85.75,5.55a3.22,3.22,0,0,0-1.38-1.92l.89.89a1.7,1.7,0,0,1,.12.94L83.57,7.27a42.21,42.21,0,0,1,5.28-.4c3.17-.13,3.09-4.59,0-4.87-2.19-.21-4.56-.58-6.66.27a2.71,2.71,0,0,0-1.9,2.5A3.41,3.41,0,0,0,82.05,8c1.09.51,2.79.43,3.36-.88a2.3,2.3,0,0,0,.34-1.55Z"/><path d="M111.41,4.43a2.44,2.44,0,0,0,0,.54l.44-1.07L111.7,4a2.59,2.59,0,0,0,.52,4c2.69,2,6.82-.21,9.33-1.54,2.34-1.24.72-5.36-1.84-4.37a34.1,34.1,0,0,1-3.4,1.17,3.83,3.83,0,0,1-1.52.23c.67.05-1.14-.28,0,.12a2.83,2.83,0,0,0-2.28-.13l1.86,1.05a2.38,2.38,0,0,1-.15-.52c-.37-1.64-2.7-1.16-2.81.38Z"/><path d="M135.34,7.76c3.13.12,5.81,2,9,1.88,2.86-.09,2.81-4.21,0-4.41-3.25-.23-6.17-2-9.48-1.06a1.84,1.84,0,0,0,.48,3.59Z"/><path d="M163.29,10.92c.8.15,1.48.5,2.29.6a7.73,7.73,0,0,0,2.35-.09,6.72,6.72,0,0,0,4-2.75,2.47,2.47,0,0,0-3.87-3C167,6.9,165.26,6.25,163.76,7l1.13-.31-1.6.22c-2,.32-1.94,3.62,0,4Z"/><path d="M195.39,7.48a9.66,9.66,0,0,1,3.65-.2,32.13,32.13,0,0,0,3.8.06,2.91,2.91,0,0,0,0-5.81c-.3,0-.26,0,.11,0l-.57-.09q-.74-.11-1.47-.18a20.32,20.32,0,0,0-2.46-.16c-1.78,0-3.76.09-5.26,1.13-2.5,1.75-1.08,6.32,2.2,5.24Z"/><path d="M217.91,4.36a8,8,0,0,0,4.34,2.49,13.59,13.59,0,0,0,5.24,0c2.75-.52,2.09-4.89-.65-4.84a32.18,32.18,0,0,1-7-1,2,2,0,0,0-2,3.37Z"/><path d="M243.93,2.87a10.39,10.39,0,0,1-3.82,1.9c-2.58.51-2.07,4,0,4.72,3.92,1.44,8.84,1,12.89.36,3.07-.47,1.85-4.59-.66-4.92-3.84-.51-7.71.26-11.58-.25l2.11,3.68c.75-1,2.3-1.77,3.24-2.65,1.48-1.37-.49-4-2.18-2.84Z"/><path d="M268.21,11.22a33,33,0,0,0,8.13.2,2.49,2.49,0,0,0,0-5,32.52,32.52,0,0,0-8.13.2c-2.26.38-2.26,4.19,0,4.57Z"/><path d="M293.37,4.43l.08,1.22a2.71,2.71,0,0,0,1.94,2.55c.68.16,1.35.36,2,.51.31.11.34.11.1,0l.48.23c.15.08.3.16.45.26q-.29-.25.06.06a2.6,2.6,0,0,0,3.39.2,2.56,2.56,0,0,0,.66-3.33A7.5,7.5,0,0,0,296.09,3l2.55,1.94-.43-1.16A2.48,2.48,0,0,0,295.51,2a2.44,2.44,0,0,0-2.14,2.41Z"/><path d="M320.51,6.28l-1.21-.53.32,2.45c.13-.15,1.29-1.41.15-.47a1.79,1.79,0,0,1,1-.4c-.37.07.62,0,.76,0,.45,0,.89.06,1.34.11,2,.22,4,.42,5.85-.75A2.65,2.65,0,0,0,326,2.15a2.37,2.37,0,0,1-.6.06,11.41,11.41,0,0,1-1.54-.12A12.4,12.4,0,0,0,320.5,2c-2.79.44-4.52,2.9-3.49,5.56a1.64,1.64,0,0,0,1.5,1.15l1.32.11c1.28.1,1.89-2,.68-2.49Z"/><path d="M345.9,10.53c3.66,1.57,9,1.18,12.93.72a2.32,2.32,0,0,0,0-4.64c-3.89-.45-9.27-.84-12.93.72a1.86,1.86,0,0,0,0,3.2Z"/><path d="M373.24,5.93c0,.47.1.92.16,1.38V6.12a4.18,4.18,0,0,0,.89,3.72,5.59,5.59,0,0,0,2.9,1.78c2.15.58,4.19.12,6.33-.18,2.5-.35,2.47-4.63,0-5-1.54-.23-3.07-.23-4.61-.42-.15,0-.06,0-.47-.1-.12-.05-.05,0-.4-.19a6.78,6.78,0,0,0-.54-.46,2,2,0,0,0-.92-.48c.71.66.9.7.55.11-.85-1.89-4-.94-3.89,1Z"/><path d="M407.56,7.43c0,.28,0,.23,0-.13a1.37,1.37,0,0,0-.09.49c0,.29-.07.57-.1.86A2.69,2.69,0,0,0,408.75,11l.14.09-1.28-1.65.07.16a3.23,3.23,0,0,0,3,2.25,4,4,0,0,0,1.45-.15,2.89,2.89,0,0,0,1.26-4.78,5.57,5.57,0,0,0-1.9-1.1,3,3,0,0,0-3,.79l-.14.13,2-.81h-.18l2.35,1.35a6.54,6.54,0,0,0-.48-.69,2.11,2.11,0,0,0-.3-.37c.21.27.25.29.11.07a2.3,2.3,0,0,0-2.57-1,2.36,2.36,0,0,0-1.66,2.19Z"/></g></g></svg>