<svg xmlns="http://www.w3.org/2000/svg" viewBox="0 0 9.97 165.68"><title>Asset 367</title><g id="Layer_2" data-name="Layer 2"><g id="Layer_1-2" data-name="Layer 1"><path d="M1.58,1.81C1.72,3.75.07,5.34,0,7.34c-.07,2.28,1.35,4.22,1.3,6.47-.06,2.82,3.92,2.63,4.27,0C5.89,11.33,4.29,9.35,4.36,7a11,11,0,0,1,.81-2.51,6.79,6.79,0,0,0,0-3.17c-.39-2-3.79-1.59-3.64.49Z"/><path d="M3.84,35.51c0,1.22.5,1.69.7,2.81a1.6,1.6,0,0,1-.29,1.21c-1.64,2.4,2,5.1,4,3.07A5.91,5.91,0,0,0,10,38.21c-.06-1.5-.46-3.51-1.59-4.58a2.69,2.69,0,0,0-4.54,1.88Z"/><path d="M7.64,62.1a3.48,3.48,0,0,0-1.17-.87,2.74,2.74,0,0,0-4,3.06C3,67,4.12,69.07,3.41,71.87c-.63,2.48-1.21,4.49-.76,7.07s4.65,2,4.65-.63c0-2.76,1.9-5.13,2.08-7.91.17-2.58-.75-5.19-1.67-7.55L7,65.48a4.64,4.64,0,0,0,1.06-1.72,1.71,1.71,0,0,0-.44-1.66Z"/><path d="M3.33,82.36c-.1.31-.19.61-.27.92l.85-1.11c-3,1.84-.19,6.24.38,8.73s4.63,1.93,4.37-.59a25,25,0,0,0-1-4.36c-.39-1.36-.5-3.08-1.89-3.78l.85,1.11-.05-.47a1.67,1.67,0,0,0-3.27-.45Z"/><path d="M3,112.28c-.19.77-.72,1.27-.87,2.14a19.35,19.35,0,0,0-.11,3.23A32.15,32.15,0,0,0,2.42,124c.51,2.48,4.52,2.48,5,0a31.42,31.42,0,0,0,.38-6.35,19.35,19.35,0,0,0-.11-3.23c-.15-.87-.68-1.37-.88-2.14a2,2,0,0,0-3.8,0Z"/><path d="M1.89,138.3a35.19,35.19,0,0,0,1.08,11c.51,2.21,4.14,1.77,4-.55-.21-3.62-1.54-6.93-2-10.5a1.55,1.55,0,0,0-3.09,0Z"/><path d="M2.19,162.05a5,5,0,0,1,.53.5c-.12-.14,0,0,0,0s.15.24.21.37-.07-.24,0,0l.09.33c.07.27,0-.27,0,0s0,.3,0,.45a1.9,1.9,0,0,0,1.87,1.88,1.91,1.91,0,0,0,1.88-1.88,5.71,5.71,0,0,0-2.49-4.52,1.76,1.76,0,0,0-2.13,2.77Z"/></g></g></svg>