<svg xmlns="http://www.w3.org/2000/svg" viewBox="0 0 266.1 260.27"><title>Asset 345</title><g id="Layer_2" data-name="Layer 2"><g id="Layer_1-2" data-name="Layer 1"><path d="M61.15,31.9C49.6,32,41.92,43.81,35.22,51.64c-4.29,5-7.34,10.14-10.68,15.76a17.7,17.7,0,0,1-4.18,5,25.34,25.34,0,0,0-7.14,9.31C8,93.48-.07,107.75,0,121.75c0,6.4.83,12.89,1.27,19.27.53,7.78,0,15.71,2.38,23.3.47,1.48,1.16,2.89,1.63,4.37-.08-.25,1.15,4.55.73,2.41.79,4.06.89,8.06,2.25,12,2.45,7.11,6.85,12.54,10.79,18.79a132.75,132.75,0,0,0,26,29.84,27.26,27.26,0,0,0,5.64,4.19c3.48,1.64-1.07-1.68,1.33,1,2.87,3.12,6.13,4.83,10,6.36a146.31,146.31,0,0,0,21,6.1A65.2,65.2,0,0,1,91.63,252c1.7.65,3.36,1.37,5,2.05,5.34,2.16-2-.92,2,.85,7.6,3.38,15.41,4.42,23.6,5.11a82.18,82.18,0,0,0,21.69-1.05c3-.55,5.91-1.18,8.88-1.69,5.5-.94-2.59,0,2.75-.34,2.28-.13,4.57-.21,6.85-.35,16.14-1.05,28.1-10.21,41.89-17.41,13.06-6.83,25.49-16.09,33.09-28.9,3.87-6.52,6.12-13.47,8.6-20.57,0-.13,2.17-5.36.8-2.23.69-1.57,1.45-3.11,2.21-4.65,1.52-3.08,3.12-6.12,4.7-9.18,3.55-6.85,7.28-14,9.51-21.36A49,49,0,0,0,264.85,141c-.31,5,.44-2.79.41-4.48-.11-1.07-.21-2.14-.31-3.2-.23,2.17-.16,2.2.21.11,2-7.72.46-17.32-1.17-25-1.05-4.92.44,4.06-.26-1.4a71.65,71.65,0,0,0-1.3-8c-.93-3.82-2.28-7.53-3.28-11.33-1.71-6.53-3.39-12.38-7.09-18.16-4.09-6.41-7.67-12.83-12.41-18.83-4-5.12-9-9.15-13.8-13.56a69.34,69.34,0,0,0-9.58-7.68c-2.85-1.83-6-3.1-8.81-5q-8.85-5.89-18-11.26c-1.36-.8-2.58-1.79-4-2.57q-2.85-1.32-5.77-2.48t-.27,0c-4.59-2-9.06-4.49-13.89-5.87-4-1.15-8.46-1.27-12.66-1.36-5.59-.12,3.34.64-2.12-.22A42.88,42.88,0,0,0,140.72.08c4.72-.36-10.76,1.28-5.25.79-3.43.3-6.88.21-10.25,1.16a23.79,23.79,0,0,0-4.72,1.72l-1.57.54q3.07-.13-.29-.16a30.44,30.44,0,0,0-8.32.51c-2.14.26-2.32.31-.52.14-1.18.08-2.37.13-3.55.16a40.67,40.67,0,0,0-8,.94,48.47,48.47,0,0,0-5.51,2.23q-4.17,1.8,4-.92C96.9,6.79,86,9.39,84.6,9.75c3.29-.82-2.41.19-2.59.21a54.24,54.24,0,0,0-9.75,1.36C64,13.65,55.64,19.45,49.33,25.13a82.41,82.41,0,0,0-7.47,8.05c-1.67,2-3.25,4-4.82,6L35.16,41.7q1.7-2.22-.21.13c-5.8,6.9-7.27,17.72,0,24.39s17.15,6.39,24.4,0c4.18-3.69,7.58-7.89,11.36-12,.88-1,1.78-1.91,2.73-2.81.43-.4,4.35-3.31,1.19-1.17,2.47-1.67,5.08-3.1,7.63-4.63,2.81-1.68-2.74,1.53-2.14.28.14-.29,5-.39,5.57-.45,3.68-.38,7.94-.44,11.39-2,.76-.34,3-1.91-.39-.38,2.12-1,5.17-.37,7.55-1.11a52.76,52.76,0,0,0,5.48-2.32,9.45,9.45,0,0,1-3.47,1.24c1.18,0,2.37-.06,3.55-.13,2.19-.17,4.35-.62,6.54-.83-3.62.35,2,.22,2.3.23a34,34,0,0,0,11.45-1.64A24.28,24.28,0,0,0,134,37.11c1.94-1.09-3.24,0,1.45-.09a23.66,23.66,0,0,0,7.58-.93q2-.33-.6,0c2.23.14,2.39.06.46-.21,3.89.14,7.78,1.11,11.71,1.27l1.58,0q3.17.2-.22,0c1.09.4,2.18.75,3.26,1.17-3.41-1.33,1.84.94,2,1,1.88.86,3.93,1.81,5.79,2.48,4.53,1.61-2.16-1.91,1.62.81a35.71,35.71,0,0,0,4.09,2.49c4.79,2.58,9.34,5.73,13.95,8.64,2.37,1.49,4.57,3.12,7.07,4.41,1.46.76,2.92,1.54,4.38,2.31,3.28,1.72-1.26-1.5,1.19,1,3.92,4,8.55,7.18,12.3,11.33.51.56,2.79,3.38.93,1,1,1.34,2,2.75,2.88,4.17,1.64,2.53,3.06,5.19,4.6,7.78.62,1,1.31,2,2,3s2,4.42.78.55c.81,2.59,1.3,5.3,2,7.92s1.57,5.38,2.39,8.07c.32,1.06.57,2.2.93,3.25q.63,3.17.25.24c.23,2.08.5,4.17.81,6.24.16,1,.32,2,.54,2.94,1.11,4.79-.17-3.87.34,1.83.11,1.22.23,2.44.3,3.66,0,.41,0,6.39.28,2.16-.26,3.82-.78,7.19-.81,11,0,1.22-.26,2.44-.35,3.66-.05.86-.08,1.72-.09,2.59q.4-3-.29,0c-.57,1.24-.92,2.62-1.43,3.89-1.22,3,1.81-3.55-.63,1.35-1.27,2.57-2.51,5.16-3.82,7.72-3.31,6.47-6.52,12.93-9.18,19.7-1,2.66-1.9,5.35-2.7,8.09-.47,1.6-1,3.18-1.44,4.77.76-2.56.05-.05-.25.54a79,79,0,0,1-4.34,7.72c1.75-2.68-1.11,1.28-1.38,1.56-1.11,1.15-2.32,2.18-3.51,3.24-3.77,3.35,2.55-1.64-1.63,1.24-1.11.76-2.2,1.57-3.3,2.34-2.39,1.68-4.84,3.24-7.39,4.68-5.31,3-10.24,6.39-15.48,9.45a55.4,55.4,0,0,1-8.45,4.37c.95-.34,1.51-.43-1,.13-4.81,1.09,2.46.19-2.49.29-7.3.13-14.77,1.55-21.88,3.14-1.15.26-2.29.55-3.45.81-4.67,1,2.88.1-2.25.13-2.58,0-5.12.55-7.7.49a61,61,0,0,1-8-.45c2.63.45-.88-.52-1.53-.67s-6.32-1.16-2.51-.14c-6.33-1.68-12.2-5.23-18.58-7s-12.78-2.35-19-4.53c-.61-.21-4-1-4.22-1.45.09.18,2.33.81,2,1a77.24,77.24,0,0,0-7.56-5.62c-1.25-.69-2.33-1.89-4.17-3.75-2.26-2.27-4.71-4.31-7-6.54-4.28-4.2-6.81-6.84-9-10.47-3.08-5-7.36-9.49-9.83-14.88-1-2.14.27,2.29-.6-1.89-.4-1.9-.8-3.79-1.15-5.71-.67-3.66-2.1-6.75-3.43-10.22.84,2.19-.91-3.33-.78-2.75-.41-1.81-.6-3.69-.85-5.53-.4-2.94-.4-6.86-.94-10.58-.43-3-.53-5.86-.81-8.93-.34-3.69-1.46-7.54-1.1-9.8a93,93,0,0,1,4.55-17.48c2.2-5.73,3.45-10.77,6.62-15.5,3.66-5.46,5-11.33,7.51-17.25,2.39-5.59,6.42-10.65,9.19-16.07,2-3.87,5-10.88,9-12.74,3.83-1.78,1.79-7.72-2.08-7.69Z"/></g></g></svg>