<svg xmlns="http://www.w3.org/2000/svg" viewBox="0 0 24.7 329.16"><title>Asset 358</title><g id="Layer_2" data-name="Layer 2"><g id="Layer_1-2" data-name="Layer 1"><path d="M3.83,4.58l.41-2C4.76,0,.73-1.11.27,1.48c-.73,4.08.16,8,1,12C2.43,18.89,2.7,24.27,3.42,29.7c.7,5.27,1.7,10.52,1.92,15.85.24,5.65-.38,11.32-.52,17C4.56,72.9,7.75,82.67,7.91,92.93s2.63,19.44,4.6,29.3c4.28,21.53-1.82,43.84,2.55,65.28,2.17,10.67,1.37,21,1.42,31.83,0,11.17,1.34,23.22-.29,34.29-.73,4.91-2.57,9.54-3,14.53-.45,5.86,0,11.78.08,17.66,0,13.12-.06,26.25-.09,39.37,0,5.28,8.22,5.29,8.2,0l-.07-34.45c0-10.47-1-20.64,1.56-30.87s1.51-21.23,1.39-31.67c-.11-10.94,1.05-22.38-.16-33.24-.48-4.28-1.67-8.42-2.41-12.65-1-5.71-.63-11.5-.52-17.26.21-11.68.79-23.53-.22-35.19-.83-9.57-4.19-18.6-5.61-28.06-.75-5-.43-10-1.13-15C13.52,81.5,12,76.31,11.52,71,10.42,59.17,12,47.53,10,35.76,9,29.85,8.46,23.87,7.43,18c-1-5.54-2.34-10.94-3.19-16.51l-4,1.1.54,2c.38,1.43,2.71,1.56,3,0Z"/></g></g></svg>