<svg xmlns="http://www.w3.org/2000/svg" viewBox="0 0 16.18 123.6"><title>Asset 416</title><g id="Layer_2" data-name="Layer 2"><g id="Layer_1-2" data-name="Layer 1"><path d="M3.13,4.38C2,14,1.88,23.75,1.54,33.4c-.16,4.73-.54,9.5-.28,14.24.24,4.35,1.05,8.65,1.21,13,.17,4.68,0,9.47-.18,14.14C2.08,79.29.89,83.65.58,88.14c-.69,9.85-1,20.8.5,30.55,1,6.53,12.2,6.55,13.2,0,1.5-9.76.13-19.8.49-29.65.18-4.78,1.3-9.45,1.37-14.25s.08-9.46-.22-14.14c-.29-4.37-1.21-8.66-1.58-13s-.32-8.91-.48-13.35c-.36-9.94-.42-20-1.63-29.91-.72-5.83-8.38-5.85-9.1,0Z"/></g></g></svg>