<svg xmlns="http://www.w3.org/2000/svg" viewBox="0 0 22.11 429.79"><title>Asset 412</title><g id="Layer_2" data-name="Layer 2"><g id="Layer_1-2" data-name="Layer 1"><path d="M18.15,13.32c.47-2.11.24-4.41.81-6.46C20.61,1,11.94-2.87,9,2.67,6.28,7.93,5.5,15.42,4.67,21.31,3.75,27.8,1.92,36.17,5.5,42a8,8,0,0,0,13.6,0c3.65-6.09,1.09-13.69,1-20.44C20,15.39,21.58,8.26,18.42,2.67l-6.14,8,.07,1.87c.4,3,5,4.37,5.8.79Z"/><path d="M14.5,71.8a10.91,10.91,0,0,0,4.41-4.14c6-9.25-11.1-16.92-14-5.89-1.59,6.08-.39,11.48-.18,17.56C4.93,85,2.06,90.1,4.26,95.75c3.08,7.91,13,7.85,16.09,0,1.21-3.07.81-6,1-9.25s.7-5.73.23-8.89c-.31-2.09-.94-4.13-1.16-6.22-.35-3.3,0-6.34-.79-9.62l-14,5.89c1.8,2.79,5.25,6,8.81,4.14Z"/><path d="M5.68,135.69c2.74-.4,4.36-2.24,6-4.28.27-.34,3.49-4,1.62-2.17a31.88,31.88,0,0,0,3.19-3.37c3.59-4.65-2.42-12.3-7.82-10.17C-.15,119.19.43,132.87.12,140.9c-.18,4.43-.31,9.39.77,13.72,1.48,6,7.85,11.71,14.1,7.57a8.61,8.61,0,0,0,3.81-9.37c1.1,5-.67-1.83-.91-2.42.22.56.5,2.25.42.85a34.21,34.21,0,0,0-.67-3.41c.28,1.64-.26-2.67-.31-3.41-.14-1.87-.23-3.74-.32-5.61a105.29,105.29,0,0,1,0-10.66c0-.64.08-1.28.14-1.92.11-1.12-.18,1.29,0-.14a19.18,19.18,0,0,0,.39-2.91c0-2.45.37-3.84-.32,1H3.86c.12.31.52,1,.44,1.34L4.92,127c-.37-1.25-.58-1.44-.63-.56a25.91,25.91,0,0,0-1.14,3.23c-3.1,2.25-1.18,6.53,2.53,6Z"/><path d="M13.84,201.8l-.36.16c6.31-4.34-.68-13.52-6.43-8.34-4.54,4.07-3.49,11.94-3.84,17.6-.41,6.55-.92,13.23-.79,19.79.29,13.6,22.16,8.27,15.62-4.23l-.4-.75c-2.7-5.17-11-5.17-13.68,0l-.39.75C-2.93,239.2,18.9,244.69,19.18,231c.14-6.57-.38-13.24-.78-19.79-.35-5.66.7-13.52-3.84-17.6-5.67-5.1-12.84,3.94-6.44,8.34l-.35-.16a3.56,3.56,0,0,0,6.07,0Z"/><path d="M17.86,268.61c-2.48-3.19-7.34-2.33-10,.18s-3.72,6.12-4.61,9.36A31.05,31.05,0,0,0,2,289.27c.52,5.37,1,12.59,5.12,16.42,3.39,3.16,9.09,2.74,11.49-1.48,4-7-1.42-13.52-1.6-20.75a27,27,0,0,1,.25-5.16,15.6,15.6,0,0,1,.44-1.94c.19-.59,1.48-3.4.88-2.14a4.92,4.92,0,0,0-.73-5.61Z"/><path d="M19.1,340.57c.48-2.6.72-5.23,1.18-7.82C22,323.09,7.8,321.05,6.93,331c-.48,5.47-.49,11-.79,16.5S4.88,358.86,6.48,364a7.66,7.66,0,0,0,14.64,0c1.7-5.39.76-12,.51-17.56a154.61,154.61,0,0,0-1.35-17.34l-8.36,8.36,1.88.4-3-2.32a15.25,15.25,0,0,1,.57,3.94c.51,4,6.85,5.86,7.74,1.05Z"/><path d="M9.3,396.42a7.23,7.23,0,0,0,1.61,0l-4.64-8.09c-2.62,3.59-2.48,8.91-2.81,13.22A82.07,82.07,0,0,0,3.23,411c.2,5.3.08,12.84,4.55,16.57a8.46,8.46,0,0,0,9.72,1.25l.21-.1c2.89-1.38,4.6-5.71,3.55-8.73-.18-.52-1.53-3.73-.82-1.79-.32-.88-.6-1.72-.84-2.62a61,61,0,0,1-1.31-7.07c.27,1.84-.18-1.23-.27-2q-.42-3.36-.63-6.72c-.25-4,.1-7.8-1.83-11.44-2.51-4.74-10.13-2.53-10,2.71l0,.7,2.34-4.08-.81.54a4.44,4.44,0,0,0,2.22,8.21Z"/></g></g></svg>