<svg xmlns="http://www.w3.org/2000/svg" viewBox="0 0 44.62 317.95"><title>Asset 399</title><g id="Layer_2" data-name="Layer 2"><g id="Layer_1-2" data-name="Layer 1"><path d="M3.51,2A10.15,10.15,0,0,0,.74,6.45c-.73,2.62.4,4,.65,6.13C1.92,17.07.14,22.1,0,26.67c-.24,9.78,1.44,19.33,2,29.06.32,5.25.39,10.31,1,15.56.45,3.92-.38,10.09.43,15.14.69,4.26,1.2,5.55.5,9a94.53,94.53,0,0,0-2.11,18.29C1.72,135.35,1.53,157,3,178.58c.7,10.25-.71,20.45.18,30.71.88,10.1,1.06,20.22,2.08,30.32.16,1.64.4,3.27.62,4.91,0-.32.72,6,.45,3.12.29,3.13.13,6.28.32,9.42.35,5.87.94,11.67.91,17.56a116.19,116.19,0,0,0,1.15,15.81q.4,3.17.86,6.31c.76,5.45-.42-3.53.18,1.88.69,6.15,2.83,9.9,6.62,14.6,6.87,8.52,19.72,4.37,24.89-3.2,4.62-6.77,3.57-14.18,2.13-21.74-.48-2.49-.95-5-1.34-7.47.11.73.3,3.19,0-.29-.13-1.39-.25-2.77-.33-4.17-.63-11.52-1.33-23.49-3.17-34.88-.19-1.17-.45-2.34-.62-3.51.3,2.06-.08-.86-.1-1.05-.28-2.62-.62-5.23-.91-7.84-.58-5.38-.65-10.79-1.25-16.18-1.2-10.87-.49-21.59-1.23-32.45s-2-21.69-2.15-32.66c-.19-11.37-.59-22.72-.8-34.07-.19-10.19,3.64-20.89-.16-31.65-.55-1.57-.45-2.09-.46-4.45A50.4,50.4,0,0,0,30,68.06C29,63,28.79,59.39,28.07,54,26.6,43.06,23,32.66,21.83,21.65,21.22,16,21.48,10.1,18.28,5.19A11.38,11.38,0,0,0,10.59,0c-.95-.13-5.48.77-2.5,0C6.31.49,5,.58,3.51,2Z"/></g></g></svg>