<svg xmlns="http://www.w3.org/2000/svg" viewBox="0 0 208.06 201.18"><title>Asset 342</title><g id="Layer_2" data-name="Layer 2"><g id="Layer_1-2" data-name="Layer 1"><path d="M56.43,24l.23-.77L53.1,25.94h.67l-3.25-5.65c-1.9,4.33-5.1,6.2-9,8.33C37,31.13,34.63,36,30.48,39s-7.94,5.31-10.86,9.71A158.46,158.46,0,0,0,11,63.39C1.11,82.5-3.56,105.33,3.15,126.21c1.65,5.12,3.35,10.39,5.3,15.39,1,2.58,2.65,4.64,3.92,7.06,1.16,2.2,1.92,4.59,2.92,6.87a28.1,28.1,0,0,0,4.14,6.95c1.85,2.2,1.7,2.52,3,5.19,2.25,4.5,7.08,7.22,10.56,10.71a25.76,25.76,0,0,0,6.33,5c2.08,1.06,4.45,1.33,6.53,2.3,1.9.88,3.36,2.44,5.1,3.58a30.48,30.48,0,0,0,8.62,3.53c5.2,1.51,10.52,2.59,15.68,4.19,2.65.82,5.24,1.86,7.92,2.55,3.22.82,5.82.5,9,.64,2.25.1,4.46,1,6.74,1.05,2.61,0,5-.91,7.55-1.12,2.87-.23,5.46.17,8.38-.36s5.67-1.24,8.51-1.79a69.09,69.09,0,0,0,15.67-5.24c2.17-1,4.44-1.19,6.68-1.94a33,33,0,0,0,7.32-4.06c4.17-2.68,8.22-4.85,11.71-8.46A94.45,94.45,0,0,1,177,167.05c8.25-6,16.68-11.46,20.5-21.33,3.76-9.72,8.64-20.73,8.36-31.32-.15-5.35,2.35-10.23,2.25-15.62-.11-5.91-1.71-12.15-2.86-17.93a114.38,114.38,0,0,0-4.83-17.06c-1.67-4.59-4.49-8.77-5.92-13.29-1.74-5.51-4.89-9.72-8.85-13.82-4.21-4.35-7.68-8.84-13-11.95a282.58,282.58,0,0,0-35-17.41c-5.84-2.41-12.08-5.17-18.3-6.44-6-1.24-12.81-.86-18.95-.67A75.15,75.15,0,0,0,81.16,3.49c-6.22,1.82-11.09,5.27-16.85,7.92A153.66,153.66,0,0,0,47,20.14a29.88,29.88,0,0,1-6.75,3.07c-3.67,1.22-5.44,3.41-7.9,6.27-7.69,9,4.57,21.69,13.13,13.13,1-1,1.91-2.16,3-3.16l-4.17,2.43C48.6,40.26,52.7,39,56.67,36.62a86.08,86.08,0,0,1,13.58-7c4.3-1.68,7.93-4.47,12.16-6.22a56.31,56.31,0,0,1,12.9-3.54c4.94-.7,10.18-.18,15.14,0a33.08,33.08,0,0,1,5.29.26,59.27,59.27,0,0,1,8.11,2.69c9.61,3.37,19.68,7.36,28.51,12.46,3.91,2.27,8.37,4.44,12,7.07,3.44,2.5,6.33,6.47,9.21,9.62,2.71,3,2.84,6.8,4.83,10.2a58.49,58.49,0,0,1,5.53,12.49c1.54,4.85,2.69,9.84,3.81,14.8,1,4.53,2.53,8.94,1.51,13.54a43.91,43.91,0,0,0-1.29,7.37c-.1,2.32.47,4.64.32,6.94-.31,4.61-2.2,9.82-3.63,14.2-1,3-2.55,8.46-3.93,10.54a35.56,35.56,0,0,1-8.11,7.85,116.09,116.09,0,0,0-11.78,8.85c-3.39,3-6.26,6.77-9.71,9.69-6.65,5.61-15.37,8-23.16,11.46-4.08,1.83-8.82,2.21-13.19,3.15a26,26,0,0,1-6.7.83c-2.87-.08-5.47.87-8.24,1-1.79.08-3.52-.52-5.34-.71-2-.21-4.1.28-6.1,0-4.6-.52-9.33-3-13.86-4.07s-9.88-1.82-14.2-3.79c-1.76-.8-3.2-2.37-4.82-3.43a29.3,29.3,0,0,0-7.26-3.11c-3.52-1.17-5.53-4.32-8.4-6.59-1.64-1.3-2.78-2.08-3.53-3.46C34.85,157,34.24,155.35,32,153c-2.85-3-3.75-7.22-5.55-10.88-.9-1.83-2.21-3.38-3.15-5.17-1.17-2.23-1.68-4.85-2.61-7.22-2.07-5.22-4.49-10.87-5.31-16.46-.76-5.15-.28-10.86.08-16A73.7,73.7,0,0,1,23.9,69c1.3-2.47,2.9-4.78,4.23-7.24,1.21-2.24,2.09-4.8,3.62-6.86,3-4,7.67-6.37,10.82-10.29,1.61-2,2.93-4.25,4.79-6,1.56-1.5,3.49-2.51,4.92-4.14,2.38-2.72,4.35-7.78,5.11-11.28a3.8,3.8,0,0,0-4.62-4.62l-.65.14a3.76,3.76,0,0,0-2.71,3.56l-.07.8c-.37,4.15,6,4.74,7.09.95Z"/></g></g></svg>