<svg xmlns="http://www.w3.org/2000/svg" viewBox="0 0 147.01 11.85"><title>Asset 374</title><g id="Layer_2" data-name="Layer 2"><g id="Layer_1-2" data-name="Layer 1"><path d="M11.42,6.17c-.1-3.86-4-5.62-7.4-4.62A5.4,5.4,0,0,0,.16,5c-.61,2.09.56,4.11,2.17,5.37a2.64,2.64,0,0,0,3.06.4c2-1.22,4.69-3.29,3.56-5.93a4.28,4.28,0,0,0-6-2.25A2.47,2.47,0,0,0,3.51,7c.31.09,1,.19,1,.21.31.09.2,0-.33-.26a.15.15,0,0,1-.06-.15l.26-2A5.14,5.14,0,0,1,2.84,6.38H5.39c-.13-.08-.28-.25-.11,0A3.18,3.18,0,0,0,5,6a2.61,2.61,0,0,1-.27-.3c.11.14.21.31.08.06s0,0,.06.14c-.06-.34,0,.14,0,.22.07-.6-.05.29,0,0-.06.41-.1.27.06-.06s0,0-.1.11A2.29,2.29,0,0,1,5,5.93l.23-.21c-.12.11-.29.19,0,.06a6.24,6.24,0,0,1,.66-.38c.28-.13-.31.12,0,0l.34-.11a4.16,4.16,0,0,0,.52-.13c-.16,0,.39,0,.52,0a5.15,5.15,0,0,1,.68,0c-.08,0,.17,0,.23.06l.27.18A2.26,2.26,0,0,1,8.94,6.5a1.27,1.27,0,0,0,2.48-.33Z"/><path d="M23.87,4.31c-.26.75-1.08,1.19-1.62,1.63a4.78,4.78,0,0,0-1.67,2.47,1.88,1.88,0,0,0,.84,2.06,3.72,3.72,0,0,0,.64.38c1.6.75-.88-.57.52.25a2.78,2.78,0,0,0,2.31.08,3.89,3.89,0,0,0,2.43-2.49c.85-2.69-1.95-5.88-4.73-4.34a2.13,2.13,0,0,0-.43,3.31,3.89,3.89,0,0,0,1.26.73l.32.1c-.1,0-.41-.18-.15,0-.08,0-.36-.32-.17-.1a1.48,1.48,0,0,1-.34-.58c.09.29,0-.19,0-.25,0,.15-.09.37,0,.06s0,.12.06-.21.07-.11,0,0,.3-.35.12-.14-.15,0,0,0,.16-.12.06-.07-.07,0,.08,0,.18-.06-.07,0a2.49,2.49,0,0,0-1.21.66L23,7.33c.17-.06.39.06.31,0a1.9,1.9,0,0,0-.46-.15L24.17,8.9c0-.24,0-.2.2-.48s.5-.57.73-.84A5.16,5.16,0,0,0,26.44,5a1.33,1.33,0,0,0-2.57-.71Z"/><path d="M39.69,10.86l.85.29A2,2,0,0,0,43,8.73a5.27,5.27,0,0,0-3.27-3.44,4,4,0,0,0-4.63,2,2.61,2.61,0,0,0,.4,3.1,2.68,2.68,0,0,0,3.1.4c1.6-.73,3.61-2.19,4.06-4A2.59,2.59,0,0,0,38.86,4a4.6,4.6,0,0,0-.72.53l-.3.39c-.21.24-.42.47-.65.69l-.36.31q.33-.24,0,0c-.27.17-.54.34-.82.49l3.5,3.5c.11-.24.37-.48,0-.1a1.59,1.59,0,0,1-.6.32c.48-.15-.6,0-.07,0l-.35,0c.72.09.88.11.5.07s0,0,.16.07c-.28-.08-.23-.11,0,0l.39.23c.36.22-.19-.18.15.13l.87-3.29-.85.12a1.77,1.77,0,0,0-1.29,1.7,1.81,1.81,0,0,0,1.29,1.69Z"/><path d="M60.35,6.47Q59.84,6.23,59.3,6l1.12,1.13c-.28-1.35-2.08-1.77-3.26-1.68a5.31,5.31,0,0,0-3.28,1.58,2.69,2.69,0,0,0-.41,3.19,2.64,2.64,0,0,0,3,1.21,4.54,4.54,0,0,0,1.89-1,2.78,2.78,0,0,0,.41-3.33,3.26,3.26,0,0,0-1.37-1.23,7.76,7.76,0,0,0-.72-.3c-.22-.09-.22-.09,0,0s.2.07,0,0a1.69,1.69,0,0,0-.79-.29,2.58,2.58,0,0,0-3.12,3.11,3.12,3.12,0,0,0,1.54,2,7.1,7.1,0,0,0,1,.45c.47.21-.48-.27-.15,0l-1-1,0,.06-.26-2.05,0,.06.69-1.17c.38-.25.46-.32.24-.19l-.38.17,3.2,4.14c.19-.24.39-.48.57-.73-.17.23,0,0,0-.08s.27-.22,0-.06c.21-.14.42-.25.62-.39.52-.37.18-.11.09-.07s.4-.16.52-.23a1.89,1.89,0,0,0,1-1.21L59.3,9.13c.24-.05.48-.1.72-.13a1.4,1.4,0,0,0,.33-2.53Z"/><path d="M72.23,8.24a8.15,8.15,0,0,1,.29-.83c.71-1.83-1.35-3.4-3-3A3.17,3.17,0,0,0,67.64,9,5.27,5.27,0,0,0,71,11.26c2.76.79,7.39.66,8.83-2.34,1-2.07-1.15-4.87-3.4-3.4-.13.09-1.33.82-.86.56a1.36,1.36,0,0,1-.67.25,7.59,7.59,0,0,1-1.61.06l-.77-.16A4.58,4.58,0,0,1,72,6.08h0c-.26-.09,0,0,.15.28.27.64-.21,3.17.39,1.06h-4.7a6.09,6.09,0,0,1,.25.83,2.18,2.18,0,0,0,4.16,0Z"/><path d="M87.48,4.07a4,4,0,0,0-.3,1.58l.35-1.27a3.24,3.24,0,0,0-.34,2.32A3,3,0,0,0,88.6,8.5,3.6,3.6,0,0,0,90.78,9a3.31,3.31,0,0,0,1.78-.63,3.2,3.2,0,0,0,1-1.52,4.5,4.5,0,0,0,.54-2.14,3.39,3.39,0,0,0-.64-1.82A2.91,2.91,0,0,0,92,1.77a3.6,3.6,0,0,0-1.6,0,3.28,3.28,0,0,0-1.79,1.38A4.5,4.5,0,0,0,88,5.25l2-2a2.09,2.09,0,0,1-.43.11l.77-.1h-.18l.76.11c-.18,0-.12,0,.18.1l-.41-.17a3.74,3.74,0,0,0-1-.1l2.17,1.24a1,1,0,0,1-.1-.17c.16.4.21.51.15.32a3.73,3.73,0,0,0-.09-.46,2.24,2.24,0,0,0-2.17-1.65,2.38,2.38,0,0,0-2.17,1.65Z"/><path d="M111.4.46l-.87-.21a3,3,0,1,0-.81,5.94l1.86.09a3.13,3.13,0,0,0,3-2.28,3.58,3.58,0,0,0,0-1.66A3.08,3.08,0,0,0,113.15.48,3.83,3.83,0,0,0,110.93,0a3.61,3.61,0,0,0-1.67.43,4.22,4.22,0,0,0-1.18,1.2,2.91,2.91,0,0,0,0,3,3.47,3.47,0,0,0,1.18,1.2,4.49,4.49,0,0,0,1.67.44,3.78,3.78,0,0,0,2.22-.45,3.12,3.12,0,0,0,1.43-3.52,3.17,3.17,0,0,0-3-2.29l-1.86.09a3,3,0,1,0,.81,5.94l.87-.2a2.83,2.83,0,0,0,2.06-2.71A2.85,2.85,0,0,0,111.4.46Z"/><path d="M124.42,5.39A5.86,5.86,0,0,0,125.9,7c.45.32,1,.51,1.44.81l-.86-1.13a2.23,2.23,0,0,0,4.4-.48,2.26,2.26,0,0,0-2.23-2.23,2.31,2.31,0,0,0-2.17,1.72l1.31-1.32c.2,0,.2,0,0,0s-.22,0-.06,0l-.16,0c.11.06.08,0-.09,0a2.76,2.76,0,0,1-.8-.64c-1.09-1.18-3.15.36-2.24,1.73Z"/><path d="M140.16,11a9.65,9.65,0,0,0,3.05.9,4.46,4.46,0,0,0,3.26-1.36,1.89,1.89,0,0,0,0-2.65,1.91,1.91,0,0,0-2.65,0c-.61.53-2-.22-2.68-.46a1.85,1.85,0,1,0-1,3.57Z"/></g></g></svg>