<svg xmlns="http://www.w3.org/2000/svg" viewBox="0 0 265.94 144.16"><title>Asset 390</title><g id="Layer_2" data-name="Layer 2"><g id="Layer_1-2" data-name="Layer 1"><path d="M8.22,39.62l.52.39L4.63,35.9c0,.05-1.75-4.6-.72-1.6.16.44-.41,2.65.1-.07a7.49,7.49,0,0,1-.39,1.84c-1.37,2.29,1.91-2.49-.13-.2s-2.28,6.2-2.25,9c0,.41.61,4.5.37,4.61l.21-.73q1.43-3.84-1,2.19C-.35,54.81.23,57.56.69,61.57c.25,2.15.57-4.35,0,.94C.57,63.68.47,64.9.4,66.08a34.48,34.48,0,0,0,.28,8.37c.64,3.21.56.94.51-.14.11,2.22-.8,4.52-.77,6.8,0,2.77.15,5.55.17,8.32,0,1.59,0,3.17,0,4.76,0,1-.08,5.27.18,1.16C.4,101.23-.23,107.06.08,113c.84,16,12.31,26.11,27.55,28.77a40.32,40.32,0,0,0,14.07.15c-.21,0,5.42-.6,2.69-.47s2.34-.06,2.34-.06a59.49,59.49,0,0,0,6.44-.93c4.26-.91-2.25-.57.6-.06,3.12.56,6.55.23,9.73.56.29,0,7.86.49,7.8,0,0-.15-5.23-.7-1.14-.18a47.85,47.85,0,0,0,7.22.72c2.41,0,4.77-.7,7.16-1,2.17-.25,1-1.18-.62.11,1.18-.92,8.4.06,9.93.06,5.53,0,11.14.27,16.65-.24,2.24-.21,4.49-.56,6.72-.89,5.65-.82-3.85.14,1.54-.15,2.14-.11,4.74-.55,6.63-.84,5-.75-3.69-.4,1,.05,2.65.25,5.37.11,8,.1,1.15,0,2.33,0,3.49,0-4.24-.27-.78.08.34.27,7.34,1.31,14.66.95,22.07.84,7.16-.11,14.32,0,21.49,0,2.45,0,4.92-.36,7.37-.28,1.23,0,2.44.27,3.66.32.59,0,5.29.3,2.67-.09l-1-.07a50.54,50.54,0,0,0,6.49,1c1.55.13,3.08.21,4.64.2a39.38,39.38,0,0,0,5.52-.45c1.33-.17,2.66-.35,4-.54,2-.36,2.35-.46.93-.29-.8-.2-4.56-.66-1,.3a24.61,24.61,0,0,0,11.51,0,12,12,0,0,0,2.56-.59c-3.25,1.42-8.44,0-10.78-2.89l-4.87-8.36.14.77c1.79,9.77,14.15,16.19,23.29,13.23,10.49-3.39,15.12-12.83,13.23-23.3C248.8,111,241.38,105,234,103a29.46,29.46,0,0,0-8-1.15,25.13,25.13,0,0,0-6.33.85c-5.64,1.5,5.75,1.73,3.21,0-2.75-1.82-8.68-.84-11.87-.41-1.72.23-3.39.48-5.09.84-3,.65,4.26.35-.29-.18-1-.12-2.05-.06-3-.08.69,0,4.15.57.33-.13a72.53,72.53,0,0,0-10.17-.84c-10.18-.42-20.5-.21-30.73-.09-4.8,0-9.65,0-14.45.21-3.5.14-1.19.15-.1.31-1-.15-2-.46-3-.65a60.69,60.69,0,0,0-11.87-.83,132.65,132.65,0,0,0-15.77.94c4.1-.5.44-.1-.6,0-2.15.21-4.79-.1-6.65.88-2.2,1.17,2.53,0,0,0-1.4.06-2.81.17-4.21.2-5.07.1-10.15.06-15.21.06-2.59,0-5.24-.17-7.83,0-2.15.19-4.33.55-6.46.9-3,.5.49.18,1.76.14,3.37-.12-3.21-.4-2.71-.33a26.22,26.22,0,0,0-4.33-.4,50.46,50.46,0,0,1-7.17,0c-6.17-.63-12.79-1-18.85.61-1.12.3-3,1.36.59.06a18.06,18.06,0,0,1-3.4.16c-3.41.31-6.71,1.32-10.09,1.68,3.56-.38.66-.43,0-.33,2.6-.38,1.76.32.18,0,.24,0-3.22-.67-3.22-.66.08-.69,4.17,3.27,4.25,3.4.26.44,1.32,3.16.89,3.37.21-.1-.1-4.57-.12-4.85-.12-2-.66-4.09-.73-6.05.07,2,.11,1.05.24-.39a95.92,95.92,0,0,0-.44-16.51,25.4,25.4,0,0,0-.7-5.6,5.93,5.93,0,0,1,0,3.49l.57-4.23a30.65,30.65,0,0,0-.63-5.56c0-.07-.56-5-.39-2.34-.19-2.95-.07-5.88-.42-8.83A35.93,35.93,0,0,0,30.33,55l-1.52-3.62c-.65-1.44-.5-1.22.44.68V60c1-5.57,2.07-10.26.5-16a37.83,37.83,0,0,0-1.94-4.88q.24,10,1,5.26a15.29,15.29,0,0,0,.4-5.33C28.82,30.69,25.55,21.73,17,18.89c-5.3-1.76-11.38,1.6-13.38,6.57-2.27,5.64,0,10.66,4.64,14.16Z"/><path d="M18.34,35.51a13.63,13.63,0,0,0,5.73-3.23c1.64-1.5,2.25-1.39,0-1,2.83-.54,5.07-1,7.84-.5,4.88.93,9.12,2.32,14.18,2.33s6.53,1,12.12,1.53c3.39.31,6.8.15,8.85.49a86.93,86.93,0,0,0,14.91,1.58c1.84,0,3.68-.13,5.51-.12,1.22,0,2.44,0,3.66.1q-1.44-.21.06.09a49.09,49.09,0,0,0,13.72.93c4-.33,8,.16,12.05,0q3.76.27.43-.22c.92.19,1.83.4,2.74.63a54,54,0,0,0,7.68,1.18c2.29.13,4.57-.15,6.86,0-3.19-.22.91.31,1.87.47a78.6,78.6,0,0,0,15.23.85c4.15-.1,8.28,0,12.42-.37,1.76-.15,3.51-.38,5.26-.61-1.21.16,12.16-1.92,6.64-1l5.58-.76c1.33-.17,1-.14-.94.1a22.71,22.71,0,0,0,9-1L194,35.27q-9.47,1.71-4.41,1.67c2.51.37,5.22-.68,7.73-1h-9.71c13.55,2.1,27.44,1.36,41.15,1.47a40.09,40.09,0,0,0,4.52,0c5.83-.61-7.35-3.62-3.67-1.13.32.21,3.38,2.23,3.72,2l-3.52-3.85q-1.8-9.06-1.49-4.06a20.71,20.71,0,0,0-.17,3.52c.07,1.75.73-3-.05.45s-1.3,6.76-1.86,10.16c-.63,3.86-1.32,7.68-1.84,11.56-.28,2.09-.52,4.18-.79,6.27.48-3.65-.7,4.47-.71,5.43,0,5.44.9-3.65,0,1.56-.43,2.5-.8,5-1,7.54-.26,3.08-.17,6.16-.15,9.25a102.57,102.57,0,0,0,1.13,13.66c.2,1.41.37,2.81.67,4.2.48,2.2.09,2.94.19.5a52.3,52.3,0,0,0,1.48,13.57c.38,1.67.76,3.36,1.22,5,1.1,4,0-2.82.17,1.76.3,10.09,8.66,19.79,19.31,19.31,10.13-.45,19.72-8.5,19.31-19.31a67.45,67.45,0,0,0-1.6-12c-.6-2.72-1.82-5.57-2-8.36.24,4.58.55-1,.53-1.63a43.14,43.14,0,0,0-1-6.71c-.35-1.62-.77-3.19-1.08-4.82.79,4.23,0-1.11,0-1.74-.13-2.81-.16-5.67-.14-8.49,0-.72.48-6.17-.21-1.56.16-1.08.42-2.18.59-3.26a51.47,51.47,0,0,0,.71-8.46c-.07,4.74.4-3.34.43-3.56.24-1.86.35-3.76.65-5.61-.59,3.58.42-2,.44-2.23C264.8,42,270.31,24,259.27,11.76a40.6,40.6,0,0,0-17-10.52c-6.88-2.06-15-.95-22.1-.89-6,0-11.92,0-17.88.16-1.37,0-2.73.12-4.1.1-1.19,0-5-.21-.3.13-2.92-.21-5-.77-7.79-.4-7.71,1,2.84.11-1.83.09a24.85,24.85,0,0,0-6.72,1l-.53.18q-9.3,3.62,1.23.22c-3.25-.83-7.74.77-11,1.32-2.79.47-5.58,1-8.37,1.42,3.25-.51-.55.05-1.37.12-2.1.19-4.2.26-6.31.34-2.94.12-5.87.42-8.81.48-1.18,0-2.33,0-3.51,0,3.7.12-1.49-.21-1.92-.28-3.86-.55-7.55-1.09-11.44-.57-3.09.42-1.38.32-.24.38-2.93-.14-5.83-1.07-8.78-1.17A115,115,0,0,0,99.61,5.4c-3.94.6-1.18.08-.5,0l1.43.26q-2.91-.45-5.84-.81a57.87,57.87,0,0,0-10.93.26c-6.7.6-13.15-.64-19.82-.35-1.45.06-2.9.32-4.36.32,2.34,0-2.36-.37-2.54-.4-4.45-.7-8.37-.33-12.79,0-8,.61-16.35-.94-23.78,3.17a28.73,28.73,0,0,0-7.92,6.5,17.38,17.38,0,0,0-2.09,3,18.53,18.53,0,0,0-1.35,3.52q-.91,2.53.46-.48c-7.39,5.76.71,17.28,8.76,15Z"/></g></g></svg>