<svg xmlns="http://www.w3.org/2000/svg" viewBox="0 0 206.56 72.35"><title>Asset 351</title><g id="Layer_2" data-name="Layer 2"><g id="Layer_1-2" data-name="Layer 1"><path d="M6.7.51,4.22.3a2.06,2.06,0,0,0-1.8,1C-1.48,7.88.51,17.13.49,24.39c0,8.94-1.26,17.93,1.91,26.54,2,5.32,5.12,9.91,10.46,12.19,6.23,2.66,13.9,3.71,20.53,4.82,18.86,3.16,37.37,5.13,56.5,4.16,9.08-.46,17.47-3.74,26.31-5.51,4.42-.88,8.93-1.33,13.29.07,3.28,1,7.48,3,10.94,1.59,2.66-1.07,3.53-2.17,6.66-2.21,2,0,3.93.09,5.89.12,5.31.06,10.63,0,15.94,0,7.87,0,16,.65,23.83-.39,4.94-.66,9.67-2.57,12.1-7.2,3.06-5.84,1.34-13.34,0-19.42-3-13.94-12.57-25.25-24.65-32.6C165.8-2.23,147.25.3,131.16.45c-5.27,0-10.47-.08-15.7.73S105.17,3.37,99.87,3.52c-5.68.15-11.33-.42-17,.27-5,.61-9.76,2.31-14.77,2.58-10.54.57-21.14-2-31.62-2.72C25.58,2.9,15.51,6,4.73,6.41c-5.72.2-5.76,9,0,8.92l2,0c5.7-.08,5.71-8.78,0-8.86l-2,0v8.92c8-.05,15.59-2.6,23.52-2.93C37,12,45.73,13.6,54.39,14.52c8.07.86,15.63,1,23.57-.8,8.82-2,17.43-.66,26.3-1.67,3.73-.43,7.38-1.25,11.06-1.93a79.53,79.53,0,0,1,14-.86c8.77-.07,17.55-.37,26.32-.14,6.68.18,13.24,1,19.16,4.32a55.14,55.14,0,0,1,14.91,12.77c4.13,5,6.1,11,7.29,17.32.83,4.36,2.73,11.25-2.65,13.17s-12.36.84-17.89.85c-8.65,0-17.31.17-26,0-3.77-.07-7.07-.39-10.59,1.2-1.85.83-2.4,1.36-4.46.92s-3.89-1.45-5.92-1.9c-7.35-1.61-15.17.38-22.26,2.32A119,119,0,0,1,58,63.29C48.06,61.73,38,61,28.1,58.78c-5-1.12-12.24-1.31-15.92-5.36C6.37,47,7,36.56,7,28.57c0-4.34-.43-8.62-.72-12.94s.22-8.82,0-13.25l-1,1.8L7.39,3C8.67,2.36,8,.61,6.7.51Z"/></g></g></svg>