<svg xmlns="http://www.w3.org/2000/svg" viewBox="0 0 374.79 16.48"><title>Asset 375</title><g id="Layer_2" data-name="Layer 2"><g id="Layer_1-2" data-name="Layer 1"><path d="M3.58,11.33c.1-.11.19-.23.3-.33.47-.45-.16.08.15-.12a2.07,2.07,0,0,1,.45-.24c.64-.23,1.31-.33,2-.52a8.59,8.59,0,0,0,1-.34L8,9.49c-.11,0-.39.2-.11.09A3.93,3.93,0,0,0,10.24,7,2.74,2.74,0,0,0,7.63,3.56,4.17,4.17,0,0,0,3.86,5.51C3,7,3.4,8.6,4.09,10.06c.86,1.79,3.37,1.81,4.65.6,1.9-1.79,3-5.13,1.46-7.48a2.76,2.76,0,0,0-5,.64A7.35,7.35,0,0,0,5,5.9c0-.22-.22.45,0,.11-.21.36,0,.13-.39.47l4.64.6c.06.17.06.18,0,0s-.06-.17,0,.19L8.64,8.58c-.71.36-.8.46-.29.3L4.92,6.27A5.26,5.26,0,0,0,5,5.68c-.07,0-.57,1.26-.17.39l.87-.88a4.77,4.77,0,0,1-.66.39c.48-.23-.11,0-.22.06a18.76,18.76,0,0,0-1.77.65,4.78,4.78,0,0,0-3,3,2.11,2.11,0,0,0,3.5,2Z"/><path d="M27,4.74l-.56.13L27.56,5a3,3,0,0,0-3.2.15L26.06,5l-.22,0L28,7.71c0-.49-.17.74,0,.17s-.25.56-.18.41a3.13,3.13,0,0,0,0-3.13,4.86,4.86,0,0,0-3.13-1.82,3,3,0,0,0-2.91.77A2.94,2.94,0,0,0,21,7a15.76,15.76,0,0,0,.92,2,2.82,2.82,0,0,0,3.51,1.15A2.86,2.86,0,0,0,27.06,6.8a9.31,9.31,0,0,0-.3-1.37L23.09,9.1a6.24,6.24,0,0,0,.95.32c.59.14,0,.07-.32-.19L22.66,8.16c-.56-.78-.11-3-.38-1.89a5,5,0,0,0-.13,1.44,3,3,0,0,0,3.69,2.81c1.68-.47,2.86-2.74,1.74-4.28L27.37,6V8.18l.15-.26c-.11.2-.2.23,0,0a2.23,2.23,0,0,0,.7-1.29l-.67.87L28,7.22a1.36,1.36,0,0,0-1-2.48Z"/><path d="M45.21,10.55c-.5-6.42-10.26-1.9-9.68,2.81a2.58,2.58,0,0,0,1.79,2.35c3.39,1.05,8-.88,9.94-3.75a5.34,5.34,0,0,0,.2-5.65c-1.77-2.95-6.11-.9-7.16,1.54a2.43,2.43,0,0,0,.61,3.06A2.38,2.38,0,0,0,44,10.72a6.62,6.62,0,0,0,.55-.44c.17-.23,0,0-.13,0L42.84,9c.48.86-.26-.54.06.22-.08-.19,0-.14-.14.1.17-.23-.43.43-.53.51s-.46.3-.6.38a6.18,6.18,0,0,1-1.82.72,2.28,2.28,0,0,1-.7.11,4.17,4.17,0,0,1-.5,0c.28,0,.28,0,0,0l1.7,1.7c.15.92.11-.59.1-.57a3.36,3.36,0,0,1,.93-1.07,2.35,2.35,0,0,1,1-.56s.26,0,.17,0c-.29-.1,0,.1,0,.4.4,1.43,2.79,1.21,2.67-.36Z"/><path d="M62.09,9.53a5,5,0,0,0-4.51-3,2.58,2.58,0,0,0-2.27,1.3c-1.22,2.36-1.33,5.3.82,7.18a6.76,6.76,0,0,0,6.57,1.07c2.24-.78,4.2-2.52,4.37-5a5.9,5.9,0,0,0-.84-3.35A3,3,0,0,0,63.47,6a4.2,4.2,0,0,0-3.28,1.38,2.45,2.45,0,0,0-.37,2.84,2.35,2.35,0,0,0,2.65,1.08,2.56,2.56,0,0,1,1.36-.39L61.72,9.71c.12.18.55,1,.36.51,0,.08.05.28.11.34.21.22,0-.13,0-.09-.08.42,0,0,0-.13,0,.15-.22.38,0,.12s-.56.46.07-.09c-.07.06-.16.22-.25.26-.27.12.51-.26.11-.08-.21.08-.94.4-.2.16l-.68.22c-.77.22.25.05-.24.05l-.73,0a1.7,1.7,0,0,0-.39,0c-.17,0,.57.18.19,0-.14,0-.83-.28-.38-.08s0,0-.06,0c-.37-.26.41.35.16.14a2.83,2.83,0,0,0-.24-.25c0,.05.39.52.19.21s.14.46.08.18c-.09-.45,0,0,0,.19,0-.14,0-.29,0-.43,0-.33-.18.67,0,.05.1-.37.16-.75.27-1.11l-1.84,1.83c.44-.12.24-.19.64.28,1.59,1.84,4.09-.5,3.17-2.44Z"/><path d="M85.7,8.67a4.3,4.3,0,0,1-.07-1A1.63,1.63,0,0,0,84,6.1c-2.64.21-5.41.79-6.48,3.54a2.58,2.58,0,0,0,1.78,3.13,4.83,4.83,0,0,0,4.75-1.07A5,5,0,0,0,85.4,6.84c-.5-2.52-4.61-2.52-5.11,0,0,.24-.3.94-.06.37-.12.3-.26.59-.36.89-.16.51.19-.29,0,0s.33-.34.08-.08.27-.14.3-.17.18-.07,0,0-.13,0,0,0,.18,0,0,0l-.36,0L82.45,11c.09-.5-.3.45,0,0-.3.48,0,.07.08-.06.27-.31-.13.07.09-.09s.36-.24.54-.36a12.56,12.56,0,0,0,2-1.61l-2.54-.33a4.59,4.59,0,0,1,.38.88,1.41,1.41,0,0,0,2.71-.75Z"/><path d="M100.65,11.86A14.59,14.59,0,0,0,101.94,10l-1.23.94.48-.08a2.78,2.78,0,0,0,2-1.95c0-.13.1-.26.14-.39a2.78,2.78,0,0,0-.72-2.75,3,3,0,0,0-2.75-.73A3.75,3.75,0,0,0,97,6.81a3.31,3.31,0,0,0,.56,4,5,5,0,0,0,5.71.63,2.83,2.83,0,0,0,1.42-2.17,3.09,3.09,0,0,0-.82-2.5l-.87-1A2.92,2.92,0,0,0,98.47,9.2l.77,1.13,1.07-4.07c.48-.19.6-.24.38-.17a1.17,1.17,0,0,1-.2.06c0-.05.82,0,.39-.06s-.07-.1.27.07a1.29,1.29,0,0,0-.28-.08c-.22,0,.69.34.38.15l.47.35a1.79,1.79,0,0,1,.51,2.11,1.57,1.57,0,0,1-.47,1.45l-.4.32c.37-.29-.65.23,0,0L97.83,7a4.93,4.93,0,0,0-.13,1.53,3.37,3.37,0,0,0,1,1.87l-.53-2a7.93,7.93,0,0,1-.44,1.18A1.86,1.86,0,0,0,98.22,12a1.83,1.83,0,0,0,2.43-.14Z"/><path d="M127,6.05a4,4,0,0,0-.51-2.26c-.12-.25-.12-.18,0,.19a2.5,2.5,0,0,0-.64-1.1A4,4,0,0,0,125,2.2a4.06,4.06,0,0,0-4.66.5,5.34,5.34,0,0,0,.11,7.65A4.85,4.85,0,0,0,128,9.91a4.06,4.06,0,0,0,.69-3.12,5.26,5.26,0,0,0-1.25-2.23,4.75,4.75,0,0,0-2.25-1.33,4.51,4.51,0,0,0-3.21.53c-2,.94-1.57,4.45.63,4.84.12,0,1.22.31,1.21.33s-1-.74-.52-.23l-.23-.27c.14.28.13.25,0-.08V6.79c-.1.32-.08.28.08-.14-.12.21-.11.21,0,0s.18-.21,0,0q.63-.44.24-.21l.45-.19c-.3.06-.18,0,.36-.05-.22,0-.18,0,.11,0s.33,0,.11,0-.19-.06-.29-.09l.42.17s-.77-.43-.23-.12-.17-.08-.17-.23l.26.33L124.31,6c.34.82.09.25.07.07.11.9,0,.33.06.11-.07.44-.07.5,0,.17q-.24.51-.09.24c.11-.18,0-.11-.18.22l.23-.22c-.14.12-.92.45-.56.37a1,1,0,0,1-.62,0q-.37-.06-.06,0a1.31,1.31,0,0,0,.28.09l-.66-.39c.16.18.16.16,0,0,.11.21.12.23,0,0A2.14,2.14,0,0,0,127,6.05Z"/><path d="M136.84,11a5.22,5.22,0,0,0,2.36-.62,5.31,5.31,0,0,0,.92-.7,3.74,3.74,0,0,0,.27-.31l.36-.46q.21-.3-.09.15l-1.06.61A3.52,3.52,0,0,0,141.93,7a2.88,2.88,0,0,0-3.51-3.52A4.06,4.06,0,0,0,136,5.14a3.11,3.11,0,0,0,0,3.16,3.67,3.67,0,0,0,1.46,1.33,4.76,4.76,0,0,0,1.73.52c-.59-.09-.73-.11-.42-.05s.16,0-.33-.16a2.84,2.84,0,0,0,3.35-.44,2.89,2.89,0,0,0,.43-3.35A4,4,0,0,0,141,4.76a3.53,3.53,0,0,0-1.26-.62l-.2-.07a2.6,2.6,0,0,1,1.5,1.17l.4,1.49V6.68l-.4,1.49c.1-.23,0-.1-.3.38-.39.31-.45.36-.16.14L136.42,7c-.17-1,0,.12,0,.25a2.64,2.64,0,0,0,.08.49c.29.73.34.85.16.35V6.84a1.27,1.27,0,0,1-.06.28c.14-.32.16-.37,0-.16a1.76,1.76,0,0,1-.14.23c.18-.23.22-.29.11-.17-.29.36.26-.09-.07.07l-.26.15c.23-.1.24-.1,0,0a1.9,1.9,0,0,0,.5,3.73Z"/><path d="M153.75,7.56c-1.51-.56-2.7-1.71-4.2-2.32a2.65,2.65,0,0,0-3.34,2.55c.38,3.81,4.16,5.07,7.45,4,3.45-1.16,5.76-4.06,5.26-7.75A2.68,2.68,0,0,0,157,2.06l-1.39-.2a2.89,2.89,0,0,0-3.43,2c-.36,1.31.45,3.21,1.95,3.43l1.39.2-2-1.95c-.07-.5,0-.47-.14,0,0-.25,0-.08-.13.08a3.18,3.18,0,0,1-1.16.83c-.2.09-1.16.41-1.21.24s.38.32.12,0a1,1,0,0,1,.4.38c-.13-.26-.14-.26,0,0l-1.22,3a5.19,5.19,0,0,0,.66-.35l-1.12.31a21.26,21.26,0,0,1,3.62.55c1.84.23,1.93-2.48.41-3Z"/><path d="M181.86,6.66c-1.39-1.89-3.24-3.29-4.72-5.09A2.34,2.34,0,0,0,174.79,1a30.43,30.43,0,0,0-7.51,4c-2,1.36-2.09,5.1.73,5.62,4.61.83,9.49-1.77,9.42-6.91a3.2,3.2,0,0,0-2.31-3,10.34,10.34,0,0,0-2.28-.31c-2.43,0-3.42,2.94-1.9,4.6a9.16,9.16,0,0,0,1.75,1.47L171.13,3.7c0,1-1.56.91-2.3.87L171,9.82a32,32,0,0,1,5.65-4.46L173.72,5c1.73,1.36,3.78,2.3,5.38,3.81,1.38,1.3,4-.45,2.76-2.13Z"/><path d="M191.13,8l.3-1.15a8.59,8.59,0,0,0,.45-1.36,9.56,9.56,0,0,0-.16-3.11A2.81,2.81,0,0,0,189,.35c-2.15.18-4,1.38-4.14,3.72a4.68,4.68,0,0,0,1.82,3.68,6.61,6.61,0,0,0,4.37,1.61A6.09,6.09,0,0,0,196,6.43c1.18-1.73-.1-3.81-1.8-4.43a3.81,3.81,0,0,0-3.23.16c-1.42.67-1.59,2.54-1,3.78a4,4,0,0,0,2.62,1.88l-1.81-4.43c-.36.55.4-.36,0,0s.52-.33.06,0-.18.1.14,0c-.56.23,0-.08.19,0a1.72,1.72,0,0,0-.45,0c-.52.06.66.2.2,0a2.35,2.35,0,0,0-.43-.13c.48.21.59.25.31.12l-.19-.1c-.1-.07-.55-.38-.1,0s0,0,0-.07c-.37-.45.32.47.16.22-.29-.47.19.59.11.31-.15-.49,0,.6,0,.75-.06.33-.07.4,0,.22a1.69,1.69,0,0,1-.39.75c-.4.64.29-.22-.21.23-.24.17-.27.2-.08.09-.46.18-.54.22-.25.12l-3.45-2c.31.74.42,1.53.71,2.26A10.51,10.51,0,0,1,187.56,8c.38,1.82,3.11,1.71,3.57,0Z"/><path d="M211.76,5.22l-.34-.48c-.06-.08-.34-.56-.18-.17A2.22,2.22,0,0,0,209.18,3a5.25,5.25,0,0,0-2.5.69,4.85,4.85,0,0,0-1.82,2.61l.73-1.25a7.36,7.36,0,0,0-.6.78,3.05,3.05,0,0,0,2.61,4.56,4.7,4.7,0,0,0,4-2.18A5.43,5.43,0,0,0,212,3.85a3.28,3.28,0,0,0-4-2.26,3.33,3.33,0,0,0-2.26,4,1.91,1.91,0,0,1,.06.33L205.71,5a6.42,6.42,0,0,1,0,1.24l.11-.87a2.29,2.29,0,0,0-.07.34c0-.31.35-.75.53-1-.31.33.72-.43.27-.22l.5-.2-.26.07,2.94.78-.15-.17.73,1.25c0,.51.06.62.05.32s0-.17-.05.32l0-.12q-.37.87.09-.24c-.18.38-.22.48-.13.31s0-.08-.17.22a1.89,1.89,0,0,1,.2-.2c-.26.19-.28.21-.08.07l-1.64.22a5.84,5.84,0,0,1,1.28.43,1.66,1.66,0,0,0,1.86-2.41Z"/><path d="M227,8a16.32,16.32,0,0,0,.27-1.84l-.56,1.37.45-.42-4.39-.56a5.65,5.65,0,0,0,6.41,2.11,5,5,0,0,0,3.54-6.15A3,3,0,0,0,230.55.37a10.86,10.86,0,0,0-1.86-.28,3.35,3.35,0,0,0-2.29,1A2.79,2.79,0,0,0,226,4.43a3.76,3.76,0,0,0,2.95,1.86l-2.14-2.15c.08.35.08.26,0-.25,0,.34,0,.23.07-.31-.1.3-.05.2.13-.3-.17.26-.1.17.2-.26-.38.43.58-.44.11-.09s.7-.19-.07,0c-.53.13.79-.09-.06,0H227c-.33,0-.23,0,.28,0a4.16,4.16,0,0,1-.66-.16c-.43,0,.57.35,0,0a2.8,2.8,0,0,0-2.82,4.83l.6.28-.89-1.15A11.41,11.41,0,0,1,223.71,8c.23,1.67,2.92,1.54,3.26,0Z"/><path d="M246.8,9.22c2-.35,3.78-1.71,2.49-3.93l.31,1.15A3,3,0,0,0,248,3.9a2.7,2.7,0,0,0-3.67,1c-.72,1.63-1.17,3.34-.15,5a4.41,4.41,0,0,0,4.17,1.88,11.37,11.37,0,0,0,7.14-3.48,3.23,3.23,0,0,0,0-4.41c.37.46.13,0,0-.34A6.73,6.73,0,0,0,254.77,2,4.37,4.37,0,0,0,250,.11a3,3,0,0,0-2.18,2.53,3.16,3.16,0,0,0,1.45,3,2.1,2.1,0,0,0,.6.38l-.21-.19c-.12-.31-.47-.86-.2-.18A7.76,7.76,0,0,0,251,8.25V3.84c-.17.21-.37.39-.56.59s-.43.35-.11.1-.18.12-.26.17c-.31.2-.63.4-1,.58l-.46.22c-.4.21.66-.21-.07,0-.3.09-.6.16-.89.26-.59.19.38,0,.09,0s.59.18.27,0A2.58,2.58,0,0,1,249.24,7c-.23-.4,0,.31,0,0s0-.48.05-.73L246.6,8.9A3.16,3.16,0,0,0,248.93,8l-1.6.66h.21l-1.08-.29.14.08-1-1.25.05.12V6.26c.32-.51.24-.58-.23-.21-1.82,1-.5,3.49,1.34,3.17Z"/><path d="M272.65,6.74,272,6.15l.31.54-.1-.36a1.8,1.8,0,0,0-1.48-1.28,1.88,1.88,0,0,0-1.78.85,4,4,0,0,0-.6,3.21L272.5,8l0-.19-.23,1.69A3.86,3.86,0,0,0,272,5.92a4.39,4.39,0,0,0-2.48-2.27,2.51,2.51,0,0,0-3.06,3.06,4.47,4.47,0,0,0,.31.79l.32.41c-.1-.13-.1-.14,0,0A9.56,9.56,0,0,0,267.88,9a4.16,4.16,0,0,0,1.88,1.51l-1.31-1,.11.16a2.15,2.15,0,1,0,3.72-2.17c-.11-.21-.14-.25-.08-.12s0,.09,0-.11c0,.36.09-.23,0,.06l-.82,1.06.36-.27H270.5l.76.47c1.09.67,2.38-.93,1.39-1.8Z"/><path d="M296.51,7.55a3.8,3.8,0,0,0-1.2-3.28,4.41,4.41,0,0,0-4.07-1c-2.64.63-4.64,3.34-3.74,6.07a3,3,0,0,0,3.59,2c3.18-.43,6.23-3.25,6.12-6.6A3,3,0,0,0,295,1.93a9.36,9.36,0,0,0-2.18-.12,2.75,2.75,0,0,0-2.7,2.37,2.79,2.79,0,0,0,2,3,6.38,6.38,0,0,0,1.33.47l-2.18-2.87c0,.24-.09.79.05,0-.08.25-.08.26,0,0s.1-.22,0,0l-.11.18c.24-.29.29-.35.14-.18s-.31.31-.46.45.45-.26,0,0l-.59.32c.43-.22.21-.09-.11,0s-.41.09-.62.12l3.59,2c-.05-.12-.12-.55-.05,0,0,.3,0,.34,0,.13l-.08.53c.14-.64-.38.55,0,0-.61.87-.29.29-.13.19.34-.21-.31.2-.29.2a2.39,2.39,0,0,0,.34-.21c.34-.26-.54.15-.26.11l.31-.09c.42-.15-.63.06-.3,0a4.83,4.83,0,0,0,.91-.14l-.49,0q.28,0-.12,0c-.25,0-.31-.05-.18,0s.08,0-.33-.16c.41.24-.71-.62,0,0s-.16-.14-.27-.3c.24.33-.15-.44,0,0a2.19,2.19,0,0,0,2.4,1.56,2.22,2.22,0,0,0,1.88-2.14Z"/><path d="M314.76,7,315,6.7l-1.33.35.43.09A2.52,2.52,0,0,0,316.9,6a2.45,2.45,0,0,0-.38-3,4.7,4.7,0,0,0-6.47.27c-1.83,1.8-2.3,5-.37,6.94,2.6,2.59,7.32.73,9.84-1.13A3.22,3.22,0,0,0,321,6a3.15,3.15,0,0,0-2.27-2.64,6.61,6.61,0,0,0-1.93-.26c-3.15.2-3.84,3.81-1.51,5.59a6.54,6.54,0,0,0,1.74.8l-.76-5.81c-.48.3-1,.61-1.47.88-.36.19-.72.38-1.1.54.57-.24-.49.13-.65.18l-.25,0q-.27.06.06,0c.22,0,.25,0,.07,0s-.14,0,.11,0a1.87,1.87,0,0,1,1.44,1.51c0,.16-.07.28-.11.42.05-.18.28-.3.08-.1s.11,0,0,0-.26.1-.36.07L312.67,6l.22.41V5l-.19.35A1.32,1.32,0,0,0,314.76,7Z"/><path d="M330.88,11.48a11.29,11.29,0,0,0,1.45-1l-.83.35a2.82,2.82,0,0,0,2.18-.82l-.87.51a2.53,2.53,0,0,0,1.35-3.75l-4.25,1.16v.23a2.67,2.67,0,0,0,3.36,2.56c1.66-.49,2.28-2,2.63-3.56a2.91,2.91,0,0,0-2-3.49,5.31,5.31,0,0,0-2.09-.3C329.22,3.47,328,7,330.46,8.4a5.52,5.52,0,0,0,2,.71l-2.08-2.74c0,.15,0,.29,0,.44s0,.19,0-.07l0,.21c1.1-1,1.35-1.34.74-1-1.55.69-1.43,3.21,0,3.94-.65-1.09-.9-1.38-.73-.87a1.93,1.93,0,0,0,.27.58l-.27-1c0,.4,0-.33,0,.26a5.73,5.73,0,0,0,.09,1.09l.3-1.13a8.65,8.65,0,0,1-.89.82c-1.06.81-.14,2.6,1.09,1.86Z"/><path d="M354.5,7.55V6.86l-.91,1.59.15-.11a2.57,2.57,0,0,0,1.16-2.82,2.54,2.54,0,0,0-2.42-1.84,4.08,4.08,0,0,0-3.53,1.94,4.68,4.68,0,0,0,.22,4.4,2.85,2.85,0,0,0,1.71,1.31,3,3,0,0,0,2.21-.29,5.55,5.55,0,0,0,1.14-.85,1.73,1.73,0,0,0,.26-.28c.19-.23.36-.46.53-.69-.33.4-.42.51-.27.34A5.8,5.8,0,0,0,356,6.2a3.17,3.17,0,0,0-1.58-2.75l-.07-.05a2.85,2.85,0,0,0-2-.37,3.16,3.16,0,0,0-2.71,2.75,5.41,5.41,0,0,0,.11,1.55l-.11-.84a3.75,3.75,0,0,1,0,.67l.11-.81c-.06.39-.12.78-.16,1.17l.11-.79c.24-.49.28-.61.13-.35s-.09.14.23-.28l-.19.18c-.22.19-.14.13.25-.19l3.92,1-.18-.32c-.17-.29.2.67.11.25a2.47,2.47,0,0,0-.06-.29c-.07-.23,0,.78.06.38,0,0-.15.78-.06.45-.23.48-.28.62-.17.43s0-.06-.13.15-.19.25-.06.12l-.35.28.1-.07c.38-.18.14-.11-.72.2l-1.59-.91.34.6a1.68,1.68,0,0,0,3.1-.84Z"/><path d="M367.94,6.16A12.48,12.48,0,0,1,367,7l1-.56-.24.09A2.36,2.36,0,0,0,366.34,10a4.23,4.23,0,0,0,3.57,1.75,8.89,8.89,0,0,0,3.09-.24,2.53,2.53,0,0,0,0-4.84,11.71,11.71,0,0,0-2.84-.19c-.34,0-.68,0-1,0,.56,0-.72,0-.86,0a3.42,3.42,0,0,0-1.11.39l3.41,2.62a3,3,0,0,1,.45-.87,2,2,0,0,0-3.09-2.38Z"/></g></g></svg>