<svg xmlns="http://www.w3.org/2000/svg" viewBox="0 0 29.33 30.05"><title>Asset 395</title><g id="Layer_2" data-name="Layer 2"><g id="Layer_1-2" data-name="Layer 1"><path d="M12.15.47l-.67.28,3.68-.5-.24,0A14.4,14.4,0,0,0,2.5,7.35a6.13,6.13,0,0,0-.52,1A10.78,10.78,0,0,0,.27,13.7a10.83,10.83,0,0,0,.26,5.75,10.74,10.74,0,0,0,2.58,4.91,11,11,0,0,0,4.05,3.72l3.45,1.46a14.71,14.71,0,0,0,7.68,0l3.45-1.46a14.5,14.5,0,0,0,5.17-5.18,29.53,29.53,0,0,0,1.89-4.46,14.28,14.28,0,0,0-3.7-14L25,4.31l3.56,6.12-.24-.8a9.92,9.92,0,0,0-2.35-4.46,10,10,0,0,0-3.68-3.38L19.12.47a13.09,13.09,0,0,0-7,0Z"/></g></g></svg>