<svg xmlns="http://www.w3.org/2000/svg" viewBox="0 0 317.1 76.87"><title>Asset 381</title><g id="Layer_2" data-name="Layer 2"><g id="Layer_1-2" data-name="Layer 1"><path d="M4.27,23.38C2.3,27.21,2.33,30.75,1.85,35,1.24,40.24-.93,45.62.45,51c2.49,9.73,15.87,10.71,23.91,11.67C35.66,64,46.64,62.35,58,62.34c12,0,23.83-.3,35.76.31,11.5.58,22.85,1.34,34.29,2.87,12.06,1.62,23.87,2.37,36,3,11.84.59,23.37,1.68,35.16,3,12.09,1.36,24.12,3.35,36.21,4.64a160.83,160.83,0,0,0,37.08-.85c12.81-1.65,26.68-2.5,39-6.47,2.4-.78,4.84-2.7,5.33-5.34l.11-.54c1.81-9.61-12.94-13.72-14.74-4.06l-.1.54,5.34-5.34c-9.66,3.14-20.57,4.2-30.62,5.46a260.44,260.44,0,0,1-30.45,2.1c-10.67.1-21.25-2-31.81-3.28-11.13-1.37-22.34-3-33.52-4-11-1-22.15-.42-33.18-1.18-10.73-.74-21.37-2.5-32.08-3.5a312.41,312.41,0,0,0-32.19-1.83c-5.43.06-10.78,1-16.21.95-5.74,0-11.35-.1-17.08.31-11,.81-21.62,2.08-32.64.42-1.76-.26-5.23-.45-6.5-2S10.53,42,10.62,40c.23-5.06-.93-10-.67-15.07.15-3-4.31-4.19-5.68-1.54Z"/><path d="M13.22,31.74c.86-2.16,2.08-4.11,2.72-6.39.22-.77.24-3.74.43-4,.77-.85,6.28-1.31,7.29-1.49a46.84,46.84,0,0,1,9.61-.57A367.27,367.27,0,0,0,70.5,18.06c12.35-.92,24.69-1.32,37-2.42,12.13-1.07,24.3-1.83,36.48-2.1,11.31-.24,23.06-.83,34.33.11,11.45,1,22.82,2.9,34.22,4.3,12,1.46,23.84,2.68,35.89,2.54,11.58-.12,23.39.89,34.94.1,3.34-.23,6.5-.68,9.86-.64,2.29,0,7.1,1,9.27.2a6,6,0,0,1,1,.22c-.7-1.2-1-1.36-1-.48a7.08,7.08,0,0,1-.36,1.93c-.52,2.58-1.11,5.08-1.38,7.7-.66,6.3-1.7,12.67-1.06,19,.48,4.77,1.33,11,6.09,13.41,8.45,4.24,15.92-8.48,7.43-12.71,3.62,1.8,1.56,3.42,1.54.6,0-.89-.42-2-.51-2.9a42.58,42.58,0,0,1,.21-8.52c.61-5.85,2.19-11.73,2.55-17.56.3-5.05-1.33-9.88-5.77-12.65C306.71,5.33,301.18,5.75,296,5.7c-5.93,0-11.7.83-17.61.86-6.76,0-13.52.09-20.28.14-13,.08-25.73.13-38.71-1.25-12.61-1.34-25.2-3-37.78-4.59C169.35-.65,156.35.22,144,.53,131.19.86,118.39,1.74,105.62,3,92,4.25,78.27,4.75,64.61,6,57.43,6.69,50.17,7.32,43,7.61c-7.57.3-14.87-.43-22.37,1.15-4.77,1-11,1.58-13.3,6.61-2,4.39-.48,10.91-.15,15.55.26,3.61,4.79,4,6.08.82Z"/></g></g></svg>