<svg xmlns="http://www.w3.org/2000/svg" viewBox="0 0 70.25 67.67"><title>Asset 339</title><g id="Layer_2" data-name="Layer 2"><g id="Layer_1-2" data-name="Layer 1"><path d="M18.88,8.62C4,9.83-1.95,27.21.55,40c1.52,7.77,3,15.4,9.57,20.54C15.88,65,24.39,68.17,31.76,67.6a46.36,46.36,0,0,0,22-7.63c2.69-1.89,5.87-3.63,8.3-5.79,3.31-3,5.64-7.71,7-11.93,2.46-7.79.83-17.24-2.31-24.55S55.63,5.29,48.52,2.67c-8.68-3.2-20.23-3.94-28.85.09C16.43,4.27,11.9,6.28,9.31,8.68c-3.79,3.52-4,8-3.25,12.79,1.08,6.67,12,8.08,14.82,1.93,1.09-2.38-1.39.14-1.5.4.38-.89,3.74-1.57,4.86-2.18,2.75-1.51,3.38-2.1,6.54-2.48,6-.72,11.37.05,16.41,3.73,3.86,2.81,5,7.18,4.92,12.47,0,6-3.7,8.13-8.35,11.63-3.76,2.82-10,6-14.84,5.89s-11.53-3-13.34-7.77c-2-5.32-3.67-11.44-2.5-17.12a16.8,16.8,0,0,1,3-6.87c1.79-2.2,3.23-5,5.07-7,1.69-1.89.68-5.68-2.25-5.45Z"/></g></g></svg>