<svg xmlns="http://www.w3.org/2000/svg" viewBox="0 0 368.2 105.69"><title>Asset 349</title><g id="Layer_2" data-name="Layer 2"><g id="Layer_1-2" data-name="Layer 1"><path d="M4.27,41.07c.31-3.52.68-7,1.25-10.5a2.74,2.74,0,1,0-5.4-.73C-.54,36.16,1.69,42,2.39,48.25c.74,6.49,0,13.31-.13,19.83C2,77.14,1.15,87.2,6.24,95.23c6.12,9.64,16.43,10.87,26.93,10.36,12.44-.6,24.9,0,37.35-.19,13.73-.18,27.42-1.49,41.13-2.26,6-.34,12-.31,18-1.09,6.91-.9,13.6-2.35,20.59-2.47a135.57,135.57,0,0,0,18.62-2A90.93,90.93,0,0,1,189.12,97c13.32.9,26.32-.17,39.64-.25,15-.1,29.73-2.19,44.7-2.82,8-.34,15.84-.38,23.79-1.16S313,91.12,321,90.91c6.2-.17,6.22-9.85,0-9.66-13.36.4-26.56,2.82-39.92,3.07-12.39.23-24.55,2.05-36.9,2.83-12.77.8-25.72.92-38.51,1.36-12.62.43-24.87-1.88-37.48,0-11.83,1.79-23.67,2.09-35.47,4.08-12.37,2.08-25.28,1.94-37.79,2.83-13.17,1-26.27,1.27-39.46,1.34-5.46,0-10.93-.07-16.39.09S27.74,98.09,22.27,97C9.34,94.48,9.75,79.7,9.63,69.41c-.07-6.45.18-13-.4-19.45-.62-6.82-3.08-13.28-3.62-20.12l-5.39.73A80.68,80.68,0,0,1,1.6,41.07a1.34,1.34,0,0,0,2.67,0Z"/><path d="M11.46,45.34c-5.72,1.06-3.05-6.81-2-9.84,2.17-6,6.77-9.72,12.17-12.89,14.78-8.69,31.62-4.3,47.86-5a94.13,94.13,0,0,1,12.79-.1c4.2.38,8.12,1.92,12.27,2.57a14.72,14.72,0,0,0,5.41.23c2-.48,3.59-1.75,5.81-1.77,4,0,8.3,2.23,12.45,2.67a94.78,94.78,0,0,0,25.56-1.1c9.61-1.6,19.36-1.51,29.07-1.55,9.24,0,17.75-1.5,26.85-2.79s18.18.15,27.27-1.33c8.9-1.45,17.15-1.58,26.15-1.59,9.43,0,18.84-2.21,28.28-2.77C300.68,9,320,9.72,339.26,9.43c5.56-.08,15.35-2.09,18,4.43,2,4.88,1.22,10.92,1.12,16.06-.19,10.7-.18,21.44-.05,32.15.09,7,2.9,18.4-4.25,22.89-6.28,4-15.6.2-22.18-1.09a166.73,166.73,0,0,0-30.57-2.77v10c2.55,0,5.09-.13,7.65-.27,6-.32,6.07-9.1,0-9.42-2.56-.14-5.1-.29-7.65-.27-6.41,0-6.43,10,0,10a151.19,151.19,0,0,1,31.2,2.79c7.39,1.55,15.45,3.54,22.84.89,8-2.86,12-10.32,12.6-18.42.71-9.25-.34-19-.37-28.25,0-9,.46-18.13.06-27.14-.25-5.77-1.27-12.09-5.63-16.29C355.74-1.42,345.21.14,337.3.29c-11,.22-21.93.12-32.91.13A307.61,307.61,0,0,0,270.05,2c-5,.57-10,1.67-15,1.83-5.48.17-10.94-.47-16.41,0-4.43.34-8.81,1.15-13.18,1.92-5.62,1-11.14.75-16.82.74-10.79,0-21.12,3.32-31.9,3.5s-21.58,0-32.29,1.64c-10.19,1.51-21.51,3.51-31.62.32-4.5-1.41-8-1.71-12.61-.24s-8.86-.51-13.59-1.3c-9.36-1.56-18.93.25-28.36,0C48,10,37.18,8.81,27.36,12.43,19.6,15.3,11.18,20.61,6.87,27.9c-3.48,5.91-7.52,26,5.55,20.92a1.81,1.81,0,0,0-1-3.48Z"/></g></g></svg>