<svg xmlns="http://www.w3.org/2000/svg" viewBox="0 0 17.58 514.01"><title>Asset 360</title><g id="Layer_2" data-name="Layer 2"><g id="Layer_1-2" data-name="Layer 1"><path d="M10.54,8.18c-.57-2-.68-4-1.16-6L5.17,5.37C8.73,7.27,8.45,16.59,8.57,20c.28,7.54-.24,15.12-.29,22.66Q8.1,70.26,8,97.89c-.11,18.22.32,36.37.76,54.58.42,17.72-1.65,35.31-1.4,53,.14,9,.81,18,.6,27-.22,9.35-.2,18.71-.33,28.07-.25,17.86-3.92,35.87-2.08,53.7,1,9.24,3,17.91,2.22,27.28C7,350,4.51,358.21,4.14,366.74s.77,17.15.33,25.72-2.55,16.68-2.86,25.13c-.37,10.25,0,20.58-.06,30.84,0,10,1,20.14.15,30.12-.87,10.29-5,26.48,4.16,34.31,4.46,3.79,11-2.65,6.47-6.46-3.85-3.27-3.08-10.34-2.81-14.84.34-5.9,1.39-11.72,1.54-17.64.48-18.45-.87-37-.4-55.44.21-8.45,2.28-16.71,2.82-25.13.54-8.57-.62-17.15-.33-25.72.29-8.8,2.87-17.32,3.6-26.09.78-9.44-1.26-18-2.24-27.28-1.91-18.13,1.8-36.5,2-54.68.09-9.35.08-18.68.28-28,.19-9.05-.61-18-.69-27-.07-8.58.79-17.13,1.2-25.69.44-9.42.32-18.86.05-28.29-.51-18.21-1-36.39-1.12-54.61-.14-21-.22-42.05-.55-63.07-.12-7,0-13.86-1.24-20.73-.81-4.67-2.14-10.19-7-12A2.88,2.88,0,0,0,3.86,3.66c.86,2.51,2.29,4.08,4.17,6a1.51,1.51,0,0,0,2.51-1.46Z"/></g></g></svg>