<svg xmlns="http://www.w3.org/2000/svg" viewBox="0 0 347.37 137.42"><title>Asset 380</title><g id="Layer_2" data-name="Layer 2"><g id="Layer_1-2" data-name="Layer 1"><path d="M14.5,16.24c-1.39-2-2.72-3-5.24-3a4.85,4.85,0,0,0-4.6,3.51c-3,13.3-1,28.22-.46,41.73S6.8,85.42,6.72,99c-.06,11.86-1.61,28,9.86,35.61,5,3.3,10.88,3.09,16.55,2.47,6.82-.76,13.55-2,20.35-2.82,29.88-3.64,60.19-6.07,90.31-5.82q21.86.19,43.71-.73c14.76-.64,29.52-.19,44.27-1,15-.78,30-1,44.89-3,13.81-1.79,27.95-2.24,41.64-4.87,6-1.15,13-2.68,18.47-5.5,5.94-3.07,7.78-9.57,8.8-15.68,2.39-14.23,1.09-28.84,1.3-43.18.18-12,3.32-29.54-8.68-37.33-5.26-3.41-11.81-3.47-17.8-4.35-7.53-1.09-15-1.93-22.55-2.58C283.08,9,268.36,8.6,253.56,8s-29.91-1.89-44.84-2.9C174.91,2.83,141.15.82,107.27.62,90.13.52,73,1.11,55.89,1c-8.11,0-16.16.36-24.26.51-4.05.07-8-.52-12-.73C16.25.63,12.52-.14,9.22,0a9.43,9.43,0,0,0-9,11.76c.61,2.76,1.93,4.54,3.64,6.73,3.11,4,9.93,3.26,13.19,0,3.84-3.85,3.22-9.3,0-13.19l-.95-1.16,2.39,4.11-.36-1.43-9,11.76c2.34-.18,5.22.56,7.76.52,3.36-.06,6.67.36,10,.46,6.71.2,13.43-.65,20.14-.74,13.49-.18,27.08.49,40.54-.52,27.85-2.07,56.34-.05,84.2,1.11s55.7,4.44,83.61,5.39c13.85.47,27.61.81,41.41,2,6.41.56,12.71,1.05,19.07,2,3.66.56,11.76-.2,13.78,3.3,2.25,3.91.91,11,.69,15.28-.33,6.8-.32,13.55-.2,20.36s.28,13.87-.06,20.79a49,49,0,0,1-.94,8.2,13,13,0,0,1-.75,2.91q-.3.78.48-.39c-1.08.4-2.17.75-3.28,1.05-11.9,3.46-23.86,4.62-36.15,5.85-13.66,1.36-27.14,3.13-40.88,3.71-27,1.14-54.07,1.93-81.13,2.55-13.64.32-27.29-.08-40.93.21s-27.42,2.13-41.17,2.7C70.05,116,55,118.26,39.86,121c-3.57.64-11.88,3-15.21,1.08-4.71-2.75-3.58-14-3.56-18.22.05-7.24-.77-14.33-.84-21.56s-1.76-14-2.4-21.12S16.6,46.79,15.7,39.6,13.74,25.13,14,18l-3.51,4.61.69-.13L6.64,21.29l.57.57c3.63,3.56,10.43-1.19,7.29-5.62Z"/></g></g></svg>