<svg xmlns="http://www.w3.org/2000/svg" viewBox="0 0 22.36 573.91"><title>Asset 407</title><g id="Layer_2" data-name="Layer 2"><g id="Layer_1-2" data-name="Layer 1"><path d="M5.7,5v0L5.45,6.91A5.17,5.17,0,0,0,6,9.57a6.85,6.85,0,0,0,2.83,3.3,7,7,0,0,0,2.28,1l1.82.24a5.1,5.1,0,0,0,2.64-.59,6.49,6.49,0,0,0,3.27-2.8,8.16,8.16,0,0,0,.94-3.45,6.87,6.87,0,0,0-2-4.84A10.16,10.16,0,0,0,14.19.25,6.92,6.92,0,0,0,7.47,2,8.36,8.36,0,0,0,5.7,5Z"/><path d="M11.47,39.94a7.47,7.47,0,0,0,5.11-2.12,5.43,5.43,0,0,0,1.49-2.32,5.43,5.43,0,0,0,.62-2.78,7.31,7.31,0,0,0-2.11-5.11,7.55,7.55,0,0,0-5.11-2.11,7.43,7.43,0,0,0-5.1,2.11,5.37,5.37,0,0,0-1.49,2.33,5.42,5.42,0,0,0-.63,2.78,7.32,7.32,0,0,0,2.12,5.1,7.49,7.49,0,0,0,5.1,2.12Z"/><path d="M5.9,61.29l-.09.62a7.41,7.41,0,0,0,0,3.91,6.46,6.46,0,0,0,.83,1.9L7.78,69.2a5.42,5.42,0,0,0,2.34,1.5,3.61,3.61,0,0,0,1.84.5,5.44,5.44,0,0,0,2.91-.13,8.77,8.77,0,0,0,3.22-1.87,5.45,5.45,0,0,0,1.5-2.35A5.43,5.43,0,0,0,20.22,64a6.77,6.77,0,0,0-1.38-4.44,8.54,8.54,0,0,0-2.54-2.54l-1.69-.71a5.31,5.31,0,0,0-2.82-.13A3.51,3.51,0,0,0,10,56.7a3.62,3.62,0,0,0-1.56.91,3.59,3.59,0,0,0-1.27,1.27A5.35,5.35,0,0,0,5.9,61.29Z"/><path d="M8.7,94.1l-.29.07a4.39,4.39,0,0,0-2,1,4.39,4.39,0,0,0-1.52,1.65,5.89,5.89,0,0,0-.59,4.53l.11.35a6,6,0,0,0,2.07,3A5.48,5.48,0,0,0,10,106a6.83,6.83,0,0,0,2.91-.79,6,6,0,0,0,2.65-3.44l.12-.35a4.44,4.44,0,0,0,.1-2.34,4.3,4.3,0,0,0-.7-2.19,5.76,5.76,0,0,0-3.51-2.7A6.34,6.34,0,0,0,8.7,94.1Z"/><path d="M16,133.82c8.51,0,8.52-13.22,0-13.22s-8.52,13.22,0,13.22Z"/><path d="M21.13,158.71v-.29l-.23,1.7.3-.89a6.9,6.9,0,0,0-1.79-6.75,6.93,6.93,0,0,0-9.8,9.8l.65.65a6.28,6.28,0,0,0,2.81,1.63,4.74,4.74,0,0,0,2.53.12,4.71,4.71,0,0,0,2.37-.76,6.34,6.34,0,0,0,2.29-2.28,6.17,6.17,0,0,0,.87-2.93Z"/><path d="M8.81,192.85l.26.87,1.15-4.36a8,8,0,0,0-2.3,3.54,7,7,0,0,0,.68,5.24,6.82,6.82,0,0,0,8.49,2.78,7,7,0,0,0,3.25-2.78,6.78,6.78,0,0,0-2.44-9.3l-1.62-.69a5.6,5.6,0,0,0-2.9-.1l3.86,2.22-.54-.74a4.6,4.6,0,0,0-2.58-2,4.44,4.44,0,0,0-2.81.22,4.3,4.3,0,0,0-2.5,5.08Z"/><path d="M18.13,241.21a13.52,13.52,0,0,0-.39-3.75s-.34-1.28-.21-.65a7.61,7.61,0,0,1-.08-1.72l-3.27,4.29A5.81,5.81,0,0,0,13,227.89c-3,.14-6,2.56-5.81,5.82a5.87,5.87,0,0,0,4.66,5.67l-3.11-3.11c.66,1.75,1.95,3.44,2.11,4.94a3.76,3.76,0,0,0,3.65,3.65,3.73,3.73,0,0,0,3.66-3.65Z"/><path d="M7.55,263.71c-1.3,4.94,0,13.34,6.67,13.34A6.13,6.13,0,0,0,20,272.74a5.83,5.83,0,0,0-.27-4.09c-.34-.8-.86-2.08-1.69-2.43l-.23-.21a3.26,3.26,0,0,1,.87,1.53,5.69,5.69,0,0,0-.28-.94c.11,1,.14,1.18.08.55l0-.33c0-.44.17-2-.09-.12a6.25,6.25,0,0,0-.57-4.33,5.74,5.74,0,0,0-3.36-2.59,5.72,5.72,0,0,0-6.92,3.93Z"/><path d="M11,284.19a2.11,2.11,0,0,1-.18.27l.65-.85c-.38.5-.75,1-1.12,1.51l.71-.91a4.23,4.23,0,0,1-.56.56l1-.76a1.51,1.51,0,0,1-.26.18l3.81-.5-.41-.15-1.53-.2a4.3,4.3,0,0,0-2.21.49,5.48,5.48,0,0,0-2.75,2.36l-.08.15a5.7,5.7,0,0,0,6.4,8.33l.17,0A5.82,5.82,0,0,0,18.08,292a5.57,5.57,0,0,0,.58-4.43l-.16-.42v2.62a6.83,6.83,0,0,0-.59-5.57,4,4,0,0,0-6.88,0Z"/><path d="M11.47,321.31c8.51,0,8.52-13.22,0-13.22s-8.52,13.22,0,13.22Z"/><path d="M4,332.7c-.12,1.32.2-1.15,0,.12-.07.45-.14.91-.2,1.37a25,25,0,0,0-.4,4.23,10.58,10.58,0,0,0,4.72,9,6.6,6.6,0,0,0,8.52-1.7c2.16-2.79,1.57-6.07-.51-8.68-.09-.11-.59-.57-.59-.68.53.73.67.89.42.46s-.14-.25.07.18.22.5.11.16c0-.14-.07-.29-.1-.44-.16-.83.06,1.61,0,.08,0-1.36,0-2.73-.14-4.09-.25-3.1-2.57-6.1-6-5.95s-5.65,2.62-6,5.95Z"/><path d="M10,386a6.85,6.85,0,0,0,6.85-6.84,6.89,6.89,0,0,0-2-4.84,7.1,7.1,0,0,0-4.84-2,7.07,7.07,0,0,0-4.84,2,6.86,6.86,0,0,0,0,9.68A7.12,7.12,0,0,0,10,386Z"/><path d="M11.47,428.18a7.22,7.22,0,0,0,4.94-2,5.43,5.43,0,0,0,1.45-2.25,5.39,5.39,0,0,0,.6-2.69,7.06,7.06,0,0,0-2.05-4.94,7.21,7.21,0,0,0-4.94-2.05,7.21,7.21,0,0,0-4.94,2.05,5.19,5.19,0,0,0-1.44,2.25,5.19,5.19,0,0,0-.6,2.69,7.07,7.07,0,0,0,2,4.94,7.29,7.29,0,0,0,4.94,2Z"/><path d="M14.47,465.45a7,7,0,0,0,4.78-2,6.77,6.77,0,0,0,0-9.55,7,7,0,0,0-4.78-2,7,7,0,0,0-4.77,2,6.75,6.75,0,0,0,0,9.55,7,7,0,0,0,4.77,2Z"/><path d="M8.18,490.37l-.29,1.06a5.54,5.54,0,0,0,1.43,5.41l.12.1-1.66-4v.2a5,5,0,0,0,.57,2.52,4.82,4.82,0,0,0,1.35,2.1,6.38,6.38,0,0,0,4.61,1.91l.17,0,1.72-.23a4.88,4.88,0,0,0,2.2-1.16,6.14,6.14,0,0,0,2.32-3.36,7.68,7.68,0,0,0,0-3.44,6.64,6.64,0,0,0-3-3.86l-.15-.09a4.82,4.82,0,0,0-2.42-.78,5,5,0,0,0-2.61.12,6.38,6.38,0,0,0-3.9,3l-.1.24,3.37-2.6-.15,0L17.19,489l-.7-.79a5,5,0,0,0-4.84-1.28,5,5,0,0,0-3.47,3.47Z"/><path d="M2.85,512.69a10.29,10.29,0,0,0,2,5.94,9.13,9.13,0,0,0,2.49,2.28A14,14,0,0,0,9.73,522l1.74.23,1.75-.23a6.53,6.53,0,0,0,3.41-2.35,6.23,6.23,0,0,0,1.29-3.11,6,6,0,0,0-.78-4.18,4.48,4.48,0,0,1-.52-.9l.69,1.64a7.47,7.47,0,0,1-.45-1.6l.25,1.89a5.77,5.77,0,0,1,0-.72,7.29,7.29,0,0,0-2.09-5,7.15,7.15,0,0,0-10.08,0,7,7,0,0,0-2.08,5Z"/><path d="M7,573.91c9.29,0,9.31-14.44,0-14.44s-9.3,14.44,0,14.44Z"/></g></g></svg>