<svg xmlns="http://www.w3.org/2000/svg" viewBox="0 0 718.92 133.57"><title>Asset 363</title><g id="Layer_2" data-name="Layer 2"><g id="Layer_1-2" data-name="Layer 1"><path d="M7.78,61.51C8.15,56.78,9.27,52,8.86,47.22c-.35-4.1-2.73-7.67-2.68-11.81H0c.37,14,4,27.25,5.36,41.07C6,83,7.76,89.57,8,96c.07,2.43-.11,4.81.56,7.17.79,2.84,2.12,4.81,2,7.85-.18,4.55-.79,9.2,2.8,12.7,3.37,3.28,7.84,2.6,12.12,2.74,5.16.15,9.8,2.67,15.05,2.11,6.33-.67,12.64-3,18.92-4.15a85.82,85.82,0,0,1,19-1.48c6.66.32,13.1,2,19.7,2.82s13,.36,19.54.29a145.65,145.65,0,0,1,20.64,1.65,186,186,0,0,0,18.85,1.37c6.62.22,13,2.08,19.49,3,12.79,1.77,26.12-.16,39,.23,25.73.78,52,3.27,77.37-2.22,13.55-2.93,26.78-6.87,40.76-6.91s28.15-.21,42.18-1.82a136,136,0,0,0,17.48-2.95c7-1.75,14-4,21.27-4.18a89.92,89.92,0,0,0,16.33-2c7.31-1.53,14.71-1.41,22.15-1.24,14.25.31,28.5.3,42.76.31,6.43,0,12.87-.18,19.3-.13,7.17,0,13.71,2.16,20.77,3,14.94,1.66,30.2-2.12,45.12-2.69,15.35-.59,30.7,1.39,46,2.08,7.73.35,15.5,1.38,23.25,1,6.81-.34,13.26-2.79,20-3.14a158.87,158.87,0,0,0,20.48-2.74c7.75-1.4,15.5-.35,23.31-.26,6.25.08,6.25-9.63,0-9.7-6.43-.08-12.92-.9-19.35-.34s-12.55,2.74-19,3.24c-5.57.44-10.87.58-16.36,1.79a69.44,69.44,0,0,1-19.46,1.32c-13.62-.8-27.23-1.79-40.85-2.55-13.26-.75-26.13.19-39.32,1.53a170.77,170.77,0,0,1-18.5,1.16c-6.75,0-13.06-2.25-19.73-3s-13.25-.16-19.83-.13c-7.25,0-14.5,0-21.75,0-13.64,0-27.44-1-41.05-.19-5.82.33-11.29,2-17,2.83-6.4,1-12.81.56-19.21,1.93-5.74,1.22-11.34,3-17.1,4.2a167.85,167.85,0,0,1-21.21,2.5c-13.9,1-28-.16-41.84,1.51-12.62,1.52-24.7,5.42-37.19,7.6-13,2.26-26.27,2.33-39.39,2-12.49-.27-25-1-37.46-1.22-13.06-.19-25.54,1.25-38.46-1.29-11.93-2.35-24.24-2.12-36.32-3.64-13.32-1.67-26.81.32-40-2a103.59,103.59,0,0,0-40.31.55c-6.71,1.37-13.14,4.23-20,2.52a35.19,35.19,0,0,0-8.15-1.31c-1.8,0-5.27,1-6.43-.6-1.33-1.82-.12-5.9-.23-8.07-.14-2.7-1.18-4.62-2.08-7.1-1.11-3.07-.55-6.26-1-9.46-.5-3.52-1.51-7-2-10.47-1.11-7.52-1.78-15-3.64-22.37A151.54,151.54,0,0,1,6.18,35.41c-.33-3.9-6.36-4-6.18,0S2.27,42.24,3.54,46c1.65,4.88.82,10.4,1,15.48a1.62,1.62,0,0,0,3.24,0Z"/><path d="M5.13,58.51c.15-4.77-1.41-12.57,2.7-16.11,3.24-2.79,9.37-3.13,13.26-4.85,3-1.33,5.74-2.67,9.07-2.87a83.27,83.27,0,0,1,9.21.43c6.54.36,11.8-1.41,18.1-2.73,6.74-1.41,14.14-.36,21-.26,7.21.12,14.43.09,21.64.24,14.25.31,28.31,1.56,42.53.33s28.9-.53,43.13-.14,28.21.43,42.4-.4c26.47-1.56,53,3,79.22-1.77,27-4.88,54.9-.42,82.1-.64,5.81,0,11.38-1.12,17.07-2.2,6.69-1.27,13.09-1.08,19.85-.83,13.53.5,27.21,1.36,40.75,1,13-.32,25-3.62,37.48-6.88,13.1-3.41,26.71-3.76,40-5.9s27-5.85,40.56-6c14-.14,28-.14,42,1.2,7.05.68,14.32,1.07,21.2,2.78,6.69,1.67,13.47,1.77,20.13,3.42A63.44,63.44,0,0,0,687.23,18c8-.32,12.28,3.22,15.14,10.58,5.69,14.67,5.32,29.14,1.88,44.33-1.67,7.39-3.63,14.72-5.07,22.17-1.4,7.2-.22,14.69-1.81,21.75l3.15-3.15-2.48.55c-5.66,1.24-3.23,9.7,2.38,8.63l2.5-.48a4.46,4.46,0,0,0,3.15-3.15c1.68-6.56.41-13.25,1.58-19.86,1.33-7.5,3.25-14.87,5-22.29,3-13,4.81-26.61,2-39.84C712.29,26.67,707.68,13,696.16,9.74c-5.6-1.6-11.28-.19-17-.46-6.4-.3-12.54-2.77-19-3.27s-12.32-2.55-18.61-3.27c-7.2-.82-14.4-1.62-21.62-2.13-7-.5-13.9-.58-20.87-.56-7.6,0-15.28-.36-22.83.64-13.92,1.84-27.67,5-41.57,6.93-6.8,1-13.67,1.2-20.45,2.23s-13.64,3-20.39,4.89c-14.58,4-28.55,4.67-43.6,4.09-6.78-.27-13.55-.52-20.33-.62-7-.11-13.9-.8-20.87.25-6,.9-11.8,2.55-17.86,2.76-7.36.25-14.8-.23-22.15-.48-14.43-.51-28.88-1.14-43.31-.52-14,.61-27.53,4.11-41.54,4.12-14.32,0-28.61-.45-42.93-.53-14.64-.08-29.18,1.53-43.85,1.25q-22.66-.42-45.3-.34c-8.19,0-16.29,1.57-24.48,1.28-8.54-.3-17.07-.8-25.62-1s-17-.06-25.44-.22C69.06,24.69,61.34,24,54,26.06c-4.34,1.21-8.17,2.47-12.76,2.42-3.69,0-7.37-.56-11.06-.29-6.3.45-11.28,4.05-17.17,5.88C8.38,35.5,3.75,36.7,1.46,41.4-1.09,46.64.76,53,1.19,58.51a2,2,0,0,0,3.94,0Z"/></g></g></svg>