<svg xmlns="http://www.w3.org/2000/svg" viewBox="0 0 475.24 91.1"><title>Asset 348</title><g id="Layer_2" data-name="Layer 2"><g id="Layer_1-2" data-name="Layer 1"><path d="M6.44,35.81C7,33.19,7.46,30.6,7.88,28,8.45,24.3,3,22.62,2.2,26.39c-.89,4.16-.68,8.6-1,12.85-.32,4.81-.7,9.63-1,14.45C-.2,62.82-.2,72,1.46,81a3.89,3.89,0,0,0,2.81,2.8c30.15,6.41,61.33,5,91.94,4.33,15-.34,29.91-.36,44.87-.87,7.61-.26,15,.32,22.61.74,8.26.47,16.54.23,24.81.11,15.18-.22,30.19,4.14,45.32,2.73,6.65-.62,13.2-2.08,19.86-2.58,8-.6,16,.25,24,.24,7.36,0,14.42-1.06,21.69-2,7.59-1,15.14-1.08,22.77-1.32A153.71,153.71,0,0,0,341.28,83c6.5-1,13,.72,19.26-1.8,4.13-1.66,6.52-2.26,11-1.86A22.45,22.45,0,0,0,381.92,78c7.81-2.92,15.93-4.07,24.12-5.51s16.26-2.68,24.52-2.13,16.2,3,24.52,3c6.37,0,6.38-9.91,0-9.89-7.11,0-13.94-1.78-21-2.61a84.34,84.34,0,0,0-22.1.75c-7.26,1.06-14.53,2.37-21.71,3.82-6.23,1.25-12.42,4.8-18.77,4.24-3.23-.28-6.17-.62-9.33.35s-5.65,2.82-9,3.12-6.56-.31-9.83-.05c-3.85.3-7.64,1.24-11.47,1.72-6.25.79-12.49.71-18.77,1a209.34,209.34,0,0,0-22.05,2.42c-15.23,2.22-30.6-.51-45.86,1.71-6.87,1-13.66,2.16-20.63,1.88-7.75-.32-15.35-2-23.07-2.63-15-1.28-30.26.27-45.37-.75a200.12,200.12,0,0,0-22.58.29c-8.1.38-16.2.3-24.31.44C74.9,79.76,40.41,82.25,6.41,76l2.81,2.81C7.32,70,7.33,61,7.58,52c.23-8.2,1.92-17.5.3-25.58L2.2,28c.41,2.64.91,5.23,1.44,7.85a1.46,1.46,0,0,0,2.8,0Z"/><path d="M6.77,65.43c.44-9.18,1.54-18.53,1.17-27.7-.11-2.73-1.07-8.1,1.4-10.06.64-.5,2.26-.52,3-.69,2.09-.5,4.09-1.2,6.12-1.89,8.49-2.9,17.05-5.64,26-6.61,9.22-1,18-3.08,27.28-2.75,9,.32,17.19-2.22,26.05-3.07,9.06-.87,18.44,2.39,27.39,3.62A141.5,141.5,0,0,0,152,17.7c9.6-.54,19-2.41,28.64-2.57,39.47-.68,78.95,1,118.43,1l59.64.06c9.54,0,19.08,0,28.61.1,4.29.06,8.66.27,12.91-.47,3.79-.66,7.34-2.32,11.14-2.91,5-.78,10.2.23,15.26.08a69.72,69.72,0,0,0,12-1.9c7.83-1.63,16.95-3.24,22.06,4.43,4.81,7.23,5.09,15.93,4.27,24.26-1,10.56-2.73,21-2.85,31.65-.07,6.42,10,6.43,10,0,.07-17.43,6.72-36.55.53-53.47-2.5-6.83-6.74-13.39-13.72-16.24-7.27-3-15.43-1.53-22.86,0a52.61,52.61,0,0,1-12,1.59c-4.82-.09-9.56-.61-14.35.16-3.9.63-7.52,2.29-11.39,2.93-5.07.85-10.52.25-15.64.21-21.31-.14-42.63,0-63.94.05-21.56,0-43.16.4-64.71-.06-21.08-.45-42.07-.33-63.14-.42-20.43-.09-40.39,4.36-60.82,2.18-9.21-1-18.5-4-27.75-4.17C92.22,4,82.72,8,72.65,7.74,62.05,7.53,52.07,9.6,41.6,11,31,12.5,21.63,16.93,11.44,19.8,8.8,20.54,6,20.84,4,23c-2.24,2.4-2.81,6.1-2.79,9.25,0,4.88.81,9.89,1.1,14.76.38,6.16.67,12.31,1,18.47a1.74,1.74,0,0,0,3.47,0Z"/></g></g></svg>