<svg xmlns="http://www.w3.org/2000/svg" viewBox="0 0 313.39 106.11"><title>Asset 384</title><g id="Layer_2" data-name="Layer 2"><g id="Layer_1-2" data-name="Layer 1"><path d="M8.35,13.46l-1-.65v6.57c4.46-2.89,11.63-.17,16.41.66a29.42,29.42,0,0,0,5.3.12c1.83,0,3.64.55,5.49.71,3.62.33,7.1-.46,10.7-.4,4,.07,8-.56,12.1-.5a107.09,107.09,0,0,0,14.1-.62c8.23-1,16.64-.48,24.93-.27s16.9.14,25.26-.44c7.29-.5,14.52-1.88,21.84-2.38,7.53-.52,13.35.08,21.17,0,7.62-.09,15.14-1.42,22.66-.67,4.8.47,9.63,0,14.43.53,4.19.49,8.37,1.12,12.56,1.55,9.14.92,18.35,0,27.48,1l-3.9-1,1,.63c8.31,5.5,16.14-7.94,7.8-13.36-6.52-4.25-17.71-2.32-25.09-2.3-8.71,0-17.23-1.86-25.92-1.89-4.26,0-8.7-.84-12.9-.65C179,.2,175,.66,171.25,1.08c-7.82.89-15.71.5-23.51.54A110.44,110.44,0,0,0,135.69,2.8c-4.05.45-8.19.55-12.19,1.18C115,5.32,106,5.49,97.34,5.45,79.12,5.36,61.09,7,43,7.86c-2.28.11-4.46.77-6.73.92S32,8.31,29.8,8.42s-3.93.64-6.07.52c-1.87-.1-3.73-.24-5.61-.35-5.26-.32-16.32.05-16.5,7.51-.05,2.23,2.52,4.62,4.82,3.67l1.15-.48c2.5-1,3.23-4.23.76-5.83Z"/><path d="M.32,87.18c-3.87,22.59,28.24,11.71,39.77,13a129,129,0,0,0,14.31.69c4.79,0,9.52.76,14.32.84,10.84.18,21.68.07,32.53.19s21.51.67,32.29,1.15c11,.49,22.19.64,33.14,1.64,11.2,1,22.3,1.26,33.54,1.42,10.77.16,21.41-1.52,32.21-1.7,5.94-.1,11.78-1.12,17.71-1.26,5.71-.13,11.43.08,17.14.06,6,0,11.8.79,17.72.88,3,0,5.77-.31,8.75.06a69.19,69.19,0,0,0,9,.52c10,0,10-15.57,0-15.56-4.72,0-9.37-.87-14.08-.68s-9.45-.62-14.28-.65c-9.5-.06-19.42-.47-28.87.55-10.12,1.1-20.36.85-30.46,2.15s-20.42,1.36-30.76,1.36-20.71-.83-31-1c-10.12-.16-20.22-1-30.36-1.11s-20.38-.56-30.59-.58c-9.8,0-19.73,1-29.51.18-4.84-.39-9.52-.45-14.38-.4-5.28.06-10.31-.94-15.62-.32-5,.58-10.09.78-15.07,1.41-3.79.48-8.55,2.1-9.88-2.84-1-3.49-6.83-3.92-7.51,0Z"/><path d="M244.67,14.88a52.51,52.51,0,0,0,15.27,2.38c5-.11,9.55,1.45,14.57,1,5.49-.52,11.28.11,16.8.22,3.78.08,6.6,1.94,6.38,6.28-.26,5.23-1.09,10.4-1.22,15.68s.6,10.64.47,16c-.25,10.17,1.79,20.35,1.82,30.47,0,9.41,14.83,9.42,14.63,0-.13-5.75-1.15-11.52-1.51-17.25-.36-5.93-.4-12-.9-17.87-.53-6.32-.77-12.58-.9-18.95-.13-6.14,1.37-11.41-1.82-17.11-2.16-3.87-5.36-7.53-9.69-8.92C292.94,5,285.9,6,280.07,6.16a65.69,65.69,0,0,0-7.8,1c-3.19.48-6.32-.14-9.5.25-3,.38-5.77,1.24-8.79,1.42s-6.22,0-9.31.75c-2.72.62-2.54,4.61,0,5.33Z"/></g></g></svg>