<svg xmlns="http://www.w3.org/2000/svg" viewBox="0 0 12.15 168.09"><title>Asset 368</title><g id="Layer_2" data-name="Layer 2"><g id="Layer_1-2" data-name="Layer 1"><path d="M9.92,2.86C8.56,1.82,8.3-.12,6.14,0S2.65,2.13,2.07,4c-1.17,3.85.06,8,.4,11.93a2.32,2.32,0,0,0,4.64,0C7.24,13.5,7,11.08,7,8.65a10.85,10.85,0,0,1,.24-3.22c.06-.21.91-1.78.22-.87-.54.72.42,0,.87-.26L7,4.47c.67.19,1.29.47,2,.66,1.46.44,2-1.47,1-2.27Z"/><path d="M9.29,24.82l-.19-.08a2.24,2.24,0,0,0-3,.77c-3.1,4.13,0,9.84.34,14.42a2.82,2.82,0,0,0,5.63,0c.36-4.53-1.95-8.79-1.93-13.32l-.64,1.53L9.72,28a1.62,1.62,0,0,0-.43-3.17Z"/><path d="M7.79,52.17l-1.2.15a1.45,1.45,0,0,0-1.36,1c-.18.74-.87,1.1-1.38,1.63a5.87,5.87,0,0,0-1.41,2.44c-.66,2.46.8,4.21,2.64,5.6C7.26,64.67,10,61,8,59.23c0,0-.94-1-.87-.76,0,0,.32-.82.43-1.16A11.41,11.41,0,0,0,8,53.72L7,55.08l1.17-.43c1.23-.44,1.18-2.67-.34-2.48Z"/><path d="M7.94,76.39a4.63,4.63,0,0,0-.55-3.3l.34,1.23v0A2.84,2.84,0,0,0,5,71.5,4.78,4.78,0,0,0,.14,75.35a10.57,10.57,0,0,0,0,3.46c.06.42.13.83.19,1.24,0,.15,0,.3.07.45-.13-.8,0-.25,0-.07a3,3,0,0,0,2.9,2.91A3,3,0,0,0,6.2,80.43c0-1.06,0-2.15-.1-3.21,0-.24,0-.49,0-.73s0-.3,0,.16c.09-.32,0-.25-.14.23s-.19.28.07-.06.2-.21-.11.05S5.4,77,5.69,77A2.74,2.74,0,0,0,7.63,75V75l-1.7,1.7c-1.35-.55-1.76-.6-1.25-.15,0,.11,0,.2.13.29.65,1.23,2.87,1,3.12-.41Z"/><path d="M6.24,100.33c.1-.63.31-1.19.47-1.81L5.32,99.91l.17,0c4.36-1.12.23-7.58-2.54-4.37-1.57,1.82-1.35,3.83-1.34,6.12a46.16,46.16,0,0,0,.56,6.53c.37,2.6,4.88,2.6,5.25,0A46.16,46.16,0,0,0,8,101.62c0-2.29.23-4.3-1.34-6.12C3.89,92.31-.29,98.74,4.1,99.87l.17,0L2.88,98.52c.16.62.37,1.18.47,1.81a1.51,1.51,0,0,0,2.89,0Z"/><path d="M5.76,122.27l-.22-.16.9,1.18-.09-.52a3,3,0,0,0-2.89-2.2,3.09,3.09,0,0,0-2.89,2.2,8.22,8.22,0,0,0,0,4.91,2.86,2.86,0,0,0,3.11,2,2.81,2.81,0,0,0,2.46-2.79,10.29,10.29,0,0,1,0-1.57c0-.64-.17.43,0-.24l.06-.25c.08-.31.09-.34,0-.07L4,125.7l.26.08a1.91,1.91,0,0,0,2.27-1.11,2,2,0,0,0-.79-2.4Z"/><path d="M1.22,142.86a22.09,22.09,0,0,0-.39,8.07,2.47,2.47,0,0,0,4.93,0,22.09,22.09,0,0,0-.39-8.07,2.17,2.17,0,0,0-4.15,0Z"/><path d="M5.88,156.91c-1.91.37-3,2-3.76,3.7s-1.67,4.18-1,5.91a2.24,2.24,0,0,0,4.37-.59,32.13,32.13,0,0,1,.22-3.38c.21-.84.57-2.27,1.35-2.77a1.58,1.58,0,0,0-1.21-2.87Z"/></g></g></svg>