<svg xmlns="http://www.w3.org/2000/svg" viewBox="0 0 125.9 119.38"><title>Asset 340</title><g id="Layer_2" data-name="Layer 2"><g id="Layer_1-2" data-name="Layer 1"><path d="M30.48,12.54a10.23,10.23,0,0,0-1.24-1.31,4,4,0,0,0-3.86-1c-2.41.83-4.87,1.44-6.8,3.21s-3.3,4.51-4.82,6.82c-3.41,5.16-7.9,9.38-10,15.33C1.54,41.71.85,49.18.16,55.65c-.74,7,1.18,14.15,2.93,20.88,1.67,6.38,3.31,13.83,7.1,19.29a46.28,46.28,0,0,0,14.74,13.73c5.9,3.35,13.17,5.8,19.62,7.89a25.51,25.51,0,0,0,8.11,1c3.66,0,7.07.79,10.68.88,3.09.07,6.17-.58,9.26-.62,3.42,0,6.28-1,9.47-2,6.46-2.12,12-3.36,17.32-8,9.62-8.55,19.57-20,24.38-32.08,2.57-6.48,2.17-13.89,2-20.75-.17-7.16-1.23-14-4.44-20.45-6.07-12.22-14-21.77-27-26.76-3.62-1.39-7.42-2.14-11.09-3.37C80,4.19,77,2.75,73.8,1.79,65.27-.77,57.39-.1,48.69.85A44.58,44.58,0,0,0,29,8.27C23.36,12,17.11,14.9,13.24,20.81c-4.46,6.82,4.28,15,11,11,2.11-1.26,4.54-1.71,6.61-3.12a35.87,35.87,0,0,1,5.09-3.33c2.29-1.11,4-2.7,6-4.18-2,1.49-1,.59.11.36a48.92,48.92,0,0,0,5-1.71,41.22,41.22,0,0,1,16.28-1.71c5,.68,9.57,2.9,14.26,4.57,9.18,3.28,18.5,4.55,23.91,13.65,2.19,3.68,4.94,7.45,6,11.64,1.36,5.33,1.12,11.07,1.15,16.54,0,5.21-1.74,8.75-4.51,13.12a94.19,94.19,0,0,1-9.7,13.27c-2.52,2.74-5.82,6.64-9.17,8.31-2.22,1.1-5,1.45-7.36,2.3A21.2,21.2,0,0,1,71,103.12c-2.54.11-5.13.91-7.64,1-2.27,0-4.55-.82-6.87-.77s-4.66.73-6.89.42c-2.9-.4-5.87-1.94-8.66-2.77-5-1.49-9.74-3.07-13.9-6.38a34.55,34.55,0,0,1-5.46-5.42c-2.15-2.71-2.68-5.38-3.76-8.59-2-5.85-4.15-11.62-5.33-17.71s.08-13,.94-19.16c.88-6.33,4.4-10.46,7.68-15.68,1.29-2.06,2.13-4.39,3.42-6.43,1.46-2.29,4-3.1,5.35-5.55l-3.42,2a9.9,9.9,0,0,1,1.72.14c3.08.39,4-3.71,2.32-5.6Z"/></g></g></svg>