<svg xmlns="http://www.w3.org/2000/svg" viewBox="0 0 985.35 153.61"><title>Asset 427</title><g id="Layer_2" data-name="Layer 2"><g id="Layer_1-2" data-name="Layer 1"><path d="M9.92,15,9.23,13.7a3.2,3.2,0,0,0-3.57-1.46l-.44.15a4.28,4.28,0,0,0-3.06,4c.19,5.72,1.43,10.8-.1,16.53-.81,3-1.57,5.36-.83,8.51a28.64,28.64,0,0,1,.61,8.19c-.18,6.4.59,13.51-.69,19.77-.6,3-1.36,5.58-.82,8.65a47.62,47.62,0,0,1,.84,10.22c-.23,8.51,13,8.5,13.22,0,.1-4,.18-7.4-.88-11.3-.8-3,.38-5.82.53-8.88.36-7.48,0-15.31-.34-22.79-.11-2.76-1.36-5.3-1.42-8-.06-3.1.61-6.2.46-9.38-.23-4.82-.34-12.31-4.65-15.42L5.66,18.34l1.46.34A2.52,2.52,0,0,0,9.92,15Z"/><path d="M7.67,21a26.61,26.61,0,0,0-3.43,1.47l7.44,1c1.09,1.09-1.06,3.65.58,3.62.3,0,.8-.89,1.07-1,.65-.34,1.22-.88,1.87-1.24,1.27-.71,5.41-1.4,8.18-1.89,7.67-1.35,15.55-1.13,23.3-2.48a103.23,103.23,0,0,1,23.43-1.1c7.18.36,14.67-.5,21.73,1a42.3,42.3,0,0,0,11.44.93c3.46-.2,6.6-.53,10,.43,7.22,2.05,15.11.74,22.53,1,3.44.14,6.85,1,10.3.71,1.4-.12,3-.83,4.38-.81,1.66,0,3.49,1,5.19,1.17,3.51.37,6.85-.92,10.33-.71,4.17.25,8.06,1.4,12.28,1,3.21-.32,6.28-1.36,9.46-1.69a41.72,41.72,0,0,1,10.93.57c7.4,1.22,15.15,2.65,22.65,2.88,7.26.24,14-.4,21.17.91,7.86,1.44,15.63-.76,23.52-.87s15,2.29,22.8,1.12c8.09-1.23,16.19-1.05,24.36-1.06,16.11,0,32.88-.89,48.79,2,8,1.46,16,1,24.11,1.07,7.55.1,15.11.7,22.64.14,7.92-.58,16.15-1.09,24-2.29,7.4-1.13,14.67-.42,22.1-.92,8-.54,15.21-1.92,23.28-.91A154.19,154.19,0,0,0,501,26c7.78-.17,15.41-1.58,23.23-1.61,8.07,0,16.4.78,24.43-.13C564.18,22.48,579.81,23,595.45,22c16.71-1,33.49.85,50.09-1.47,7.75-1.08,15.94-.25,23.76-.24H694c16,0,32.33,1.14,48.26,0,8-.56,15.73-1.93,23.83-1.82s16.26.33,24.4.32c8.4,0,16.83.21,25.22,0,8.07-.2,15.9-1.79,24-1.6,16.23.39,32.49.14,48.73.15h25.93c7.86,0,16-.64,23.7,1.21a104.94,104.94,0,0,0,23.31,3.31V4.66h-4.15c-11.1,0-11.12,17.26,0,17.25h4.15c11.1,0,11.11-17.12,0-17.24-8.09-.1-15.34-2.38-23.24-3.6C929.63-.26,921,.17,912.37.18l-52,0C851.89.2,843.43-.07,835,0c-8.1.08-16,1.7-24.14,1.69-17.05,0-34.25-.79-51.28-.25-8.35.26-16.47,2-24.84,2-8.19,0-16.37-.22-24.56-.22-17.1,0-34.21.25-51.3,0a109.94,109.94,0,0,0-12.18.11c-4,.38-7.94,1.38-12,1.46-8.63.18-17.29,0-25.93,0-8.48,0-16.84.72-25.29,1.27s-16.62-.28-24.9.29c-4,.27-7.82,1.17-11.77,1.5s-8.17.06-12.23,0c-8.3-.08-16.59-.27-24.84.78A125.75,125.75,0,0,1,486,9.45c-8.34-.56-15.93-2-24.32-.86-7.64,1.06-15.1.66-22.77,1-3.69.17-7.26,1-10.92,1.46-4.31.48-8.66.43-13,1a158.54,158.54,0,0,1-24.46.73c-8-.23-16.42.79-24.28-.56C349.68,9.33,332.78,9.6,316,9.68c-8.54,0-17.14-.27-25.64.8-3.85.48-7.11,1.19-11,.41a57,57,0,0,0-12.56-1.16c-7.33.12-15.18,2.6-22.37,1-8.14-1.76-15.93-.46-24.14-1-7.65-.48-15.27-2.1-22.89-3a49,49,0,0,0-10.82-.24C183,7,179.4,8.31,175.76,8.37s-7-1.13-10.49-1.18c-2.16,0-4.23.65-6.36.78a16.47,16.47,0,0,1-4.74-.72c-3.64-.73-6.82.4-10.36.46-3.89,0-7.8-.78-11.71-.77s-7.8.24-11.66.09c-3.46-.13-6.68-1.61-10.23-1.75s-6.93.52-10.4.44c-4-.08-8-1.37-12-1.65-7.91-.56-16-.09-24-.21C55.36,3.72,47.32,5.47,39,7c-12,2.21-27.4.76-36,11.18-3.39,4.08-4.46,10.1,0,13.88,2.05,1.72,5,2.5,7.44,1a7.74,7.74,0,0,1,1.9-1c6.2-2.8,1.79-13.32-4.66-11Z"/><path d="M14.88,77.82l-1.13-.75C11,72.73,3.92,74.36,3.93,79.72c0,4.61-.28,9.13-.65,13.71-.27,3.37.13,7-1.1,10.14C-.25,109.75-.43,119,2.55,125a56.81,56.81,0,0,1,3.74,8.82c1,3.16,1.12,6.41,2,9.53,2.18,7.56,10.74,9.33,17.52,10.08,7.13.78,13.75-1.17,20.71-2.13,7.55-1,14.75-3.78,22.2-5.12a43.76,43.76,0,0,1,9.94-.8c4,.29,7.16,1.11,11-.59-.86.38-2.82-.8-.77.4a7.76,7.76,0,0,0,2.16.73,10.34,10.34,0,0,0,6.51-.71c3.14-1.35,5.9-.19,9.36.33,8.17,1.23,16.23,2.31,24.53,2.22,8.76-.1,17.29.28,26,1,8.15.67,15.94,1.84,24.15,1.9,4.4,0,8.58,1,13,1.41s8.87.18,13.29.19c36.83.07,73.66,0,110.49.17,8.67.05,17.19-1.55,25.87-1.63,8.92-.08,17.85.32,26.78.21,8.31-.1,16.27-1.79,24.62-1.53,8.59.26,17.07.1,25.64.78,4.23.34,8.25-.36,12.46-.58s8.61.26,12.92.19c8.59-.13,16.86-2.77,25.41-3.23,4.18-.22,8.48-.81,12.67-.63,4.38.2,8.51,1,12.91.41,8.33-1.05,16.36-2,24.8-2,17.58.13,35,.79,52.58,0,18.49-.79,36.94-.82,55.45-.81,9.08,0,18.18-.22,27.25,0s17.85,2,26.82,1.56c4.19-.21,8.3-1.12,12.47-1.44,4.34-.34,8.71-.13,13.07-.48,8.91-.72,17.69-2.23,26.64-2.55,9.35-.33,18.71-.05,28.06-.47,9.09-.41,18.06-1.91,27.1-2.84s18.17-1.57,27.27-2.11c8.34-.49,16.6-1.66,24.93-2s16.53-2.34,24.81-3c9.16-.67,18.58,0,27.77,0,4.09,0,8.21-.17,12.3,0s8,1.48,12,2.21c8.63,1.59,17,.6,25.69.82,7.86.2,15.48,1.32,23.23-.64a9.06,9.06,0,0,0,6.42-6.42l.26-1.24c2.36-11.54-15.31-16.49-17.72-4.89l-.26,1.24,6.42-6.41c-5.67,1.41-11.82.17-17.58,0-7-.27-14.12,1-21.06-.07s-13.19-2.92-20.19-2.94c-7.6,0-15.2.05-22.81,0-7.22,0-14.27-.17-21.43.93-6.77,1-13.66,1.83-20.48,2.21-6.48.36-12.88,1.48-19.37,1.86-7.8.46-15.6,1-23.38,1.71-14.91,1.36-29.55,3.7-44.55,3.85-7.1.07-14.2,0-21.29.41-7.63.43-15.16,1.76-22.77,2.38-7,.58-13.81.58-20.76,1.46-7.39.94-14.64.26-22-.42-14.78-1.35-29.79-.65-44.62-.65-29.42,0-58.84,2.11-88.24,1.11-7.05-.24-14.11-.46-21.17-.14s-14.08,2.37-21,2.09a200.14,200.14,0,0,0-20.2,0c-7.35.43-14.46,2.44-21.77,3.08-6.73.59-13.45-.33-20.18.35-7.15.71-14.16-.39-21.32-.37-6.85,0-13.77-.45-20.61-.2-7,.25-13.77,1.77-20.87,1.74s-14.11-.19-21.16-.14c-7.27,0-14.24,1.1-21.46,1.61-14.46,1-29.27.16-43.77.18l-51.39.08c-8.5,0-17,0-25.49,0-8.2,0-16.18-1.58-24.36-1.48-7.49.09-14.72-1.25-22.2-1.84-8.08-.64-16-1.09-24.14-1-7.75.14-15-.81-22.68-1.66-3.09-.34-6.11-1.32-9.24-1.47-3.95-.19-6.74,1.1-10.36,2.06h4.41c-3.25-.86-5.56-2.2-9.09-1.39-3,.67-2.64.83-5.53.49a52,52,0,0,0-18.69,1.81A180,180,0,0,1,44,135.29c-2.84.48-5.66.52-8.45,1.37a21.29,21.29,0,0,1-7.53,1.09,25.62,25.62,0,0,1-3.71-.37l-1.33-.3q-2.18-1.05-.58.68,1.21.77.63,1.05c-.09-.73-.19-1.46-.29-2.19a28.91,28.91,0,0,0-.83-3.8c-.86-3-1.91-6-3.06-8.85-1-2.4-3.05-4.6-3.68-7.06-1.34-5.24,1.3-10.27.92-15.44-.54-7.25-1.24-14.48-1.66-21.75L4.65,82.38a12,12,0,0,0,6.26,4.87c5.42,2,9.35-7.11,4-9.43Z"/><path d="M952.08,15.46c4.28,2,8.24,3,10.7,7.4,2.83,5.08,4.17,8.79,4.09,14.62-.15,11.43-2.64,23.12-1.29,34.52s-.22,22.54.72,33.8c.05.58.58,6.42,1,6.45-.2,0,2-4.39,1.61-2.11-.06.33-1.37.5-.42.36A97.18,97.18,0,0,0,958,113.23c-9.17,2.49-7.16,16.18,2.22,16.39,10,.22,22.53-2,24.87-13.69.7-3.55-.22-6.53-.77-10a60.42,60.42,0,0,1-.28-9.7,152.12,152.12,0,0,0-1.35-23.66c-2.12-14,1.58-29.36-2.43-43.1-3-10.27-14.12-23.46-26-22-3.66.47-6.47,5.93-2.15,8Z"/></g></g></svg>