<svg xmlns="http://www.w3.org/2000/svg" viewBox="0 0 14.84 251.62"><title>Asset 357</title><g id="Layer_2" data-name="Layer 2"><g id="Layer_1-2" data-name="Layer 1"><path d="M14,3,12.2,1.21a2.56,2.56,0,0,0-4.62.61c-4.82,15-4.71,31.32-3.35,46.82.69,7.91,2.1,15.76,2.41,23.69.31,8.3-.22,16.61-.29,24.91s.27,16.68-.11,25C5.85,130.9,3.85,139.34,3.53,148c-.32,8.27.5,16.73-.87,24.92C1.48,180-.4,186.75.08,194c.57,8.72,3.33,17.13,3.63,25.87.32,9.23-.77,18.44-.87,27.67-.06,5.47,8.33,5.45,8.49,0,.23-8,.83-16,.81-24,0-7.52-1.45-14.7-2.81-22.07-1.49-8.07-1.05-15.13.51-23.15,1.46-7.56,1.54-15.05,1.5-22.74a186.71,186.71,0,0,1,1.83-23.74c1-8.28.9-16.62.76-24.93-.26-16.25.51-32.21-1.83-48.35C9.4,40,8.44,21.56,12.45,3.16L8.23,4.28c1.33,1.7,2.69,2.1,4.85,2,1.66-.09,2.51-2.4.89-3.27Z"/></g></g></svg>