<svg xmlns="http://www.w3.org/2000/svg" viewBox="0 0 686.83 101.51"><title>Asset 362</title><g id="Layer_2" data-name="Layer 2"><g id="Layer_1-2" data-name="Layer 1"><path d="M5,46.42l.67-5.24C6,38.49,1.46,37.9.9,40.54-.63,47.77.05,56.73,1,64,1.9,70.72,4,77.35,8.66,82.38c6.54,7,17.39,9,26.17,11.69a88,88,0,0,0,15.84,3.61c6,.66,12.06,0,18.08.43,5.83.44,11.54,1.91,17.33,2.66,6.18.81,12.42.52,18.64.52,12.79,0,25.57.12,38.36.15,12.95,0,25.9,0,38.85.06,12.52.09,24.74-1.3,37.18-2.43,11.95-1.09,23.85-.46,35.82-.67,12.6-.23,25-2.42,37.48-4.11,12.31-1.68,24.72-2.27,37-3.87s24.9-3.49,37.46-3.76c11.87-.26,23.9.74,35.73-.16,5.69-.43,11.3-1.54,16.94-2.31,6.45-.88,13-1.12,19.46-1.75a353.18,353.18,0,0,1,37.79-1.64c12.51.12,25.24.75,37.71-.39,13.52-1.24,26.7-5.22,40.28-5.8,13.42-.57,26.55.73,39.91-1.22,6.63-1,13.18-1.85,19.89-1.27,6.43.57,12.73,2.06,19.16,2.59,6.71.55,13.35.43,20.05,1.33A181.58,181.58,0,0,0,672.29,78c5.85.19,5.85-8.92,0-9.09-11.07-.32-21.91-2.8-33-2.95C628,65.78,617,62.37,605.72,63.15c-5.06.34-10.06,1.25-15.08,2a116.43,116.43,0,0,1-18.85.8c-11.85-.25-23.21.14-34.89,2.25-12,2.17-23.59,4-35.81,4.15s-24.58-.2-36.87-.13c-12,.07-23.9,1.85-35.86,2.72-11.79.87-23.24,3.43-35.1,3.36s-23.94-.4-35.84.52S333.8,81.66,322,83.05s-23.76,2.12-35.61,3.83c-12,1.73-23.94,3.37-36.13,3.35-12,0-23.86-.09-35.85,1.17a322.9,322.9,0,0,1-35.45,2c-25.07-.09-50.14-.1-75.2.14-6.94.06-13.72.27-20.6-.84-6-1-12-2.13-18.07-2.22-7.14-.09-13.84.21-20.87-1.39C38,87.69,31.85,85.76,25.71,84c-5-1.46-9.75-2.84-13.27-6.9a25,25,0,0,1-5-11c-1.93-8.43-.14-17.23-1.86-25.55l-4.73.64.67,5.24a1.74,1.74,0,0,0,3.47,0Z"/><path d="M11,67.43c.28-11.7-1-26.67,12.75-30.73,10.35-3.06,22.23-2.89,32.92-3,26.19-.34,52.41,1.38,78.61,1.48,13.95,0,27.9.08,41.86.24a130.12,130.12,0,0,0,17.77-.63c6.06-.77,12-1.92,18.15-2.26,13.07-.7,25.7-3.9,38.67-5.34,12.52-1.39,25.22-.66,37.8-1.82,12.86-1.19,25.65-3.07,38.55-3.94s26.13-.61,39.19-.61l40,.05A76.23,76.23,0,0,0,422.84,19a61.4,61.4,0,0,1,9-1.43c3.52-.19,7,.35,10.53-.06,5.64-.65,11-2.2,16.76-2.51,6.05-.32,12.13,0,18.19.15A152.34,152.34,0,0,0,514.44,12c5.89-1.27,11.8-2.67,17.83-3,6.23-.35,12.24.65,18.37,1.6a98.12,98.12,0,0,0,17.11,1.25,75.85,75.85,0,0,1,8.53,0c3.58.32,6.86,1.78,10.35,2.5,6.45,1.34,13.4,1,20,.92,7.71-.1,15.42-.49,23.12-.83,7.06-.3,14.12-.58,21.18-.57,3.83,0,7.65.09,11.47.31,3.13.18,7,0,9.86,1.24,7.34,3.25,5.63,15.51,4.46,21.73-1.06,5.63-2.89,10.86-3,16.65-.16,7.52,0,15.08,0,22.61,0,6,9.33,6,9.33,0,0-6.91,0-13.82,0-20.73,0-5.82,1.73-10.93,2.73-16.6,1.41-7.92,2.14-17-1.67-24.41-4.69-9.1-14.5-9.36-23.57-9.77-14.11-.64-28.23.37-42.32.94-6.4.26-12.81.45-19.22.35a52.36,52.36,0,0,1-10.69-.76c-3.23-.72-6.29-1.91-9.57-2.36-6-.82-12,.06-18-.27C554.16,2.45,547.77.89,541.27.25,528.28-1,516,3,503.37,5.16c-13.14,2.27-26.52.72-39.77.83a93.38,93.38,0,0,0-17.17,1.76C440,9,433.6,8.27,427.12,9.24c-6,.9-11.83,2.67-17.93,2.8-7.55.16-15.12,0-22.67,0-27.43,0-54.59-.31-81.87,3a374.22,374.22,0,0,1-41.9,3.14c-12.84.14-25.23,3.17-37.86,5.1-6.64,1-13.33,1.06-20,2S191.76,27.5,185,27.62c-14.24.27-28.52,0-42.76.06-15.86.05-31.7.16-47.55-.3-15.19-.45-30.4-1.06-45.6-.37-10.58.49-24.39.23-33.62,6.31-10.85,7.14-8.39,23-8,34.11a1.74,1.74,0,0,0,3.47,0Z"/></g></g></svg>