<svg xmlns="http://www.w3.org/2000/svg" viewBox="0 0 928.59 199.13"><title>Asset 404</title><g id="Layer_2" data-name="Layer 2"><g id="Layer_1-2" data-name="Layer 1"><path d="M25.07,14.32l.11-1.07c.5-5.11-4.72-9.48-9.48-9.48-5.59,0-8.93,4.37-9.48,9.48a113.94,113.94,0,0,0,.22,29.23C7,46,8.08,49.44,8.31,52.91,8.57,56.83,7.41,60,6,64.25A81.36,81.36,0,0,0,2,92.18c0,1.95.06,3.9.13,5.85,0,1.16.11,2.32,0,3.47-.13,2-.07.35,0,0A81.88,81.88,0,0,0,.24,117.15c-.09,9.47-.49,18.94,0,28.4.52,9.87.21,21.22,7.66,28.74,6.16,6.22,14.48,7.55,22.76,8.5.67.08,4.88.46,2,.19s2.43.46,3.46.6a124.28,124.28,0,0,0,17.45,1.29c4.47,0,8.94-.06,13.4-.07,2.27,0,4.54-.05,6.81,0,1.91.07.3-.08-.1-.12,1.36.15,2.72.46,4.07.67,10,1.56,20.3,1.22,30.44,1.2,18.82,0,37.41,1.49,56.23,1.55,18.51.06,37,.15,55.49,0,1.86,0,.36-.15-.07-.19,1.15.1,2.38.44,3.54.62,2.93.47,5.89.85,8.84,1.14a137.74,137.74,0,0,0,14.65.51c9.18-.11,18.38-.86,27.56-.57.9,0,1.8.06,2.69.13-2.3-.19.56.11.87.16,2.91.47,5.83.94,8.76,1.18,4.71.39,9.55.12,14.27.13a133.2,133.2,0,0,1,24.17,2.09c5,.85,10,1.78,15,2.29,4.13.41,8.31-.06,12.43.38-2.61-.28.31.18.71.25,2,.34,4.08.62,6.11.81s4,.22,6.06.22,4.14,0,6.22.14c.4,0,3.24.43.71.06,1.14.17,2.27.37,3.41.53a94.92,94.92,0,0,0,32.12-.59c.37-.08,3.12-.42.7-.22.93-.08,1.86-.05,2.79-.06a50.65,50.65,0,0,0,9-.78c1-.19,2-.5,3-.72-.76.16-3.37,0,.45,0,2.41,0,4.82.16,7.23.25,9.61.36,19.3-2,28.74-3.62,1.08-.19,2.17-.37,3.25-.54-.36.06-2.16.27-.2,0s3.81-.4,5.72-.53c2.35-.15,4.7-.22,7.05-.42,1.31-.11,9.64-1.07,7.13-.9,5.3-.36,10.42,0,15.72-.75,1.22-.17,2.45-.43,3.67-.57-.41.05-1.84.21.11.05,2.72-.21,5.44-.32,8.17-.35,9.27-.1,18.41-.15,27.67-.83,8.74-.64,17.66.29,26.33-.67,1.74-.19,3.49-.44,5.22-.72,2.7-.45-2.12.13.62-.16,1.89-.2,3.78-.22,5.68-.28,5.47-.17,10.74-.92,16.18-1.53-2.75.31,2.32-.12,3.1-.15,1.9-.07,3.78-.15,5.67-.35,4.18-.43,10.6-1.68,13.89-2.06,8-.94,18.79-.6,27.85-.58,4.84,0,9.69.15,14.52.1a57.61,57.61,0,0,0,9.06-.92c.9-.15,1.79-.32,2.68-.49,5.54-1.1-1.38,0,1.91-.29,9.37-.81,18.75-1.83,28.13-2.45,8.88-.59,17.85.61,26.67-.29,5-.51,9.79-1.62,14.69-2.43.35-.06,4-.53,2.17-.34-1.58.18,1.29-.09,1.27-.09,2.53-.16,5-.24,7.57-.38,4.9-.25,9.76-.81,14.62-1.51,1.09-.16,2.18-.36,3.27-.53,1.83-.28.29-.08-.06,0,2.69-.28,5.42-.2,8.12-.32a75,75,0,0,0,9-1c.2,0,3.16-.54,1-.27.93-.11,1.88-.15,2.81-.2,5-.25,10.06.17,15.08.08a64.53,64.53,0,0,0,6.51-.46c2.11-.26,4.24-.52,6.33-.92,0,0,2.95-.56,1.24-.28-1.88.3,1.67-.14,2-.17.91-.05,1.82-.05,2.74-.09,3.2-.16,1.22-.06.24-.19,1,.13,2,.38,3,.57,9.54,1.87,18.53,1.66,28.16,1.33,4.68-.16,9.2-.25,13.86-.87,1.28-.18,2.57-.37,3.86-.53-3.18.4-.35,0,.25,0,2.43-.11,4.84-.22,7.27-.17,6.43.11,12.8.66,19.21.94,8.34.35,17.48-.82,23.58-7.12,6.38-6.6,7.05-18.32,0-24.8-6.91-6.33-18-7-24.8,0a13.16,13.16,0,0,1,5.24-3c-.91.26-1.7,0,.44.07,3.25.12-1.28,0-2.07,0-2.87,0-5.73-.18-8.58-.36a119.76,119.76,0,0,0-21.92.24c-2.84.35-5.7.72-8.53,1.23-2.64.48,2.5.07-.27,0-.83,0-1.71.09-2.54.12-4.27.16-8.54.43-12.82.62-2,.09-4.05.15-6.07.12-1.13,0-2.26-.13-3.38-.16.32,0,2.43.48.45.08-4.79-1-9.67-2-14.56-2-5.06,0-10,1-15,1.78,2.21-.34-3.14.18-3.84.19-2.51.06-5,0-7.53-.07a93.28,93.28,0,0,0-14.47.79c1.12-.15-6.07.91-3.64.59,1.54-.21-1.37.08-1.34.08-2.4.12-4.81.11-7.21.26a87.35,87.35,0,0,0-9,1.08c-.77.13-5.75.88-3,.56-4.18.5-8.39.61-12.59.84a134.91,134.91,0,0,0-15,1.83c-2,.34-4,.67-6,1.12-.48.11-3.3.53-.55.23-1.13.12-2.29.15-3.43.17-8.76.17-17.38-.36-26.15.39-9,.77-18.13,1.53-27.15,2.47-3.06.32-5.91,1-8.91,1.44s2,0-1,.05c-.94,0-1.88,0-2.81,0-5.21,0-10.41,0-15.61,0-9,0-18.1-.15-27.11.94-3.18.38-6.33.86-9.49,1.39-.76.13-4.78.75-2.18.43-5.32.65-10.64.73-16,1.49-.09,0-2.78.37-1.07.15s-1,.11-1.11.12c-2,.16-4,.25-6,.31-5.12.15-10.07.9-15.14,1.52,2.8-.35,0-.06-.52-.07-1.13,0-2.26,0-3.39,0-1.69,0-3.37-.12-5.05-.15-4.87-.09-9.73.24-14.57.6-8.65.65-17.18.82-25.84.85a112.47,112.47,0,0,0-12.71.65c-2.07.24-4.13.62-6.2.85-.21,0-3,.17-1.15.1-2.52.09-5-.15-7.56-.05-2.74.1-5.44.6-8.16.94,2.29-.29-.55.05-.85.07l-3.44.23c-4.72.28-9.37.72-14.05,1.35-4.06.54-8.07,1.29-12.11,2-2.3.38-4.61.7-6.91,1.09-.86.15-1.73.35-2.6.48-2.89.43,3.42.17-1.83.09-4.2-.06-8.44-.56-12.64-.25a43.66,43.66,0,0,0-7.45,1.12c-2.69.7-1.35.46-.53.35-1.49.2-3.07-.08-4.58,0a76.22,76.22,0,0,0-8.77,1.14c-.82.14-1.64.33-2.47.45-2.77.41,2.22,0-.73,0-4.61.07-9.23.49-13.84.29.34,0,1.93.27,0,0-1.13-.13-2.26-.35-3.39-.52-2.87-.42-5.75-.88-8.64-1.11-3.75-.31-9.59,0-11.82-.33,1.5.24-1.25-.29-1.23-.29-2-.34-4-.62-6.05-.78s-3.85-.14-5.77-.14-3.9,0-5.85-.15c-.07,0-2.74-.34-1.09-.1s-2.88-.53-2.77-.51a237.93,237.93,0,0,0-28-3.65c-4.32-.24-8.65-.16-13-.17-2.25,0-4.5.07-6.75,0q-1.35,0-2.7-.12c-1.18-.11-1.18-.11,0,0L285,158c-9.6-1.66-19.19-1.17-28.87-.83-4.32.15-8.64.29-13,.26-2.14,0-4.28-.06-6.42-.17q-1.37-.08-2.73-.18c-.66,0-4.06-.4-1.92-.11-5-.66-9.73-1.78-14.76-1.54-4.45.21-8.73.4-13.18.23-18.23-.72-36.56-.13-54.8-.08-9,0-17.82-1.48-26.82-1.38-9.26.1-18.51.24-27.77.19-2.23,0-4.46,0-6.7-.07l-2.75-.08c-2.79-.08,2,.35-.68,0a108.64,108.64,0,0,0-15.69-1.4c-8.62.07-18.71.72-26.5-.19-2.45-.29-6.89-1-10.19-1.4L30.66,151c-3.16-.28.95.17.95.16-.35.4-4.08-1.17-4.16-1,.09-.26,3.53,1.93,1.1.35A9.64,9.64,0,0,1,31,152.75a11.42,11.42,0,0,1,1.56,2.77c1,2.27.08.45,0-.62-.33-4.69-.78-9.35-1-14.05-.35-9.16-.16-18.33-.45-27.49,0-.53.38-3.14,0-.68.13-.75.34-1.49.49-2.23a50.36,50.36,0,0,0,1.15-8.09c.15-4.19-.34-8.5-.54-12.68-.43-8.49,1.43-15.54,2.54-25s-1.17-17.36-4.35-26.09a103.18,103.18,0,0,1-5.2-25.38h-19l.1,1.07c1.18,12,17.56,12.06,18.75,0Z"/><path d="M19.07,24l-.62-.34L22,27.16c.13.16-.25,8.15.5,6.64.62-1.26-.13.37-.19.27l-.9.62,2.37-1.83.92-1.18q1.57-2.09.5-.61c-.29.12-.83,1-1.19,1.22-.63.4-3.39.17-2,.71s3.77.11,5,0c7.7-.7,15.33.15,23-.48,17.23-1.42,34.7-.18,52-.05,8.45.06,16.91.3,25.35,0s16.88-1.07,25.34-1.09,17-.27,25.45.7a110.57,110.57,0,0,0,23.57.53,140.28,140.28,0,0,1,24.42-.4,42.65,42.65,0,0,1,9.61,1.61,60.7,60.7,0,0,0,15,2.59c.9,0,1.81,0,2.71,0-.29,0-1.74-.26.23,0,2.82.3,5.62.93,8.45,1.25,3,.35,8.4.27,10,.45-1.68-.19,1.81.3,2.12.35l2.59.38c2.62.37,5.23.72,7.88.9,4.28.28,8.57.24,12.86.15,7.83-.16,15.66-.32,23.49-.29,8.4,0,16.67-1.3,25.05-1.77,16.43-.93,32.89-1.87,49.33-2.48,8.22-.3,16.4.47,24.59,1,8.63.58,17.22.24,25.86.44,7.8.18,15.5,1.65,23.31,1.66,8.4,0,16.78.08,25.16.61,16.9,1.06,33.58,2.5,50.53,2.55,16.73.05,33.41.12,50.13.63,3.63.12,7.27.17,10.89,0,2.53-.14,5-.45,7.54-.79,1.32-.18,2.64-.4,4-.56-1.68.2,1-.09,1.28-.12,8.64-.68,17.35.27,26-.49,2.76-.24,5.5-.7,8.25-1.07,2-.26.56-.09.14,0,.94-.1,1.88-.19,2.82-.24,4.19-.24,8.41-.07,12.6,0,8.75.13,17.51.08,26.26.1l52.48.13c16.71,0,33.56-.76,50.25-.26,8.13.24,16.18,1.62,24.34,1.85,8.86.25,17.73.14,26.59.15q12.85,0,25.72.05c4,0,8.06-.13,12.09,0-2.92-.1-1,.11.74.58.6.16,5.44,1.18,5.44,1.14-.07.44-7-4-5.75-5.2a40.1,40.1,0,0,0,1.18,4.29c.44,1.85.88,3.7,1.26,5.55.19.91.36,1.83.52,2.75s.34,2.74.13.8c.89,8.26.76,16.58.69,24.87s-.06,16.68-.08,25q0,6.3,0,12.59c0,5.14-.58,10.21.54,15.3a26.74,26.74,0,0,0,1.13,3.93c-.22-.55.1-3.31-.19-.93a28.8,28.8,0,0,0,0,2.94,50.3,50.3,0,0,0,.43,7.56,31.28,31.28,0,0,1,.57,3.75c0-.64-.09-3.62-.46-.62l2.43-9-.54,1.14c-4,8.39-2.59,19.63,6.39,24.37,7.92,4.19,20.11,2.6,24.37-6.39a27.08,27.08,0,0,0,3.05-10.78c.12-2.76-.88-5.46-.91-8.19,0,.38,0,3.65.22,1.09.08-1,0-2,0-2.94a47.37,47.37,0,0,0-.75-10.15,16,16,0,0,0-.71-2.54c-.11-.29-.81-2.49-.33-.43s.08-.37.12-.88c.08-1.12.14-2.24.17-3.36.1-4.84,0-9.69,0-14.53,0-17.45,1.15-35.39-.92-52.74-1.11-9.35-2.46-19.62-7-28.06-5.2-9.75-14.31-12.58-24.23-15-9.06-2.2-19.22-1-28.47-1l-27.71.05c-17.88,0-35.61-2.12-53.46-1.5-18.18.65-36.46.22-54.65.27-18.82,0-37.63.15-56.44.14A218.67,218.67,0,0,0,644.9,6.21c1.81-.23-3.19.19-4,.21-1.94,0-3.88,0-5.82,0-4.81,0-9.63-.08-14.42.25-2.69.18-5.35.54-8,.89-1.39.19-2.78.43-4.17.61.79-.1,2.79-.21-.74.06-4.22.31-8.44.33-12.67.22C586.46,8.25,577.86,8,569.22,8c-18.29.05-36.63.45-54.89-.68-8.81-.55-17.56-1.55-26.39-1.86s-17.89.26-26.77-.5c-17.43-1.49-34.91-1.33-52.39-2.27a201.58,201.58,0,0,0-26.35.79c-8.69.66-17.4.52-26.09,1.07-4.31.27-8.62.58-12.93.83-2.2.12-4.38.26-6.57.52-1.75.21-3.49.47-5.24.7l-1.85.25c.92-.14.81-.14-.33,0-8.38.71-16.9.18-25.31.44-4,.12-8,.27-12,.28A72.06,72.06,0,0,1,281.18,7,123.06,123.06,0,0,0,266.36,5.7c-.84,0-1.68-.07-2.52-.13-.4,0-3.06-.47-.69-.08a77.8,77.8,0,0,0-9.63-1.25,29.05,29.05,0,0,1-9.21-1.39A95.34,95.34,0,0,0,228.07.39,137.69,137.69,0,0,0,201.76,1c-8.65.92-16.68.36-25.29-.42S158.68.12,149.9.38c-9.08.27-18.12,1.26-27.2,1.56s-18.42.13-27.63.18-18.6.29-27.9.5C58.09,2.84,49.55,4.3,40.65,5,32.82,5.6,24.46,6.63,17,9.07S4.8,17.78,3.14,25.15C1.24,33.62,5,41.13,14.2,42c9.69.89,12.93-13.61,4.87-18Z"/></g></g></svg>