<svg xmlns="http://www.w3.org/2000/svg" viewBox="0 0 18.39 165.09"><title>Asset 356</title><g id="Layer_2" data-name="Layer 2"><g id="Layer_1-2" data-name="Layer 1"><path d="M.05,2.22c-.34,6.27,1.08,12.25,2.09,18.4,1.11,6.74.32,13.46.16,20.24C2,55.52,2,70.2,1.89,84.87,1.77,98,.48,111,2.51,124.1c1,6.68,1.14,13.64,2.84,20.2,1.49,5.76,5.44,10.79,5,16.93-.37,5.14,7.7,5.15,8,0,.34-5.48-2-10.08-4-15-2.61-6.17-2.88-13-3.77-19.53-1-7-2-13.68-2-20.74s.31-14.06.25-21.1c-.13-14.35-.23-28.69-.4-43-.07-6.26.49-12.58-.35-18.8-1-7-3-13.71-3.41-20.82a2.3,2.3,0,0,0-4.6,0Z"/></g></g></svg>