<svg xmlns="http://www.w3.org/2000/svg" viewBox="0 0 12.41 219"><title>Asset 377</title><g id="Layer_2" data-name="Layer 2"><g id="Layer_1-2" data-name="Layer 1"><path d="M6.14,3.64a6.84,6.84,0,0,0,.12-.79l-.36.88.24-.2A1.7,1.7,0,0,0,6.6,1.82,2.7,2.7,0,0,0,3.77,0a2,2,0,0,0-2,2q.12-.6,0,.36a.82.82,0,0,0,0,.35,9.27,9.27,0,0,0,.17,1.16V2.63a3.11,3.11,0,0,0,.22,2c.1.21.19.41.3.61a3.23,3.23,0,0,0,2,1.78A2.33,2.33,0,0,0,7.25,5.44a3,3,0,0,0-.22-2l-.3-.53A3.94,3.94,0,0,0,5.38,1.22l.85.85-.35-.55A2.15,2.15,0,0,0,5.49,1c-.14-.18-.14-.18,0,0L4.79,3.75c-.16.08-.33.09-.06,0,.1,0,.07,0-.1,0a.84.84,0,0,1-.47,0c-.06,0-.67-.51-.51-.26s.73.45,1.05.52l-.86-.87q0-.12,0,.15a1.18,1.18,0,0,0,1,1.15,1.16,1.16,0,0,0,1.28-.84Z"/><path d="M9.12,16.9a2.21,2.21,0,0,1-.52,0l1.16,1.17a3.41,3.41,0,0,0-1.1-1.57c.2.18.21.18,0,0,.18.24.21.25.08,0l-.38,2.94,0,0a2.51,2.51,0,0,0,.67-2.53c-.2-.6.21.57,0-.06l0,.27a4,4,0,0,1,.15-.49l-5.5-.74c0,.57,0,1.14,0,1.72l2.94-2.94a4.39,4.39,0,0,0-3.76,2,4.63,4.63,0,0,0-.51,3.93,2.9,2.9,0,0,0,2.69,2,2.9,2.9,0,0,0,2.69-2,2.85,2.85,0,0,0,.18-.71c0-.52-.18.25,0,0s-.36.4-.5.48c-.38.21-.41.13,0,.06A2.93,2.93,0,0,0,9.53,17.6a20.39,20.39,0,0,0-.35-2.47,2.79,2.79,0,0,0-3.07-2,2.85,2.85,0,0,0-2.43,2.76,4.64,4.64,0,0,0,.66,3,2.62,2.62,0,0,0,2.94,1.2l0,0L5,19.46c1.32,1.07,3,1.63,4.36.22l-1.18.49a6.24,6.24,0,0,0,2.11-.57,1.46,1.46,0,0,0,.6-1.84,1.51,1.51,0,0,0-1.74-.86Z"/><path d="M11.39,40.82a16.37,16.37,0,0,0-.7-3.25l-.24,1.88c.74-1.4.34-2.47-.34-3.76-.2-.37-.41-.72-.59-1.1.05.09,0-.48-.06.11l-6.09-.83c0,.62,0,1.23,0,1.85l6.29-.85A4.68,4.68,0,0,0,6.2,31.19a3.14,3.14,0,0,0-3.89,3l-.2,2.17C1.8,39.61,7,40.23,7.82,37.1L8.34,35,3.21,36.32c.17.16.34.31.52.45-.3-.69-.38-.75-.23-.2.72,3.56,6.38,2.73,6.29-.85a19.87,19.87,0,0,0-.33-2.67,3.05,3.05,0,0,0-3.4-2.22,3.11,3.11,0,0,0-2.69,3,6.79,6.79,0,0,0,1.2,4c.86,1.27,2,3,3.78,2.76l-1.23-.33a2.79,2.79,0,0,1,.59,1c.69,1.9,3.7,1.74,3.68-.5Z"/><path d="M9.11,50.94l-.38-.21.82.82A3.66,3.66,0,0,0,7.75,50l-1.81-.76,1.3,4.93a5.68,5.68,0,0,0,1.07-1.32c.08-.14.16-.29.25-.43s.45-.58-.1.07a3,3,0,0,0,.24-3.93,3,3,0,0,0-3.87-.77,5.16,5.16,0,0,0-2.48,2.77A2.74,2.74,0,0,0,2.84,53,2.9,2.9,0,0,0,5,54.09,4.41,4.41,0,0,0,7.86,53l-3.63-4.7a8.86,8.86,0,0,0-.9,1.3L3.09,50c-.25.49.43-.47,0,0a3,3,0,0,0,2.09,5l1.32.1a3.79,3.79,0,0,0,2.25-.47L7.58,55H8a2.19,2.19,0,0,0,1.1-4.06Z"/><path d="M10.31,71a2.14,2.14,0,0,1-.62-.54A2.16,2.16,0,0,0,6,72.61a3.35,3.35,0,0,0,2.55,2,2.65,2.65,0,0,0,2.83-1.16,7.76,7.76,0,0,0-.73-8.88,6,6,0,0,0-8.73-.24,5.65,5.65,0,0,0,.34,8,5,5,0,0,0,8.22-1.49,2.85,2.85,0,0,0-.72-3.63,2.81,2.81,0,0,0-3.7.22,4.4,4.4,0,0,1-.4.46c.25-.16.24-.16,0,0s-.27.14.13,0c-.33.09-.26.08.22,0,.48.1.56.11.23,0,.38.19.47.22.27.12-.5-.53.35.27-.11-.09.51.39.06.07-.11-.25.16.4.2.44.1.13q.06.69,0,.18c0-.55-.17.44-.19.52.07-.33,0,.13-.11.07l.11-.06q.55-.12.09-.06c.31,0,.35,0,.12,0s-.18,0,.1,0c-.32-.15-.34-.14,0,0-.27-.22-.29-.21,0,0-.38-.5.18.35.24.47-.23-.51,0,.21.06.33a5.17,5.17,0,0,1,.11.54c0-.3,0-.28,0,.07a7.8,7.8,0,0,1,0,1.08l0,.52c0-.27,0-.25,0,0l1.75-1.75.84.28L6.73,73.39a4.36,4.36,0,0,0,3.2.45A1.59,1.59,0,0,0,10.31,71Z"/><path d="M8,86.88l-.88-.09,1.09,4c-.44.21.45-.11.57-.18A3.29,3.29,0,0,0,9.53,90a4.88,4.88,0,0,0,1-1.75,4.61,4.61,0,0,0,0-2.8A5.9,5.9,0,0,0,6.2,81.7,4.9,4.9,0,0,0,.65,84.23c-.66,1.39-1,3.11-.07,4.46a7.48,7.48,0,0,0,2.88,2.5,5.53,5.53,0,0,0,4.2.39,4.31,4.31,0,0,0,2.86-4.26,2.51,2.51,0,0,0-2.17-2.46,2.56,2.56,0,0,0-2.76,1.79c.18-.46-.16.21-.15.24-.05-.19.76-.52.3-.32.1,0,1-.21.49-.18.67,0,.13,0-.14-.07l-.3-.1c.29.13.34.15.16,0s-.68-.4-.38-.2-.26-.24-.32-.29c-.5-.45.09.2-.17-.21L5.46,87c0-.33,0-.32,0,0a2.79,2.79,0,0,1,.1-.39c.18-.62-.24.53,0,0-.28.33-.32.39-.14.19s.15-.14,0,0c.09,0-.65.26-.3.17.5-.12-.67,0-.18,0,.7,0-.4-.19,0,0a2.35,2.35,0,0,0,.43.13c-.81-.17-.21,0,0,0s.5.55,0,0c.09.1.22.21.32.31.51.49-.21-.33,0,0s.14.54,0-.12c.11.46,0,.08,0-.15,0,.45.09-.68,0,0,.06-.42.13-.31,0,0a5.15,5.15,0,0,0-.42,1l.56-1-.13.16A2.26,2.26,0,0,0,5.28,90,2.16,2.16,0,0,0,7.7,91l.83-.31A2,2,0,0,0,8,86.88Z"/><path d="M8.46,105.19c-.33-.11.55.7,0-.07s.11.83.13.34l-.69,1.66a3.52,3.52,0,0,0,1-1.66,3.06,3.06,0,0,1,.3-.84c.32-.72.19-.44.54-1.25a17.84,17.84,0,0,0,.69-1.76c.77-2.58-.15-5.45-3-6.16-3.9-1-6.76,4.53-6.06,7.71,1.08,4.9,7,4.31,9,.5,1.35-2.53-2.16-5.63-4.16-3.21-.1.11-.34.58-.57.55l1.28.75c.26.31-.09.41.17-.23,0-.06.24-.55.33-.58H5.84a1.51,1.51,0,0,1-.78-.93c-.11-.29.06-.62-.07-.14a21.88,21.88,0,0,1-.76,2.1c-.78,2-1.12,4.09.79,5.52l-1.08-1.4c.82,2,2.25,2.43,4.07,2.42a1.7,1.7,0,0,0,.45-3.32Z"/><path d="M8.2,120.32a9.43,9.43,0,0,0-.44-2.11v1.11a3,3,0,0,0-.88-2.84l.69,1.68c.21-2.91-4.26-4.72-6.06-2.39a2.72,2.72,0,0,0,1.15,4.1,8.76,8.76,0,0,0,.86.39c.11,0,.52.22.07,0s.47.22.57.25a2.88,2.88,0,0,0,1.67-.08L4,120.21l.22.14c-.41-.31-.35-.26.2.17a2.57,2.57,0,0,0,1.32.33l-1.47-.61a5.9,5.9,0,0,1,.49.51c.12.12.09.12,0,0l.3.43A1.74,1.74,0,0,0,7,122a1.7,1.7,0,0,0,1.24-1.63Z"/><path d="M6.82,136.82c.09-1,.25-1.92.37-2.88a11.14,11.14,0,0,0,.21-1.46,4.34,4.34,0,0,0-.68-2c-1-1.79-3.24-1.42-4.32,0A3.59,3.59,0,0,0,3.76,136a2.55,2.55,0,0,0,3.4-.89,2.52,2.52,0,0,0-.89-3.4L6,131.53a.91.91,0,0,1,.49,1c.09.55,0,.87.22.48H2.4l.75,1.25c-.41-.67-.12-.05-.09.2.11.78.07,1.59.15,2.38a1.81,1.81,0,0,0,3.61,0Z"/><path d="M7.85,149.54c-.74-1.73-.72-3.54-1.23-5.31a2,2,0,0,0-3.36-.89,4.71,4.71,0,0,0-1.74,4c.1,2.55,4.05,2.57,4,0,0-.27-.06-.63.19-.82l-3-1.2a24.86,24.86,0,0,0,2.44,5.8c1,1.76,3.43.22,2.67-1.56Z"/><path d="M5.72,165.32s0-.95-.15-.49.21-.11.33-.22A5.33,5.33,0,0,0,7,163.12a11.45,11.45,0,0,0,.71-6.29c-.52-4-6.39-3.08-5.38.73l.25.92a2.51,2.51,0,0,0,4.79,0l.24-.92-5.37-.73c-.19,1.66.46,3.48-.42,4.83a4.57,4.57,0,0,0-.47,4.24c.77,2.18,4.61,2,4.33-.58Z"/><path d="M9.51,176.94c-.22,0-.37-.16-.54-.17.11,0,.26.42,0,0,.24.47-.12-.5-.06-.18s0-.51,0-.62,0-.49,0-.74l.06-.5c0,.28,0,.27,0,0a8.4,8.4,0,0,0,.09-2.6c-.43-2.63-4.74-2.55-5.24,0a10.69,10.69,0,0,0,.79,6,4.53,4.53,0,0,0,4.83,2.64,1.88,1.88,0,0,0,0-3.75Z"/><path d="M6.26,187.82c0,.1,0,.19,0,.29,0-.26,0-.3,0-.11s.21-.36,0-.08a1.36,1.36,0,0,1,.77-.62,1.28,1.28,0,0,1,.7,0c-.2-.07-.14,0,.17.08l1,1.81a5.84,5.84,0,0,0-.48-2.52,2.33,2.33,0,0,0-2.6-1.06,2.34,2.34,0,0,0-1.68,2.22,5.56,5.56,0,0,0,.86,2.41,2.07,2.07,0,0,0,1.81,1A2.87,2.87,0,0,0,9.49,190a3.4,3.4,0,0,0,.22-2.67,1.76,1.76,0,0,0-3.45.47Z"/><path d="M5.58,202.26l-.45-.06c-.45-.07-.35-.19.31.37a2.56,2.56,0,0,0-3.48,0l-.1.09a2.33,2.33,0,0,0,0,3.31l.1.09a2.56,2.56,0,0,0,3.48,0l-.58.41.27,0,.45-.06a2.13,2.13,0,0,0,0-4.11Z"/><path d="M2.85,217.23l1.17.43L2.07,215.1a4.54,4.54,0,0,1,.05,1,2.65,2.65,0,0,0,.61,1.73,2.9,2.9,0,0,0,1.48,1A2.86,2.86,0,0,0,7,218.16a2.89,2.89,0,0,0,.44-3.46c-.26-.41.12.44,0,.11l-.15-.42a2.81,2.81,0,0,0-2.56-1.94l-1.22-.14a2.46,2.46,0,0,0-1.77.73,2.63,2.63,0,0,0-.69,1.44,2.54,2.54,0,0,0,1.8,2.75Z"/></g></g></svg>