<svg xmlns="http://www.w3.org/2000/svg" viewBox="0 0 20.82 227.71"><title>Asset 419</title><g id="Layer_2" data-name="Layer 2"><g id="Layer_1-2" data-name="Layer 1"><path d="M4.05,6,4.22,6,.47,2.2A15.94,15.94,0,0,0,.22,8.44a94.81,94.81,0,0,1,1.7,14c.34,9.51,1.08,19.13.8,28.63-.59,20.57-.57,41.14-.7,61.71,0,5.18-.37,10.45.11,15.62.43,4.71,1.44,9.26,1.5,14,.12,9.11-.09,18.24-.06,27.35,0,9.47,1.18,18.72,1.52,28.15.16,4.46.2,9,0,13.48-.17,3.73-.7,7.39.56,11,.77,2.22,2.48,4.54,5,5l1.24.22c9,1.59,12.82-12.12,3.79-13.74l-1.25-.22,5,5c-1-3,0-7,0-10.14.05-4.67.15-9.38-.21-14C18.45,184.87,18,175.58,18,166s.86-19.36,0-28.86c-.45-4.86-1.34-9.5-1.35-14.4s0-10,0-14.94c0-10.3,0-20.6-.22-30.89-.22-10.45.14-21.18-.88-31.58-.46-4.68-1.77-9.21-2.32-13.88s-1.07-9.29-1.8-13.91A77.1,77.1,0,0,0,8.36,5.63C7.66,3.42,7.13,1.59,5,.38A3.08,3.08,0,0,0,.36,3v.21C.43,4.92,2.21,6.76,4.05,6Z"/></g></g></svg>