<svg xmlns="http://www.w3.org/2000/svg" viewBox="0 0 296 483.79"><title>Asset 365</title><g id="Layer_2" data-name="Layer 2"><g id="Layer_1-2" data-name="Layer 1"><path d="M10.52,25.84A31,31,0,0,0,7,16.33a2,2,0,0,0-2.73-.72c-7.82,4.28-2,14.27-.91,20.71C5.37,49.07,6,62.09,8.37,74.75c1.1,5.8,2.87,11.5,3.57,17.36A103.56,103.56,0,0,1,12,110.24c-.74,13-.83,25.87-.63,38.92.1,6.36.13,12.73-.23,19.07s-2,12.7-2.88,19.11c-.78,6-.28,12-.46,18.1-.21,6.74-2,13.1-2.72,19.76-1.52,13.51-.35,27.45-.37,41q0,21-.05,41.9l-.07,84.1c0,13.38,1,26.39-2.26,39.47-2.41,9.55-3.78,19.07,0,28.48s11,13.8,20.76,15c12.28,1.54,23.72,7.81,36.06,8.53,11.18.66,21.19-6.36,32.14-5.83A61,61,0,0,0,108,476.43c5.94-1.24,12-1.19,17.94-2.57,7-1.63,13.56-4.11,20.77-4.46,6.89-.33,13.8,0,20.7-.26,7.1-.26,14.22-.69,21.34-.4s13.81,2.46,20.86,3.16c7.55.75,14.88-.15,22.32,1.73,6.78,1.71,11.91,1.92,18.62,0s13.77-1.06,20.7-2c4.54-.61,12.56-4.77,16.26-.71,4.45,4.87,11.45-2.29,7.19-7.2-7.71-8.89-18.32-2.64-27.89-2-5.9.4-11.81,0-17.58,1.55-2.42.65-4.75,1.7-7.28,1.81-3.64.16-7.24-1.47-10.75-2.16-5.95-1.17-11.93-.74-17.94-1-6.22-.23-12.2-2.25-18.4-2.92-12-1.29-24.05.17-36.05.23-5.71,0-11.41-.17-17.1.53-6.32.78-12.26,3-18.44,4.42-5.46,1.29-11,1.25-16.55,2.33-2.49.49-5,1.35-7.45,1.73-3.48.52-7-.4-10.46-.21-10.15.56-19.32,6.71-29.62,6.14-6-.34-11.93-2.8-17.63-4.52A118.41,118.41,0,0,0,23.1,466c-10-1.36-14.27-9.6-14.29-19.13,0-5.5,1.73-10.8,3-16.1a74.66,74.66,0,0,0,1.92-18.07q-.21-40.53-.28-81.08c0-27,.3-54-.13-80.94-.09-6.07-.39-12.15-.19-18.22.21-6.75,1.85-13.13,2.63-19.79.72-6.07.39-12.12.43-18.21.05-6.69,1.78-13.09,2.69-19.67,1.94-14.1.42-28.62.18-42.78-.21-12.74,1.87-25.6.54-38.3-.68-6.5-2.63-12.71-4.1-19C13.92,67.81,13.34,60.91,12.44,54A184.75,184.75,0,0,0,8.49,33C7.55,29.24,3,21.91,6.65,18.75H3.82a18.1,18.1,0,0,1,3.76,7.9c.45,1.94,3.26,1.09,2.94-.81Z"/><path d="M15.49,18.64,13,18l1.33,1.74c0-4.38.53-8.19-2.84-11.48V12.6c5.94-5.69,15.23-5.8,22.94-4.94a229.82,229.82,0,0,0,29.1,1.43C73.87,8.94,84.16,9,94.47,9c5.12,0,10.21-.2,15.28.66,4.59.77,9.11,1.89,13.75,2.42,9.71,1.12,19.13-1,28.72-2.21,10.54-1.3,21.38-.91,32-.78s21.18.44,31.77.53c8.57.08,17.68-1.72,26.15-.14,7.71,1.43,10.31,8.26,11,15.37,1,9.41,0,19.21,0,28.65,0,21.94.13,43.87,0,65.81a194.69,194.69,0,0,0,1.57,28.86,101,101,0,0,1,1.45,15.14c0,5.4-.24,10.75.46,16.12,1.4,10.6,1.59,21,1.63,31.68a189.6,189.6,0,0,0,2.59,30.09c1.84,11.32.41,22.68,2.09,34s1.16,22.68,3.3,33.82c2.36,12.35,1.63,24.05,1.49,36.54-.12,11.73,3.05,23,3.23,34.68.11,6.51,10.23,6.53,10.13,0-.17-11-3.19-21.7-3.23-32.74,0-10.73,1.41-21.54-.16-32.22-.77-5.28-2.26-10.45-2.62-15.79-.39-5.8-.46-11.59-1.06-17.37-.52-4.94-1.55-9.85-1.86-14.81-.34-5.55.23-11.11-.07-16.66-.59-11.07-3.41-21.81-3.72-32.94-.3-10.68.24-21.4-.92-32-.58-5.33-1.46-10.51-1.46-15.9,0-5.7.25-11.36-.57-17A208.19,208.19,0,0,1,263,122.33c0-23.26-.19-46.53-.19-69.79,0-9.73.82-19.81-.46-29.48-.91-6.81-3.25-13.86-8.77-18.33C247.11-.5,238-.22,230.16.22c-10.2.57-20.32.6-30.54.5C188.39.6,177.15.47,165.92.79c-10.47.29-20.48,2.43-30.86,3.4C123.19,5.3,112,1.25,100.16,1.37s-23.78.14-35.67.45c-6.19.16-12.39.3-18.57,0C40.8,1.58,35.73.68,30.61.6,22.22.47,13.28,2.08,7.17,8.26a3.11,3.11,0,0,0,.63,4.83c2.77,1.49,2.62,3.91,3,6.65.08.72.49,1.62,1.32,1.74l2.54.37c2.05.3,3-2.66.88-3.21Z"/><path d="M281.13,380.85l.27-1.9a2.41,2.41,0,0,0-4.65-1.29c-2.6,7-1.85,16.32-2.19,23.76a115.35,115.35,0,0,0,1.08,23.78c1.29,8,2.36,15.35,2.12,23.47-.12,4-.36,8,.33,12,.64,3.67,2.13,7.14,3.08,10.74,1.13,4.31,8.32,3.58,8-1.08-.28-3.68-1.62-6.8-2.47-10.32-1-4.2-.52-8.85-.45-13.12a95.93,95.93,0,0,0-2.35-21.43,107.9,107.9,0,0,1-2-24c.11-7.43,2-16.65-.49-23.76L276.75,379l.27,1.9c.29,2,3.82,2,4.11,0Z"/></g></g></svg>