<svg xmlns="http://www.w3.org/2000/svg" viewBox="0 0 228.62 12.61"><title>Asset 371</title><g id="Layer_2" data-name="Layer 2"><g id="Layer_1-2" data-name="Layer 1"><path d="M2.83,6.85c2.68.12,5.59-.39,7.38-2.56A2.55,2.55,0,0,0,6.6.68c-.88.7-2.39.64-3.77.5A2.85,2.85,0,0,0,0,4,2.89,2.89,0,0,0,2.83,6.85Z"/><path d="M30.9,8c2,0,4.07-.08,6,.68s3.15,1.24,5.21.8c2.82-.61,2.22-5.23-.69-5.07-1.56.09-2.9-1.06-4.43-1.33A26.79,26.79,0,0,0,30.9,3c-3.21.16-3.24,4.95,0,5Z"/><path d="M63.42,10.22c.73.19,1.45.82,2.22,1.08s1.79.58,2.69.84a10.43,10.43,0,0,0,5.23.24c2.69-.59,2.16-5.13-.66-4.88a13.26,13.26,0,0,1-4.51-.86,11.66,11.66,0,0,0-2.34-.45,9,9,0,0,0-2.63.55c-1.76.38-1.67,3,0,3.48Z"/><path d="M92.49,11.57c1.07-.84,3.82-1.2,5.26-1.34,2-.2,3.91-.35,5.87-.65,3.26-.49,2-5-.72-5.29C97.84,3.69,91.79,4.05,89,8.85c-1.39,2.35,1.63,4.22,3.53,2.72Z"/><path d="M121.76,7.81c4.62.67,9.44,2.08,14.14,1.82,3.49-.19,3.3-4.86,0-5.3-4.67-.62-9.43-1.82-14.14-1.18-2.32.32-2.3,4.33,0,4.66Z"/><path d="M154.79,9.2c2,.56,4.18.36,6.16,1.18a9.38,9.38,0,0,0,5.71.86c3.14-.56,2.45-5.91-.76-5.62-1.58.14-2.92-1.06-4.47-1.36a14.79,14.79,0,0,0-6.64.51,2.31,2.31,0,0,0,0,4.43Z"/><path d="M187.84,10.49c1,.17,2,.51,3,.69a15.26,15.26,0,0,0,3.51,0,2.67,2.67,0,0,0,0-5.34,15.85,15.85,0,0,0-3.51,0c-1,.19-2,.52-3,.69-2,.32-2,3.7,0,4Z"/><path d="M213.89,7.05a64.13,64.13,0,0,0,12-.23,2.84,2.84,0,0,0,0-5.67,64.13,64.13,0,0,0-12-.24,3.07,3.07,0,0,0,0,6.14Z"/></g></g></svg>