<svg xmlns="http://www.w3.org/2000/svg" viewBox="0 0 492.66 13.77"><title>Asset 335</title><g id="Layer_2" data-name="Layer 2"><g id="Layer_1-2" data-name="Layer 1"><path d="M6.47,5.46a5.77,5.77,0,0,0-2-1.67c-4.08-2-6.38,4.63-2.3,5.46,3.47.71,7.42.35,10.92-.05a2.84,2.84,0,0,0,0-5.67c-3.5-.39-7.46-.75-10.92,0-4,.82-1.83,7.45,2.3,5.46a6,6,0,0,0,2-1.67,1.33,1.33,0,0,0,0-1.82Z"/><path d="M28,.93l-.05.24a2.42,2.42,0,0,0,0,4.62c1.91.61,4,.37,5.94.38s4.14,0,6.2-.11a2.7,2.7,0,0,0,0-5.39c-4-.18-9-1.1-12.71.74l2.9,3.76a4.29,4.29,0,0,0,1.17-3.3C31.3.21,28.79-.87,28,.93Z"/><path d="M86.91,9.58l-.59-.14-1.28,3a29,29,0,0,0,9.52.24c1.81-.27,1.81-3.39,0-3.66A29,29,0,0,0,85,9.27c-2.21.45-1,4.09,1.28,3l.59-.14a1.35,1.35,0,0,0,0-2.58Z"/><path d="M118.62,4.29a3.47,3.47,0,0,0-3.87.89l1.17-.68a3.7,3.7,0,0,0-.81.36,3.15,3.15,0,0,0,.73,5.65c2.11.87,4.5.5,6.71.36a3,3,0,0,0,0-6c-1.73-.13-3.59.16-5.23-.37l1.83,1.84-.06-.17V7.51c-.59,1.18-.94,1.52-1,1a2.2,2.2,0,0,0,2.12-1.86,2.17,2.17,0,0,0-1.55-2.37Z"/><path d="M147.94,8.55l-.37-.62L147,10.26a5.84,5.84,0,0,1,3.81-1.12c1.59,0,3.19.13,4.78.06,3.68-.15,3.61-5.37,0-5.67s-9.42-1.62-12,2.64a2.85,2.85,0,0,0,1.69,4.14l.2.2a1.62,1.62,0,0,0,2.54-2Z"/><path d="M168.45,11.05c2.54,1.33,5.31,1.33,8.1,1a2.7,2.7,0,0,0,0-5.39,50.45,50.45,0,0,1-6-.56c-2.86-.63-4.92,3.46-2.08,4.94Z"/><path d="M197.55,13.61a54.1,54.1,0,0,0,9,0,2.7,2.7,0,0,0,0-5.39,54.1,54.1,0,0,0-9,0,2.74,2.74,0,0,0,0,5.48Z"/><path d="M215,11.29c5.18,1.35,11.71,1.28,17,.77a2.7,2.7,0,0,0,0-5.39c-5.31-.5-11.84-.57-17,.78a2,2,0,0,0,0,3.84Z"/><path d="M253.18,10.33a2.52,2.52,0,0,1,.21-.4l-2.2.89a4.54,4.54,0,0,0,1.55.14,6.55,6.55,0,0,0,1.22-.43c-.32.11-.39.13,0,.06s-.71,0,0,0,1.43,0,2.14,0a2.75,2.75,0,0,0,.73-5.39,6.77,6.77,0,0,0-5.82.55,2.88,2.88,0,0,0-1.29,3.17l.18.52v-1a2.13,2.13,0,0,0-.13.43,1.91,1.91,0,0,0,1.1,2.24,1.87,1.87,0,0,0,2.37-.77Z"/><path d="M279.19,8.46c-1,.6-1.1.8-.23.62A11.5,11.5,0,0,1,280.13,9c.6,0,1.2,0,1.79,0A37.72,37.72,0,0,0,286,8.9a2.53,2.53,0,0,0,0-5.06c-3.16-.33-6.35-.81-9.45.23a2.69,2.69,0,0,0-1.85,3.26l.08.54c-.06,2.69,3.48,2.78,4.37.59Z"/><path d="M305.54,10.07c2.47.22,4.94.69,7.38,0,.64-.18,1.26-.47,1.9-.66.07,0,1.1-.25,1.11-.28,0,.4-1.49-1.32-.82.16,1.15,2.52,5.44,1.29,5.24-1.42-.24-3.26-2.74-5.37-6-4.61a18.82,18.82,0,0,0-3.22,1.41,19.63,19.63,0,0,1-5.55,1,2.2,2.2,0,0,0,0,4.4Z"/><path d="M337.07,3l-.48,1.3,2.8-.74c-.51-.4-1.09-.67-1.58-1.07l.6,1.46a2.88,2.88,0,0,0-.93-2.07,2.5,2.5,0,0,0-4.22,1.74c-.06,6,9.24,7.94,13.17,4.68,2.33-1.93-.71-5.85-3.24-4.2-1.15.75-4.83-.64-5.32-1.72L335.07,6a2.67,2.67,0,0,0,2.74-.6l-1.46.6a2.5,2.5,0,0,1,1,.17c.85.42,2.3.16,2.46-1L340,3.77A1.53,1.53,0,0,0,337.07,3Z"/><path d="M365.54,9.16a73.72,73.72,0,0,0,15,.07,2.86,2.86,0,0,0,0-5.72,73.72,73.72,0,0,0-15,.07,2.79,2.79,0,0,0,0,5.58Z"/><path d="M389,6.37a4.14,4.14,0,0,0,4.52,4.22,25.63,25.63,0,0,1,3.28-.3,18.65,18.65,0,0,0,5.43.09c2.88-.56,2.22-5.24-.69-5.11-2,.08-4-.78-6-.63A8,8,0,0,0,393.6,5c-.33.1-.67.2-1,.32a2.82,2.82,0,0,0-.51.19c-.71.24-.4.33.9.29-.72-2.05-4.12-1.89-4,.54Z"/><path d="M415.4,7c2.32,5.25,8.06,2.66,12.38,2,2.88-.42,2.41-4.66,0-5.38a10.67,10.67,0,0,0-6.2.36c-1.78.52-3.59.67-5.39,1.06A1.34,1.34,0,0,0,415.4,7Z"/><path d="M442.32,9.08c2.23,2.53,4.84,2.36,7.9,1.64A49.29,49.29,0,0,1,460,9c2.93-.07,3.68-4.46.71-5.21-2.55-.64-4.89.1-7.31.89-2,.64-7.06,3.42-8.69,2a1.71,1.71,0,0,0-2.42,2.42Z"/><path d="M478,8c4.69.51,8.9,1.43,13.3-.87,3-1.57.37-5.72-2.6-4.45-3.36,1.44-7.1,1.78-10.7,2.13A1.6,1.6,0,0,0,478,8Z"/><path d="M47,3.93l-.05.24a2.42,2.42,0,0,0,0,4.62c1.91.61,4,.37,5.94.38s4.14,0,6.2-.11a2.7,2.7,0,0,0,0-5.39c-4-.18-9-1.1-12.71.74l2.9,3.76a4.29,4.29,0,0,0,1.17-3.3C50.3,3.21,47.79,2.13,47,3.93Z"/><path d="M65,5.93l0,.24a2.42,2.42,0,0,0,0,4.62c1.91.61,4,.37,5.94.38s4.14,0,6.2-.11a2.7,2.7,0,0,0,0-5.39c-4-.18-9-1.1-12.71.74l2.9,3.76a4.29,4.29,0,0,0,1.17-3.3C68.3,5.21,65.79,4.13,65,5.93Z"/></g></g></svg>