<svg xmlns="http://www.w3.org/2000/svg" viewBox="0 0 688.24 94.32"><title>Asset 361</title><g id="Layer_2" data-name="Layer 2"><g id="Layer_1-2" data-name="Layer 1"><path d="M5.15,35.79l-.07-2.14-5,.67C3.42,45.42,4.46,57.06,8,68c1.4,4.34,2.73,8.58,3.79,13,1,4.11,2.69,7.69,6.32,10.07,7.74,5.09,19.59,2.59,28.32,2.62q18.9.06,37.82.09c12.59,0,25.18.35,37.77.21s25-1.38,37.41-2.48c11.86-1,23.79-3.3,35.66-3.76,12.11-.47,23.92,3,36,3.35,25.41.76,50.91.54,76.33.4,12.39-.07,24.89.17,37.26-.67A303.31,303.31,0,0,0,379.13,86c11.88-2.21,23.74-4.66,35.76-6,12.31-1.35,24.63-1,37-.93,10.74,0,20.38-3.73,30.65-6.34,11.38-2.89,22.77-2.16,34.33-3.51A344.11,344.11,0,0,1,557,67c14.21,0,28.42.12,42.64.19,28.11.14,56.09,3.07,84.19,3.22,6,0,6-9.23,0-9.23-24.15,0-48.21-2.53-72.36-2.79-24.67-.27-49.56-.88-74.21,0-11.54.42-22.85,2.91-34.42,3a107.07,107.07,0,0,0-30,5C468,68,463.06,69.57,458,70.18c-6.14.74-12.52.17-18.69.15a228.48,228.48,0,0,0-33.87,2.29c-23.44,3.43-46.38,9.58-70.19,10-24.49.46-49,.45-73.49.28-12.31-.08-24.9.51-37.17-.73-11.47-1.15-22.54-3.66-34.14-2.56-24.1,2.3-48.07,6-72.36,6q-20.9-.06-41.8.07c-13.29.08-26.76-.46-40,.41-4.63.3-11.85,1.68-15.49-2.08-1.74-1.8-2.06-4.48-2.66-6.79-.7-2.72-1.61-5.33-2.56-8C11.25,57.35,9.61,44.77,5,33c-.94-2.4-5.34-2.41-5,.67l.26,2.14c.36,3,5,3.21,4.87,0Z"/><path d="M15.36,48.44,13,47.75l1.87,2.46c-.3-4-2.87-7.39-3.21-11.24-.42-4.6,5.56-6.44,8.9-8,3.56-1.71,7-3.52,11.11-3.1,5.41.56,10.68,2.33,16.13,2.89C59.83,32,72,30.77,84,29.27a286.08,286.08,0,0,1,36.63-2.75c26.31,0,52.42,1.31,78.75.24,26.62-1.09,53.21-1.57,79.83-2.33s52.88-2.71,79.4-2.64C384.65,21.86,411,23,437,21.05c13.12-1,26.14-2.08,39.31-2s26.47,0,39.7,0c13.05,0,26.31.74,39.34,0,5.54-.3,11-1.42,16.47-2.17,6.66-.92,13.35-.43,20-1,12.37-1,24.08-5.33,36.55-5.62,9.56-.23,19.85-2.65,29.33-.93,10.91,2,8.75,14.49,9.54,22.71.5,5.34,2.44,10.23,4.52,15.11,2.29,5.36,5.5,11.39,4.61,17.42-.83,5.66,7.84,8.11,8.68,2.39,1.66-11.29-4.63-20-7.77-30.36-2.61-8.62,0-18-4.3-26.32S660.26,0,651.57,0c-4.73,0-9.44.49-14.15.88-5.21.43-10.44.31-15.63.83C609.91,2.89,598.66,6.9,586.67,7.3a156.12,156.12,0,0,0-18.84,1.33,124.65,124.65,0,0,1-20,1.75c-28.27-.11-56.84-.9-85.08.45-14,.66-27.92,2.55-42,2.82-13.59.26-27.21,0-40.8.11-28.11.13-56,.84-84.1,2.24-28.88,1.44-57.8,1.37-86.68,2.71-13.79.64-27.58,1.22-41.39,1.29s-27.68-.68-41.52-.85C111.38,19,97,20.36,82.19,22.22c-14.42,1.81-29.14,3-43.46-.17-4.71-1-9.21-2-14-.58-4.16,1.24-8.41,3.64-12.17,5.79-3.54,2-6.77,5-7.21,9.3C4.87,41.79,9,45.93,9.83,50.89a2.48,2.48,0,0,0,1.79,1.78l2.45.47c3.05.58,4.34-3.81,1.29-4.7Z"/></g></g></svg>