<svg xmlns="http://www.w3.org/2000/svg" viewBox="0 0 12.95 262.37"><title>Asset 369</title><g id="Layer_2" data-name="Layer 2"><g id="Layer_1-2" data-name="Layer 1"><path d="M1.54,82.94l-.09.76.77-1.36C.35,83.63.41,86.11.68,88.19c.24,1.8,1.56,3.45,1.4,5.25-.25,2.71,4.31,3.36,4.78.65a8.71,8.71,0,0,0-1-5.59c-.82-1.89,0-4.54-1.75-5.91l.46,1.11-.09-.76a1.48,1.48,0,0,0-2.95,0Z"/><path d="M4.27,105c-.38,2.38.34,4.17.76,6.48l.27-2a22.1,22.1,0,0,0-2,13.29c.63,3.12,5.62,2.4,5.53-.75-.08-2.69.78-5.47,1.21-8.11a8.4,8.4,0,0,0,.18-3.38c-.49-2-2.48-2.67-2.4-5,.07-2-3.22-2.52-3.55-.48Z"/><path d="M4.41,133.5a21.36,21.36,0,0,0-1.12,2.58,22.91,22.91,0,0,0-.22,4.83c.09,2.82,1.49,5.27,1.7,8s4.68,3.93,5.39.73-.68-5.15-1.23-8a33.5,33.5,0,0,1-.18-4.48c-.08-1.57-.72-2.27-1.13-3.65a1.68,1.68,0,0,0-3.21,0Z"/><path d="M5.22,172.94a32.14,32.14,0,0,0,0,8.14c.32,2.3,4.33,2.3,4.65,0a32.14,32.14,0,0,0,0-8.14,2.3,2.3,0,0,0-4.59,0Z"/><path d="M6.26,190.2c-.52.76-1.31,1.38-1.88,2.14l.84-.83c-1.83,1.32-1.95,3.34-1.88,5.43.12,3.42,5.32,3.45,5.35,0a29.65,29.65,0,0,0,.09-3.26c0,.11-.09-.75-.08-.5s0-.38,0-.44a5.41,5.41,0,0,1,.19-1.42c.51-1.65-1.77-2.42-2.66-1.12Z"/><path d="M3.48,219.43c-.09,3.67-.49,7.53.16,11.16.42,2.35,4.33,2.35,4.75,0,.64-3.63.25-7.49.16-11.16a2.54,2.54,0,0,0-5.07,0Z"/><path d="M8.46,257.86c-.1.48-.17,1-.3,1.42a2.44,2.44,0,1,0,4.7,0c-.12-.46-.2-.94-.29-1.42a2.13,2.13,0,0,0-4.11,0Z"/><path d="M1.61,57.35c1,1.15.06,2.52-.43,4l3.35-1.9a3.45,3.45,0,0,0-.77-.18A2.79,2.79,0,1,0,3,64.73a3.59,3.59,0,0,0,.8,0,2.78,2.78,0,0,0,2.72-2.73,16.72,16.72,0,0,0,.14-4.12A5.83,5.83,0,0,0,4,54.22C2.1,52.87.14,55.75,1.61,57.35Z"/><path d="M4.68,25.94v-.19c.07-2.15-3.27-2.15-3.34,0a4.1,4.1,0,0,1-.16,1.35C0,29.57,3.7,31.73,4.85,29.25l0-.05c1-2.06-1.64-4.58-3.38-2.61S-.06,32.41.11,34.94a2.91,2.91,0,0,0,5.81,0c.17-2.54.38-6.36-1.38-8.35s-4.35.53-3.38,2.61l0,.05c1.15,2.48,4.81.32,3.67-2.15a4.56,4.56,0,0,1-.17-1.35c-.06-2.15-3.4-2.15-3.34,0v.19a1.67,1.67,0,0,0,3.33,0Z"/><path d="M5,.27,4.13.05C2.72-.32,1,1.41,2,2.77c.81,1.06.41,2.73.26,4a17.37,17.37,0,0,0-.36,4.92c.4,2.6,4.67,2.51,5.15,0a19.78,19.78,0,0,0,0-5.95c-.22-1.82-.6-4-2.13-5.17L3.64,3.68h.87A1.75,1.75,0,0,0,5,.27Z"/></g></g></svg>