<svg xmlns="http://www.w3.org/2000/svg" viewBox="0 0 43.41 461.74"><title>Asset 392</title><g id="Layer_2" data-name="Layer 2"><g id="Layer_1-2" data-name="Layer 1"><path d="M30.68,16.84a10.59,10.59,0,0,0,2.86-2.68,21.11,21.11,0,0,1,1.62-2.73L25.06,7.24c0,.23,0,.7.11.14C25.48,6.32,25,8.8,25,8.55c-.1.88-.21,1.75-.3,2.63a19.52,19.52,0,0,0-.1,5.45c.95,5.7,6.37,9.16,11.91,7C45.16,20.17,45.73,6,37.89,1.5,27.87-4.27,20.33,8,15.73,15,12.68,19.6,10.88,25.75,14,30.8s9.23,5.89,14.16,3.32c6.72-3.49,14.74-13.35,14.11-21.33-.34-4.29-3.42-8-8-8-4.77,0-7.4,3.68-8,8,.16-1.17,1.26-3.26.07-1.41-.36.56-.71,1.14-1.06,1.71-.53.87-1,1.75-1.6,2.6-.15.23-1.48,1.94-.59.86-.65.79-1.35,1.53-2.06,2.27s-.92,1.46-.35.4a6.51,6.51,0,0,1-1,.56q3.43-2,7.34,1.16,1,7.33,1.85,3.71c-.11.36-.05.3.18-.2a72,72,0,0,1,6-8.79,9.27,9.27,0,0,1,.82-.84,4,4,0,0,1-2.77,1,5.33,5.33,0,0,1-4.28-2.12c-.33-.83-.43-1-.28-.42s.09.39-.08-.44c0,.87,0,.83.09-.1-.24.8-.21.76.11-.15q4.67-2.47,2.19-2h3.71q3.94,5.74,3,2.72c.09.69.1.59,0-.28s0-1.75-.07-2.61a13.3,13.3,0,0,0-1.58-6.19C33.34-.51,27,1.15,25.27,5.67c-.56,1.44-.23,3.52-1,4.75-2.4,3.82,2.52,9.17,6.41,6.42Z"/><path d="M28,75.86a9.22,9.22,0,0,0-.1-6,7.08,7.08,0,0,0-8.52-4.84c-5,1.17-8.55,7.11-10,11.72-.45,1.4-1.27,6.64-.45,2.32a12.22,12.22,0,0,0,.19,6.46c1.71,5,6.27,8.83,11.72,8.73,8.05-.15,14.73-7.41,14.51-15.5-.18-6.32-3.87-11.87-10.06-13.73-6.62-2-12.28,1-16,6.36-3.38,4.85-1.19,13.36,4.17,15.9.41.2.77.45,1.17.68A9.7,9.7,0,0,0,18,89.34l-2.49-1a9.45,9.45,0,0,1-4.62-6.07c.63,2.06-.24-3.11-.21-1.92,0,2,.62-3.46.24-1.79-.12.52-.84,2.06.18-.31.56-1.18.69-1.49.37-.91a9.51,9.51,0,0,1,5.64-4.4,8.46,8.46,0,0,1,6.56.76c1.49,1.32,1.92,1.61,1.3.89l2.45,4.22c0-.07-.36-1.15-.38-1.15.26.1.14,2.68.14.85,0-.4,0-.8,0-1.2,0-1,.52-1.46-.11.29.24-.68.3-1.5.48-2.2.09-.36.21-.67.28-1l.26-2c-.25,1.48-.3,1.88-.15,1.21l-8.52,4.84-2.77-2.56a6,6,0,0,0,11.39,0Z"/><path d="M23.32,125.78c-3.17-3.73-8.84-4-12.94-1.8-3.56,2-5.69,5.83-6.54,9.7a18.2,18.2,0,0,0,2,13.48,15.82,15.82,0,0,0,17.2,7c10.4-2.45,14.86-13.73,12.23-23.41-3.14-11.58-16-18.59-26.87-11.91a12.73,12.73,0,0,0-6,12.61C3,136.14,6.57,141,11.45,142c2.43.5-1.57-.51-1.53-.82,0,0,1,.61,1,.63a8.11,8.11,0,0,0,1.05.55c-1.24-.35-3.08-2.51-1.64-1.13,1,1,.3,2.11-1.19-1.58a3.89,3.89,0,0,0,.6,1c-.17-.13-1.28-3.85-.88-2,.1.45.23.89.3,1.35l-.49-3.65a12,12,0,0,1-.08,2.93l.48-3.59c-.13.69-.57,1.64.41-.63a8.71,8.71,0,0,1,2.08-3.16c-1.07,1.2,2.94-2,1.76-1.34a12.81,12.81,0,0,1,4.91-1.29c-1.5,0,2.63.38,2.34.32q3.5,1.68,2.2.89-.72-.47.81.63c1,.85,1.25,1,.7.47l1.38,1.82c0-.18-.45-.7-.55-.85a11.31,11.31,0,0,0-.92-1.55c1.39,1.53.94,2.54.6,1.32,0-.1-.31-.83-.22-.91s.36,3.15.26,1.52a6.18,6.18,0,0,0-.18-1.48c-.27-2-.24-1.76.09.74,0-1.12-.3,2-.26,1.73a6.66,6.66,0,0,1-4.59,4.84c5.68-2.16,7.42-8.31,3.44-13Z"/><path d="M26.45,187.81a16,16,0,0,0-2.26-5c-3-4.24-7.39-5.25-12.06-3.17C6,182.37,5,189.68,5.88,195.54A22.89,22.89,0,0,0,12,208a13,13,0,0,0,16,1.4A15.33,15.33,0,0,0,35.06,197,22.29,22.29,0,0,0,29.3,181.3c-2.82-3.14-7.71-4.18-11.68-3.09-4.41,1.21-6.73,4.37-8.38,8.38-1.25,3.06-.72,7,.38,10.08.11.3.63,2.33.74,2.36-.09,0-.31-3.45-.32-1.84q-.27,2,.6-2a6.86,6.86,0,0,1,3.86-5.66l9.12-1.2q3.18,1.54,1.94.77c-.74-.48-.26-.11,1.42,1.11a10.32,10.32,0,0,0-.95-.92c-1.28-1.22.25.1.46.7a12.32,12.32,0,0,0-1-1.49c-.21-.36-1-2-.23-.3s.12.12,0-.3a6.49,6.49,0,0,0-.39-1.34c.62.36-.27,4.17.2,3l-10.84,6.15a9.14,9.14,0,0,1,1.37.34c-.84-.37-.85-.34,0,.11,5.57,3.31,12.57-2.17,10.87-8.37Z"/><path d="M10.8,246.14a1.9,1.9,0,0,0-.38.37,8,8,0,0,0-2.21,3.43,8.17,8.17,0,0,0-.92,4.11,10.94,10.94,0,0,0,3.13,7.55,12.62,12.62,0,0,0,5.19,3.09c.24.07,2.73.39,3,.4h.21a16.89,16.89,0,0,0,3.17-.42,11.74,11.74,0,0,0,3.18-1.29,13.81,13.81,0,0,0,2.75-2.1A15.13,15.13,0,0,0,32,253.69a20.8,20.8,0,0,0,.5-4.58,18.4,18.4,0,0,0-.67-4.42,13.9,13.9,0,0,0-6-7.82l-.22-.13a15.37,15.37,0,0,0-3-1.25,21.49,21.49,0,0,0-3.29-.44,12.83,12.83,0,0,0-1.83.21,10.51,10.51,0,0,0-4.94,1.6,14.33,14.33,0,0,0-4.72,4.7,17.11,17.11,0,0,0-1.1,2.38,23.53,23.53,0,0,0-1.08,2.9l-.4,2.94a8.33,8.33,0,0,0,1,4.26,10.56,10.56,0,0,0,4.53,5.29,13.13,13.13,0,0,0,5.58,1.51,8.35,8.35,0,0,0,4.27-.95,8.38,8.38,0,0,0,3.56-2.29,11.5,11.5,0,0,1,1.43-1.36l-2.34,1.81a7.31,7.31,0,0,1,1.46-.89l-2.82,1.19a1.78,1.78,0,0,1,.33-.09l-3.14.42a1.51,1.51,0,0,1,.3,0l-3.14-.42a1.47,1.47,0,0,1,.28.08l-2.83-1.19a1.1,1.1,0,0,1,.26.15l-2.39-1.85.28.28L10,253.33c.66.87,1.32,1.74,2,2.59l-1.85-2.39a3.11,3.11,0,0,1,.43.75l-1.18-2.8a6.55,6.55,0,0,1,.44,1.63L9.41,250a7,7,0,0,1,0,1.77l.41-3A4.7,4.7,0,0,1,9.51,250l1.13-2.68a3.33,3.33,0,0,1-.35.61L12,245.63a2.52,2.52,0,0,1-.4.4l2.24-1.73a2.38,2.38,0,0,1-.41.23l2.63-1.11c-1.13.41-2.25.83-3.34,1.35l2.57-1.08-.19.07,12,4.91-.07-.16L28.17,251a1,1,0,0,1-.09-.33,10.34,10.34,0,0,0-17.28-4.56Z"/><path d="M16.29,322.48l.38-.3L4.42,319c1.54,3.32,4.69,5.15,7.72,6.93s7.78,2.19,10.75,0c5.05-3.73,8.29-8.57,8.14-15.1s-3.77-11.8-9-15.4c-3.56-2.44-8.56-1.95-12.16,0A19.08,19.08,0,0,0,0,313c.6,9.25,8,17.34,17.77,16.51,6.1-.52,11.12-4.24,12-10.57.78-5.8-2.8-11.9-8.73-13.37-2.94-.73,2.24,1.11.62.29-1.06-.53-1.69-1.82,1.13,1-1.32-1.3,2,2.78,1,1.22q1.36,3.6.85,1.83c.27,2.57.37,3.33.31,2.28,0-2.36-.78,3.32-.28,1.36.33-1.24,1.18-1.65-.64,1.27a11.89,11.89,0,0,0,.68-1.2c-1.49,1.81-1.82,2.27-1,1.4a6.05,6.05,0,0,1,.73-.61l-14.6,1.88c.11.05,1,.41,1,.53s-2.22-2.13-1.13-.8c-.19-.23-1.46-2.41-.88-1.06-.26-.6-.74-2.8-.47-1,.2,1.38-.41-2.83-.21-1.44.06.44-.17,1.89.11-.13.34-2.44-.58.85.33-1.18.78-1.76-.07-.11-.3.22l12-4.89c-3.59-.75-6.89-1.72-10.57-.64-6,1.78-7.69,7.88-5.35,13.16l.2.45c1.71,3.86,8.3,5.65,11.67,3.06Z"/><path d="M27,374.44l.45-.48a10,10,0,0,0,2.71-5.67A10.74,10.74,0,0,0,29,362c-2.44-5.43-10.57-7-15.27-3.74-2.24,1.55-4.34,3.7-5,6.47a11.18,11.18,0,0,0,.55,7A10.32,10.32,0,0,0,13.7,377,12,12,0,0,0,22,378c7.44-1.48,12-8.28,12.28-15.52.28-6.29-5.81-12.57-12.19-12.18l-.88.05A12.62,12.62,0,0,0,14,353a11.44,11.44,0,0,0-4.28,6.22,14.22,14.22,0,0,0,0,6.36c.59,2.59,3,6,5.49,7.15l.77.36-6-10.53a5.91,5.91,0,0,1,0,1l.43-3.22a7.28,7.28,0,0,1-.4,1.38l1.21-2.87a24.88,24.88,0,0,0-1.77,4c-.14.47-.27.93-.45,1.39l1.12-2.66c-.09.2-.18.39-.28.57L30,367.61l0-.25-.38,2.84.06-.22-1.07,2.53c.09-.16.2-.3.29-.46l-1.59,2.05.12-.14-9.6,2.54.67.18A8.72,8.72,0,0,0,27,374.44Z"/><path d="M28.17,417.51c1.45-2.23,1.68-4.51,1.91-7.08A9.3,9.3,0,0,0,29,405.69a9.13,9.13,0,0,0-2.54-3.95L24,399.82a9.08,9.08,0,0,0-4.57-1.46,6,6,0,0,0-3.26,0,9.08,9.08,0,0,0-4.57,1.46L9.1,401.74a12.35,12.35,0,0,0-3.16,5.42,3.12,3.12,0,0,1-.15.43L7,404.65A29.06,29.06,0,0,0,5.61,408a9.46,9.46,0,0,0-.22,4.92,9.29,9.29,0,0,0,1.47,4.59L8.79,420a9.31,9.31,0,0,0,4,2.55,6.08,6.08,0,0,0,3.11.84,9.29,9.29,0,0,0,4.93-.22l2.94-1.24a12.37,12.37,0,0,0,4.43-4.43Z"/><path d="M13.31,461.74a11.32,11.32,0,0,0,7.76-3.22,11,11,0,0,0,0-15.51,11.4,11.4,0,0,0-7.76-3.21A11.3,11.3,0,0,0,5.56,443a11.18,11.18,0,0,0-3.22,7.76,11,11,0,0,0,3.22,7.75,11.38,11.38,0,0,0,7.75,3.22Z"/></g></g></svg>