<svg xmlns="http://www.w3.org/2000/svg" viewBox="0 0 47.6 501.28"><title>Asset 394</title><g id="Layer_2" data-name="Layer 2"><g id="Layer_1-2" data-name="Layer 1"><path d="M36.55,19.17l-1.07-.57,2.69,4.68c.12-1.17,1-1.22.34-.85A12.06,12.06,0,1,0,20.76,8.79c-1.22,4-1.12,7.53-1.71,11.16s-1.29,7.25-2,10.86C15.33,40,20.19,48.88,30,50.19c8.66,1.17,18.21-5.78,17.59-15.25-.64-9.63-1-20.11-4.73-29L29.2,23.64l2.17.51-5.13-6.74A18.87,18.87,0,0,0,28.07,26a5.28,5.28,0,0,0,4.68,2.69L34,28.6c4.66-.37,7.33-6.91,2.56-9.43Z"/><path d="M15.33,74.79c.5,2.6.18,1.3.23.7,0,0-.67,2.28-.87,3a54,54,0,0,0-1.78,10.18,50.41,50.41,0,0,0-.27,8,32.09,32.09,0,0,0,.83,6c.76,3,.37-2.12,0,1.42-.81,7.8,7.26,14.51,14.52,14.51,7.77,0,14.64-6.64,14.51-14.51-.06-3.74-1.2-6.79-2.07-10.3A58.9,58.9,0,0,1,39.88,86c-.12-3,.35-6,.15-8.94-.29-4.11-1.76-7.57-3.42-11.27C34.27,60.6,26.87,59,22.07,61.06c-5.56,2.44-7.85,7.87-6.74,13.73Z"/><path d="M16.38,139.42c-4.83,6.15-8.5,11.71-8.08,20,.18,3.72-.17,4.8-.21,8.48-.07,6.43,2.66,10.78,7.85,14.5,6,4.34,16.21,0,17.62-7.17,1.31-6.62-.58-13.46-3.45-19.5a55.39,55.39,0,0,1-4-13.73c-.76-4.05-7.08-5.92-9.72-2.57Z"/><path d="M10.13,200.26c-2.53,6.53-6.22,12.31-7.51,19.34-.81,4.41-1.28,9,0,13.4,2.58,8.51,10.15,11.73,18.42,10.54,4.15-.59,8.75-5.34,9.43-9.42a18.3,18.3,0,0,0,.07-7.93c-.47-1.83-2.18-6.4-1.16-2.66a32.12,32.12,0,0,1-.83-3.35c.51,3,.09-.71.09-1.37,0-2.77.12-5.39-.13-8.18-.32-3.46.32-7.08-1-10.37-3.44-8.36-14-8.67-17.38,0Z"/><path d="M7.6,258.13c-4,4-4.52,9.2-5.5,14.55S.64,283.57.06,289c-.81,7.54,7.21,14.76,14.43,14.44s15.3-6.39,14.44-14.44c-.58-5.45-1.06-10.93-2-16.34s-1.51-10.51-5.5-14.55a9.89,9.89,0,0,0-13.79,0Z"/><path d="M1,321.53c-1.43,4.52-.34,8.73.41,13.21-.5-3,.18,2.38.18,2.45.18,2.07.38,4.12.44,6.2a60.64,60.64,0,0,0,.75,7.84c.09.6.24,4.62.28,2.22a18.21,18.21,0,0,0,4.57,12.92c3.36,4.14,10,4.12,14.32,1.85,17.33-9.14,5.72-32.53,2.8-46.69C22.17,309,4.46,310.64,1,321.53Z"/><path d="M14,379.68c-8.4,1.79-9.81,11.55-10.23,18.58a39.5,39.5,0,0,0,.18,7.13c.17,1.56.39,3.11.66,4.66-.13-2.07,0-1.22.41,2.53,1,3.72,3.46,6.06,6.56,8.14,4.75,3.18,10.3,1.28,14.32-1.85,7.35-5.74,3.56-14.23,1.8-21.45-.19-.77-.32-1.55-.51-2.33-.57-2.47-.21.25-.13-.57,0-.37-.16-3.43-.19-1.47-.17.93-.14,1,.1.14a8.71,8.71,0,0,0,.36-3.35C26.79,382.76,21,378.19,14,379.68Z"/><path d="M12,456c.15,1.61.35,3.23.66,4.82.21,1.06.28,1.43.11.14.06.5,0,3.85.38,1.58a20.15,20.15,0,0,1-1,2.93C10,471.9,9.69,478.77,9.24,485.51c-.54,8.24,7.64,16.12,15.75,15.75,7.84-.35,16.62-7,15.75-15.75-.41-4.18-1.52-9.14-1.83-12.74-.17-2,.21-5.41,0-8-.67-7.63-4.77-17.41-12.91-19.45-6.36-1.59-14.69,3.25-14,10.65Z"/></g></g></svg>