<svg xmlns="http://www.w3.org/2000/svg" viewBox="0 0 824.15 485.6"><title>Asset 385</title><g id="Layer_2" data-name="Layer 2"><g id="Layer_1-2" data-name="Layer 1"><path d="M6.31,32.17c1.75.86,1,4.76,1.27,6.55A74.45,74.45,0,0,0,10.5,50c1.71,5.56,10.58,4.75,10.41-1.41-.15-5.24-2.44-10.47-4.15-15.38-1.5-4.33-4-7.14-8.65-7.68-3.51-.4-4.85,5.13-1.8,6.64Z"/><path d="M11.11,81l-1.25,0a3.9,3.9,0,0,0-3.64,2.77C3.88,90.92,3.79,98,5,105.38c.38,2.36,3.16,3.74,5.3,3.45,2.57-.34,3.88-2.31,4.19-4.74.4-3.19-.3-6.44-.84-9.59s.07-6.33,0-9.65l-2.77,3.64,1.2-.46c3.5-1.35,3.36-7.16-1-7Z"/><path d="M2.68,130c-1.23,3.13-2.41,6-2.57,9.47s1.21,6.34,1.63,9.61c.3,2.44,1.62,4.44,4.22,4.79a4.84,4.84,0,0,0,5.35-3.49c.79-3.61-.16-6.49-1-10-.76-3,.18-6.29.42-9.34.39-4.94-6.46-5-8-1.08Z"/><path d="M4.22,170.7l.53-.17a4.74,4.74,0,0,0-3.31,4.35c-.24,2.25.38,4.51.33,6.78-.06,2.65-.12,5.28,0,7.93.19,6.29,9.42,6.25,9.75,0a56.53,56.53,0,0,0,.07-10.16c-.33-2.54-.88-6.27-2.77-8.08L9.88,174l.11-.9c.36-3.12-3.82-4.17-5.77-2.39Z"/><path d="M2.86,212.09c-.49,4.94-1.08,9.68-.36,14.63.59,4.07,7.63,4.07,8.22,0,.72-4.95.13-9.69-.36-14.63a3.75,3.75,0,0,0-7.5,0Z"/><path d="M1.36,248.55C-.31,253.78-.09,260,1.05,265.32l1.32-5-.71.8c-2.88,3.23-.13,10.19,4.75,8.14l.94-.39a5.35,5.35,0,0,0,3.57-6.29c-.72-4.57-.66-9.64-2.06-14.05a3.92,3.92,0,0,0-7.5,0Z"/><path d="M4.79,297.14c-2.45,5.25-4.33,13.46,1,17.72,2.26,1.79,5.35,2.21,7.56,0a5.42,5.42,0,0,0,0-7.56c.26.46.3.52.1.19s-.16-.28.07.16a11.78,11.78,0,0,0-.29-1.31,12.18,12.18,0,0,1-.27-2.4,20.08,20.08,0,0,0-1.57-6.8c-1.1-2.58-5.5-2.45-6.64,0Z"/><path d="M5.62,334.09c-5,4-4,11.92-3.7,17.49.3,6,9.27,6.07,9.38,0a52.08,52.08,0,0,0-.49-7.38c-.24-1.87-.88-4.22.34-5.85,2.59-3.48-2.69-6.49-5.53-4.26Z"/><path d="M4.31,389.08a37.16,37.16,0,0,0,.07,10.16c.64,4.08.35,8.22.59,12.34.35,6,8.81,5.94,9.28,0a46.1,46.1,0,0,0-.18-11.5c-.63-3.71-1.76-7.23-2.16-11a3.8,3.8,0,0,0-7.6,0Z"/><path d="M4.55,432.05C-3.4,437.61,1,447.53,3.18,454.93c1.35,4.66,8.73,5.08,9.86,0,.79-3.56,0-6.77-1.38-10.06-.78-1.92-3-5.37-1.53-7.24,2.48-3.23-2.35-7.83-5.58-5.58Z"/><path d="M20.63,28.17a12.45,12.45,0,0,0,7.06-.66c1.94-.72,3.8-2,5.92-1.84a4.11,4.11,0,0,0,4.08-4.07c0-2.4-1.88-3.85-4.08-4.08A13.33,13.33,0,0,0,26.5,19c-1.64.78-3,2-4.89,1.9-4.14-.26-5.08,6.43-1,7.28Z"/><path d="M80.86,36.31c1.9.28,3.81.38,5.71.61,1.3.16,3.5.27,4.22,1,3.69,3.75,8.74-1.72,5.63-5.63-3.85-4.86-10.59-2.3-15.56-1.4-2.64.48-2.73,5,0,5.43Z"/><path d="M60.85,29.83l.21-.54L56.15,33c6.22.76,12,.87,18-1.19,5.44-1.87,5.86-9.78,0-11.48-4-1.16-6.84.44-10.63,1.18-3.42.67-6.92-.11-10,2-1.74,1.19-3.15,3.55-2.34,5.75l.2.54c1.73,4.67,7.64,4.56,9.41,0Z"/><path d="M108.93,23.35a9.22,9.22,0,0,1-1.37.47l5.52,2.25,0-.08c-2.37-4.25-8.71-4.1-11.12,0-2.62,4.48.82,9.3,5.56,9.69,2.93.24,5.54-.85,8.37-1.28,2.59-.4,5.24-.31,7.86-1,5.87-1.5,5.64-10,0-11.67a23.1,23.1,0,0,0-9.66-1c-2.88.38-5.41,1.82-8.28,2.31l7.92,4.49-.12-.29L113.08,31a8.08,8.08,0,0,0,.83-1.18c1.94-3-1.35-7.91-5-6.47Z"/><path d="M146.88,19.42c-.29.4-.3.43,0,.1.46-.55.27-.29-.57.76a5.73,5.73,0,0,0-.65,2.13,7.06,7.06,0,0,0,.2,3.26c.88,2.88,3.54,4.4,6.18,5.38a25.17,25.17,0,0,0,10.59,1.14,6.1,6.1,0,0,0,0-12.19c-2.19-.16-4.34-.08-6.53-.16-.38,0-2.06-.28-.52,0a13,13,0,0,1-1.63-.41c1.93.63-.18-.22-.2-.21a3.11,3.11,0,0,1,1,1,3.6,3.6,0,0,0-1-1.16l1.19,2a2.94,2.94,0,0,1-.17-.71c-.69-3.95-6-3.81-7.88-1Z"/><path d="M191.29,18.6a10,10,0,0,0,1,3.74c-.48-1.13-1.1-2.46-.12-.09a7.42,7.42,0,0,0,1.47,2.62c2,2.22,5.55,2.61,8.37,2.86a44.28,44.28,0,0,0,8.22-.14,44.06,44.06,0,0,0,4.87-.77c.6-.13,3.53-.6,1.54-.4,8-.83,8.28-12.2,0-12.65-3.77-.21-7.49.67-11.15,1.41-3.86.78-6.69-.13-10.14.7l3.61.47.84,1.1c-1.64-4.21-8.71-4.09-8.47,1.15Z"/><path d="M260.68,28.16c1.68-1.22,4.28-1.49,6.43-1.86a37.06,37.06,0,0,1,6.49-.77c5.95.11,7.62-9.7,1.44-10.68-7-1.1-15.69,1.83-20,7.66-2.42,3.28,2.37,8,5.64,5.65Z"/><path d="M300.6,23.42c3.81-.16,7.62.21,11.44-.3,4.4-.59,8.3-2.51,12.56-3.55C331,18,329.29,8.77,323.09,8.42c-5.2-.29-9.46,1.44-14.44,2.4-4.58.88-8.06.63-11.47,4.36-2.67,2.93-1,8.43,3.42,8.24Z"/><path d="M345,15l-.41.65c-1.72,2.7.13,5.61,2.7,6.64a17.8,17.8,0,0,0,9.3.57c2.79-.45,5.91-.64,8.58-1.56,5.21-1.79,6-10,0-11.39s-12.28,1.88-17.88,3.66l5.56,3.16-.22-.73A4.23,4.23,0,0,0,345,15Z"/><path d="M381.44,15.45l-.29.2a4.91,4.91,0,0,0-1,7.62c4.63,4.8,16,4.23,20.33-.76a5.58,5.58,0,0,0,.43-7.27,5.52,5.52,0,0,0-7.13-1.42c-1,.62,1-.12-.31.15-.55.11-1.06.29-1.61.39.85-.15-.24,0-.57,0-.64.06-1.27.14-1.91.24.41-.07.41-.08,0,0a46.57,46.57,0,0,0-7.07.55l6,6,.15-.29c2.61-4.39-3.37-8.88-7-5.39Z"/><path d="M419.66,16c-1.38,6.89,6.39,9.49,11.72,10.26a67.62,67.62,0,0,0,11.73.57,43.05,43.05,0,0,0,5.2-.42c.66-.09,4.17-.59,2.28-.37,7.55-.89,7.75-11.22,0-11.91a90.08,90.08,0,0,0-12.51.19c-2.66.13-5.31.39-8,.35-.75,0-2.57-.46-3.24-.06-1.28.76,0-1.44.65,1.39-.9-3.8-7.07-4-7.86,0Z"/><path d="M455.62,29.91a7.08,7.08,0,0,0,4.95,3.84c2.33.49,3.93-.59,6.11-.81,1.59-.16,3.25.54,4.9.41a11.2,11.2,0,0,0,7-3.28c4.53-4.27-1.67-12.8-6.81-8.83-.41.31-1.15.8-.17.52a5.92,5.92,0,0,1-1.57,0,25.73,25.73,0,0,0-4,.21c-2.19.32-4,2-6,2.25h2.61l.27.17c-3.74-3.81-9.62,1-7.22,5.56Z"/><path d="M497.35,30.57a45.56,45.56,0,0,0,26.95-1.24c7.73-2.88,4.39-15.39-3.44-12.47s-15.76,2.57-23.51,4.76a4.68,4.68,0,0,0,0,9Z"/><path d="M541,28.51c3.89,7.57,17.12,3.36,21.51-1.54,4.74-5.29-2.43-12.36-7.76-7.75,1.24-1.07.35-.23-.05,0s-.88.44-1.31.65c1.33-.64-2.59,1.12-1.57.66,0,0-1.53.71-.86.43a27.94,27.94,0,0,1-3.37,1l-.51.13c.5,0,.57,0,.2,0s-.31,0,.29.11a4.17,4.17,0,0,1,.94.54c-3.86-4.06-9.92,1.1-7.51,5.8Z"/><path d="M581.4,30.39c5.37.78,10.85,1.05,16.08-.73a5.28,5.28,0,0,0-1.4-10.31c-5-.25-9.8,1.63-14.68,2.45-4.21.71-4.3,8,0,8.59Z"/><path d="M611.17,23.1l-.07,1.24a4.66,4.66,0,0,0,2.34,4.09,11.21,11.21,0,0,0,9.12.65c2.56-.88,4.14-2.26,6.35-2.65,2.43-.42,3.93-3.25,3.6-5.5a5.08,5.08,0,0,0-4.93-4.35,15,15,0,0,0-7.5,1.76c-.64.3-1.8,1-2,1.09.51-.22-.85.16-.2.11-.68.05-1.36,0-2,.06L619.93,22l-.55-1.08c-2.1-4.16-8-1.83-8.21,2.23Z"/><path d="M641,17.74c-2.07,7.39,5.95,10,11.72,10.33a60.62,60.62,0,0,0,10.92-.86c1.89-.26,3.74-.61,5.6-1,.63-.13,3.91-.56,1.88-.44,6-.34,8.16-10,1.5-11.14-4.77-.82-9.6.77-14.23,1.84a64.89,64.89,0,0,1-7.68,1.44,14.54,14.54,0,0,1-3.23,0c-1.07-.14,0,.74-.24-.21-.67-3.22-5.42-2.95-6.24,0Z"/><path d="M687.58,31.39c5.6.68,10.91-1.5,16.44-2s11.06-.79,16.39-2.93c5.83-2.34,3.6-11.73-2.67-9.67-4.87,1.6-10,2.23-15,3s-10,3.74-15.14,4-4.77,7,0,7.59Z"/><path d="M26.68,458.08c-2.56,12.2,14.4,12.57,22,10.37,6.43-1.85,5.42-12.3-1.62-12-2.39.11-4.81.13-7.21,0l-1.88,0q-.6,0-1.2-.06c.74.12.74.11,0,0l-.51-.13c.71.35.76.38.17.06.65.55.74.6.29.14s-.4-.35.18.25c-2.29-4-9.27-3.45-10.29,1.35Z"/><path d="M92.11,458c4,.37,8,.92,12,.47,6.25-.7,6.27-9.05,0-9.75-4-.45-8,.1-12,.47a4.41,4.41,0,0,0,0,8.81Z"/><path d="M130.22,464.28c3.3,1.15,7.1,1.15,10.58,1.52a71.14,71.14,0,0,0,11.3.57c6.81-.34,6.83-10.25,0-10.59a72.34,72.34,0,0,0-11.3.56c-3.5.38-7.26.37-10.58,1.52a3.36,3.36,0,0,0,0,6.42Z"/><path d="M185.11,466.5a34.24,34.24,0,0,0,10.49,1.93c6.66-.13,7.88-9.53,1.56-11.51-4-1.24-7.88-2.23-12-1.27-5.6,1.28-5.1,9.31,0,10.85Z"/><path d="M219.52,470.37c4.66,7.5,14,4.28,20.94,3.13,5.62-.93,4.38-10.62-1.36-10a44.84,44.84,0,0,0-8.19,1.72c-2.08.62-4.49,1.53-6.51.32-3-1.81-6.77,1.83-4.88,4.87Z"/><path d="M264.18,475c2.43,2.78,5.25,2.94,8.65,3.52,3.86.66,7.29,1.62,11.27,1.41,6.93-.37,6.81-10.11,0-10.69-2.66-.23-5.28-.94-7.92-1.3-2-.26-5,.35-6.15-.53-4.64-3.43-9.24,3.7-5.85,7.59Z"/><path d="M317.7,479.33a18.89,18.89,0,0,1,4.13,1.86,10.62,10.62,0,0,0,6.94.63,4.45,4.45,0,0,0,3.07-5.42c-.69-2.54-3-3.41-5.42-3.08.36-.05-.41-.07-.41-.07.56.05-.43-.09-.53-.1-.9-.14-1.68-.25-2.22-.32a17.29,17.29,0,0,0-5.56,0c-3.28.57-3.16,5.84,0,6.51Z"/><path d="M350.3,485.27c7.27,1.17,13.71-1,20.75-2.41,6-1.15,4.72-11.39-1.46-10.77a47.75,47.75,0,0,0-9.25,1.81c-2.89.88-5.7,1.81-8.75,1.8-5.31,0-6.86,8.68-1.29,9.57Z"/><path d="M390.59,477.81c3,.3,6.22.92,9.26.78s5.79-1.25,8.74-1.58c6.79-.77,7.17-10.72,0-10.87a40.74,40.74,0,0,0-9.06,1.22c-2.92.59-6,.68-8.94,1a4.74,4.74,0,0,0,0,9.47Z"/><path d="M423.87,471.57a9.21,9.21,0,0,0,6.85,8.13,9.85,9.85,0,0,0,10.86-4c1.49-2.09.57-5.28-1.34-6.71a5.21,5.21,0,0,0-6.83.4c-.75.76.91-.38-.06.06-.45.2-1.16.33-.06.1-.17,0-1.22.37-.41.17s-.44,0-.63,0c-.64.06-.61,0,0,.1-.82-.18-.53-.37-.25,0l-.31-.17c.43.39.46.4.09.06l.26.33a4.07,4.07,0,0,1-.33-.66c-1.64-3.78-8.27-1.92-7.86,2.13Z"/><path d="M461.74,472.32c4.88,6.46,15.71,5,20.14-1.24,3.35-4.76-3.84-9.74-7.81-6-.87.82.52-.29-.17.09-.36.2-.71.42-1.08.6.61-.3-.32.13-.54.2-.45.15-.92.29-1.37.42s-.73.22-1.11.3c-1.73.36.36,0-.61.07-.31,0-1,.25-.51,0-.44.18-.53-.39.06.14a4.48,4.48,0,0,0-5.85-.34c-1.57,1.25-2.5,3.95-1.15,5.74Z"/><path d="M504.59,474.43c3.15-.42,6.1-1.54,9.26-1.91,3.4-.4,6.47-1.25,9-3.63,3.82-3.54-1.38-10.62-5.68-7.36-1.67,1.26-4.19,1.33-6.2,1.8-2.62.61-5,1.92-7.59,2.54-4.67,1.11-3.79,9.22,1.16,8.56Z"/><path d="M545.91,472.3c6,3.88,12.71,3.56,17.79-1.61,3.91-4-1.31-11.48-6.2-8-2.85,2-5,2.74-8.27,1.75-4.83-1.43-7.32,5.28-3.32,7.89Z"/><path d="M579.84,468.59c2.22.65,4.16,2,6.41,2.58a20.19,20.19,0,0,0,7.31.2c5.3-.62,9.86-1.63,13.26-6,3.74-4.85-3.2-9.48-7.51-7.5-2.61,1.2-6,1.39-8.78,2.05-3.36.79-6-.3-9.45-.5-5.38-.32-6.22,7.77-1.24,9.2Z"/><path d="M620.33,470.09c3.23.94,6.31,2.28,9.71,2.49a13.39,13.39,0,0,0,10.62-4.43c4.32-4.6-1.31-12.77-7-9-1.67,1.09-3.22,2.11-5.14,2.24-2.29.16-4.66-.34-6.95-.45-5.38-.28-6.23,7.76-1.25,9.2Z"/><path d="M662.24,470.41a28.82,28.82,0,0,0,9.08.17,16.38,16.38,0,0,0,8.1-4.16c4.73-4-1.39-11.77-6.59-8.54-3.18,2-7,2.18-10.59,2.86-4.69.89-4.88,8.94,0,9.67Z"/><path d="M693.58,462.67a34.9,34.9,0,0,0,11.8-1.35c5.32-1.35,4.3-9.89-1.3-9.67a37.07,37.07,0,0,0-5.94.72c-1.53.32-3,.91-4.56,1.11-2.46.32-4.6,1.88-4.6,4.59a4.69,4.69,0,0,0,4.6,4.6Z"/><path d="M711.58,460.18c4.25.36,8.49,1.05,12.76.47,3.91-.53,7.44-2.14,11.23-3.15,5.94-1.59,5-11.67-1.5-11.05a65.9,65.9,0,0,0-10.76,2.32c-3.85,1-7.78,1-11.73,1.19-6.62.39-6.53,9.68,0,10.22Z"/><path d="M745,446c7.39,4.56,16.39,6,24.93,5.39,4.51-.32,9.36-.22,13.74-1.39,4.71-1.25,9.22-4,13.27-6.6,5.24-3.39,2-12-4.33-10.28-4,1.09-7.67,2.74-11.56,4-3.52,1.17-7.4,1.31-11.08,1.74-7.54.86-13.8-.16-21-2.32-5.69-1.71-8.88,6.4-4,9.43Z"/><path d="M809.79,441.42c1.88.57,3.38,1.85,5.39,2.13s3.93-.19,5.89-.29c4.08-.2,4.13-6.29,0-6.37-1.7,0-3.42.21-5.11,0s-3-1-4.6-1.18c-3.66-.52-5.33,4.56-1.57,5.69Z"/><path d="M736.68,7.07a30.44,30.44,0,0,1-3.78-.87l1.24,9.43c5.87-2.81,13.17-1.2,19.43-2,2.77-.36,5-1.84,5.44-4.8.33-2.44-1.24-5.67-4-6.07-8.73-1.27-18.62-1.41-26.11,4-4.33,3.1-1.84,11.86,4,9.43a17.79,17.79,0,0,1,3.78-1c4-.77,4-7.26,0-8Z"/><path d="M788.07.08,786.68,0a4,4,0,0,0-3.9,3.9c0,3.84,2.39,5.51,5,7.82a10.64,10.64,0,0,1,3,6.88c.46,5.1,7.78,6.68,9.3,1.25,1.14-4.07-.19-9-2.69-12.34-2.14-2.87-5.59-4-8-6.36l-.79,6.12,1.2-.64c3.25-1.72,1.51-6.37-1.78-6.55Z"/><path d="M797.82,43.34c-6.65,5.77-1.66,14.61-1.59,21.75,0,5.1,7.07,4.76,7.68,0,.38-2.89-.42-5.89-1.17-8.67-.65-2.45-2.42-6.35-.42-8.57a3.19,3.19,0,0,0-4.5-4.51Z"/><path d="M795.91,80.45c-.49,3.41-1.33,7-1.16,10.42.14,3,1.32,5.76,1.71,8.72.7,5.35,8.36,7.37,10,1.36.94-3.37.22-6.6-.73-9.89s-1.07-7.13-1.54-10.61c-.56-4.14-7.72-4.11-8.32,0Z"/><path d="M798.2,129.59a13.88,13.88,0,0,0,.6,3.5c.12.41.21.82.31,1.23,0,.11.27,1,.15.42s-.07.72.06-.18c-.29,2,.49,4.28,2.72,4.78,1.91.44,4.38-.58,4.78-2.72a8.16,8.16,0,0,0-.6-5.46c-.25-.48-.55-.92-.83-1.37l-.41-.7c-.36-.59.08.35-.16-.4-1.1-3.54-6.71-3-6.62.9Z"/><path d="M799.41,151.08c-.57,2.76-1.59,5.46-1.26,8.32a11.73,11.73,0,0,0,1.12,3.76c.12.24.51,1.06.21.42a5.57,5.57,0,0,1,.57,1.75c.75,3.75,6.94,4.79,8.57,1.12a9.23,9.23,0,0,0-.25-8.9,7,7,0,0,1-1-2.12c-.31-1.43-.39-2.91-.65-4.35-.66-3.68-6.58-3.57-7.32,0Z"/><path d="M801.24,180.59a143.29,143.29,0,0,0,.61,22.5,4.22,4.22,0,0,0,8.44,0c.52-7.72-1.53-14.89-2.39-22.5-.48-4.2-6.37-4.36-6.66,0Z"/><path d="M802.52,217.54a9.38,9.38,0,0,0-2.3,8.76,14.35,14.35,0,0,0,.86,2.07c.16.37.94,1.95.13.22a19.83,19.83,0,0,1,.92,2.13c-.33-.87-.39-1-.19-.36q-.12-1.32-.09-.27c0,6.48,9.4,7.71,11.23,1.52a10,10,0,0,0-1-8.2c-.38-.61-.79-1.2-1.16-1.81-.17-.27-.48-1.19-.28-.36a1.85,1.85,0,0,1,.27,1.08c-.16.71-.16.75,0,.1a5.16,5.16,0,0,0-2.31-5.67,5.06,5.06,0,0,0-6.08.79Z"/><path d="M806.28,257.4c-.34,2.31-1,4.65-.74,7a11.61,11.61,0,0,0,1.09,3.73c.37.85,0-.12.15.42.05.22.08,1.08.09.54-.1,5.84,8.76,7.11,10.22,1.39.71-2.79.13-5-1.1-7.52a22.58,22.58,0,0,1-1.13-5.55c-.61-4.25-8-4.25-8.58,0Z"/><path d="M807.15,294.58a54.49,54.49,0,0,0,.58,17.7c.84,4.22,7.95,4.37,8.68,0,1.11-6.68-1.31-12.17-2.54-18.61-.79-4.13-6.28-2.57-6.72.91Z"/><path d="M807.2,345.58a40.3,40.3,0,0,0,0,13.33c.91,4.79,8.77,4.79,9.68,0a40.57,40.57,0,0,0,0-13.33c-.79-6.25-9-6.27-9.75,0Z"/><path d="M808.18,378.58c-.25,3.21.82,6.26.64,9.47-.21,3.95.83,6.87,4,9.29,3.56,2.68,8.18-2.47,6-6-1-1.59-.43-4.06-.73-5.92-.38-2.39-1.86-4.48-2.14-6.88-.57-4.92-7.39-5.08-7.78,0Z"/><path d="M37.63,61.6c-1.21,1.89-1,3.32-1.11,5.44-.12,2.49-.64,5-1,7.46-.6,4.8-1.39,8.82-.85,13.64.47,4.23-.42,8.46.07,12.72a68.69,68.69,0,0,1-.12,15.1l1-3.75c-1.49,3.52-1.36,6-1.52,9.69-.19,4.44.05,8.53,2,12.59,2.86,5.83,10.68,3.39,12.59-1.65,1.31-3.42.22-6.42.26-9.94,0-1.64-.06-3.24-.08-4.88,0,2,.5-1.66.54-2.06.78-6.69-.75-13.51-1.09-20.11-.3-5.74-.8-11.4-.26-17.06s.77-13.62-3.55-18.09a4.5,4.5,0,0,0-7,.9Z"/></g></g></svg>