<svg xmlns="http://www.w3.org/2000/svg" viewBox="0 0 288.89 139.97"><title>Asset 347</title><g id="Layer_2" data-name="Layer 2"><g id="Layer_1-2" data-name="Layer 1"><path d="M8.38,27.3c1.07-3.27-.34-5.87-4-5.93a2.75,2.75,0,0,0-2.68,2.69c-.53,5.67,1.43,11,1.84,16.65C4.08,47.46,1.5,53.78.42,60.35c-.87,5.35-.27,10.42.71,15.7,1.13,6.18,1.59,12.44,2.79,18.59,1,5,2.16,9.85,3.14,14.79.92,4.7,2.15,9.57,5.21,13.38s7.32,5.72,11.79,7.28c5.61,2,10.7,4.76,16.17,7,10.6,4.43,22.08,2,33.21,2.41,5.5.2,11,.66,16.54.26,6.33-.46,12.44-2.24,18.72-3,5.92-.67,11.93-.18,17.87-.72,6.44-.59,12.74-2.24,19.18-2.69a162.42,162.42,0,0,1,17.79.15c6.34.26,12.21,2.46,18.48,3.16,6.62.74,12.84-1.08,19.29-2.3,7-1.32,14.4-.61,21.47-.61,15.18,0,30-2.6,45.16-2.94,6.41-.15,6.43-10.15,0-10-12.64.32-25.09,2.92-37.73,3.06-11.71.12-23.41-.76-34.91,1.79-5.9,1.31-11,1.85-17,.51a84.65,84.65,0,0,0-16.52-2.34,140.94,140.94,0,0,0-17.8.14c-5.86.58-11.57,2.08-17.43,2.65-5.37.52-10.75.25-16.11.66-6,.44-11.73,2.09-17.65,2.91-11,1.52-22.49,0-33.57.48-6,.23-11.56.05-17.1-2.49-4.77-2.2-9.3-4.56-14.3-6.23-4.76-1.6-8.76-3.17-10.79-8.13-1.81-4.45-2.25-9.45-3.39-14.09-1.5-6.12-2.49-12.12-3.58-18.32C8.91,74.92,6.67,68.58,7.5,61.79c.76-6.2,3-12.18,2.77-18.5-.2-6.54-2.74-12.71-3.15-19.23l-2,2.59.29.65a1.54,1.54,0,0,0,2.94,0Z"/><path d="M2.4,38.48l-.71,1.78C.6,43,5.05,44.21,6.13,41.49c1.8-4.54.93-9.73,2.48-14.42,2-6.1,7.13-9.49,13-11.41,6.33-2.06,13-2.11,19.51-2.75,7-.69,13.75-2.89,20.74-3.1s13.59,1.58,20.36,2.5,12.77.33,19.36-.6c15.47-2.16,31.18-1.53,46.76-1.55,15.25,0,31,1.16,46.15,0,6.92-.54,13.06-1.38,20-.28,7.19,1.15,14.35.72,21.59.63,9.28-.12,19.18-2.12,28.38-.4,12.39,2.33,11.28,14.4,10.9,24.68-.5,13.72,4.17,26.46,4,40.12-.17,12.25-.43,28.8-8.86,38.59-4.07,4.72,2.84,11.63,6.86,6.86,8.31-9.87,10.17-23.32,11.06-35.78A115.1,115.1,0,0,0,288.5,65c-.64-6.53-2.86-12.74-3.58-19.25-1.38-12.49,3.66-28.53-6.19-38.67C271.71-.16,260.34,0,251,.55c-5.6.34-11.17.68-16.78.82-4,.11-8.08.33-12.12.19S213.93.35,209.77.08c-7.45-.49-14.91,1.37-22.38,1.34q-13.66-.07-27.31,0c-16.89.1-34-.58-50.85,1-7.83.74-15.57,2.69-23.46,2-7.7-.67-15.22-2.88-23-2.72-8.19.17-16.06,2.87-24.19,3.59C30.17,6,21.7,6.72,14.1,10.74A23.78,23.78,0,0,0,2.64,23.15c-2,5.18-3,13.1-1,18.34l4.44-1.23-.71-1.78a1.58,1.58,0,0,0-3,0Z"/></g></g></svg>