<svg xmlns="http://www.w3.org/2000/svg" viewBox="0 0 25.45 292.75"><title>Asset 421</title><g id="Layer_2" data-name="Layer 2"><g id="Layer_1-2" data-name="Layer 1"><path d="M12.53,5.26,12.62,5C14.3.89,7.13-2.17,5.33,2,2.25,9,4.76,16.86,5.73,24.25c.6,4.57.87,9.17,1.76,13.7,1,5,.42,9.85,1.81,14.84,5.29,18.93-1.92,39.09-1.84,58.26,0,5.57,0,11.15,0,16.72,0,5.12-1.7,10-1.79,15.09-.07,4.4.55,8.71-.13,13.09-.85,5.5-1,10.85-1.36,16.39S3.11,183.45,3,189c-.13,5.4.32,10.79.06,16.18-.23,4.78-1.42,9.45-1.42,14.25,0,5.42.1,11,.24,16.38.07,2.57.84,4.89,1.29,7.38a41.24,41.24,0,0,1,.21,8.24,96.17,96.17,0,0,1-1.7,17c-1.61,8.16-4.08,17.7,3.86,23.28,5.23,3.68,12.31-3.58,8.79-8.78-1-1.55-.48-4.47-.17-6.38.73-4.37,1.73-8.66,2.31-13.06a124.81,124.81,0,0,0,.84-13.8c.1-4.81-1.18-9.19-1.45-13.89-.56-10,.84-19.83,1.69-29.73.43-5,0-10.11.05-15.16,0-5.3.59-10.56,1-15.84.4-4.79.11-9.71.91-14.44a70.4,70.4,0,0,0,.88-14.5c-.15-4.63.9-8.56,1.47-13.1.66-5.25.22-10.74.22-16,0-10.32.18-20.51,2-30.7a100.8,100.8,0,0,0,.82-27.43c-.47-5-2.86-9.65-3.25-14.6C21.22,38.92,20,34.08,19.1,28.75c-1.44-8.34-3.79-19.36-6.48-25.83L5.33,6l.09.2C7,9.62,11.43,8,12.53,5.26Z"/></g></g></svg>