<svg xmlns="http://www.w3.org/2000/svg" viewBox="0 0 965.31 96.72"><title>Asset 426</title><g id="Layer_2" data-name="Layer 2"><g id="Layer_1-2" data-name="Layer 1"><path d="M6.5,39.51C1.92,42.6,1.31,48.36,1,53.47.36,61.56-.78,69,.81,77,2.35,84.84,9,90.66,16.71,92s15.62-1.09,23.44-1.39a96.06,96.06,0,0,0,12-1.07c3.34-.56,6-1.68,9.27-.71,8.13,2.39,16-.5,24.26-.47,7.58,0,15.89-1.08,23.38,0,3.41.5,6.69,1.41,10.17,1.52,4.72.17,9.49,0,14.22,0,8,0,16.18.78,24.19.33,8.61-.48,16.85.38,25.44.87,8.39.48,16.8.12,25.19.57,8.81.48,17.55,1.74,26.34,2.41,8.56.65,17.16.46,25.73.81,8.87.35,17.73.88,26.6,1.1,8.36.2,16.78.57,25.1-.25,7.47-.74,14.68,1,22.15,1,8,0,15.8-1.46,23.77-2,8.36-.59,16.76,0,25.13,0,17.68.09,35.5.57,53.17-.29,9.08-.44,18.19-1.29,27.29-1.14C472.06,93.4,480.46,95,489,95c8.39,0,16.51-.2,24.87.75s16.5-.72,24.86-.87c17.73-.32,35.07-1.91,52.72-3.47s35.46-2.27,53.17-3.66,35.55-2.87,53.45-3.14c17.52-.26,35.45-1.07,52.93.2,4,.29,8,1.15,12,1.25,4.48.1,8.91-.63,13.35-1.1,8.53-.91,17.23-.4,25.79-.4,17.38,0,34.94-.81,52.3,0,7.63.35,15.08,1.94,22.77,2,7.34,0,14.19-2,21.42-2.5s15.39-.59,22.54.6c4.12.69,7.6,1.31,11.78.67a57.86,57.86,0,0,1,9.75-.53c6.16.06,13.82-1.64,18.39-5.94,8.72-8.21-4.43-21.31-13.13-13.13,1.38-1.29-3.62.49-4,.53-2.41.22-6-.3-8.87,0-3.56.41-6,1.08-9.44.41a86.57,86.57,0,0,0-12-1.05,107,107,0,0,0-22.27.7,94.27,94.27,0,0,1-20.76,1.45c-7.23-.4-14.26-1.79-21.53-1.77-8.14,0-16.29,0-24.43,0-16.84,0-34.24-1.22-51,.76a68.14,68.14,0,0,1-11.59.77c-4.33-.22-8.62-1.1-13-1.34-8.23-.45-16.5-.19-24.74-.2-17.21,0-34.44,0-51.63,1-33.84,1.94-67.73,4.9-101.47,8.16-8.61.83-17.26,1.33-25.91,1.43-8,.09-15.81,1-23.77,1.34-7.55.35-15.07-1.38-22.67-1.23a201,201,0,0,1-24.91-.74c-17.17-1.79-34.29.79-51.49.78-16.56,0-33.14.21-49.7-.1a171.94,171.94,0,0,0-25.25,1.49,93.1,93.1,0,0,1-21,.48c-3.57-.34-7.06-1.09-10.67-.94-3.91.17-7.77.83-11.7.87-8,.09-16-.13-24-.42-16.74-.6-33.71-.43-50.37-2-8.16-.75-16.3-1.82-24.49-2.07-8.38-.26-16.75,0-25.12-.56-15.59-1.13-31.2-.88-46.85-.9H121.1c-3.75,0-7.16-.92-10.88-1.36-7.42-.88-15.21-.08-22.68-.07a75.09,75.09,0,0,0-12.18.69c-3.28.54-6.14,1.33-9.44.56-3.92-.9-7.25-1.37-11.25-.55-3.51.72-6.88,1.8-10.46,2.16-3.77.38-7.55.47-11.31,1-3.57.52-7.12,1.55-10.72,1.83-2.85.22-5.76,0-7.07-2.84-1.58-3.41-1.64-8.31-1.95-12C12.87,58.68,12.47,55.31,12,52c-.3-2.23-2.42-6-1.22-8.17,1.44-2.6-1.59-6.13-4.3-4.29Z"/><path d="M12.06,46.19c-.83-.19-.18-2.77.39-3.48,1.28-1.61,5.5-2.57,7.52-3,3.3-.7,6.66-.39,10-.31,4.44.11,9-.16,13.43.24,3.41.3,6.68,1.5,10.13,1.76a53.6,53.6,0,0,0,12.27-.5c7.54-1.21,15-.29,22.52-1.88,3.65-.76,7.17-1.66,10.92-1.7,4.62-.06,9.12.17,13.71-.49,3.62-.52,7.06-.63,10.7-.93,3.45-.28,6.6-1.61,10.08-1.53a46.91,46.91,0,0,0,10.71-.73c.69-.14,2.85-.8,3-.77,1.59.17,3.25,1.37,4.91,1.69,8.08,1.53,16.22,3.23,24.43,4.08,8.45.88,17,1,25.43,1.91,8.76.89,17.47,2.31,26.25,3.15,17.73,1.7,35.66.88,53.28,3.14,8.12,1,15.9-1,24-1.16,8.88-.17,17.77-.31,26.64-.79,17.76-1,35.54-2.56,53.26-4.08,8.69-.75,17.38-1.59,26.05-2.64s17.17-.53,25.71-1.69c7.95-1.08,16-2.73,24-3.28,8.56-.59,17-1.11,25.55-1.95,4.36-.42,8.74.23,13.1-.19,3.94-.39,7.81-1.21,11.78-1.35,8.72-.32,17.38-.41,26.09-1.17,8.51-.74,17-2.69,25.51-3,4.33-.17,8.67.07,13-.31,4.1-.35,8.14-1.27,12.25-1.44,17.23-.71,34.66,0,51.91.06l53.51.06c8.41,0,16.74.95,25.13,1.36,8.74.42,17.43-.24,26.14-.8,8.38-.52,16.66-.13,25-.3a84.66,84.66,0,0,0,11.66-1.37,28.81,28.81,0,0,1,10.39.52c8,1.48,17.46,1.38,25.54.61,3.82-.36,7.5-1.46,11.35-1.42s7.84.43,11.77.05c8.35-.83,16.7-2.1,25.08-2.76,3.9-.31,7.8-.09,11.69-.54,4.4-.51,8.57-1.27,13-1.39,8.53-.22,17.06,0,25.59.12,7.19.11,15-.8,22.11.88,5.95,1.41,8.22,4.36,8.52,10.36.32,6.46,1.53,14.11.28,20.44-.65,3.31-1.54,6.41-1.69,9.83-.05,1.13,0,2.27-.07,3.4.38-5,0,1.17,0,1.32-.08.53-.76,1.4-.19.56-6.33,9.52,9,18.4,15.3,8.94,3.55-5.35,1.9-12,3.39-17.85,2.06-8.11.95-16.32.77-24.57-.15-7.47-1.4-14.89-6.36-20.75C953.14,4.2,945.05,1.76,937.11.83c-8.35-1-17-.45-25.37-.58-9.28-.14-18.81-.67-28,.45C875,1.76,866.22,2.13,857.47,3.26,849,4.35,840.32,5.3,831.82,5a66.68,66.68,0,0,0-12.69,1.11c-4.25.63-8.56.32-12.86.34-4,0-7.76.21-11.65-.57a39.54,39.54,0,0,0-14-.48c-8.76,1.26-17.14.91-25.95,1.15-9,.25-18,1.29-27,1.45s-18-1-27-1.33c-9.24-.37-18.54-.09-27.79-.09q-28.9,0-57.8.06c-9.05,0-18.26-.49-27.28.08-4.11.26-8.15,1.17-12.26,1.47-4.64.34-9.31.05-13.95.37-9.21.61-18.31,2.57-27.53,3.3-9,.73-18.26.24-27.25,1.34-18.27,2.23-37,1.33-55.21,4.3-8.37,1.36-16.68,2.95-25.2,2.89C417,20.33,407.61,22,398.23,23c-18.64,1.89-37.34,3.06-56,4.71-9.5.84-19,1.31-28.55,1.61-4.48.15-9,.09-13.48.52s-8.61,1.56-13,1.56-8.42-1-12.65-1.4c-5.15-.44-10.39-.07-15.55-.14q-14.3-.19-28.57-1.38c-9.44-.78-18.79-2.22-28.21-3.1-9.09-.85-18.23-.88-27.3-1.88a128,128,0,0,1-22.91-4.56c-3.62-1.12-7.19-.34-10.79.44-4.28.93-8.55.09-12.86.83-7.44,1.29-15.11,2.79-22.71,3-4.27.1-8.41-.06-12.64.6s-8.36,2.16-12.6,2.59c-3.87.39-7.68-.37-11.57.19-4.3.62-8.29,1.64-12.68,1.74-3.86.08-7.41-1-11.23-1.31-4.35-.35-8.82.07-13.19.13-10.48.15-33.1,2.05-29.89,18,.91,4.54,4.08,8.83,9.19,8.27,3.82-.41,5.31-6.15,1-7.18Z"/></g></g></svg>