<svg xmlns="http://www.w3.org/2000/svg" viewBox="0 0 939.02 39.21"><title>Asset 424</title><g id="Layer_2" data-name="Layer 2"><g id="Layer_1-2" data-name="Layer 1"><path d="M14.76,29.58l.3-1.31-9.4,5.34c2.48.57,4.6,2.51,7.18,3.13,3.14.75,6.28.29,9.4,1.1a20.93,20.93,0,0,0,9.15.2c3.78-.62,7.56-.34,11.38-.23,7.82.21,16,1,23.76.28,3.44-.3,6.78-1.25,10.24-1.32,4.14-.07,8.31.13,12.45.17,8,.06,16,.05,24,.13,3.51,0,7,.15,10.55-.16s7-1.37,10.52-1.68c6.95-.61,14.14.51,21.11.54,8.17,0,16.34.11,24.5.14q5.88,0,11.77,0c4.19,0,7.95.87,12.09,1.41a66.67,66.67,0,0,0,10.48.08c3.34-.08,6.46.67,9.75,1.14,8.16,1.17,16.52.42,24.74.54a191.24,191.24,0,0,0,23.2-1.28c7.69-.81,15.5-.45,23.23-1.29s15.69-2,23.58-2.58,16-.2,23.94-1.07c6.9-.75,14.19,0,20.9-1.85,6.22-1.74,12.92-1.63,19.3-1.94,3-.14,5.23-1.5,8.05-1.07a85.06,85.06,0,0,0,12.75,1c16,.08,31.73,3.53,47.54,5.31,7.32.82,14.85,2.19,22.21,2.27,3.82,0,7.69.25,11.5,0,3.57-.23,7.07-1.15,10.62-1.44,8-.66,16.18-.27,24.2-.66s16.27-.81,24.41-.83c16,0,32,.51,48,0,15-.5,30.07-2.87,45-4.79,7.29-.94,14.84-2.79,22.19-2.66S674,24.7,681.45,24.82c7.07.11,13.8-1.69,20.91-1.38,7.57.34,15,.69,22.5-.42,8-1.19,15.55-.42,23.54.32,7,.64,14.21,2.26,21.23,1.39,3.36-.41,6.69-1.17,10.07-1.29,3.8-.14,7.6.21,11.4.12a37.39,37.39,0,0,0,6.24-.63,15.48,15.48,0,0,1,2.29-.53c-.65,0-1.21.16.19.4,4.7.81,8.37-.14,13-.28,3.08-.09,6.37.93,9.52,1,4.21.11,8.42-.09,12.63-.07,8.14,0,16.27.16,24.41.25,8.46.08,16.92.11,25.38-.09,7.12-.16,13.82-1.8,20.94-1.64,7.6.17,15.11-.15,22.71.1,14.17.46,14.19-21.71,0-22-7.59-.17-15.12.18-22.71,0-7.13-.15-13.88,1.51-20.94,1.68-16.27.42-32.54,0-48.82-.07-3.88,0-7.77.1-11.66.11-4,0-8.1-1.07-12.11-.88-2.91.14-5.48,1-8.34.64a33.33,33.33,0,0,0-7-.48c-1.64.16-3.25.63-4.87.79-3.46.33-7-.16-10.49-.13-4.4,0-8.69.92-13,1.49-6.51.84-13.53-.9-20-1.49C740,1,731.89.18,723.47,1.5c-6.77,1-13.42.78-20.27.47-7.09-.32-13.8,1.4-20.81,1.4-7.49,0-14.74,1.58-22.21,1.42S645.41,6.46,638,7.36,623.3,9,616,10c-15.38,2.09-30.49,2.47-46,2.49-16.15,0-32.25,0-48.38.8-8.15.41-16.28.54-24.44.75-3.73.1-7.33.92-11,1.38a80.3,80.3,0,0,1-10.86.16c-7.46,0-14.9-1.27-22.32-2.06-7.95-.84-15.91-2.05-23.86-3s-15.61-2.3-23.63-2.39c-7.62-.09-15.06-1.68-22.57-.24-3.06.59-6.27.29-9.46.76-3.57.53-7.09.9-10.66,1.37-2.78.37-5.4,1.5-8.16,1.58a114,114,0,0,0-11.51.64c-7.13.9-14.36.57-21.53,1.06-8,.55-15.84,1.68-23.76,2.64-7.75.93-15.41,1.27-23.2,1.56-3.84.15-7.58,1-11.38,1.42a90.66,90.66,0,0,1-11.77.23c-7.95-.09-16.18.79-24.09,0-3.31-.33-6.57-1.17-9.91-1.42-3.62-.28-7.24.5-10.85.23-3.45-.25-6.8-1.36-10.27-1.6-4.17-.3-8.44,0-12.62,0-8.16,0-16.33,0-24.5,0-7.51,0-15.05-.62-22.55-.5C129.65,16,123,18,115.88,18c-7.93.06-15.86.17-23.79.25S76.16,18,68.3,19.44c-7,1.32-14.56.57-21.7.77-3.76.1-7.55.08-11.31.34a43.43,43.43,0,0,0-5.79.73c-.85.17-1.7.44-2.55.66-2.12.54,1.36.41-.35.09a76.81,76.81,0,0,0-9.4-.76c-2.63-.16-4.81-1.95-7.48-2.39C6,18.27,1,19.81.33,24.21L.12,25.54c-1.52,9.44,12.43,13.75,14.64,4Z"/></g></g></svg>