<svg xmlns="http://www.w3.org/2000/svg" viewBox="0 0 29.37 471.98"><title>Asset 410</title><g id="Layer_2" data-name="Layer 2"><g id="Layer_1-2" data-name="Layer 1"><path d="M13.74,1.14,12.86.77c-2.81-1.19-5.47-1.11-7.81,1-2.77,2.5-2.74,6.6-3.17,10L4.05,6.54a8.17,8.17,0,0,0-2.21,3.64,19.43,19.43,0,0,0-.32,3,7.8,7.8,0,0,0,5.69,7.48A8.05,8.05,0,0,0,16,17c2.15-3.39,3.34-7.09,2.24-11.11-1.05-3.77-5.72-7.08-9.7-5.5a12.51,12.51,0,0,0-5.2,3.25C1.13,6.14-.2,9.46.65,12.75A10.08,10.08,0,0,0,13,19.86,8.08,8.08,0,0,0,10.85,4c-.44,0-.9,0-1.34,0l4,1.1c-.73-.36-.45,0,.85,1A3.79,3.79,0,0,1,16,8.52v4.23c.22-.8.08-.51-.43.85.3-.49.23-.41-.22.23a3.54,3.54,0,0,1-1.45,1.34,4.07,4.07,0,0,1,.66-.33L3,10.13a3.09,3.09,0,0,1,.24.95L3,9a3.79,3.79,0,0,1,0,.95l.28-2.09A3.5,3.5,0,0,1,3,8.56c-.19.55-.09.32.3-.71,0,0-.71,1.31-.74,1.36L17,13.13a8.51,8.51,0,0,0-2.49-6.59l1.9,3.27c-.08-.45-.17-.9-.25-1.34-.05-.23-.09-.45-.13-.68-.09-.54-.06-.3.09.73a7.64,7.64,0,0,0,0-1.34,13,13,0,0,0-.28-2.56L14.17,10.9l.73-.77c2.25-2.38,2.38-7.48-1.16-9Z"/><path d="M15,32.06l-1.09-.15c-2-.27-4.19.16-5.22,2.13-.28.52-.59,1-.92,1.51.63-.95-.11.08-.26.25a16.24,16.24,0,0,0-2.4,3,10,10,0,0,0,1,10.69c1.62,2.23,4.82,4.37,7.76,3.16,3.91-1.62,6.94-4.22,8.11-8.44a11,11,0,0,0-2.65-10.9C15.61,29.9,10.21,30,6,32.4a8.77,8.77,0,0,0-4,10c.93,3.37,3.78,5.55,7,6.58A7.2,7.2,0,0,0,17,45.68,7.43,7.43,0,0,0,15.89,37a4.8,4.8,0,0,1,1.3,3.28,2.64,2.64,0,0,1,0-.93l-3.84,6.69a9.7,9.7,0,0,1,1-.51c-1.14.47-1.34.57-.61.31l.36-.09a5,5,0,0,1-2.82,0A5.69,5.69,0,0,1,8,43.23c.36.64.23.3-.4-1,.12.52.12.39,0-.39s-.11-.92-.08-.36c0,.76,0,.44.16-1-.25,1.27-.46-.1.27-.38a5.52,5.52,0,0,0-.6,1c-.45.93,1.18-1.13-.19.1l8.33-1.08c.38.35.42.37.12.09s-.27-.24.27.37a3.72,3.72,0,0,1,.49,1.69c0,1.51-.13.71.05.11.1-.32.21-.64.31-1a10.71,10.71,0,0,0,.41-6.26L15,40.37l1-.69a4.21,4.21,0,0,0,2-4.15c-.22-1.46-1.37-3.25-3-3.47Z"/><path d="M19.24,80.87c-1-.29-1.51-1.11-2.17-1.92a10.58,10.58,0,0,0-3.22-2.73C10.21,74.28,6,76,4,79.34.85,84.58,1.45,92.8,7.1,96.1c5.11,3,10.72-.09,13.34-4.79a19.43,19.43,0,0,0,2-13.45c-1.73-7.73-9.8-10.62-16.54-7.19C1.39,73,.65,79.85,4.27,83.2a20.66,20.66,0,0,1,1.48,1.48c4.29,4.88,12.21.83,12.32-5.1a17.52,17.52,0,0,0-.46-4.14L12,85.26c.3-.1.74-.15,1-.28,1.09-.51-2,.13-1,.1s-1.77-.39-2.12-.51a5,5,0,0,1-1.68-1.1c.81.81-.68-.91-.7-.94.6.91-.4.3-.33-.92,0,.25.5,2.48.27.69-.22-1.62,0,.44,0,.9s0,.67-.06,1c0,1.26.35-2,.09-.7-.1.53-.16,1.06-.3,1.58-.07.28-.21.57-.26.86-.19,1.1.78-1.66.3-.72-.76,1.5.49-.45.83-.71a5.37,5.37,0,0,1,4.41-.9,3,3,0,0,1,1.92,1.13c-.76-.74.78,1.24.35.51-.13-.22.33,1.43.09,0-.14-.82-.12-.71-.06,0,0-.49,0-1-.07-1.47-.09-1.59,0,1.26.08-.21,0,.63-.52.74,0,.13q.69-1.25-1.7,1.31L12,85.19s2.22,1.07,2.44,1.18a10,10,0,0,0,3.9,1c3.81.27,4.43-5.56.89-6.54Z"/><path d="M15.75,118.34l-.62-.38,2.15,3.74a15.3,15.3,0,0,0-.26-2.78c-.37-2.48-3.13-4.34-5.38-4.64a6.45,6.45,0,0,0-6.45,3.09,11,11,0,0,0-.9,2.26c-.18.61-.72,1.14.25-.46a21.51,21.51,0,0,0-1,2.16c-1.48,3.28-2.06,6.46-.4,9.85a9.51,9.51,0,0,0,3.6,3.71,8.33,8.33,0,0,0,8.44,0A14.28,14.28,0,0,0,20.8,129a12.66,12.66,0,0,0,.3-11.55,10.56,10.56,0,0,0-8.19-5.65,10.49,10.49,0,0,0-10.46,4.69A10.13,10.13,0,0,0,1,122c.1,3.33,1.93,5.72,4.59,7.49,3.07,2.05,8.57.85,10.13-2.66.37-.83,1.38-1.94,1.28-2.82.11-.4,0-.21-.27.56a3.23,3.23,0,0,1-.8,1.34c-.56.67-.66.82-.31.42l-1.26,1s-2.19.72-1.22.52l-1.64.22c.56,0,.38,0-.52-.11-1.84-.24.4.35-1.25-.31A5.32,5.32,0,0,1,7,125.26c0-.11-.63-2-.43-1,0-.11-.18-2.14-.2-1,0-2.25.29-1.48.07-.78a7.49,7.49,0,0,0-.23.77c-.18.85.93-1.63.23-.58a3.23,3.23,0,0,0-.4.66c.07-.34,1.3-1.4.37-.58-.58.51,1.66-1.09.61-.56l5.74-.75q-1.89-.57,2.08,1.34a4.06,4.06,0,0,1,1.08,1.68,3.71,3.71,0,0,1,.47,2c0-.51,0-.39-.09.34-.22,1.49.05,0,.12-.36s.19-.67.28-1c.73-2.55,1.37-5.69-.33-8l-7.31,9.51.35.1a6.17,6.17,0,0,0,6.07-1.6c.56-.64,1.1-1.23,1.61-1.91,1.22-1.64.25-4.18-1.34-5.13Z"/><path d="M24.26,159.24c-1.25-2.42-2.47-4.67-4.68-6.38-4.46-3.45-10.07-2.48-14.16,1a12,12,0,0,0-3.73,11.7,11.2,11.2,0,0,0,8.67,8.22,8.23,8.23,0,0,0,4.88-.38,7.19,7.19,0,0,0,3.59-3.07,7.81,7.81,0,0,0-1.17-9.09c-.85-.93,1.07,1.83.29.21l.81,1.93a10.62,10.62,0,0,1-.54-1.74l.3,2.25a6.86,6.86,0,0,1-.06-1.5l-.3,2.27a4.16,4.16,0,0,1,.25-.9l-.86,2a5.44,5.44,0,0,1,.51-.83l-1.34,1.73a5.58,5.58,0,0,1,.79-.75l-1.73,1.33a6.26,6.26,0,0,1,1-.56l-2.05.86a2.31,2.31,0,0,1,.57-.16l-2.28.31a1.82,1.82,0,0,1,.52,0l-2.28-.3a1.43,1.43,0,0,1,.46.13l-2-.86a2.22,2.22,0,0,1,.42.25l-1.73-1.34a5,5,0,0,1,.56.57l-1.33-1.73a21.93,21.93,0,0,1,1.88,3.43c2,4,8,5.49,11.73,3.08a8.78,8.78,0,0,0,3.08-11.74Z"/><path d="M10.34,185.63a5.79,5.79,0,0,0-1.87,1.54l1.91-1.11c-5.18,1.34-6.16,6.78-6.33,11.41-.18,4.89,1.47,10.58,6.71,12.12,7,2,12.59-4.46,12.37-11s-3.53-12.37-9.52-14.87c-3.59-1.5-8.1,1-10,4.05a30.86,30.86,0,0,0-2.43,5.09c-1.2,3.1.6,7,3,8.87s6.74,2.68,9.37.66a18,18,0,0,0,5.27-5.72l-10,4.06a4.37,4.37,0,0,1-2.13-1.13c-.68-.56-.76-.62-.25-.17a5.79,5.79,0,0,1,.48.51c.41.47.23.24-.54-.71,0,0,.67,1.11.71,1.18.9,1.52-.23,0-.05-.19a7.17,7.17,0,0,1,.27,1l-.18-1.15a4.57,4.57,0,0,1,1.36-3.14l4.11-1.65a4.84,4.84,0,0,1,3.43,1.16,3.75,3.75,0,0,1,1.2,1.24c-.24-.48-.23-.44,0,.12.6.37.07.26-.07-.41-.09-.46-.2-.93-.3-1.4.37,1.62-.07-1-.08-1.58a14.76,14.76,0,0,0-.28-3.75c-.32-1.19-1.35-1.76-1.68-2.78.1.31.82,1,.33.19l.44,3.34c.23-1.13-.16,0,.08-.31,2.59-3.51-2.25-7-5.45-5.45Z"/><path d="M24.11,238.46c-1.12-1.77-3-3.2-3.69-5.19-.86-2.57-3.69-4.67-6.5-3.69-4.41,1.54-7.26,6.26-8.34,10.63C4,246.45,6.42,253,12.85,255.14c3.64,1.23,7-.92,9-3.68,4.57-6.09,4-14.81-2.22-19.59-2.82-2.18-6.38-3.31-9.89-2.16-5.64,1.85-7.24,7.06-6.34,12.4.5,2.95,3.67,5.14,6.39,5.51A7.8,7.8,0,0,0,17.49,244c-.66.73-.71.83-.15.32a6.83,6.83,0,0,1-7.79,1c-1.08-.91-1.29-1.06-.64-.45-.78-1.1-.93-1.29-.44-.56s.36.51-.08-.45c.28,1,.29.95,0-.19A2.48,2.48,0,0,1,8.82,242c-.23.46-.49.92-.76,1.37l9-3.68c-.84-.18-2.36-.87-.09.39a3.34,3.34,0,0,1,1.89,1.51c.39,1,.49,1.27.32.73-.54-1.65-.16,1.15-.1-.28,0-.52,0-1,0-1.56,0-1.65-.28,1.28.06-.34.11-.49.17-1,.3-1.48s.26-.86.4-1.28c-.6,1.81.3-.75.51-1.3l-6.5,3.69c1.94.74,3.59,1.1,5.18,2.55,2.58,2.36,7-.67,5-3.86Z"/><path d="M10.6,293.82c1.28-1.33,2.68-2.15,3.65-3.9a5.69,5.69,0,0,0-1.46-7.31c-2.07-1.55-5.62-1.77-7.44.44-4.12,5-1.74,11.4,3.34,14.69a6.65,6.65,0,0,0,6.67,0c6.19-3.4,8.57-12.18,4.91-18.23-4-6.58-13.75-7.71-18-.84-2.61,4.22-2.22,10,.27,14.2A11.23,11.23,0,0,0,9.6,298c4.15.94,7.69-.77,10.79-3.4,2.7-2.3,2.57-6.76.56-9.36-2.33-3-5.88-3.28-9.19-1.83,2.15-.94-1.27,0,.4-.18,1.5-.19.4,0,.18-.05-1.23-.19.85.2,1,.23-1.47-.34,1.29.66.58.26,1.61.91,1.35,1.12.84.59s1.14,1.54.69.88a4.36,4.36,0,0,1-.33-.6c0,.08.57,1.89.45,1a2.64,2.64,0,0,0-.15-.55c-.36-.81,0,1.38.11,1a4.13,4.13,0,0,0,0-1.27c0-.05-.29,2.14-.15,1.19,0-.18.2-.47.17-.63-.07-.33-.65,1.39-.48,1.12s.53-.75-.28.26a4.54,4.54,0,0,1-2.64,1.79,4.41,4.41,0,0,1-2.88-.18c-1-.32.37.43-.47-.31q-.75-.63-.12,0L8,287.15c.53.77-.14-.33-.23-.61.39,1.17.07-1.29,0-.45,0,.35.07,2.17,0,1-.05-1.54,0,.42-.16.32s.84-1.32.19-.48.9-.57.23-.2a8.8,8.8,0,0,0-.72.65l8-1q-1-.57-.27.06a1.75,1.75,0,0,1,.36.81,5,5,0,0,0-.37-1.13,12.63,12.63,0,0,0-.83-1.88l-9.78,5.72c.35.56.44.62.26.17v-2.41c-.15.8-.41,1.56-.63,2.35-1,3.7,3.78,6.63,6.5,3.79Z"/><path d="M19.87,320c-.07-.05-.77-1.29-.1.34-.15-.38-.09-.88-.2-1.28a5.48,5.48,0,0,0-1.41-2.46,5.43,5.43,0,0,0-6.54-.72c-2.68,1.51-4.34,4.92-5.3,7.73-1.79,5.17-3.18,12.89,1,17.25,3.08,3.18,8,3.05,11.61.92,4.08-2.42,5.41-7.41,5.68-11.82s-1.21-9.78-5.27-12.29A9.88,9.88,0,0,0,5.31,321.1C2.59,325.93,4,332.7,8,336.35c5.34,4.88,14.61,4.07,17.87-2.78,2.83-5.93-3.14-13.33-9.49-9.49.87-.53,1.84.54.69-.17a5.18,5.18,0,0,1,2.72,2.94c-.35-1,.06,0-.06.4.31-1.09,0,.11-.15.41q-3.26,5.91-7.48,3.29A2.62,2.62,0,0,1,10,329.83a1.46,1.46,0,0,1-.48-.76c-.19-.49-.22-.52-.09-.08.1,0,.28,1.62.17.6s-.13,2.33,0,1.41-.13.44-.16.6c-.15.7-.51.73-.06.45.21-.13,2-2.06,1.49-1.8a8.44,8.44,0,0,1,4.67.32c1.2.63,1.05,1,1.86,1.75.44.4.05.19-.09-.5s-.08-.34,0,.16c0-.37-.07-.74-.08-1.1,0-.74,0-1.48,0-2.22s.07-1.34.1-2c0-.29.06-.57.08-.86,0,.18-.22,1.21-.07.5.11-.49.19-1,.29-1.45a5.9,5.9,0,0,0,.35-1.62c-.14-.69.74-.06-.43.21-.68.63-.69.67,0,.13.94-.63.59-.6-1.06.09-.66.61-1.26.71-1.79.3-.36-.24-.33-.2.1.11a5.18,5.18,0,0,0,2.91,1.4c3.28.56,5.28-3.55,2.31-5.48Z"/><path d="M18.67,377c1.37-2.55,1.8-5.51.17-8.06a7.64,7.64,0,0,0-9.35-2.62c-6.91,2.92-7.58,12.3-3.52,17.84,2.28,3.11,6.42,4.95,10.05,2.64,3.89-2.48,7.14-5.78,7.17-10.72a14.65,14.65,0,0,0-5-10.43c-3.06-2.71-7.09-4.52-11.23-3.31a9.67,9.67,0,0,0-6.57,6.45,13.7,13.7,0,0,0,0,6.82,7.73,7.73,0,0,0,7.41,5.64c3.24-.14,6.71-2.26,7.42-5.64,0-.1.18-1.17.32-1.22s-.86,1.93-.39,1.05a6.29,6.29,0,0,1-6.36,2.89c-1.71-.25-.77-.14-.39,0,1,.33-1.57-.89-1.1-.46a3.7,3.7,0,0,0,.61.38c1,.53-1.46-1.41-.71-.53.16.18.36.36.53.53,1,.95-.69-.85-.62-.85s.45.77.56.93c.58.85-.53-1.72-.22-.48.14.6.13.48,0-.34a3.86,3.86,0,0,1,.07-2.13c.15-.43,1-1.69.28-.74-.49.61,1.39-1.47.3-.41-.34.34-.67.71-1,1.05H17.51c-.28-.24-.82-1-1.14-1.14.62.83.78,1,.48.58a6.42,6.42,0,0,1-.34-.56c-.69-1.11.43,1.44,0-.16q-.15-.76.12.72c-.2,1-.22,1.17-.06.47a2.21,2.21,0,0,1-.75,1.23l1-1.24c-.58.69-.67.82-.26.38a3.25,3.25,0,0,1-1.44.88,3.44,3.44,0,0,1-3.17-.73,1.52,1.52,0,0,1-.43-.83c.12.44.13.51,0,.2.19,3.62,5.27,5.48,7.16,1.94Z"/><path d="M15.48,415.7c.27-.35.53-.71.79-1.08,1.9-2.71.58-7.13-2.27-8.63s-7.19-.95-8.63,2.26C4.12,411,4.28,413.62,5,416.53a17.22,17.22,0,0,0,2.23,5.37c1.77,2.68,4.48,4.71,7.82,4.72,3.57,0,6.38-2.22,8.19-5.13a11.79,11.79,0,0,0-3.95-16.41c-6.8-4-16.67.29-16.79,8.7a7.19,7.19,0,0,0,2.91,5.79,7.62,7.62,0,0,0,6.44,1.32l.87-.14c5.1-.84,6.72-8.33,3.06-11.59l-.67-.6V419a7.31,7.31,0,0,0,1.12-1.29c1.86-2.42-.81.92.08,0,.68-.71-.8.56-.85.6.26-.2,1.2-.6-.16,0-.71.26-.88.35-.52.24.62-.16.16-.1-1.36.16h.54c-2.31-.12-1.76-.3-1.09-.1s-1.87-.93-.94-.38-1.33-1.2-.74-.61c.23.24.66.78-.12-.25s-.25-.36-.12-.06c-.09-.21-.6-2-.4-.84.12.7-.09-2.16-.12-.93,0,1,.13-1,.17-1s-.24.79-.26.86c-.18.82.78-1.59.19-.54-.46.82.57-.7.61-.75-.34.32-.22.23.37-.27a2.72,2.72,0,0,1,1.2-.71,5.29,5.29,0,0,1,3.65-.31c-.1,0,1.84.87,1.12.46s1,1,.77.58c0-.05-.46-.41-.43-.46s1,1.54.57.72c-.11-.21-.26-.41-.39-.62s-.89-1.89-.4-.69-.09-.28-.19-.62c0-.1-.43-1.26-.33-1.33s.19,1.81.14,1a9.25,9.25,0,0,0-.3-2.1L6.36,415.9c.25.29.5.58.74.88a5,5,0,0,0,4.48,1.47,5.54,5.54,0,0,0,3.9-2.55Z"/><path d="M23.32,457.56a18.24,18.24,0,0,0-.34-5.42,5.27,5.27,0,0,0-6.33-3.59c-5.55,1.11-9.42,7.28-9.24,12.69.23,7.26,6.6,13,13.82,9.87,5.44-2.36,8.36-8.87,8.13-14.61s-4.82-11.18-10.51-12.17c-5.32-.93-11.07,3.31-9.23,9.22a10.65,10.65,0,0,0,2.85,4.74s3.18,2.21,3.17,2.33-1.32-1.41-.6-.45l-1.4-2.37c-.07-1.11-.09-1.33-.05-.65,0,.23,0,1.88.06.71s-.15.6-.2.81-.38,1.28-.39,1.28c-.17-.08.54-1.07.6-1.15,3.16-4.23,5.56-.5,7.16,1,.4.4-.08-.68-.06-.17,0,.75-.1.7.07-.05a10.9,10.9,0,0,1,.36-1.39c.09-.23.9-1.54,1.27-2.12l-7,1.85,1,.44c.37.16.41.18.12.08,1.42,3.45,6.7,3.26,6.81-.92Z"/></g></g></svg>